<svg width="20" height="28" viewBox="0 0 20 28" fill="none" xmlns="http://www.w3.org/2000/svg">
<path d="M8 6C6.41775 6 4.87103 6.46919 3.55544 7.34824C2.23985 8.22729 1.21447 9.47672 0.608967 10.9385C0.00346629 12.4003 -0.15496 14.0089 0.153721 15.5607C0.462403 17.1126 1.22433 18.538 2.34315 19.6569C3.46197 20.7757 4.88743 21.5376 6.43928 21.8463C7.99113 22.155 9.59966 21.9965 11.0615 21.391C12.5233 20.7855 13.7727 19.7602 14.6518 18.4446C15.5308 17.129 16 15.5822 16 14C16 11.8783 15.1571 9.84344 13.6569 8.34315C12.1566 6.84285 10.1217 6 8 6ZM8 16C7.60444 16 7.21776 15.8827 6.88886 15.6629C6.55996 15.4432 6.30362 15.1308 6.15224 14.7654C6.00087 14.3999 5.96126 13.9978 6.03843 13.6098C6.1156 13.2219 6.30608 12.8655 6.58579 12.5858C6.86549 12.3061 7.22186 12.1156 7.60982 12.0384C7.99778 11.9613 8.39991 12.0009 8.76537 12.1522C9.13082 12.3036 9.44318 12.56 9.66294 12.8889C9.8827 13.2178 10 13.6044 10 14C10 14.5304 9.78929 15.0391 9.41421 15.4142C9.03914 15.7893 8.53043 16 8 16Z" fill="#344F42"/>
</svg>
