<svg width="60" height="61" viewBox="0 0 60 61" fill="none" xmlns="http://www.w3.org/2000/svg">
<path d="M30 0.71228C22.0435 0.71228 14.4129 3.87299 8.7868 9.49908C3.16071 15.1252 0 22.7558 0 30.7123C0 38.6688 3.16071 46.2994 8.7868 51.9255C14.4129 57.5516 22.0435 60.7123 30 60.7123C37.9565 60.7123 45.5871 57.5516 51.2132 51.9255C56.8393 46.2994 60 38.6688 60 30.7123C60 22.7558 56.8393 15.1252 51.2132 9.49908C45.5871 3.87299 37.9565 0.71228 30 0.71228ZM37.9075 55.1698H37.675C37.5004 55.1797 37.3256 55.1537 37.1613 55.0935C36.9971 55.0333 36.8469 54.9402 36.72 54.8198C36.6027 54.6958 36.5114 54.5497 36.4513 54.3901C36.3912 54.2304 36.3635 54.0603 36.37 53.8898V50.3748C36.385 49.2073 36.395 48.0248 36.395 46.8348C36.3909 45.9646 36.2638 45.0994 36.0175 44.2648C35.7842 43.4211 35.3139 42.662 34.6625 42.0773C36.405 41.9091 38.1179 41.5132 39.7575 40.8998C41.1406 40.3738 42.3916 39.5512 43.4225 38.4898C44.44 37.4223 45.1975 36.1323 45.635 34.7248C46.1672 33.0011 46.4204 31.2034 46.385 29.3998C46.3947 28.1405 46.1745 26.89 45.735 25.7098C45.2884 24.5203 44.6132 23.4298 43.7475 22.4998C43.9344 22.0307 44.0702 21.5429 44.1525 21.0448C44.235 20.5448 44.2775 20.0398 44.2775 19.5348C44.2775 18.8848 44.2025 18.2348 44.0525 17.6023C43.9162 16.9535 43.7315 16.3159 43.5 15.6948C43.4116 15.6603 43.3174 15.6433 43.2225 15.6448H42.9475C42.3725 15.6498 41.8075 15.7448 41.2625 15.9223C40.6622 16.0975 40.0749 16.3147 39.505 16.5723C38.9382 16.8263 38.3865 17.1126 37.8525 17.4298C37.315 17.7473 36.84 18.0523 36.42 18.3348C32.2143 17.1626 27.7682 17.1626 23.5625 18.3348C23.0935 18.0212 22.6167 17.7195 22.1325 17.4298C21.5909 17.11 21.0298 16.8244 20.4525 16.5748C19.8842 16.3087 19.2946 16.0904 18.69 15.9223C18.1557 15.7458 17.5976 15.6522 17.035 15.6448H16.76C16.666 15.6435 16.5726 15.6604 16.485 15.6948C16.2502 16.3168 16.058 16.9541 15.91 17.6023C15.775 18.2373 15.71 18.8848 15.7075 19.5348C15.7075 20.0398 15.75 20.5448 15.835 21.0448C15.9175 21.5423 16.05 22.0298 16.235 22.4998C15.3715 23.431 14.6988 24.5224 14.255 25.7123C13.8132 26.892 13.5904 28.1425 13.5975 29.4023C13.5625 31.1962 13.8089 32.9846 14.3275 34.7023C14.78 36.1098 15.535 37.4023 16.5375 38.4923C17.575 39.5473 18.825 40.3673 20.2025 40.9023C21.835 41.5273 23.545 41.9273 25.285 42.0923C24.7992 42.5326 24.4138 43.0723 24.155 43.6748C23.9088 44.2706 23.7408 44.8958 23.655 45.5348C22.7377 45.974 21.7345 46.2045 20.7175 46.2098C19.773 46.2476 18.8409 45.985 18.055 45.4598C17.3011 44.9011 16.6626 44.2015 16.175 43.3998C15.9568 43.063 15.7127 42.7437 15.445 42.4448C15.1626 42.1304 14.8512 41.8433 14.515 41.5873C14.1836 41.3397 13.8203 41.1378 13.435 40.9873C13.0559 40.8211 12.6465 40.7351 12.2325 40.7348C12.1325 40.7373 12.0325 40.7473 11.9325 40.7598C11.7959 40.7593 11.6599 40.7761 11.5275 40.8098C11.4112 40.8402 11.3011 40.891 11.2025 40.9598C11.1577 40.9845 11.1201 41.0206 11.0938 41.0646C11.0675 41.1085 11.0532 41.1586 11.0525 41.2098C11.063 41.3301 11.0998 41.4466 11.1603 41.5512C11.2207 41.6557 11.3034 41.7457 11.4025 41.8148C11.635 41.9998 11.8275 42.1423 11.9825 42.2423L12.0575 42.2948C12.39 42.5523 12.71 42.8298 13.0125 43.1273C13.2925 43.3723 13.545 43.6498 13.7625 43.9523C13.9875 44.2498 14.1825 44.5673 14.34 44.9048C14.5225 45.2398 14.715 45.6248 14.9175 46.0623C15.3875 47.2473 16.2225 48.2498 17.3025 48.9248C18.435 49.5323 19.705 49.8348 20.9925 49.8023C21.4275 49.8023 21.865 49.7773 22.2975 49.7273C22.7275 49.6573 23.155 49.5848 23.585 49.4998V53.8573C23.5928 54.033 23.5634 54.2083 23.4988 54.3719C23.4342 54.5355 23.3358 54.6835 23.21 54.8065C23.0842 54.9294 22.9339 55.0244 22.7689 55.0853C22.604 55.1462 22.428 55.1716 22.2525 55.1598H22.0975C16.2676 53.2764 11.3017 49.3735 8.09392 44.1538C4.88618 38.9341 3.64741 32.7407 4.6007 26.6887C5.55399 20.6368 8.63669 15.124 13.2937 11.1432C17.9507 7.16233 23.8759 4.97496 30.0025 4.97496C36.1291 4.97496 42.0543 7.16233 46.7113 11.1432C51.3683 15.124 54.451 20.6368 55.4043 26.6887C56.3576 32.7407 55.1188 38.9341 51.9111 44.1538C48.7033 49.3735 43.7374 53.2764 37.9075 55.1598V55.1698Z" fill="#4A4A4A"/>
</svg>
