<svg width="60" height="60" viewBox="0 0 60 60" fill="none" xmlns="http://www.w3.org/2000/svg">
<path d="M47.3439 6.93492C47.0822 7.13988 46.8315 7.32453 46.5983 7.52095C45.102 8.75497 44.0235 10.421 43.5102 12.2913C43.26 13.2885 43.1238 14.3109 43.1043 15.3388C43.0629 16.4298 43.155 17.5212 43.2055 18.6116C43.2483 19.5225 43.3216 20.435 43.3489 21.3474C43.4235 23.2098 43.1646 25.0705 42.5845 26.8418C41.6067 29.9133 39.6692 32.59 37.0567 34.4782C35.2089 35.8176 33.0218 36.6109 30.745 36.7674C29.0812 36.902 27.4072 36.7046 25.8203 36.1869C23.0729 35.3529 20.7488 33.4992 19.3247 31.006C18.827 30.1253 18.4185 29.1972 18.1052 28.2353C17.5936 26.6017 17.2045 24.9321 16.9411 23.2406C16.6813 21.7596 16.4346 20.2845 16.1499 18.8126C15.9104 17.5299 15.5531 16.2721 15.0824 15.055C14.7758 14.2461 14.3745 13.4763 13.8868 12.7618C13.2843 11.8628 12.4668 11.1287 11.5084 10.6261C10.8042 10.2632 10.0335 10.0477 9.24322 9.99259C7.438 11.8267 5.89599 13.9024 4.66128 16.1603C4.06562 17.1599 3.58913 18.2259 3.24157 19.3364C3.35696 19.3303 3.46759 19.3318 3.57672 19.3185C4.81154 19.1521 6.06838 19.3006 7.23046 19.7501C8.06202 20.0538 8.80844 20.5529 9.40687 21.2053C10.0053 21.8577 10.4382 22.6443 10.6692 23.4989C10.8588 24.1582 10.9635 24.839 10.9808 25.5248C10.9982 26.8797 10.8448 28.2314 10.5242 29.548C10.2445 30.8049 9.92034 32.053 9.74499 33.3295C9.58907 34.2641 9.57487 35.2169 9.70286 36.1558C9.85485 37.2431 10.273 38.276 10.9201 39.1628C11.2491 39.622 11.6712 40.0068 12.1588 40.2921C12.6464 40.5774 13.1887 40.7568 13.7502 40.8186C14.252 40.8789 14.7541 40.935 15.2564 40.9869C16.3172 41.0951 17.3312 41.4787 18.198 42.0996C19.1493 42.7675 19.9479 43.63 20.5407 44.6298C21.1335 45.6297 21.5071 46.7441 21.6367 47.8993C21.8007 49.2304 21.7105 50.5805 21.371 51.8779C20.9761 53.4453 20.3379 54.9411 19.4797 56.3109C19.3972 56.4474 19.3169 56.5844 19.2359 56.7208C20.5601 57.3359 21.9554 57.7847 23.3898 58.0572C23.4207 57.7842 23.4155 57.5083 23.3743 57.2366C23.2692 55.5895 23.427 53.9361 23.8419 52.3385C24.5483 49.5556 25.9924 47.0149 28.0221 44.9841C30.0518 42.9534 32.5918 41.508 35.3744 40.8002C36.6123 40.5107 37.8644 40.285 39.1255 40.1238C40.271 39.957 41.4164 39.7942 42.5431 39.5215C43.7688 39.2394 44.9433 38.7688 46.0248 38.1266C46.7957 37.6781 47.4696 37.0803 48.0068 36.3682C48.544 35.6562 48.9338 34.8442 49.1534 33.9796C49.3428 33.2706 49.4695 32.5462 49.532 31.8149C49.6155 30.8237 49.677 29.831 49.7299 28.8375C49.7999 27.5016 49.9824 26.1741 50.2753 24.8689C51.0299 21.4847 52.449 18.2841 54.4504 15.4528C54.5339 15.3344 54.6064 15.212 54.7038 15.0695C52.7938 11.9114 50.295 9.14966 47.3431 6.93435M47.023 6.69353C44.349 4.73421 41.3556 3.25335 38.1756 2.31674C36.0866 1.69883 33.1418 1.18454 32.3596 1.30371C32.3406 1.35438 32.3175 1.41284 32.3004 1.47356C32.1164 2.18565 32.0405 2.92133 32.0751 3.65598C32.1165 4.65105 32.2793 5.63734 32.5598 6.59295C32.8388 7.59876 33.1418 8.59622 33.4356 9.59672C33.8278 10.8933 34.0712 12.2304 34.1611 13.582C34.2523 14.9505 34.1881 16.3249 33.9698 17.6789C33.8214 18.68 33.5328 19.6553 33.1126 20.576C32.7965 21.2596 32.3438 21.8712 31.7824 22.3733C31.2211 22.8754 30.5629 23.2574 29.8485 23.4957C29.1106 23.7627 28.3297 23.8908 27.5452 23.8737C26.4634 23.8768 25.3962 23.6236 24.431 23.1349C23.4659 22.6463 22.6302 21.936 21.9923 21.0622C21.5164 20.4185 21.1348 19.7101 20.859 18.9585C20.3346 17.5339 20.0399 16.0349 19.986 14.5178C19.9449 13.6879 19.9564 12.854 19.9579 12.0241C19.9579 10.8826 19.979 9.74038 19.986 8.59565C19.9912 7.64883 19.9222 6.70307 19.7796 5.76704C19.6745 5.02389 19.4966 4.29288 19.2482 3.58463C19.2006 3.47873 19.1453 3.37643 19.0829 3.27852C15.6665 4.67014 12.5515 6.70926 9.90934 9.28359C9.80894 9.3817 9.67553 9.46273 9.64764 9.61228C9.66775 9.6341 9.67553 9.65023 9.6873 9.65365C9.8431 9.6916 10.0044 9.73165 10.1634 9.76277C11.1577 9.97399 12.0837 10.4292 12.8583 11.0874C13.5175 11.6502 14.0783 12.3188 14.5178 13.0658C15.1482 14.1533 15.6351 15.3178 15.9664 16.5304C16.4207 18.2145 16.7813 19.9226 17.0464 21.6467C17.2943 23.0594 17.5421 24.4728 17.8334 25.8762C18.1293 27.3655 18.6186 28.8098 19.289 30.1722C20.1518 31.9614 21.4963 33.4747 23.1716 34.5419C25.7659 36.1798 28.8769 36.7934 31.8988 36.2632C33.6782 35.9757 35.3649 35.2736 36.8227 34.2136C38.6345 32.8914 40.1271 31.1803 41.1911 29.2058C42.2551 27.2314 42.8634 25.0437 42.9715 22.8034C43.0087 21.3353 42.965 19.8663 42.8405 18.4031C42.7009 16.8095 42.7158 15.2062 42.8849 13.6156C43.0721 12.0203 43.6554 10.4973 44.5817 9.18509C45.1599 8.37363 45.8492 7.64735 46.6294 7.02753C46.7541 6.92847 46.8742 6.82334 47.026 6.69638M54.8806 15.482C54.752 15.6597 54.6468 15.8016 54.5424 15.9496C53.2571 17.8198 52.2253 19.852 51.4738 21.9932C50.7065 24.1284 50.2454 26.3614 50.104 28.6259C50.0519 29.5541 49.9924 30.4817 49.9256 31.4086C49.8677 32.2548 49.7373 33.0945 49.536 33.9185C49.3188 34.8511 48.9159 35.7302 48.3514 36.5035C47.7868 37.2768 47.0721 37.9284 46.25 38.4193C45.5812 38.8269 44.8717 39.1636 44.1329 39.4237C42.8817 39.8427 41.5935 40.1417 40.2858 40.3166C39.0452 40.5091 37.8008 40.6759 36.5662 40.9034C32.8302 41.5849 29.4687 43.5993 27.106 46.5723C24.7433 49.5454 23.5401 53.275 23.7199 57.0683C23.722 57.4467 23.7654 57.8237 23.8493 58.1927C24.6134 58.3709 25.3862 58.5093 26.1646 58.6074C27.3443 58.77 28.5338 58.8517 29.7247 58.852C30.4907 58.852 31.2576 58.8192 32.0235 58.7951C32.1864 58.8104 32.35 58.7742 32.4911 58.6915C32.5019 58.6135 32.5129 58.5535 32.52 58.4897C32.6363 57.2557 32.8621 56.0345 33.1946 54.8405C33.6467 53.2001 34.431 51.67 35.4989 50.3451C36.3373 49.2957 37.3998 48.4471 38.6087 47.8616C39.8175 47.276 41.1421 46.9683 42.4853 46.961C43.988 46.9257 45.486 47.1431 46.9167 47.604C48.2511 48.0368 49.5411 48.5961 50.7691 49.274C50.9214 49.3794 51.0913 49.4566 51.2709 49.5018C53.2365 47.3599 54.868 44.934 56.1102 42.3057C57.6873 38.9815 58.6047 35.383 58.8114 31.7095C59.0315 28.003 58.5354 24.2888 57.3502 20.7699C56.7441 18.9129 55.9137 17.1367 54.8774 15.4807M18.8478 56.5783C18.9009 56.509 18.9662 56.4373 19.0176 56.357C19.7392 55.2494 20.3154 54.0536 20.732 52.7991C21.2906 51.2079 21.4706 49.5084 21.2579 47.8355C21.021 45.9902 20.1438 44.2867 18.7793 43.0221C17.8305 42.1102 16.6149 41.5258 15.3102 41.3545C14.8425 41.2938 14.3711 41.2494 13.9005 41.205C13.2395 41.1522 12.5983 40.9539 12.0228 40.6244C11.4473 40.2949 10.9518 39.8422 10.5717 39.2989C9.85335 38.3008 9.41679 37.1279 9.30775 35.903C9.20735 34.8786 9.25993 33.845 9.46374 32.8361C9.67098 31.7452 9.91712 30.6675 10.1532 29.5852C10.415 28.4908 10.5732 27.3742 10.6255 26.2501C10.6628 25.4181 10.5797 24.585 10.3788 23.7767C10.1846 22.9542 9.793 22.1914 9.23784 21.5541C8.68267 20.9169 7.98067 20.4245 7.19251 20.1194C6.29784 19.7576 5.33575 19.5928 4.37169 19.6362C3.90441 19.6201 3.43766 19.681 2.99012 19.8163C0.854429 25.478 0.551921 31.6677 2.12535 37.5106C3.69877 43.3536 7.06856 48.5544 11.7585 52.378C13.9045 54.1336 17.492 56.2555 18.8495 56.5779M19.49 3.17205C19.5296 3.29294 19.5585 3.38631 19.5911 3.47835C19.95 4.52848 20.1749 5.61971 20.2605 6.72617C20.3595 7.96195 20.3882 9.20237 20.3462 10.4414C20.3166 11.844 20.2513 13.2467 20.3525 14.6493C20.4125 15.6098 20.5551 16.5634 20.7787 17.4995C21.0459 18.646 21.5213 19.7337 22.1814 20.7085C22.9316 21.7776 23.9823 22.6001 25.2004 23.0718C26.4184 23.5434 27.749 23.643 29.0237 23.3579C29.8878 23.198 30.6969 22.8208 31.375 22.2619C32.053 21.703 32.5776 20.9807 32.8995 20.163C33.0932 19.6967 33.2542 19.2173 33.3812 18.7285C33.6276 17.7139 33.7739 16.6775 33.818 15.6342C33.878 14.4443 33.8144 13.2514 33.6282 12.0746C33.4449 10.9808 33.1811 9.90206 32.839 8.8471C32.5186 7.78588 32.1837 6.72845 31.9599 5.64141C31.6403 4.28726 31.6245 2.87912 31.9138 1.51816C31.9276 1.4282 31.9333 1.33719 31.9309 1.24621C29.6626 1.06279 27.3803 1.16332 25.1369 1.54549C23.1987 1.87187 21.304 2.41769 19.4892 3.17243M32.9128 58.6698C34.9015 58.5161 36.865 58.1275 38.7624 57.5122C42.1544 56.4263 45.3171 54.7244 48.092 52.4919C49.1356 51.7054 50.0834 50.7992 50.9158 49.7919C50.8548 49.744 50.7911 49.6997 50.7249 49.6591C49.3213 48.8609 47.8274 48.2331 46.2749 47.789C44.5924 47.308 42.8261 47.195 41.0961 47.4577C39.6378 47.6845 38.2661 48.2956 37.1222 49.2281C35.9252 50.2202 34.9665 51.4686 34.3169 52.8811C33.5349 54.606 33.0559 56.4528 32.901 58.3404C32.8968 58.4493 32.9003 58.5585 32.9113 58.667M59.2208 30.035C59.2193 37.7922 56.1366 45.2311 50.6507 50.7155C45.1647 56.1998 37.7249 59.2805 29.9678 59.2798C22.2106 59.279 14.7714 56.197 9.28645 50.7116C3.80156 45.2262 0.720215 37.7866 0.720215 30.0295C0.720215 22.2723 3.80156 14.8328 9.28645 9.34736C14.7714 3.86195 22.2106 0.779905 29.9678 0.779175C37.7249 0.778445 45.1647 3.85909 50.6507 9.34347C56.1366 14.8279 59.2193 22.2668 59.2208 30.024V30.035Z" stroke="white" stroke-width="0.8"/>
</svg>
