<svg width="60" height="60" viewBox="0 0 60 60" fill="none" xmlns="http://www.w3.org/2000/svg">
<path d="M47.3439 6.6472C47.0822 6.85216 46.8315 7.03681 46.5983 7.23323C45.102 8.46726 44.0235 10.1333 43.5102 12.0036C43.26 13.0008 43.1238 14.0231 43.1043 15.051C43.0629 16.1421 43.155 17.2335 43.2055 18.3239C43.2483 19.2348 43.3216 20.1473 43.3489 21.0597C43.4235 22.9221 43.1646 24.7828 42.5845 26.5541C41.6067 29.6256 39.6692 32.3023 37.0567 34.1905C35.2089 35.5299 33.0218 36.3232 30.745 36.4797C29.0812 36.6143 27.4072 36.4169 25.8203 35.8992C23.0729 35.0652 20.7488 33.2115 19.3247 30.7183C18.827 29.8376 18.4185 28.9094 18.1052 27.9476C17.5936 26.3139 17.2045 24.6444 16.9411 22.9529C16.6813 21.4719 16.4346 19.9968 16.1499 18.5249C15.9104 17.2422 15.5531 15.9843 15.0824 14.7673C14.7758 13.9584 14.3745 13.1886 13.8868 12.4741C13.2843 11.5751 12.4668 10.841 11.5084 10.3383C10.8042 9.97548 10.0335 9.75994 9.24322 9.70487C7.438 11.539 5.89599 13.6146 4.66128 15.8726C4.06562 16.8722 3.58913 17.9381 3.24157 19.0487C3.35696 19.0426 3.46759 19.0441 3.57672 19.0308C4.81154 18.8644 6.06838 19.0129 7.23046 19.4624C8.06202 19.7661 8.80844 20.2651 9.40687 20.9175C10.0053 21.5699 10.4382 22.3566 10.6692 23.2112C10.8588 23.8705 10.9635 24.5513 10.9808 25.237C10.9982 26.592 10.8448 27.9437 10.5242 29.2603C10.2445 30.5172 9.92034 31.7653 9.74499 33.0418C9.58907 33.9764 9.57487 34.9292 9.70286 35.8681C9.85485 36.9553 10.273 37.9882 10.9201 38.8751C11.2491 39.3343 11.6712 39.7191 12.1588 40.0044C12.6464 40.2896 13.1887 40.469 13.7502 40.5309C14.252 40.5912 14.7541 40.6473 15.2564 40.6992C16.3172 40.8074 17.3312 41.191 18.198 41.8119C19.1493 42.4798 19.9479 43.3423 20.5407 44.3421C21.1335 45.342 21.5071 46.4564 21.6367 47.6116C21.8007 48.9427 21.7105 50.2928 21.371 51.5902C20.9761 53.1576 20.3379 54.6534 19.4797 56.0232C19.3972 56.1596 19.3169 56.2967 19.2359 56.4331C20.5601 57.0481 21.9554 57.497 23.3898 57.7695C23.4207 57.4965 23.4155 57.2206 23.3743 56.9489C23.2692 55.3017 23.427 53.6483 23.8419 52.0508C24.5483 49.2679 25.9924 46.7271 28.0221 44.6964C30.0518 42.6657 32.5918 41.2202 35.3744 40.5125C36.6123 40.223 37.8644 39.9973 39.1255 39.8361C40.271 39.6693 41.4164 39.5065 42.5431 39.2337C43.7688 38.9516 44.9433 38.4811 46.0248 37.8389C46.7957 37.3904 47.4696 36.7926 48.0068 36.0805C48.544 35.3685 48.9338 34.5564 49.1534 33.6919C49.3428 32.9828 49.4695 32.2585 49.532 31.5272C49.6155 30.536 49.677 29.5432 49.7299 28.5498C49.7999 27.2139 49.9824 25.8864 50.2753 24.5812C51.0299 21.197 52.449 17.9964 54.4504 15.1651C54.5339 15.0467 54.6064 14.9243 54.7038 14.7817C52.7938 11.6237 50.295 8.86194 47.3431 6.64663M47.023 6.40581C44.349 4.44649 41.3556 2.96563 38.1756 2.02902C36.0866 1.41111 33.1418 0.896816 32.3596 1.01599C32.3406 1.06666 32.3175 1.12512 32.3004 1.18584C32.1164 1.89793 32.0405 2.63361 32.0751 3.36826C32.1165 4.36333 32.2793 5.34962 32.5598 6.30523C32.8388 7.31104 33.1418 8.3085 33.4356 9.309C33.8278 10.6056 34.0712 11.9426 34.1611 13.2943C34.2523 14.6627 34.1881 16.0371 33.9698 17.3912C33.8214 18.3923 33.5328 19.3675 33.1126 20.2883C32.7965 20.9718 32.3438 21.5835 31.7824 22.0856C31.2211 22.5877 30.5629 22.9697 29.8485 23.208C29.1106 23.4749 28.3297 23.6031 27.5452 23.586C26.4634 23.5891 25.3962 23.3359 24.431 22.8472C23.4659 22.3585 22.6302 21.6482 21.9923 20.7745C21.5164 20.1307 21.1348 19.4224 20.859 18.6708C20.3346 17.2462 20.0399 15.7472 19.986 14.2301C19.9449 13.4002 19.9564 12.5663 19.9579 11.7364C19.9579 10.5949 19.979 9.45266 19.986 8.30793C19.9912 7.36111 19.9222 6.41535 19.7796 5.47933C19.6745 4.73617 19.4966 4.00516 19.2482 3.29691C19.2006 3.19101 19.1453 3.08871 19.0829 2.9908C15.6665 4.38242 12.5515 6.42154 9.90934 8.99587C9.80894 9.09398 9.67553 9.17501 9.64764 9.32456C9.66775 9.34638 9.67553 9.36251 9.6873 9.36593C9.8431 9.40388 10.0044 9.44393 10.1634 9.47505C11.1577 9.68627 12.0837 10.1415 12.8583 10.7997C13.5175 11.3624 14.0783 12.0311 14.5178 12.7781C15.1482 13.8656 15.6351 15.0301 15.9664 16.2426C16.4207 17.9268 16.7813 19.6349 17.0464 21.359C17.2943 22.7717 17.5421 24.1851 17.8334 25.5885C18.1293 27.0778 18.6186 28.522 19.289 29.8845C20.1518 31.6737 21.4963 33.1869 23.1716 34.2542C25.7659 35.8921 28.8769 36.5057 31.8988 35.9755C33.6782 35.688 35.3649 34.9859 36.8227 33.9259C38.6345 32.6037 40.1271 30.8926 41.1911 28.9181C42.2551 26.9436 42.8634 24.756 42.9715 22.5157C43.0087 21.0476 42.965 19.5786 42.8405 18.1153C42.7009 16.5218 42.7158 14.9185 42.8849 13.3279C43.0721 11.7326 43.6554 10.2096 44.5817 8.89737C45.1599 8.08591 45.8492 7.35963 46.6294 6.73981C46.7541 6.64075 46.8742 6.53562 47.026 6.40866M54.8806 15.1943C54.752 15.3719 54.6468 15.5139 54.5424 15.6619C53.2571 17.5321 52.2253 19.5643 51.4738 21.7055C50.7065 23.8407 50.2454 26.0737 50.104 28.3382C50.0519 29.2664 49.9924 30.194 49.9256 31.1208C49.8677 31.9671 49.7373 32.8068 49.536 33.6308C49.3188 34.5633 48.9159 35.4425 48.3514 36.2158C47.7868 36.9891 47.0721 37.6407 46.25 38.1315C45.5812 38.5392 44.8717 38.8758 44.1329 39.136C42.8817 39.555 41.5935 39.854 40.2858 40.0289C39.0452 40.2213 37.8008 40.3882 36.5662 40.6157C32.8302 41.2972 29.4687 43.3116 27.106 46.2846C24.7433 49.2577 23.5401 52.9873 23.7199 56.7806C23.722 57.159 23.7654 57.536 23.8493 57.905C24.6134 58.0832 25.3862 58.2216 26.1646 58.3197C27.3443 58.4822 28.5338 58.564 29.7247 58.5643C30.4907 58.5643 31.2576 58.5315 32.0235 58.5074C32.1864 58.5227 32.35 58.4865 32.4911 58.4037C32.5019 58.3257 32.5129 58.2658 32.52 58.202C32.6363 56.968 32.8621 55.7468 33.1946 54.5528C33.6467 52.9123 34.431 51.3822 35.4989 50.0574C36.3373 49.008 37.3998 48.1594 38.6087 47.5739C39.8175 46.9883 41.1421 46.6806 42.4853 46.6733C43.988 46.638 45.486 46.8553 46.9167 47.3163C48.2511 47.7491 49.5411 48.3083 50.7691 48.9863C50.9214 49.0917 51.0913 49.1688 51.2709 49.214C53.2365 47.0722 54.868 44.6463 56.1102 42.0179C57.6873 38.6938 58.6047 35.0953 58.8114 31.4218C59.0315 27.7153 58.5354 24.0011 57.3502 20.4822C56.7441 18.6251 55.9137 16.8489 54.8774 15.193M18.8478 56.2906C18.9009 56.2213 18.9662 56.1496 19.0176 56.0693C19.7392 54.9617 20.3154 53.7659 20.732 52.5114C21.2906 50.9202 21.4706 49.2207 21.2579 47.5478C21.021 45.7025 20.1438 43.999 18.7793 42.7343C17.8305 41.8225 16.6149 41.2381 15.3102 41.0668C14.8425 41.0061 14.3711 40.9617 13.9005 40.9172C13.2395 40.8645 12.5983 40.6662 12.0228 40.3367C11.4473 40.0072 10.9518 39.5545 10.5717 39.0111C9.85335 38.0131 9.41679 36.8401 9.30775 35.6153C9.20735 34.5909 9.25993 33.5573 9.46374 32.5483C9.67098 31.4575 9.91712 30.3798 10.1532 29.2975C10.415 28.2031 10.5732 27.0864 10.6255 25.9624C10.6628 25.1303 10.5797 24.2973 10.3788 23.489C10.1846 22.6665 9.793 21.9036 9.23784 21.2664C8.68267 20.6292 7.98067 20.1367 7.19251 19.8317C6.29784 19.4699 5.33575 19.3051 4.37169 19.3485C3.90441 19.3324 3.43766 19.3932 2.99012 19.5286C0.854429 25.1903 0.551921 31.38 2.12535 37.2229C3.69877 43.0659 7.06856 48.2666 11.7585 52.0903C13.9045 53.8459 17.492 55.9678 18.8495 56.2902M19.49 2.88433C19.5296 3.00522 19.5585 3.09859 19.5911 3.19063C19.95 4.24076 20.1749 5.33199 20.2605 6.43845C20.3595 7.67423 20.3882 8.91465 20.3462 10.1537C20.3166 11.5563 20.2513 12.9589 20.3525 14.3616C20.4125 15.3221 20.5551 16.2757 20.7787 17.2118C21.0459 18.3583 21.5213 19.446 22.1814 20.4207C22.9316 21.4899 23.9823 22.3124 25.2004 22.7841C26.4184 23.2557 27.749 23.3553 29.0237 23.0702C29.8878 22.9103 30.6969 22.5331 31.375 21.9742C32.053 21.4153 32.5776 20.693 32.8995 19.8753C33.0932 19.4089 33.2542 18.9296 33.3812 18.4408C33.6276 17.4261 33.7739 16.3897 33.818 15.3465C33.878 14.1566 33.8144 12.9637 33.6282 11.7869C33.4449 10.6931 33.1811 9.61434 32.839 8.55938C32.5186 7.49816 32.1837 6.44073 31.9599 5.35369C31.6403 3.99954 31.6245 2.5914 31.9138 1.23044C31.9276 1.14048 31.9333 1.04947 31.9309 0.958493C29.6626 0.775066 27.3803 0.875603 25.1369 1.25777C23.1987 1.58415 21.304 2.12997 19.4892 2.88471M32.9128 58.3821C34.9015 58.2283 36.865 57.8398 38.7624 57.2245C42.1544 56.1386 45.3171 54.4367 48.092 52.2042C49.1356 51.4177 50.0834 50.5115 50.9158 49.5042C50.8548 49.4563 50.7911 49.4119 50.7249 49.3714C49.3213 48.5732 47.8274 47.9454 46.2749 47.5013C44.5924 47.0203 42.8261 46.9073 41.0961 47.17C39.6378 47.3968 38.2661 48.0079 37.1222 48.9404C35.9252 49.9325 34.9665 51.1809 34.3169 52.5934C33.5349 54.3183 33.0559 56.1651 32.901 58.0527C32.8968 58.1616 32.9003 58.2708 32.9113 58.3793M59.2208 29.7473C59.2193 37.5044 56.1366 44.9434 50.6507 50.4277C45.1647 55.9121 37.7249 58.9928 29.9678 58.992C22.2106 58.9913 14.7714 55.9093 9.28645 50.4239C3.80156 44.9384 0.720215 37.4989 0.720215 29.7417C0.720215 21.9846 3.80156 14.5451 9.28645 9.05964C14.7714 3.57423 22.2106 0.492185 29.9678 0.491455C37.7249 0.490725 45.1647 3.57137 50.6507 9.05575C56.1366 14.5401 59.2193 21.9791 59.2208 29.7362V29.7473Z" stroke="#4A4A4A" stroke-width="0.8"/>
</svg>
