<svg width="25" height="25" viewBox="0 0 25 25" fill="none" xmlns="http://www.w3.org/2000/svg">
<path d="M8.77041 19.679C8.67269 18.9205 8.31164 18.2204 7.7503 17.7011C7.36059 17.3266 6.86128 17.0866 6.3254 17.0162C6.1327 16.9911 5.94 16.9731 5.7473 16.9545C5.47572 16.9328 5.21228 16.8514 4.97584 16.716C4.7394 16.5806 4.53581 16.3947 4.37962 16.1714C4.08439 15.7614 3.90497 15.2795 3.86017 14.7762C3.8183 14.3554 3.83935 13.9307 3.92265 13.5161C4.00777 13.0692 4.10887 12.6252 4.20573 12.1804C4.31287 11.7307 4.37739 11.272 4.39842 10.8103C4.41384 10.4685 4.37979 10.1263 4.29732 9.79421C4.21767 9.4566 4.05709 9.14345 3.82942 8.88175C3.60175 8.62005 3.31383 8.41767 2.9905 8.29206C2.62294 8.14294 2.22756 8.0748 1.83129 8.09228C1.63933 8.08559 1.44757 8.11053 1.26371 8.16609C0.385895 10.4924 0.261409 13.0358 0.907845 15.4367C1.55428 17.8376 2.93894 19.9746 4.86611 21.5457C5.74791 22.267 7.22175 23.1388 7.7778 23.2711C7.79984 23.243 7.82653 23.2133 7.84756 23.1803C8.14411 22.7252 8.38101 22.234 8.55243 21.7186C8.78173 21.0648 8.85574 20.3667 8.76859 19.6794" fill="#164347"/>
<path d="M8.77041 19.679C8.67269 18.9205 8.31164 18.2204 7.7503 17.7011C7.36059 17.3266 6.86128 17.0866 6.3254 17.0162C6.1327 16.9911 5.94 16.9731 5.7473 16.9545C5.47572 16.9328 5.21228 16.8514 4.97584 16.716C4.7394 16.5806 4.53581 16.3947 4.37962 16.1714C4.08439 15.7614 3.90497 15.2795 3.86017 14.7762C3.8183 14.3554 3.83935 13.9307 3.92265 13.5161C4.00777 13.0692 4.10887 12.6252 4.20573 12.1804C4.31287 11.7307 4.37739 11.272 4.39842 10.8103C4.41384 10.4685 4.37979 10.1263 4.29732 9.79421C4.21767 9.4566 4.05709 9.14345 3.82942 8.88175C3.60175 8.62005 3.31383 8.41767 2.9905 8.29206C2.62294 8.14294 2.22756 8.0748 1.83129 8.09228C1.63933 8.08559 1.44757 8.11053 1.26371 8.16609C0.385895 10.4924 0.261409 13.0358 0.907845 15.4367C1.55428 17.8376 2.93894 19.9746 4.86611 21.5457C5.74791 22.267 7.22175 23.1388 7.7778 23.2711C7.79984 23.243 7.82653 23.2132 7.84756 23.1803C8.14411 22.7252 8.38101 22.234 8.55243 21.7186C8.78173 21.0648 8.85574 20.3667 8.76859 19.6794" stroke="white" stroke-miterlimit="10"/>
<path d="M8.36026 2.78986C8.40066 3.29774 8.41227 3.80749 8.39504 4.31668C8.3827 4.89275 8.35581 5.46922 8.39746 6.04489C8.42219 6.43923 8.48077 6.83072 8.57257 7.21502C8.68255 7.6856 8.87786 8.13202 9.14884 8.53216C9.457 8.9714 9.88855 9.30934 10.3889 9.5032C10.8892 9.69707 11.4358 9.73813 11.9594 9.62121C12.3144 9.55552 12.6469 9.40055 12.9254 9.1709C13.204 8.94125 13.4196 8.64447 13.5518 8.30852C13.6314 8.11691 13.6976 7.91996 13.7497 7.71911C13.8512 7.30235 13.9115 6.87663 13.9297 6.44808C13.9543 5.95926 13.9283 5.4692 13.8518 4.98576C13.7768 4.53645 13.6687 4.0933 13.5283 3.65993C13.3967 3.22399 13.2592 2.79047 13.1674 2.3428C13.0354 1.78644 13.0284 1.20771 13.1472 0.648355C13.1526 0.611347 13.155 0.573943 13.1542 0.536538C12.2222 0.461186 11.2844 0.502485 10.3627 0.659476C9.56646 0.794026 8.78812 1.01856 8.0426 1.32876C8.05898 1.3787 8.07071 1.41692 8.08304 1.45453C8.23081 1.88599 8.32354 2.33437 8.35905 2.78905" fill="#164347"/>
<path d="M8.36026 2.78986C8.40066 3.29774 8.41227 3.80749 8.39504 4.31668C8.3827 4.89275 8.35581 5.46922 8.39746 6.04489C8.42219 6.43923 8.48077 6.83072 8.57257 7.21502C8.68255 7.6856 8.87786 8.13202 9.14884 8.53216C9.457 8.9714 9.88855 9.30934 10.3889 9.5032C10.8892 9.69707 11.4358 9.73813 11.9594 9.62121C12.3144 9.55552 12.6469 9.40055 12.9254 9.1709C13.204 8.94125 13.4196 8.64447 13.5518 8.30852C13.6314 8.11691 13.6976 7.91996 13.7497 7.71911C13.8512 7.30235 13.9115 6.87663 13.9297 6.44808C13.9543 5.95926 13.9283 5.4692 13.8518 4.98576C13.7768 4.53645 13.6687 4.0933 13.5283 3.65993C13.3967 3.22399 13.2592 2.79047 13.1674 2.3428C13.0354 1.78644 13.0284 1.20771 13.1472 0.648355C13.1526 0.611347 13.155 0.573943 13.1542 0.536538C12.2222 0.461186 11.2844 0.502485 10.3627 0.659476C9.56646 0.794026 8.78812 1.01856 8.0426 1.32876C8.05898 1.3787 8.07071 1.41692 8.08304 1.45453C8.23081 1.88599 8.32354 2.33437 8.35905 2.78905" stroke="white" stroke-miterlimit="10"/>
<path d="M19.0489 19.6615C18.3576 19.4638 17.6318 19.4173 16.921 19.5252C16.3223 19.6188 15.7593 19.87 15.2898 20.2531C14.7981 20.6607 14.4042 21.1736 14.1373 21.7538C13.8161 22.4624 13.6195 23.2211 13.5559 23.9964C13.5541 24.0412 13.5555 24.086 13.5602 24.1305C14.3772 24.0669 15.1837 23.9069 15.9631 23.6539C17.3567 23.2078 18.656 22.5086 19.7961 21.5915C20.2246 21.2682 20.6139 20.8959 20.9559 20.4822C20.9307 20.4625 20.9043 20.4443 20.877 20.4276C20.3002 20.1002 19.6864 19.8428 19.0485 19.6609" fill="#278791"/>
<path d="M4.01451 3.99249C4.07881 4.00785 4.14452 4.02464 4.21024 4.03737C4.6185 4.12399 4.99884 4.31069 5.31709 4.58069C5.5877 4.81193 5.81798 5.08655 5.9985 5.39333C6.25756 5.84014 6.45765 6.31861 6.59378 6.81682C6.7804 7.50905 6.9285 8.21109 7.03741 8.91971C7.13851 9.50023 7.24102 10.0807 7.36093 10.6586C7.48241 11.2705 7.68349 11.8638 7.95904 12.4234C8.31349 13.1586 8.86589 13.7804 9.5542 14.219C10.6203 14.8921 11.8988 15.1443 13.1406 14.9267C13.8722 14.8077 14.5655 14.5183 15.1645 14.0817C15.9086 13.5384 16.5217 12.8354 16.9587 12.0243C17.3958 11.2131 17.6456 10.3144 17.6899 9.39407C17.7053 8.79105 17.6873 8.18764 17.6362 7.5866C17.5787 6.93188 17.5848 6.27314 17.6544 5.61959C17.7314 4.96436 17.9711 4.33879 18.3515 3.79979C18.589 3.46632 18.8722 3.16786 19.1927 2.91314C19.2443 2.8727 19.2938 2.82943 19.3557 2.77726C18.2572 1.97191 17.0274 1.36304 15.7209 0.977674C14.8628 0.724317 13.6526 0.513219 13.3315 0.560332C13.324 0.580552 13.3141 0.605423 13.307 0.630091C13.2315 0.922484 13.2002 1.22457 13.2144 1.52624C13.2315 1.93509 13.2984 2.34032 13.4136 2.73298C13.5285 3.14567 13.6526 3.55593 13.7735 3.9664C13.9345 4.49929 14.0344 5.04876 14.0712 5.60423C14.1087 6.1665 14.0823 6.73122 13.9925 7.28755C13.9312 7.69887 13.8122 8.09951 13.6393 8.4777C13.5094 8.75846 13.3235 9.0097 13.0929 9.21597C12.8624 9.42224 12.5921 9.57918 12.2987 9.67715C11.9955 9.78691 11.6747 9.83956 11.3524 9.83244C10.9079 9.83342 10.4695 9.72912 10.073 9.5281C9.67661 9.32707 9.33341 9.03502 9.07155 8.67586C8.87583 8.41156 8.71883 8.1207 8.60527 7.81205C8.38971 7.22628 8.26863 6.60997 8.24657 5.98618C8.22958 5.64507 8.23423 5.30295 8.23504 4.96103C8.23504 4.49212 8.24374 4.02282 8.24657 3.55371C8.24877 3.16488 8.22051 2.77648 8.16205 2.39207C8.11803 2.08731 8.04414 1.78762 7.94145 1.49733C7.922 1.45379 7.89936 1.41175 7.87371 1.37156C6.47064 1.94333 5.19131 2.78091 4.10611 3.83821C4.06567 3.87865 4.00966 3.91181 3.99854 3.97348C4.00683 3.98238 4.01006 3.98925 4.01491 3.99046" fill="#356A72"/>
<path d="M4.01451 3.99249C4.07881 4.00785 4.14452 4.02464 4.21024 4.03737C4.6185 4.12399 4.99884 4.31069 5.31709 4.58069C5.5877 4.81193 5.81798 5.08655 5.9985 5.39333C6.25756 5.84014 6.45765 6.31861 6.59378 6.81682C6.7804 7.50905 6.9285 8.21109 7.03741 8.91971C7.13851 9.50023 7.24102 10.0807 7.36093 10.6586C7.48241 11.2705 7.68349 11.8638 7.95904 12.4234C8.31349 13.1586 8.86589 13.7804 9.5542 14.219C10.6203 14.8921 11.8988 15.1443 13.1406 14.9267C13.8722 14.8077 14.5655 14.5183 15.1645 14.0817C15.9086 13.5384 16.5217 12.8354 16.9587 12.0243C17.3958 11.2131 17.6456 10.3144 17.6899 9.39407C17.7053 8.79105 17.6873 8.18764 17.6362 7.5866C17.5787 6.93188 17.5848 6.27314 17.6544 5.61959C17.7314 4.96436 17.9711 4.33879 18.3515 3.79979C18.589 3.46632 18.8722 3.16786 19.1927 2.91314C19.2443 2.8727 19.2938 2.82943 19.3557 2.77726C18.2572 1.97191 17.0274 1.36304 15.7209 0.977674C14.8628 0.724317 13.6526 0.513219 13.3315 0.560332C13.324 0.580552 13.3141 0.605423 13.307 0.630091C13.2315 0.922484 13.2002 1.22457 13.2144 1.52624C13.2315 1.93509 13.2984 2.34032 13.4136 2.73298C13.5285 3.14567 13.6526 3.55593 13.7735 3.9664C13.9345 4.49929 14.0344 5.04876 14.0712 5.60423C14.1087 6.1665 14.0823 6.73122 13.9925 7.28755C13.9312 7.69887 13.8122 8.09951 13.6393 8.4777C13.5094 8.75846 13.3235 9.0097 13.0929 9.21597C12.8624 9.42224 12.5921 9.57918 12.2987 9.67715C11.9955 9.78691 11.6747 9.83956 11.3524 9.83244C10.9079 9.83342 10.4695 9.72912 10.073 9.5281C9.67661 9.32707 9.33341 9.03502 9.07155 8.67586C8.87583 8.41156 8.71883 8.1207 8.60527 7.81205C8.38971 7.22628 8.26863 6.60997 8.24657 5.98618C8.22958 5.64507 8.23423 5.30295 8.23504 4.96103C8.23504 4.49212 8.24374 4.02282 8.24657 3.55371C8.24877 3.16488 8.22051 2.77648 8.16205 2.39207C8.11803 2.08731 8.04414 1.78762 7.94145 1.49733C7.922 1.45379 7.89936 1.41175 7.87371 1.37156C6.47064 1.94333 5.19131 2.78091 4.10611 3.83821C4.06567 3.87865 4.00966 3.91181 3.99854 3.97348C4.00683 3.98238 4.01006 3.98925 4.01491 3.99046" stroke="white" stroke-miterlimit="10"/>
<path d="M21.183 9.0616C20.8681 9.93911 20.6791 10.8568 20.6215 11.7873C20.5998 12.1686 20.5762 12.5496 20.5479 12.9307C20.524 13.2784 20.4703 13.6234 20.3873 13.9619C20.2982 14.345 20.1328 14.7062 19.901 15.0239C19.6691 15.3416 19.3756 15.6093 19.038 15.8111C18.7634 15.9785 18.472 16.1167 18.1686 16.2235C17.654 16.3959 17.1241 16.5187 16.5861 16.5903C16.0766 16.6694 15.5652 16.7377 15.0583 16.8316C13.5238 17.1117 12.1431 17.9392 11.1726 19.1605C10.2021 20.3817 9.70779 21.9137 9.78149 23.4718C9.78232 23.6272 9.80009 23.7821 9.83447 23.9337C10.1481 24.007 10.4653 24.0639 10.7848 24.1043C11.2694 24.1712 11.7581 24.205 12.2473 24.2054C12.5622 24.2054 12.877 24.1919 13.1918 24.182C13.259 24.1882 13.3265 24.1732 13.3847 24.1391C13.3892 24.1069 13.3932 24.0823 13.3962 24.0562C13.4442 23.5492 13.5372 23.0475 13.6741 22.5571C13.8598 21.8831 14.1821 21.2545 14.6208 20.7102C14.9654 20.2791 15.4022 19.9305 15.8991 19.6901C16.3959 19.4497 16.9402 19.3234 17.4922 19.3207C18.1093 19.3062 18.7245 19.3955 19.312 19.5847C19.8602 19.7627 20.3902 19.9926 20.8948 20.2712C20.9573 20.3145 21.027 20.3462 21.1007 20.3648C21.9081 19.4851 22.5784 18.4887 23.0889 17.4092C23.7368 16.0435 24.1136 14.565 24.1984 13.0557C24.289 11.5329 24.0854 10.0069 23.5987 8.56115C23.3496 7.79824 23.0084 7.06857 22.5826 6.38831C22.5296 6.4611 22.4862 6.51953 22.4437 6.581C21.9157 7.34946 21.4918 8.18446 21.183 9.06423" fill="#164347"/>
<path d="M21.183 9.0616C20.8681 9.93911 20.6791 10.8568 20.6215 11.7873C20.5998 12.1686 20.5762 12.5496 20.5479 12.9307C20.524 13.2784 20.4703 13.6234 20.3873 13.9619C20.2982 14.345 20.1328 14.7062 19.901 15.0239C19.6691 15.3416 19.3756 15.6093 19.038 15.8111C18.7634 15.9785 18.472 16.1167 18.1686 16.2235C17.654 16.3959 17.1241 16.5187 16.5861 16.5903C16.0766 16.6694 15.5652 16.7377 15.0583 16.8316C13.5238 17.1117 12.1431 17.9392 11.1726 19.1605C10.2021 20.3817 9.70779 21.9137 9.78149 23.4718C9.78232 23.6272 9.80009 23.7821 9.83447 23.9337C10.1481 24.007 10.4653 24.0639 10.7848 24.1043C11.2694 24.1712 11.7581 24.205 12.2473 24.2054C12.5622 24.2054 12.877 24.1919 13.1918 24.182C13.259 24.1882 13.3265 24.1732 13.3847 24.1391C13.3892 24.1069 13.3932 24.0823 13.3962 24.0562C13.4442 23.5492 13.5372 23.0475 13.6741 22.5571C13.8598 21.8831 14.1821 21.2545 14.6208 20.7102C14.9654 20.2791 15.4022 19.9305 15.8991 19.6901C16.3959 19.4497 16.9402 19.3234 17.4922 19.3207C18.1093 19.3062 18.7245 19.3955 19.312 19.5847C19.8602 19.7627 20.3902 19.9926 20.8948 20.2712C20.9573 20.3145 21.027 20.3462 21.1007 20.3648C21.9081 19.4851 22.5784 18.4887 23.0889 17.4092C23.7368 16.0435 24.1136 14.565 24.1984 13.0557C24.289 11.5329 24.0854 10.0069 23.5987 8.56115C23.3496 7.79824 23.0084 7.06857 22.5826 6.38831C22.5296 6.4611 22.4862 6.51953 22.4437 6.581C21.9157 7.34946 21.4918 8.18446 21.183 9.06423" stroke="white" stroke-miterlimit="10"/>
<path d="M19.4872 2.87585C19.3796 2.95997 19.2767 3.03458 19.1807 3.11647C18.5662 3.62344 18.1232 4.30779 17.9123 5.076C17.8093 5.4862 17.7533 5.90679 17.7454 6.32964C17.7285 6.77934 17.7657 7.22721 17.7871 7.67529C17.8049 8.04997 17.8348 8.42444 17.8459 8.79973C17.8766 9.56476 17.7702 10.3291 17.5317 11.0567C17.1302 12.3185 16.3343 13.4181 15.2612 14.1938C14.5023 14.744 13.604 15.07 12.6688 15.1345C11.985 15.1897 11.2971 15.1085 10.645 14.8957C9.51564 14.5525 8.56057 13.79 7.97592 12.7647C7.77141 12.4029 7.60356 12.0216 7.47487 11.6265C7.26468 10.9553 7.10476 10.2693 6.99646 9.57436C6.8899 8.96775 6.78799 8.36115 6.67112 7.75455C6.57258 7.22757 6.4257 6.71078 6.23234 6.21075C6.10623 5.8785 5.94124 5.56235 5.74079 5.2689C5.49343 4.89947 5.15764 4.59774 4.76396 4.39115C4.47432 4.24192 4.15727 4.15337 3.83222 4.13091C3.09061 4.88472 2.45708 5.7377 1.94973 6.6655C1.70568 7.07674 1.51058 7.51513 1.36841 7.97171C1.41593 7.96949 1.46122 7.96989 1.50611 7.96444C2.01333 7.89589 2.52966 7.95675 3.00704 8.14136C3.34881 8.2661 3.65559 8.47113 3.90156 8.7392C4.14753 9.00727 4.32548 9.33052 4.42042 9.68172C4.4985 9.95248 4.54172 10.2321 4.54902 10.5138C4.55608 11.0703 4.49304 11.6254 4.36138 12.1662C4.24673 12.6824 4.11328 13.1942 4.04008 13.7197C3.97599 14.1037 3.97012 14.4952 4.0227 14.8809C4.08471 15.3267 4.25555 15.7503 4.52011 16.1143C4.65529 16.303 4.82871 16.4611 5.02908 16.5782C5.22944 16.6954 5.45224 16.769 5.68296 16.7943C5.88907 16.8193 6.09532 16.8424 6.3017 16.8637C6.73794 16.9076 7.15513 17.0648 7.51187 17.3196C7.90284 17.594 8.23104 17.9484 8.47471 18.3592C8.71838 18.77 8.87195 19.2279 8.92525 19.7026C8.99257 20.2494 8.95559 20.804 8.81626 21.337C8.65405 21.9813 8.39185 22.5961 8.03921 23.1592C8.00524 23.215 7.97208 23.2716 7.93811 23.3274C8.48212 23.5802 9.05534 23.7646 9.64468 23.8764C9.65736 23.7643 9.65525 23.6511 9.63841 23.5395C9.59493 22.8629 9.65943 22.1836 9.82949 21.5272C10.12 20.3843 10.7134 19.3409 11.5472 18.507C12.3809 17.673 13.4242 17.0794 14.5671 16.7887C15.076 16.6698 15.5906 16.5771 16.109 16.5108C16.5796 16.4421 17.0507 16.3756 17.5131 16.2636C18.0166 16.1476 18.499 15.9543 18.9433 15.6905C19.2598 15.5064 19.5364 15.2611 19.7571 14.9689C19.9777 14.6767 20.1379 14.3434 20.2283 13.9886C20.3062 13.6972 20.3584 13.3995 20.3842 13.0989C20.4185 12.6917 20.4438 12.2836 20.465 11.8756C20.494 11.3269 20.5692 10.7815 20.6899 10.2455C20.9996 8.85501 21.5826 7.53997 22.405 6.37676C22.4389 6.32823 22.4693 6.27768 22.5091 6.21904C21.725 4.92198 20.6992 3.78757 19.4872 2.87747" fill="#416E46"/>
<path d="M12.3636 0.346802C9.18127 0.347552 6.12954 1.61236 3.87967 3.86302C1.62981 6.11368 0.36608 9.16586 0.366455 12.3482C0.366831 15.5306 1.63128 18.5825 3.88167 20.8326C6.13207 23.0827 9.1841 24.3468 12.3665 24.3468C15.5488 24.3468 18.6008 23.0827 20.8512 20.8326C23.1016 18.5825 24.3661 15.5306 24.3665 12.3482C24.3668 9.16586 23.1031 6.11368 20.8532 3.86302C18.6034 1.61236 15.5516 0.347552 12.3693 0.346802H12.3636ZM10.3618 0.661426C11.2837 0.50488 12.2215 0.464125 13.1534 0.540106C13.1544 0.577447 13.152 0.614801 13.1463 0.65172C13.0278 1.21116 13.0347 1.78991 13.1666 2.34636C13.2586 2.79323 13.3961 3.22755 13.5277 3.6635C13.668 4.0968 13.7762 4.53988 13.8512 4.98913C13.9277 5.47235 13.9539 5.96221 13.9293 6.45083C13.9111 6.87945 13.8508 7.30524 13.7493 7.72207C13.6971 7.92288 13.631 8.11983 13.5516 8.31148C13.4192 8.64731 13.2035 8.94395 12.9249 9.17351C12.6464 9.40308 12.314 9.55801 11.959 9.62377C11.4354 9.74069 10.8888 9.69962 10.3885 9.50576C9.88814 9.3119 9.45659 8.97396 9.14843 8.53471C8.87749 8.13456 8.68217 7.68814 8.57216 7.21758C8.48033 6.83301 8.42174 6.44125 8.39705 6.04663C8.3552 5.47036 8.38229 4.89409 8.39443 4.31843C8.41182 3.80924 8.40028 3.29948 8.35985 2.79161C8.32423 2.33695 8.2315 1.88858 8.08385 1.45709C8.0703 1.41948 8.05857 1.38126 8.04199 1.33152C8.78766 1.02077 9.5663 0.795955 10.3628 0.661426M4.10575 3.84164C5.19096 2.7843 6.47028 1.94665 7.87336 1.37479C7.89886 1.41514 7.92149 1.45724 7.94109 1.50076C8.04407 1.79087 8.11816 2.09043 8.1623 2.39509C8.22076 2.77951 8.24902 3.16791 8.24682 3.55674C8.24399 4.02564 8.23631 4.49495 8.23529 4.96405C8.23529 5.30577 8.22984 5.6479 8.24682 5.98921C8.26885 6.61302 8.39 7.22935 8.60573 7.81508C8.71917 8.12373 8.87611 8.41461 9.0718 8.67888C9.33367 9.03802 9.67688 9.33004 10.0733 9.53103C10.4697 9.73203 10.9081 9.83628 11.3526 9.83527C11.6749 9.84236 11.9957 9.78978 12.2989 9.68018C12.5923 9.58221 12.8626 9.42527 13.0932 9.219C13.3237 9.01273 13.5096 8.76149 13.6395 8.48073C13.8126 8.10247 13.9315 7.70177 13.993 7.29037C14.0827 6.73411 14.1091 6.16946 14.0716 5.60725C14.0348 5.05178 13.9349 4.5023 13.7738 3.96943C13.6525 3.55835 13.5287 3.14809 13.4141 2.736C13.2988 2.34344 13.2319 1.93826 13.2149 1.52947C13.2007 1.22775 13.2319 0.925609 13.3073 0.633118C13.3144 0.608247 13.3245 0.583983 13.3318 0.563156C13.6531 0.514628 14.8628 0.72613 15.7212 0.980701C17.0276 1.36601 18.2574 1.97489 19.3559 2.78029C19.2936 2.83245 19.2445 2.87674 19.1932 2.91617C18.8726 3.17093 18.5894 3.46939 18.3518 3.80281C17.9713 4.3418 17.7315 4.96737 17.6544 5.62262C17.585 6.27618 17.579 6.93491 17.6364 7.58963C17.6876 8.19067 17.7056 8.79407 17.6904 9.3971C17.6457 10.3169 17.3958 11.2151 16.9589 12.0257C16.522 12.8364 15.9092 13.539 15.1655 14.0821C14.5663 14.5175 13.873 14.806 13.1417 14.9241C11.8998 15.1417 10.6214 14.8894 9.55526 14.2163C8.86696 13.7778 8.31456 13.1561 7.9601 12.421C7.68449 11.8613 7.48334 11.2679 7.36179 10.656C7.24208 10.0779 7.13937 9.49961 7.03827 8.91809C6.92926 8.20948 6.78116 7.50745 6.59464 6.8152C6.45859 6.3177 6.25885 5.83985 6.00037 5.39353C5.81983 5.08676 5.58956 4.81213 5.31895 4.58088C5.00071 4.31077 4.62027 4.12406 4.21191 4.03757C4.14781 4.02342 4.08149 4.00805 4.01638 3.99268C4.01173 3.99268 4.00829 3.98459 4 3.97549C4.01173 3.91382 4.06612 3.87925 4.10757 3.84042M7.78034 23.2719C7.22348 23.1391 5.74944 22.2676 4.86865 21.5463C2.94354 19.9736 1.5603 17.8366 0.913786 15.4363C0.267269 13.036 0.390049 10.4934 1.26483 8.16651C1.44856 8.11095 1.64017 8.08595 1.83201 8.0925C2.22821 8.07527 2.62349 8.14347 2.99102 8.29248C3.31435 8.41809 3.60227 8.62047 3.82994 8.88217C4.05761 9.14387 4.21819 9.45702 4.29784 9.79463C4.38021 10.1267 4.41426 10.4689 4.39894 10.8107C4.37774 11.2724 4.31316 11.7311 4.20604 12.1808C4.1098 12.6256 4.00789 13.0693 3.92296 13.5163C3.83981 13.931 3.81868 14.3558 3.86028 14.7766C3.90523 15.2799 4.08464 15.7617 4.37973 16.1718C4.53574 16.3949 4.73911 16.5808 4.97529 16.7162C5.21148 16.8516 5.47465 16.9331 5.746 16.955C5.9387 16.9736 6.1316 16.9916 6.3243 17.0166C6.86018 17.087 7.35949 17.327 7.7492 17.7015C8.31045 18.2209 8.67149 18.9209 8.76931 19.6794C8.85662 20.3667 8.78269 21.0649 8.55336 21.7186C8.38193 22.234 8.14503 22.7252 7.84848 23.1803C7.82826 23.2125 7.80077 23.243 7.77893 23.2713M19.7933 21.593C18.6531 22.5101 17.3537 23.2093 15.9602 23.6555C15.1814 23.9082 14.3755 24.068 13.5592 24.1315C13.5548 24.087 13.5534 24.0423 13.555 23.9976C13.6185 23.2216 13.8153 22.4623 14.1369 21.7532C14.4038 21.1729 14.7977 20.66 15.2895 20.2524C15.7586 19.8697 16.3211 19.6187 16.9192 19.5249C17.6299 19.417 18.3556 19.4634 19.0468 19.661C19.6846 19.8431 20.2984 20.1005 20.8753 20.428C20.9025 20.4446 20.9288 20.4628 20.9539 20.4825C20.6119 20.8963 20.2228 21.2685 19.7943 21.5918M23.5981 8.55999C24.085 10.0057 24.2888 11.5317 24.1984 13.0545C24.1136 14.5637 23.7367 16.0422 23.0888 17.4079C22.5784 18.4873 21.9082 19.4837 21.1007 20.3632C21.027 20.3447 20.9572 20.3131 20.8947 20.2698C20.3902 19.9908 19.8603 19.7606 19.312 19.5823C18.7245 19.393 18.1094 19.3038 17.4922 19.3183C16.9402 19.3213 16.3958 19.4478 15.899 19.6886C15.4021 19.9293 14.9655 20.2782 14.621 20.7096C14.1822 21.2538 13.8599 21.8824 13.6743 22.5563C13.5374 23.0469 13.4444 23.5486 13.3965 24.0556C13.3934 24.0819 13.389 24.108 13.3847 24.1385C13.3266 24.1726 13.2592 24.1876 13.192 24.1812C12.8772 24.1911 12.5624 24.2041 12.2476 24.2047C11.7582 24.2044 11.2694 24.1706 10.7846 24.1036C10.4651 24.0631 10.1479 24.0062 9.8343 23.9329C9.79992 23.7813 9.78216 23.6265 9.78132 23.4711C9.70794 21.913 10.2025 20.3811 11.1731 19.1601C12.1437 17.939 13.5245 17.1116 15.059 16.8316C15.5659 16.7382 16.0772 16.6711 16.5868 16.5906C17.1248 16.5188 17.6549 16.3959 18.1696 16.2236C18.473 16.1167 18.7644 15.9784 19.0391 15.8111C19.3767 15.6094 19.6701 15.3416 19.9019 15.0239C20.1337 14.7062 20.2991 14.345 20.3882 13.962C20.4712 13.6235 20.525 13.2785 20.5489 12.9308C20.5768 12.5502 20.6012 12.1691 20.6221 11.7875C20.6797 10.857 20.8688 9.93936 21.1836 9.06185C21.4924 8.18204 21.9164 7.34703 22.4445 6.57862C22.486 6.51796 22.5303 6.45973 22.5832 6.38593C23.0091 7.06622 23.3503 7.79597 23.5993 8.55898M22.4053 6.37521C21.5833 7.53871 21.0007 8.85395 20.6913 10.2445C20.5706 10.7807 20.4953 11.3261 20.4662 11.8749C20.4448 12.2829 20.4195 12.6907 20.3853 13.0982C20.3595 13.3987 20.3073 13.6964 20.2294 13.9879C20.1391 14.3428 19.979 14.6762 19.7584 14.9685C19.5377 15.2608 19.261 15.5063 18.9444 15.6904C18.5002 15.9542 18.0178 16.1476 17.5143 16.2634C17.0516 16.3757 16.5807 16.4422 16.1102 16.5109C15.5918 16.5771 15.0771 16.6698 14.5682 16.7887C13.4249 17.0796 12.3812 17.6736 11.5472 18.508C10.7133 19.3425 10.1199 20.3866 9.82985 21.5301C9.65979 22.1865 9.59529 22.8658 9.63877 23.5424C9.65568 23.654 9.65785 23.7674 9.64524 23.8795C9.05549 23.7676 8.48187 23.5832 7.93745 23.3303C7.9696 23.2745 8.00378 23.2179 8.03855 23.1621C8.39119 22.5991 8.65339 21.9843 8.81561 21.3401C8.95493 20.807 8.99191 20.2523 8.9246 19.7055C8.87126 19.2308 8.71765 18.7729 8.47395 18.3621C8.23025 17.9513 7.90202 17.5969 7.51101 17.3226C7.15502 17.0675 6.73854 16.9099 6.30286 16.8654C6.09648 16.8439 5.89017 16.8208 5.68393 16.796C5.45318 16.7707 5.23036 16.697 5.03 16.5797C4.82964 16.4625 4.65623 16.3044 4.52107 16.1156C4.25533 15.7514 4.08363 15.3271 4.02123 14.8806C3.96849 14.4948 3.97429 14.1032 4.03842 13.7191C4.11141 13.1934 4.24466 12.6818 4.35972 12.1656C4.49137 11.6249 4.55441 11.0697 4.54736 10.5132C4.54006 10.2317 4.49685 9.95221 4.41876 9.6816C4.32394 9.33033 4.14603 9.00702 3.90005 8.73893C3.65406 8.47085 3.34721 8.26585 3.00538 8.14123C2.52789 7.95619 2.01136 7.89491 1.50383 7.96309C1.45915 7.96855 1.41345 7.96795 1.36634 7.97057C1.50909 7.51432 1.70488 7.0764 1.94969 6.66577C2.45679 5.73782 3.09034 4.88481 3.83217 4.13119C4.15713 4.15367 4.47409 4.24215 4.76371 4.39122C5.15739 4.59781 5.49318 4.89954 5.74054 5.26897C5.9411 5.56236 6.1061 5.87852 6.23209 6.21082C6.42554 6.71083 6.57242 7.22762 6.67087 7.75462C6.78774 8.35961 6.88965 8.96783 6.99621 9.57443C7.10459 10.2694 7.2645 10.9553 7.47462 11.6266C7.60339 12.0217 7.77124 12.4029 7.97567 12.7648C8.5604 13.79 9.51544 14.5525 10.6447 14.8957C11.2968 15.1086 11.9846 15.1898 12.6683 15.1345C13.6039 15.0697 14.5023 14.7432 15.2612 14.1923C16.3349 13.4165 17.1312 12.3166 17.5329 11.0543C17.7713 10.3268 17.8776 9.5624 17.8469 8.79737C17.8356 8.42249 17.8065 8.04822 17.7881 7.67314C17.7678 7.22324 17.7292 6.77678 17.7462 6.32729C17.7542 5.90444 17.8101 5.48386 17.913 5.07365C18.1239 4.30538 18.567 3.62101 19.1816 3.11412C19.2779 3.03203 19.3804 2.95782 19.488 2.8735C20.6997 3.78354 21.7255 4.91771 22.5096 6.21446C22.471 6.2729 22.4399 6.32345 22.4055 6.37218" fill="white"/>
<path d="M12.4035 0.506348C14.7544 0.506348 17.0525 1.20347 19.0071 2.50956C20.9618 3.81565 22.4852 5.67205 23.3848 7.84398C24.2844 10.0159 24.5197 12.4058 24.061 14.7115C23.6023 17.0172 22.4702 19.1351 20.8078 20.7973C19.1454 22.4595 17.0275 23.5915 14.7218 24.05C12.416 24.5085 10.0261 24.273 7.85428 23.3732C5.68242 22.4734 3.82616 20.9498 2.52023 18.9951C1.21431 17.0403 0.517378 14.7422 0.517578 12.3913C0.517846 9.23912 1.77023 6.21614 3.99925 3.98731C6.22827 1.75848 9.25136 0.506348 12.4035 0.506348Z" stroke="white"/>
</svg>
