<svg width="250" height="44" viewBox="0 0 250 44" fill="none" xmlns="http://www.w3.org/2000/svg">
<g clip-path="url(#clip0_151_1345)">
<path d="M13.2709 33.3476C13.1166 32.152 12.5478 31.0476 11.6618 30.2283C11.0473 29.6372 10.2601 29.2596 9.41485 29.1486C9.1113 29.1091 8.80652 29.0807 8.50298 29.0511C7.63553 28.982 6.84458 28.5292 6.34607 27.8159C5.87965 27.1694 5.59708 26.408 5.52675 25.6146C5.46011 24.9508 5.49343 24.2807 5.62546 23.6268C5.75996 22.9222 5.91913 22.2213 6.07214 21.5205C6.24119 20.8109 6.34237 20.0879 6.37569 19.3598C6.40037 18.8206 6.34607 18.2814 6.21651 17.757C5.96109 16.6761 5.19112 15.7901 4.15585 15.3878C3.57591 15.1522 2.95278 15.0448 2.32841 15.0732C2.0261 15.0621 1.72378 15.1016 1.43258 15.1892C-1.40669 22.7137 0.881013 31.2105 7.11357 36.2906C8.50421 37.4282 10.8289 38.8028 11.7075 39.0114C11.742 38.9669 11.784 38.92 11.8173 38.8682C12.285 38.1501 12.6588 37.3764 12.9291 36.5632C13.2906 35.5317 13.4078 34.431 13.2696 33.3476" fill="#164347"/>
<path d="M13.2709 33.3476C13.1166 32.152 12.5478 31.0476 11.6618 30.2283C11.0473 29.6372 10.2601 29.2596 9.41485 29.1486C9.1113 29.1091 8.80652 29.0807 8.50298 29.0511C7.63553 28.982 6.84458 28.5292 6.34607 27.8159C5.87965 27.1694 5.59708 26.408 5.52675 25.6146C5.46011 24.9508 5.49343 24.2807 5.62546 23.6268C5.75996 22.9222 5.91913 22.2213 6.07214 21.5205C6.24119 20.8109 6.34237 20.0879 6.37569 19.3598C6.40037 18.8206 6.34607 18.2814 6.21651 17.757C5.96109 16.6761 5.19112 15.7901 4.15585 15.3878C3.57591 15.1522 2.95278 15.0448 2.32841 15.0732C2.0261 15.0621 1.72378 15.1016 1.43258 15.1892C-1.40669 22.7137 0.881013 31.2105 7.11357 36.2906C8.50421 37.4282 10.8289 38.8028 11.7075 39.0114C11.742 38.9669 11.784 38.92 11.8173 38.8682C12.285 38.1501 12.6588 37.3764 12.9291 36.5632C13.2906 35.5317 13.4078 34.431 13.2696 33.3476" stroke="white" stroke-width="0.549529" stroke-miterlimit="10"/>
<path d="M12.6243 6.71093C12.6884 7.51175 12.7069 8.31627 12.6786 9.11956C12.6588 10.0277 12.6169 10.9359 12.6823 11.8453C12.7217 12.4672 12.8131 13.0854 12.9587 13.6925C13.1326 14.4341 13.4399 15.1386 13.8681 15.7692C14.8626 17.1857 16.6123 17.8644 18.3016 17.4868C19.4392 17.2758 20.3894 16.4935 20.8126 15.4163C20.9385 15.114 21.0421 14.803 21.1248 14.4871C21.2852 13.8295 21.3802 13.1582 21.4086 12.482C21.4481 11.7108 21.4061 10.9384 21.2864 10.1758C21.168 9.46753 20.9965 8.76789 20.7756 8.08429C20.5683 7.397 20.3511 6.71217 20.2055 6.0076C19.9982 5.13027 19.9871 4.21717 20.1747 3.33491C20.1833 3.27692 20.187 3.21769 20.1858 3.15846C18.7162 3.04 17.2367 3.1054 15.7831 3.35219C14.527 3.56319 13.2992 3.91732 12.1233 4.40596C12.1492 4.48493 12.1677 4.54539 12.1887 4.60462C12.4219 5.28451 12.5675 5.99279 12.6243 6.7097" fill="#164347"/>
<path d="M12.6243 6.71093C12.6884 7.51175 12.7069 8.31627 12.6786 9.11956C12.6588 10.0277 12.6169 10.9359 12.6823 11.8453C12.7217 12.4672 12.8131 13.0854 12.9587 13.6925C13.1326 14.4341 13.4399 15.1386 13.8681 15.7692C14.8626 17.1857 16.6123 17.8644 18.3016 17.4868C19.4392 17.2758 20.3894 16.4935 20.8126 15.4163C20.9385 15.114 21.0421 14.803 21.1248 14.4871C21.2852 13.8295 21.3802 13.1582 21.4086 12.482C21.4481 11.7108 21.4061 10.9384 21.2864 10.1758C21.168 9.46752 20.9965 8.76789 20.7756 8.08429C20.5683 7.397 20.3511 6.71217 20.2055 6.0076C19.9982 5.13027 19.9871 4.21717 20.1747 3.33491C20.1833 3.27692 20.187 3.21769 20.1858 3.15846C18.7162 3.04 17.2367 3.1054 15.7831 3.35219C14.527 3.56319 13.2992 3.91732 12.1233 4.40596C12.1492 4.48493 12.1677 4.54539 12.1887 4.60462C12.4219 5.28451 12.5675 5.99279 12.6243 6.7097" stroke="white" stroke-width="0.549529" stroke-miterlimit="10"/>
<path d="M29.4821 33.3205C28.3913 33.0083 27.2475 32.9355 26.1258 33.1058C25.1819 33.2526 24.2934 33.6487 23.5531 34.2533C22.7769 34.8962 22.1563 35.7057 21.7355 36.62C21.2284 37.738 20.9186 38.9336 20.8187 40.1565C20.8162 40.2268 20.8187 40.2971 20.8249 40.3675C22.1131 40.2675 23.3853 40.0158 24.6155 39.6172C26.8131 38.9139 28.8627 37.812 30.6605 36.3646C31.3367 35.855 31.9499 35.2676 32.4892 34.6149C32.4497 34.584 32.4077 34.5557 32.3645 34.5285C31.4551 34.0127 30.4865 33.6068 29.4809 33.3193" fill="#278791"/>
<path d="M5.76958 8.60743C5.87076 8.63211 5.97441 8.65802 6.07806 8.67776C6.72217 8.81473 7.32186 9.1084 7.82407 9.53411C8.251 9.89935 8.61378 10.3325 8.89882 10.8162C9.30725 11.5207 9.62313 12.2759 9.83783 13.0607C10.1327 14.1515 10.366 15.2583 10.5375 16.3762C10.6979 17.2918 10.8583 18.2074 11.0471 19.1168C11.2383 20.0817 11.5555 21.017 11.991 21.9005C12.55 23.0604 13.4212 24.0401 14.507 24.7324C16.1889 25.7936 18.2051 26.1909 20.1633 25.8466C21.3171 25.6603 22.4103 25.205 23.3555 24.5189C25.7333 22.784 27.1967 20.0657 27.3386 17.1265C27.3633 16.1751 27.3349 15.2237 27.2535 14.2761C27.1634 13.2433 27.1733 12.2043 27.2819 11.174C27.4028 10.14 27.7816 9.15406 28.3813 8.30388C28.7564 7.77823 29.2031 7.30687 29.7078 6.90584C29.7892 6.84168 29.8669 6.77381 29.9644 6.69114C28.232 5.42143 26.2922 4.46143 24.2316 3.85434C22.878 3.45455 20.9703 3.12139 20.4632 3.19543C20.4521 3.22874 20.436 3.26576 20.4249 3.30525C20.3052 3.76673 20.2571 4.24303 20.2793 4.71933C20.3065 5.36467 20.4114 6.00261 20.594 6.62204C20.7754 7.27355 20.9703 7.92013 21.1616 8.56918C21.4158 9.40948 21.5737 10.2769 21.6317 11.153C21.6909 12.0402 21.649 12.9299 21.5071 13.8084C21.4108 14.4575 21.222 15.0892 20.9493 15.6852C20.5347 16.5798 19.7709 17.2647 18.8356 17.5768C18.3569 17.7496 17.851 17.8323 17.3426 17.8212C15.9211 17.8249 14.5835 17.1462 13.7457 15.9974C13.4372 15.5803 13.1892 15.1213 13.0103 14.6352C12.6697 13.7109 12.4797 12.7386 12.4439 11.7552C12.4167 11.2172 12.4241 10.678 12.4254 10.1387C12.4254 9.39961 12.439 8.65925 12.4439 7.9189C12.4476 7.30563 12.4032 6.69361 12.3106 6.08652C12.2415 5.60528 12.1255 5.13146 11.9639 4.67367C11.933 4.60457 11.8973 4.53917 11.8565 4.47501C9.64287 5.37701 7.6254 6.69854 5.91271 8.36558C5.84732 8.42851 5.76094 8.48157 5.74243 8.57905C5.756 8.59262 5.76094 8.60373 5.76834 8.60619" fill="#356A72"/>
<path d="M5.76958 8.60743C5.87076 8.63211 5.97441 8.65802 6.07806 8.67776C6.72217 8.81473 7.32186 9.1084 7.82407 9.53411C8.251 9.89935 8.61378 10.3325 8.89882 10.8162C9.30725 11.5207 9.62313 12.2759 9.83783 13.0607C10.1327 14.1515 10.366 15.2583 10.5375 16.3762C10.6979 17.2918 10.8583 18.2074 11.0471 19.1168C11.2383 20.0817 11.5555 21.017 11.991 21.9005C12.55 23.0604 13.4212 24.0401 14.507 24.7324C16.1889 25.7936 18.2051 26.1909 20.1633 25.8466C21.3171 25.6603 22.4103 25.205 23.3555 24.5189C25.7333 22.784 27.1967 20.0657 27.3386 17.1265C27.3633 16.1751 27.3349 15.2237 27.2535 14.2761C27.1634 13.2433 27.1733 12.2043 27.2819 11.174C27.4028 10.14 27.7816 9.15406 28.3813 8.30388C28.7564 7.77823 29.2031 7.30687 29.7078 6.90584C29.7892 6.84168 29.8669 6.77381 29.9644 6.69114C28.232 5.42143 26.2922 4.46143 24.2316 3.85434C22.878 3.45455 20.9703 3.12139 20.4632 3.19543C20.4521 3.22874 20.436 3.26576 20.4249 3.30525C20.3052 3.76673 20.2571 4.24303 20.2793 4.71933C20.3065 5.36467 20.4113 6.00261 20.594 6.62204C20.7754 7.27355 20.9703 7.92013 21.1616 8.56918C21.4158 9.40948 21.5737 10.2769 21.6317 11.153C21.6909 12.0402 21.649 12.9299 21.5071 13.8084C21.4108 14.4575 21.222 15.0892 20.9493 15.6852C20.5347 16.5798 19.7709 17.2647 18.8356 17.5768C18.3569 17.7496 17.851 17.8323 17.3426 17.8212C15.9211 17.8249 14.5835 17.1462 13.7457 15.9974C13.4372 15.5803 13.1892 15.1213 13.0103 14.6352C12.6697 13.7109 12.4797 12.7386 12.4439 11.7552C12.4167 11.2172 12.4241 10.678 12.4254 10.1387C12.4254 9.39961 12.439 8.65925 12.4439 7.9189C12.4476 7.30563 12.4032 6.69361 12.3106 6.08652C12.2415 5.60528 12.1255 5.13146 11.9639 4.67367C11.933 4.60457 11.8973 4.53917 11.8565 4.47501C9.64287 5.37701 7.6254 6.69854 5.91271 8.36558C5.84732 8.42851 5.76094 8.48157 5.74243 8.57905C5.756 8.59262 5.76094 8.60373 5.76834 8.60619" stroke="white" stroke-width="0.549529" stroke-miterlimit="10"/>
<path d="M32.8469 16.6033C32.3509 17.9877 32.0523 19.4351 31.961 20.9023C31.9264 21.5032 31.8894 22.1041 31.845 22.705C31.8067 23.2529 31.7228 23.7971 31.592 24.3314C31.3082 25.5517 30.5395 26.6042 29.4635 27.2471C29.0304 27.5112 28.5701 27.7296 28.0914 27.8974C27.2795 28.1689 26.4441 28.3626 25.5951 28.4761C24.7919 28.6007 23.9849 28.7081 23.1853 28.8562C18.1792 29.7705 14.6231 34.2472 14.8637 39.331C14.8649 39.5765 14.8933 39.8208 14.9476 40.059C15.4424 40.175 15.9434 40.2638 16.448 40.328C17.2118 40.4341 17.9831 40.4872 18.7543 40.4872C19.2503 40.4872 19.7476 40.4662 20.2436 40.4501C20.3497 40.46 20.4558 40.4366 20.5472 40.3823C20.5546 40.3317 20.5607 40.2922 20.5657 40.2515C20.6409 39.4519 20.7878 38.6609 21.0037 37.8873C21.2961 36.8249 21.8045 35.8328 22.4968 34.974C23.5974 33.5969 25.2607 32.7911 27.024 32.7813C27.9976 32.7578 28.9687 32.8985 29.8954 33.1983C30.7604 33.4784 31.5957 33.8412 32.3916 34.2805C32.4903 34.3484 32.6001 34.399 32.7161 34.4273C33.9895 33.0404 35.047 31.4684 35.8515 29.7656C36.8732 27.6111 37.468 25.279 37.6012 22.8988C37.7444 20.4975 37.4236 18.0901 36.6548 15.8099C36.2624 14.6068 35.7244 13.4555 35.052 12.3832C34.968 12.498 34.9002 12.5905 34.8335 12.6868C34.0006 13.8985 33.3319 15.2151 32.8445 16.6033" fill="#164347"/>
<path d="M32.8469 16.6033C32.3509 17.9877 32.0523 19.4351 31.961 20.9023C31.9264 21.5032 31.8894 22.1041 31.845 22.705C31.8067 23.2529 31.7228 23.7971 31.592 24.3314C31.3082 25.5517 30.5395 26.6042 29.4635 27.2471C29.0304 27.5112 28.5701 27.7296 28.0914 27.8974C27.2795 28.1689 26.4441 28.3626 25.5951 28.4761C24.7919 28.6007 23.9849 28.7081 23.1853 28.8562C18.1792 29.7705 14.6231 34.2472 14.8637 39.331C14.8649 39.5765 14.8933 39.8208 14.9476 40.059C15.4424 40.175 15.9434 40.2638 16.448 40.328C17.2118 40.4341 17.9831 40.4872 18.7543 40.4872C19.2503 40.4872 19.7476 40.4662 20.2436 40.4501C20.3497 40.46 20.4558 40.4366 20.5472 40.3823C20.5546 40.3317 20.5607 40.2922 20.5657 40.2515C20.6409 39.4519 20.7878 38.6609 21.0037 37.8873C21.2961 36.8249 21.8045 35.8328 22.4968 34.974C23.5974 33.5969 25.2607 32.7911 27.024 32.7813C27.9976 32.7578 28.9687 32.8985 29.8954 33.1983C30.7604 33.4784 31.5957 33.8412 32.3916 34.2805C32.4903 34.3484 32.6001 34.399 32.7161 34.4273C33.9895 33.0404 35.047 31.4684 35.8515 29.7656C36.8732 27.6111 37.468 25.279 37.6012 22.8988C37.7444 20.4975 37.4236 18.0901 36.6548 15.8099C36.2624 14.6068 35.7244 13.4555 35.052 12.3832C34.968 12.498 34.9002 12.5905 34.8335 12.6868C34.0006 13.8985 33.3319 15.2151 32.8445 16.6033" stroke="white" stroke-width="0.549529" stroke-miterlimit="10"/>
<path d="M30.1731 6.84662C30.0028 6.97988 29.8412 7.09711 29.6894 7.22667C28.7195 8.02625 28.0211 9.10594 27.6892 10.3177C27.5275 10.9642 27.4387 11.6268 27.4264 12.2932C27.3992 13.0027 27.4584 13.7085 27.4918 14.4155C27.5201 15.0066 27.567 15.5976 27.5843 16.1887C27.6324 17.3955 27.4646 18.601 27.0883 19.7486C26.4553 21.7389 25.1991 23.4738 23.5062 24.6978C22.3093 25.5653 20.8927 26.0798 19.417 26.181C18.3385 26.2686 17.2539 26.1403 16.2248 25.8047C14.4442 25.263 12.9376 24.0611 12.0159 22.4434C11.6938 21.8734 11.4285 21.2712 11.2249 20.6481C10.893 19.5894 10.6413 18.5072 10.471 17.4115C10.3032 16.454 10.1428 15.4964 9.95767 14.5426C9.80219 13.711 9.57022 12.8966 9.26544 12.1081C9.06677 11.5837 8.80642 11.0852 8.49053 10.6224C8.10061 10.04 7.57126 9.56372 6.94936 9.23797C6.4928 9.00229 5.99306 8.86285 5.47975 8.82707C4.30999 10.0153 3.31051 11.3616 2.51092 12.825C2.12594 13.474 1.81746 14.165 1.59412 14.8856C1.66939 14.8819 1.74095 14.8832 1.81129 14.8745C2.61087 14.7672 3.42526 14.8622 4.17796 15.1534C5.27122 15.5532 6.10288 16.4589 6.40766 17.583C6.53106 18.01 6.59892 18.4505 6.61003 18.8947C6.62113 19.772 6.52242 20.6481 6.31388 21.5007C6.1325 22.3151 5.92273 23.1221 5.80674 23.9513C5.70556 24.5572 5.69692 25.1741 5.77959 25.7825C5.87708 26.4858 6.14607 27.1533 6.56437 27.7284C6.99501 28.3305 7.66257 28.7204 8.39799 28.8006C8.72251 28.8401 9.04827 28.8759 9.37402 28.9105C10.0626 28.9796 10.7202 29.2276 11.2829 29.6298C12.5304 30.5047 13.3423 31.8743 13.5126 33.3884C13.6187 34.2509 13.5607 35.1257 13.3411 35.966C13.0857 36.9816 12.6723 37.9514 12.1158 38.8399C12.0615 38.9275 12.0097 39.0175 11.9579 39.1052C12.8154 39.5037 13.7199 39.7949 14.6503 39.9714C14.67 39.7949 14.6663 39.616 14.6404 39.4395C14.5713 38.3722 14.6737 37.3012 14.9415 36.2659C15.8743 32.5937 18.7408 29.7261 22.4129 28.7908C23.215 28.6032 24.0269 28.4564 24.845 28.3527C25.5878 28.2441 26.3294 28.1393 27.0599 27.9628C27.8545 27.7802 28.6146 27.4754 29.3155 27.0583C30.3236 26.471 31.0541 25.5036 31.3416 24.3733C31.465 23.9143 31.5464 23.4442 31.5872 22.9703C31.6415 22.3275 31.6809 21.6846 31.7155 21.0405C31.7611 20.1755 31.8796 19.3142 32.0696 18.469C32.5583 16.2763 33.4775 14.2021 34.7744 12.3672C34.8287 12.2907 34.8756 12.2117 34.9385 12.118C33.7021 10.0733 32.0844 8.28414 30.1731 6.84909" fill="#416E46"/>
<path d="M30.1731 6.84662C30.0028 6.97988 29.8412 7.09711 29.6894 7.22667C28.7195 8.02625 28.0211 9.10594 27.6892 10.3177C27.5275 10.9642 27.4387 11.6268 27.4264 12.2932C27.3992 13.0027 27.4584 13.7085 27.4918 14.4155C27.5201 15.0066 27.567 15.5976 27.5843 16.1887C27.6324 17.3955 27.4646 18.601 27.0883 19.7486C26.4553 21.7389 25.1991 23.4738 23.5062 24.6978C22.3093 25.5653 20.8927 26.0798 19.4169 26.181C18.3385 26.2686 17.2539 26.1403 16.2248 25.8047C14.4442 25.263 12.9376 24.0611 12.0159 22.4434C11.6938 21.8734 11.4285 21.2712 11.2249 20.6481C10.893 19.5894 10.6413 18.5072 10.471 17.4115C10.3032 16.454 10.1428 15.4964 9.95767 14.5426C9.80219 13.711 9.57022 12.8966 9.26544 12.1081C9.06677 11.5837 8.80642 11.0852 8.49053 10.6224C8.10061 10.04 7.57126 9.56372 6.94936 9.23797C6.4928 9.00229 5.99306 8.86285 5.47975 8.82707C4.30999 10.0153 3.31051 11.3616 2.51092 12.825C2.12594 13.474 1.81746 14.165 1.59412 14.8856C1.66939 14.8819 1.74095 14.8832 1.81129 14.8745C2.61087 14.7672 3.42526 14.8622 4.17796 15.1534C5.27122 15.5532 6.10288 16.4589 6.40766 17.583C6.53106 18.01 6.59892 18.4505 6.61003 18.8947C6.62113 19.772 6.52242 20.6481 6.31388 21.5007C6.1325 22.3151 5.92273 23.1221 5.80674 23.9513C5.70556 24.5572 5.69692 25.1741 5.77959 25.7825C5.87708 26.4858 6.14607 27.1533 6.56437 27.7284C6.99501 28.3305 7.66257 28.7204 8.39799 28.8006C8.72251 28.8401 9.04827 28.8759 9.37402 28.9105C10.0626 28.9796 10.7202 29.2276 11.2829 29.6298C12.5304 30.5047 13.3423 31.8743 13.5126 33.3884C13.6187 34.2509 13.5607 35.1257 13.3411 35.966C13.0857 36.9816 12.6723 37.9514 12.1158 38.8399C12.0615 38.9275 12.0097 39.0175 11.9579 39.1052C12.8154 39.5037 13.7199 39.7949 14.6503 39.9714C14.67 39.7949 14.6663 39.616 14.6404 39.4395C14.5713 38.3722 14.6737 37.3012 14.9415 36.2659C15.8743 32.5937 18.7408 29.7261 22.4129 28.7908C23.215 28.6032 24.0269 28.4564 24.845 28.3527C25.5878 28.2441 26.3294 28.1393 27.0599 27.9628C27.8545 27.7802 28.6146 27.4754 29.3155 27.0583C30.3236 26.471 31.0541 25.5036 31.3416 24.3733C31.465 23.9143 31.5464 23.4442 31.5872 22.9703C31.6415 22.3275 31.6809 21.6846 31.7155 21.0405C31.7611 20.1755 31.8796 19.3142 32.0696 18.469C32.5583 16.2763 33.4775 14.2021 34.7744 12.3672C34.8287 12.2907 34.8756 12.2117 34.9385 12.118C33.7021 10.0733 32.0844 8.28414 30.1731 6.84909" stroke="white" stroke-width="0.549529" stroke-miterlimit="10"/>
<path d="M18.9383 2.85877C8.48078 2.8563 0.00246839 11.3321 5.38774e-07 21.7884C-0.00246731 32.246 8.47337 40.7243 18.9309 40.7255C29.3798 40.728 37.8556 32.2632 37.868 21.8143C37.8778 11.3556 29.4069 2.8674 18.9469 2.85877C18.9445 2.85877 18.9408 2.85877 18.9383 2.85877ZM15.7832 3.3548C17.2367 3.10802 18.7162 3.04385 20.1858 3.16231C20.187 3.22154 20.1833 3.28077 20.1747 3.33876C19.9871 4.22102 19.9982 5.13413 20.2055 6.01145C20.3499 6.71602 20.5671 7.40085 20.7756 8.08815C20.9977 8.77174 21.168 9.47014 21.2865 10.1797C21.4074 10.9422 21.4481 11.7147 21.4099 12.4846C21.3815 13.1608 21.2865 13.8321 21.1261 14.4898C21.0434 14.8069 20.9397 15.1166 20.8139 15.4189C20.3894 16.4961 19.4405 17.2784 18.3028 17.4882C16.6136 17.8658 14.8639 17.1871 13.8693 15.7706C13.4424 15.14 13.1339 14.4355 12.9599 13.6939C12.8156 13.0868 12.723 12.4698 12.6835 11.8467C12.6181 10.9373 12.6601 10.0291 12.6798 9.12094C12.707 8.31766 12.6885 7.51437 12.6255 6.71232C12.57 5.99541 12.4232 5.28837 12.19 4.60724C12.169 4.54801 12.1505 4.48755 12.1246 4.40858C13.3005 3.91871 14.5283 3.56457 15.7832 3.35234M5.91421 8.36948C7.62567 6.70245 9.64314 5.38091 11.8568 4.47891C11.8975 4.54184 11.9333 4.60847 11.9642 4.67757C12.127 5.13536 12.243 5.60795 12.3134 6.08795C12.4059 6.69381 12.4503 7.30707 12.4466 7.92033C12.4417 8.65945 12.4293 9.39981 12.4281 10.1402C12.4281 10.6794 12.4195 11.2186 12.4466 11.7566C12.4812 12.7401 12.6724 13.7124 13.013 14.6366C13.1919 15.1228 13.4399 15.5818 13.7484 15.9988C14.5862 17.1476 15.9238 17.8263 17.3453 17.8226C17.8537 17.8337 18.3596 17.751 18.8384 17.5783C19.7737 17.2661 20.5387 16.5813 20.9521 15.6867C21.2248 15.0907 21.4123 14.4577 21.5098 13.8099C21.6517 12.9325 21.6937 12.0416 21.6344 11.1545C21.5764 10.2784 21.4185 9.41092 21.1643 8.57061C20.9743 7.92157 20.7781 7.27499 20.5967 6.62348C20.4153 6.00404 20.3092 5.36487 20.282 4.72076C20.2598 4.24446 20.3092 3.76817 20.4277 3.30668C20.4388 3.26719 20.4548 3.22894 20.4659 3.19563C20.973 3.11912 22.8807 3.45228 24.2343 3.85454C26.295 4.46164 28.2347 5.42163 29.9671 6.69134C29.8684 6.77401 29.7919 6.84311 29.7105 6.90604C29.2046 7.3083 28.7579 7.77843 28.384 8.30408C27.7831 9.15426 27.4055 10.1414 27.2846 11.1742C27.1748 12.2045 27.1661 13.2435 27.2562 14.2763C27.3364 15.2239 27.3648 16.1765 27.3413 17.1267C27.1994 20.0659 25.736 22.783 23.3595 24.5179C22.4143 25.2052 21.321 25.6593 20.1673 25.8456C18.2091 26.1898 16.1928 25.7925 14.511 24.7313C13.4251 24.0403 12.554 23.0594 11.995 21.8995C11.5607 21.0172 11.2435 20.0807 11.051 19.1157C10.8623 18.2039 10.7018 17.292 10.5414 16.3752C10.3699 15.2585 10.1355 14.1517 9.8418 13.0596C9.6271 12.2736 9.31121 11.5197 8.90278 10.8151C8.61774 10.3314 8.25497 9.89832 7.82803 9.53307C7.32582 9.10737 6.72613 8.81246 6.08202 8.67673C5.98084 8.65452 5.87596 8.62984 5.77354 8.6064C5.76614 8.6064 5.7612 8.59406 5.74763 8.57925C5.76614 8.48177 5.85251 8.42748 5.91791 8.36578M11.71 39.0116C10.8314 38.8018 8.50669 37.4272 7.11605 36.2908C0.889661 31.2058 -1.39557 22.7151 1.43382 15.1906C1.7238 15.103 2.02611 15.0635 2.32842 15.0746C2.95279 15.0475 3.57715 15.1548 4.15586 15.3893C5.19113 15.7916 5.96233 16.6775 6.21652 17.7584C6.34608 18.2816 6.40038 18.8221 6.3757 19.3613C6.34238 20.0893 6.2412 20.8136 6.07215 21.5219C5.92038 22.2228 5.75997 22.9236 5.62547 23.6282C5.49467 24.2822 5.46136 24.9522 5.52676 25.6161C5.59709 26.4095 5.88089 27.1696 6.34608 27.8162C6.84459 28.5281 7.6343 28.981 8.50052 29.0513C8.80407 29.0809 9.10885 29.1093 9.41239 29.1488C10.2576 29.2599 11.0449 29.6387 11.6594 30.2285C12.5441 31.0478 13.1142 32.1522 13.2684 33.3479C13.4066 34.4312 13.2894 35.5331 12.9278 36.5635C12.6576 37.3766 12.2837 38.1515 11.8161 38.8684C11.7828 38.919 11.7408 38.9672 11.7063 39.0116M30.6544 36.3636C28.8566 37.8097 26.8071 38.9129 24.6094 39.6162C23.3817 40.0148 22.1107 40.2665 20.8225 40.3677C20.8151 40.2973 20.8126 40.227 20.8163 40.1567C20.9163 38.9338 21.2272 37.7369 21.7344 36.619C22.1551 35.7034 22.777 34.8952 23.552 34.2523C24.2923 33.6489 25.1795 33.2516 26.1235 33.1048C27.2439 32.9345 28.3889 33.0073 29.4785 33.3195C30.4842 33.607 31.4528 34.0129 32.3622 34.5287C32.4054 34.5546 32.4461 34.5843 32.4868 34.6151C31.9476 35.2678 31.3343 35.8552 30.6581 36.3648M36.6575 15.8113C37.425 18.0916 37.7458 20.4977 37.6039 22.9002C37.4706 25.2804 36.8759 27.6126 35.8542 29.7658C35.0497 31.4686 33.9922 33.0394 32.7188 34.4275C32.6028 34.3979 32.493 34.3486 32.3943 34.2807C31.5984 33.8414 30.763 33.4787 29.898 33.1986C28.9714 32.8999 28.0003 32.7593 27.0267 32.7815C25.2634 32.7901 23.5976 33.5971 22.4969 34.9754C21.8047 35.8342 21.2963 36.8251 21.0039 37.8887C20.788 38.6624 20.6411 39.4533 20.5659 40.2529C20.5609 40.2949 20.5547 40.3356 20.5473 40.3837C20.456 40.438 20.3487 40.4614 20.2438 40.4516C19.7478 40.4676 19.2505 40.4874 18.7544 40.4886C17.9832 40.4886 17.212 40.4355 16.447 40.3294C15.9423 40.2653 15.4414 40.1764 14.9466 40.0604C14.8923 39.821 14.8639 39.5767 14.8626 39.3324C14.622 34.2486 18.1819 29.7707 23.1892 28.8588C23.9888 28.712 24.7957 28.6059 25.599 28.4788C26.448 28.3653 27.2833 28.1715 28.0953 27.9001C28.574 27.731 29.0343 27.5139 29.4674 27.2498C30.5434 26.6069 31.3109 25.5544 31.5959 24.334C31.7267 23.7997 31.8119 23.2556 31.8489 22.7077C31.8933 22.1068 31.9303 21.5059 31.9649 20.9049C32.0562 19.4378 32.3536 17.9904 32.8508 16.6059C33.3382 15.2178 34.007 13.9012 34.8399 12.6895C34.9053 12.5944 34.9756 12.5019 35.0583 12.3859C35.7296 13.4594 36.2676 14.6094 36.6612 15.8138M34.7782 12.3686C33.4814 14.2035 32.5633 16.2777 32.0747 18.4716C31.8847 19.3169 31.7662 20.1769 31.7205 21.0431C31.686 21.686 31.6465 22.3301 31.5922 22.973C31.5515 23.4468 31.4688 23.917 31.3467 24.376C31.0592 25.5063 30.3287 26.4749 29.3206 27.061C28.6197 27.4768 27.8596 27.7816 27.0649 27.9655C26.3357 28.1419 25.5929 28.2468 24.85 28.3554C24.0319 28.4603 23.2213 28.6059 22.418 28.7934C18.7446 29.7275 15.8769 32.5976 14.9453 36.271C14.6776 37.3063 14.5751 38.3773 14.6442 39.4447C14.6714 39.6211 14.6739 39.7988 14.6541 39.9765C13.725 39.8001 12.8205 39.5101 11.9617 39.1115C12.0123 39.0239 12.0666 38.9338 12.1196 38.8462C12.6761 37.9578 13.0895 36.9892 13.3449 35.9724C13.5646 35.1321 13.6225 34.2573 13.5164 33.3947C13.3461 31.8807 12.5342 30.5123 11.2867 29.6362C10.7253 29.2339 10.0688 28.9859 9.38154 28.9156C9.05579 28.8823 8.73003 28.8453 8.40551 28.8058C7.67009 28.7243 7.00253 28.3344 6.57189 27.7323C6.15236 27.1572 5.88213 26.4885 5.78341 25.7839C5.70074 25.1756 5.70938 24.5586 5.81056 23.9527C5.92531 23.1248 6.13632 22.3166 6.3177 21.5022C6.525 20.6495 6.62495 19.7734 6.61385 18.8961C6.60274 18.4519 6.53364 18.0114 6.41148 17.5844C6.10794 16.4603 5.27627 15.5546 4.18178 15.1548C3.42908 14.8636 2.61469 14.7674 1.81511 14.876C1.74477 14.8846 1.6732 14.8834 1.59794 14.8871C1.82374 14.1677 2.13223 13.4767 2.51844 12.8289C3.31803 11.3655 4.31751 10.0205 5.48727 8.83097C5.99935 8.86675 6.50032 9.00619 6.95688 9.24187C7.57754 9.56762 8.1069 10.0439 8.49805 10.6263C8.81394 11.0891 9.0743 11.5876 9.27296 12.112C9.57774 12.9005 9.80972 13.7161 9.96519 14.5465C10.149 15.5003 10.3107 16.4591 10.4785 17.4154C10.6488 18.5111 10.9017 19.5933 11.2324 20.652C11.436 21.2751 11.7001 21.876 12.0234 22.4473C12.9451 24.0638 14.4517 25.2669 16.2323 25.8086C17.2614 26.1442 18.346 26.2725 19.4245 26.1849C20.9002 26.0825 22.318 25.568 23.5149 24.6993C25.2079 23.4752 26.464 21.7403 27.097 19.75C27.4734 18.6024 27.64 17.3969 27.5918 16.1901C27.5746 15.5991 27.5264 15.008 27.4993 14.417C27.466 13.7074 27.4067 13.0029 27.4339 12.2946C27.4462 11.6283 27.5351 10.9657 27.6967 10.3191C28.0299 9.10737 28.7283 8.02768 29.6969 7.2281C29.8487 7.09854 30.0103 6.98131 30.1806 6.84805C32.092 8.28311 33.7096 10.0723 34.946 12.1169C34.8856 12.2095 34.8362 12.2884 34.7819 12.3662" fill="white"/>
<path d="M19.0011 40.6019C29.3541 40.6019 37.7469 32.2091 37.7469 21.8561C37.7469 11.5031 29.3541 3.11029 19.0011 3.11029C8.64804 3.11029 0.255249 11.5031 0.255249 21.8561C0.255249 32.2091 8.64804 40.6019 19.0011 40.6019Z" stroke="white" stroke-width="0.549529"/>
<path d="M65.7866 5.06877C67.8617 6.90722 68.8992 9.45698 68.8992 12.718C68.8992 14.5859 68.5289 16.3268 67.7881 17.9433C67.0461 19.5597 65.8534 20.8781 64.2088 21.9009C62.5629 22.9238 60.4517 23.4345 57.8726 23.4345H53.2036V34.6845H48.0011V2.31177H57.1612C60.8368 2.31177 63.7128 3.23032 65.7879 5.06877H65.7866ZM61.3168 17.5421C62.1912 16.9351 62.813 16.1944 63.1847 15.3186C63.555 14.4442 63.7409 13.6072 63.7409 12.8063C63.7409 11.4425 63.3037 10.183 62.4292 9.02645C61.5548 7.8699 60.08 7.29229 58.0049 7.29229H53.2022V18.454H57.8712C59.2938 18.454 60.4424 18.1505 61.3168 17.5421Z" fill="black"/>
<path d="M79.1265 0V34.6858H74.146V0H79.1265Z" fill="black"/>
<path d="M105.674 15.8748V34.6845H100.693V31.9716C100.011 32.7725 99.0926 33.5065 97.9361 34.1724C96.7795 34.8396 95.4304 35.1725 93.8888 35.1725C92.0798 35.1725 90.4646 34.7941 89.042 34.0387C87.6194 33.2832 86.4922 32.1641 85.6619 30.6813C84.8316 29.1999 84.4171 27.4055 84.4171 25.301C84.4171 23.1965 84.8463 21.4543 85.7074 19.898C86.5671 18.3417 87.7156 17.141 89.153 16.296C90.5903 15.451 92.1693 15.0284 93.8888 15.0284C96.9426 15.0284 99.225 16.1556 100.737 18.4072L101.093 15.8735H105.674V15.8748ZM98.7142 30.0382C99.6488 29.3429 100.308 28.3562 100.693 27.082V22.9906C100.337 21.834 99.6475 20.9008 98.626 20.1881C97.6031 19.4768 96.4252 19.1212 95.0908 19.1212C93.5198 19.1212 92.1854 19.676 91.089 20.7885C89.9926 21.9009 89.4444 23.3168 89.4444 25.0349C89.4444 26.1621 89.7105 27.1849 90.2453 28.1035C90.7788 29.0234 91.4901 29.7494 92.3793 30.2829C93.2684 30.8164 94.2324 31.0838 95.27 31.0838C96.6324 31.0838 97.7823 30.7348 98.7156 30.0382H98.7142Z" fill="black"/>
<path d="M129.22 16.653C130.392 17.7066 130.992 19.0623 131.021 20.7216V34.6845H126.041V22.4999C125.981 21.5225 125.692 20.751 125.174 20.1881C124.656 19.6252 123.877 19.3284 122.84 19.299C121.298 19.299 120.031 19.9595 119.037 21.2778C118.044 22.5975 117.548 24.2795 117.548 26.3252V34.6845H112.567V15.8748H117.058L117.414 19.2094C118.096 17.9058 119.081 16.8896 120.372 16.1636C121.661 15.4376 123.151 15.0739 124.84 15.0739C126.529 15.0739 128.049 15.6007 129.22 16.6516V16.653Z" fill="black"/>
<path d="M139.402 34.3074C138.112 33.7886 137.052 33.0559 136.223 32.1066L138.312 29.3055C139.884 30.8471 141.484 31.6173 143.115 31.6173C144.004 31.6173 144.738 31.4461 145.316 31.1052C145.894 30.7642 146.182 30.2535 146.182 29.5702C146.182 28.887 145.886 28.3255 145.293 27.9698C144.7 27.6141 144.04 27.3253 143.314 27.1034C142.587 26.8814 142.12 26.741 141.913 26.6809C140.282 26.1768 139.067 25.4441 138.267 24.4801C137.466 23.5174 137.066 22.3836 137.066 21.0786C137.066 20.0411 137.326 19.0704 137.845 18.1652C138.363 17.2613 139.149 16.5273 140.202 15.9644C141.254 15.4015 142.536 15.1194 144.048 15.1194C145.471 15.1194 146.709 15.2825 147.761 15.6087C148.814 15.935 149.799 16.4538 150.719 17.1651L148.807 20.144C148.274 19.64 147.629 19.2402 146.872 18.9434C146.117 18.6479 145.427 18.4981 144.804 18.4981C144.032 18.4981 143.396 18.6759 142.892 19.0316C142.388 19.3873 142.136 19.8472 142.136 20.4101C142.107 21.092 142.358 21.6041 142.892 21.945C143.425 22.286 144.285 22.6497 145.471 23.0347C145.975 23.1831 146.301 23.2861 146.45 23.3463C147.931 23.8209 149.088 24.4801 149.918 25.3251C150.748 26.1701 151.163 27.2745 151.163 28.6383C151.163 30.4768 150.502 32.0104 149.184 33.2405C147.864 34.4719 145.975 35.0856 143.514 35.0856C142.06 35.0856 140.69 34.8262 139.401 34.3074H139.402Z" fill="black"/>
<path d="M169.196 34.5748C167.995 34.9746 166.786 35.1752 165.571 35.1752C163.494 35.1752 161.664 34.7754 160.08 33.9745C158.494 33.1736 157.27 32.0251 156.411 30.5289C155.551 29.0314 155.12 27.2759 155.12 25.2596C155.12 23.2433 155.58 21.5319 156.499 20.0344C157.418 18.5369 158.641 17.3884 160.168 16.5888C161.695 15.7879 163.331 15.3881 165.082 15.3881C168.046 15.3881 170.491 16.189 172.419 17.7895L169.928 21.0358C169.365 20.5919 168.706 20.2135 167.95 19.902C167.194 19.5905 166.385 19.4354 165.527 19.4354C164.013 19.4354 162.731 19.9916 161.68 21.1027C160.628 22.2138 160.101 23.6003 160.101 25.2609C160.101 26.9215 160.657 28.3067 161.768 29.4192C162.879 30.5316 164.295 31.0865 166.015 31.0865C167.496 31.0865 168.741 30.672 169.749 29.8417L172.24 32.9543C171.408 33.6362 170.395 34.1777 169.194 34.5775L169.196 34.5748Z" fill="black"/>
<path d="M197.056 15.8748V34.6845H192.075V31.9716C191.393 32.7725 190.475 33.5065 189.318 34.1724C188.162 34.8396 186.813 35.1725 185.271 35.1725C183.462 35.1725 181.847 34.7941 180.424 34.0387C179.002 33.2832 177.874 32.1641 177.044 30.6813C176.214 29.1999 175.799 27.4055 175.799 25.301C175.799 23.1965 176.229 21.4543 177.088 19.898C177.948 18.3417 179.096 17.141 180.534 16.296C181.971 15.451 183.55 15.0284 185.27 15.0284C188.322 15.0284 190.606 16.1556 192.118 18.4072L192.474 15.8735H197.054L197.056 15.8748ZM190.096 30.0382C191.031 29.3429 191.69 28.3562 192.075 27.082V22.9906C191.72 21.834 191.03 20.9008 190.007 20.1881C188.984 19.4768 187.806 19.1212 186.472 19.1212C184.901 19.1212 183.566 19.676 182.47 20.7885C181.373 21.9009 180.824 23.3168 180.824 25.0349C180.824 26.1621 181.091 27.1849 181.625 28.1035C182.158 29.0234 182.87 29.7494 183.76 30.2829C184.649 30.8164 185.612 31.0838 186.651 31.0838C188.015 31.0838 189.163 30.7348 190.096 30.0382Z" fill="black"/>
<path d="M221.068 16.2746C222.491 17.105 223.603 18.2909 224.403 19.8325C225.203 21.3742 225.603 23.1672 225.603 25.2128C225.603 27.2585 225.166 28.9927 224.292 30.5049C223.417 32.0171 222.202 33.1737 220.645 33.9732C219.089 34.7741 217.332 35.1739 215.376 35.1739C214.131 35.1739 212.931 34.9225 211.774 34.4185C210.618 33.9144 209.668 33.2325 208.928 32.3728V43.7123H203.947V15.5192H208.26L208.706 18.3217C209.683 17.3135 210.818 16.514 212.107 15.9203C213.396 15.328 214.797 15.0312 216.309 15.0312C218.058 15.0312 219.644 15.447 221.068 16.276V16.2746ZM217.443 30.438C218.378 29.9193 219.125 29.2146 219.689 28.3255C220.252 27.4364 220.534 26.4282 220.534 25.3011C220.534 23.5522 219.978 22.1069 218.867 20.965C217.756 19.8245 216.384 19.2523 214.754 19.2523C213.301 19.2523 212.079 19.6079 211.086 20.3192C210.092 21.0305 209.374 22.024 208.929 23.2982V27.078C209.226 28.2934 209.87 29.2868 210.864 30.057C211.857 30.8285 213.035 31.2135 214.399 31.2135C215.495 31.2135 216.51 30.9541 217.445 30.4354L217.443 30.438Z" fill="black"/>
<path d="M244.147 29.4379L246.414 33.1281C245.406 33.7512 244.325 34.2472 243.168 34.6176C242.012 34.988 240.9 35.1725 239.833 35.1725C237.669 35.1725 235.794 34.742 234.208 33.8836C232.623 33.0238 231.406 31.8379 230.562 30.3257C229.717 28.8135 229.295 27.0793 229.295 25.1232C229.295 23.2847 229.768 21.596 230.717 20.0531C231.665 18.5128 232.956 17.2894 234.586 16.3856C236.215 15.4817 237.994 15.0298 239.922 15.0298C242.471 15.0298 244.591 15.7785 246.281 17.2747C247.971 18.7722 249.097 20.8847 249.661 23.6123L235.164 28.5046C235.669 29.2761 236.336 29.8684 237.166 30.2829C237.995 30.6987 238.915 30.9059 239.923 30.9059C241.316 30.9059 242.725 30.4166 244.148 29.4392L244.147 29.4379ZM235.675 20.5879C234.682 21.6843 234.186 23.1083 234.186 24.8571C234.186 25.1834 234.2 25.4361 234.23 25.6126L244.103 22.1001C243.718 21.1816 243.153 20.4248 242.413 19.8325C241.671 19.2402 240.708 18.9433 239.522 18.9433C237.95 18.9433 236.669 19.4929 235.675 20.5893V20.5879Z" fill="black"/>
</g>
<defs>
<clipPath id="clip0_151_1345">
<rect width="249.661" height="43.7123" fill="white"/>
</clipPath>
</defs>
</svg>
