<svg width="40" height="40" viewBox="0 0 40 40" fill="none" xmlns="http://www.w3.org/2000/svg">
<path fill-rule="evenodd" clip-rule="evenodd" d="M8 8.57143C8 8.25584 8.25584 8 8.57143 8H24.5714C24.887 8 25.1429 8.25584 25.1429 8.57143V24.5714C25.1429 24.887 24.887 25.1429 24.5714 25.1429H8.57143C8.25584 25.1429 8 24.887 8 24.5714V8.57143ZM9.14286 9.14286V24H24V9.14286H9.14286Z" fill="#DFEDE6"/>
<path fill-rule="evenodd" clip-rule="evenodd" d="M14.8574 15.4286C14.8574 15.113 15.1133 14.8572 15.4289 14.8572H31.4288C31.7444 14.8572 32.0003 15.113 32.0003 15.4286V31.4286C32.0003 31.7441 31.7444 32 31.4288 32H15.4289C15.1133 32 14.8574 31.7441 14.8574 31.4286V15.4286ZM16.0003 16V30.8572H30.8574V16H16.0003Z" fill="#DFEDE6"/>
<path fill-rule="evenodd" clip-rule="evenodd" d="M15.8325 15.0247L24.9754 24.1675L24.1673 24.9757L15.0244 15.8328L15.8325 15.0247Z" fill="#DFEDE6"/>
<path fill-rule="evenodd" clip-rule="evenodd" d="M20.4038 15.0247L24.9752 19.5961L24.1671 20.4042L19.5957 15.8328L20.4038 15.0247Z" fill="#DFEDE6"/>
<path fill-rule="evenodd" clip-rule="evenodd" d="M15.8325 19.5959L20.404 24.1674L19.5959 24.9755L15.0244 20.4041L15.8325 19.5959Z" fill="#DFEDE6"/>
</svg>
