<svg width="40" height="40" viewBox="0 0 40 40" fill="none" xmlns="http://www.w3.org/2000/svg">
<path d="M28.858 11.1405L24.7934 15.2113L23.4453 12.0708L27.51 8L28.858 11.1405Z" stroke="#DFEDE6" stroke-miterlimit="10"/>
<path d="M16.9404 23.0599L28.8576 11.1096" stroke="#DFEDE6" stroke-miterlimit="10"/>
<path d="M27.9404 16.5374L31.9999 12.4666L28.8733 11.1096L24.8086 15.1856L27.9404 16.5374Z" stroke="#DFEDE6" stroke-miterlimit="10"/>
<path d="M16.9402 23.913C17.4611 23.913 17.8833 23.4895 17.8833 22.9672C17.8833 22.4449 17.4611 22.0215 16.9402 22.0215C16.4193 22.0215 15.9971 22.4449 15.9971 22.9672C15.9971 23.4895 16.4193 23.913 16.9402 23.913Z" fill="#DFEDE6"/>
<path d="M22.4765 15.9826C20.8619 14.7079 18.8116 13.9832 16.5974 14.0654C11.6613 14.2607 7.81708 18.4292 8.00673 23.3789C8.19638 28.3287 12.3533 32.1836 17.2893 31.9934C22.2253 31.8032 26.0696 27.6296 25.8799 22.6799C25.8031 20.7319 25.1162 18.9483 24.004 17.5194" stroke="#DFEDE6" stroke-miterlimit="10"/>
<path d="M20.385 18.0793C19.3496 17.3546 18.0733 16.9486 16.7099 17C13.3885 17.1285 10.8051 19.9349 10.9333 23.2604C11.0614 26.591 13.86 29.1816 17.1763 29.0531C20.4978 28.9246 23.0811 26.1182 22.953 22.7926C22.9069 21.6156 22.5276 20.5259 21.9073 19.6213" stroke="#DFEDE6" stroke-miterlimit="10"/>
<path d="M18.1557 20.3205C17.7866 20.156 17.3766 20.0635 16.946 20.0635C15.3109 20.0635 13.9834 21.3947 13.9834 23.0343C13.9834 24.674 15.3109 26.0052 16.946 26.0052C18.5811 26.0052 19.9087 24.674 19.9087 23.0343C19.9087 22.6232 19.8267 22.2274 19.6729 21.8727" stroke="#DFEDE6" stroke-miterlimit="10"/>
</svg>
