<svg width="24" height="24" viewBox="0 0 24 24" fill="none" xmlns="http://www.w3.org/2000/svg">
<path d="M8.30864 12C8.30864 11.852 8.24297 11.7132 8.12836 11.6193L4.57894 8.71124C4.4303 8.58951 4.23009 8.5649 4.05642 8.64712C3.88275 8.72934 3.77484 8.89982 3.77484 9.09196V10.4241H0.492187C0.220781 10.4241 0 10.6449 0 10.9163V13.0836C0 13.3551 0.220781 13.5758 0.492187 13.5758H1.82812C2.02228 13.5758 2.17969 13.4184 2.17969 13.2243C2.17969 13.0301 2.02228 12.8727 1.82812 12.8727H0.703125V11.1273H3.98578C4.25719 11.1273 4.47797 10.9065 4.47797 10.6351V9.53746L7.48364 12L4.47797 14.4626V13.3649C4.47797 13.0935 4.25719 12.8728 3.98578 12.8728H3.46875C3.27459 12.8728 3.11719 13.0302 3.11719 13.2243C3.11719 13.4185 3.27459 13.5759 3.46875 13.5759H3.77484V14.9081C3.77484 15.1003 3.88275 15.2707 4.05642 15.3529C4.12448 15.3852 4.19658 15.401 4.26811 15.401C4.37911 15.401 4.48856 15.3629 4.57894 15.2888L8.12845 12.3807C8.24297 12.2869 8.30864 12.1481 8.30864 12Z" fill="#DFEDE6"/>
<path d="M23.5079 10.4242H20.2252V9.09197C20.2252 8.89979 20.1173 8.72935 19.9436 8.64713C19.77 8.56491 19.5698 8.58947 19.4211 8.71126L15.8716 11.6193C15.7571 11.7132 15.6914 11.8519 15.6914 12C15.6914 12.1481 15.7571 12.2868 15.8717 12.3807L19.4211 15.2888C19.5115 15.3629 19.621 15.401 19.7319 15.401C19.8034 15.401 19.8756 15.3851 19.9437 15.3529C20.1173 15.2707 20.2253 15.1002 20.2253 14.9081V13.5759H23.5079C23.7793 13.5759 24.0001 13.3551 24.0001 13.0837V10.9164C24 10.6449 23.7793 10.4242 23.5079 10.4242ZM23.2969 12.8727H20.0143C19.7429 12.8727 19.5221 13.0935 19.5221 13.3649V14.4625L16.5164 12L19.5221 9.53747V10.6351C19.5221 10.9065 19.7429 11.1273 20.0143 11.1273H23.2969V12.8727Z" fill="#DFEDE6"/>
<path d="M11.6194 8.12845C11.7132 8.24297 11.852 8.30864 12 8.30864C12.1481 8.30864 12.2869 8.24297 12.3808 8.12836L15.2888 4.57894C15.4106 4.4303 15.4352 4.23005 15.353 4.05642C15.2707 3.88275 15.1003 3.77484 14.9081 3.77484H13.5759V3.09375C13.5759 2.89959 13.4185 2.74219 13.2244 2.74219C13.0302 2.74219 12.8728 2.89959 12.8728 3.09375V3.98578C12.8728 4.25719 13.0936 4.47797 13.365 4.47797H14.4626L12 7.48364L9.5375 4.47797H10.6351C10.9065 4.47797 11.1273 4.25719 11.1273 3.98578V0.703125H12.8728V1.45312C12.8728 1.64728 13.0302 1.80469 13.2243 1.80469C13.4185 1.80469 13.5759 1.64728 13.5759 1.45312V0.492187C13.5759 0.220781 13.3551 0 13.0837 0H10.9164C10.645 0 10.4242 0.220781 10.4242 0.492187V3.77484H9.09201C8.89982 3.77484 8.72938 3.88275 8.64716 4.05642C8.56494 4.23009 8.5895 4.43034 8.71129 4.57894L11.6194 8.12845Z" fill="#DFEDE6"/>
<path d="M14.5356 18.5018C14.4126 18.3516 14.1911 18.3296 14.0408 18.4526C13.8906 18.5757 13.8687 18.7972 13.9917 18.9474L14.4625 19.522H13.3649C13.0935 19.522 12.8727 19.7428 12.8727 20.0142V23.2969H11.1273V20.0142C11.1273 19.7428 10.9065 19.522 10.6351 19.522H9.53746L12 16.5164L12.9469 17.672C13.0699 17.8222 13.2914 17.8442 13.4416 17.7212C13.5918 17.5982 13.6138 17.3766 13.4908 17.2264L12.3808 15.8716C12.2869 15.757 12.1482 15.6914 12.0001 15.6914C11.852 15.6914 11.7133 15.757 11.6194 15.8717L8.71129 19.4211C8.5895 19.5697 8.56494 19.77 8.64716 19.9436C8.72938 20.1173 8.89986 20.2252 9.09201 20.2252H10.4242V23.5078C10.4242 23.7792 10.645 24 10.9164 24H13.0837C13.3551 24 13.5759 23.7792 13.5759 23.5078V20.2252H14.9081C15.1003 20.2252 15.2707 20.1173 15.3529 19.9436C15.4351 19.7699 15.4106 19.5697 15.2888 19.421L14.5356 18.5018Z" fill="#DFEDE6"/>
<path d="M10.4112 15.8438V8.15634C10.4112 7.96219 10.2538 7.80478 10.0596 7.80478H8.16748C7.97332 7.80478 7.81592 7.96219 7.81592 8.15634C7.81592 8.3505 7.97332 8.5079 8.16748 8.5079H9.70807V15.4923H8.16748C7.97332 15.4923 7.81592 15.6497 7.81592 15.8438C7.81592 16.038 7.97332 16.1954 8.16748 16.1954H10.0596C10.2538 16.1954 10.4112 16.038 10.4112 15.8438Z" fill="#DFEDE6"/>
<path d="M15.8326 15.4923H14.292V8.5079H15.8326C16.0267 8.5079 16.1841 8.3505 16.1841 8.15634C16.1841 7.96219 16.0267 7.80478 15.8326 7.80478H13.9404C13.7463 7.80478 13.5889 7.96219 13.5889 8.15634V15.8438C13.5889 16.038 13.7463 16.1954 13.9404 16.1954H15.8326C16.0267 16.1954 16.1841 16.038 16.1841 15.8438C16.1841 15.6497 16.0267 15.4923 15.8326 15.4923Z" fill="#DFEDE6"/>
</svg>
