<svg width="24" height="24" viewBox="0 0 24 24" fill="none" xmlns="http://www.w3.org/2000/svg">
<path d="M18.27 20.7347L17.1893 19.6341C16.603 19.0403 15.666 18.1743 15.6518 17.272C15.6494 17.1151 15.6662 17.1399 15.5393 17.0332L15.1424 16.6856C15.0319 16.5795 14.936 16.4651 14.8409 16.3455C13.006 17.7301 10.6761 18.493 8.3704 18.2853C4.23286 17.9126 0.912151 14.863 0.154123 10.8195C-0.869555 5.35893 3.33464 0.148862 8.95188 0.00538029C9.2563 0.00275332 9.56759 -0.00874151 9.87116 0.0130219C14.5905 0.351287 18.3706 4.36048 18.3706 9.08419L18.3651 9.64692C18.267 11.3177 17.7013 12.9615 16.7456 14.3362L16.3991 14.8228C16.5133 14.9465 16.6416 15.0574 16.7611 15.176L17.078 15.4957C17.3105 15.7283 17.3561 15.6879 17.67 15.7507C18.5423 15.9254 19.8232 17.3684 20.4443 17.9789L23.2313 20.7454C23.4198 20.9342 23.6113 21.1307 23.7484 21.361C24.6505 22.8763 22.9563 24.7021 21.3669 23.7251C21.068 23.5414 20.8182 23.2852 20.5709 23.0395L18.27 20.7347ZM8.99554 0.804721C3.71559 0.924789 -0.215199 5.97923 1.01368 11.0625C1.84377 14.4961 4.65258 16.9843 8.11933 17.4527C8.55606 17.5118 8.93173 17.5253 9.3746 17.5237C9.85834 17.5153 10.3076 17.4464 10.7833 17.351C16.273 16.2494 19.218 10.2044 16.6209 5.30081C16.2221 4.54791 15.7373 3.82667 15.1194 3.23393C13.4169 1.60095 11.3828 0.764314 9.03691 0.80333L8.99554 0.804721ZM15.8402 15.4066L15.3957 15.8211L16.3108 16.6792C16.3355 16.675 16.3395 16.6736 16.3608 16.6579L16.813 16.3339L16.1624 15.6943C16.061 15.5972 15.9565 15.4857 15.8402 15.4066ZM17.5996 16.5159L17.5078 16.8075C17.4571 16.9836 16.7003 17.1251 16.4017 17.4061C16.8295 18.1909 17.4553 18.7854 18.075 19.4122L20.8359 22.2026C21.1735 22.5396 21.5676 23.0192 22.0427 23.1591C22.956 23.3425 23.5228 22.4127 23.0334 21.7154C22.8892 21.51 22.698 21.3336 22.5197 21.1581L18.3175 17.0277C18.1087 16.8449 17.8641 16.6082 17.5996 16.5159Z" fill="#DFEDE6"/>
<path d="M9.40363 16.8011C9.12466 16.8021 8.83876 16.8132 8.56079 16.7896C4.41961 16.4368 1.18762 12.762 1.51476 8.62856C1.82198 4.74663 5.09998 1.5565 9.00661 1.50665L9.04897 1.50171C12.1195 1.38815 15.1649 3.41474 16.3046 6.25756C17.0364 8.08283 17.0704 10.1278 16.3392 11.963C15.2147 14.7846 12.4316 16.6954 9.40363 16.8011ZM9.08015 2.28857C5.12423 2.42648 2.17195 5.60895 2.30571 9.55204C2.37494 11.5928 3.61999 13.6549 5.2832 14.7996C6.52835 15.6566 7.82583 15.9985 9.31142 16.007C12.8175 16.0046 15.8118 13.1235 16.0662 9.65208C16.3549 5.71243 13.1095 2.23094 9.11962 2.28698L9.08015 2.28857Z" fill="#DFEDE6"/>
<path d="M14.5501 8.5989C14.2575 8.57253 14.2138 8.37982 14.1307 8.13672L13.9811 7.72498C13.2691 5.93191 11.732 4.68432 9.80383 4.42327C9.34958 4.36171 8.84025 4.43937 8.44587 4.37931C8.09042 4.32512 7.98549 3.65556 8.59346 3.59636C11.3294 3.46305 13.656 4.79155 14.7171 7.4057C14.88 7.80682 15.2567 8.52019 14.5501 8.5989Z" fill="#DFEDE6"/>
</svg>
