<svg width="40" height="40" viewBox="0 0 40 40" fill="none" xmlns="http://www.w3.org/2000/svg">
<path d="M15.3125 20C15.3125 20.5178 15.7322 20.9375 16.25 20.9375H19.0625V23.75C19.0625 24.2678 19.4822 24.6875 20 24.6875C20.5178 24.6875 20.9375 24.2678 20.9375 23.75V20.9375H23.75C24.2678 20.9375 24.6875 20.5178 24.6875 20C24.6875 19.4822 24.2678 19.0625 23.75 19.0625H20.9375V16.25C20.9375 15.7322 20.5178 15.3125 20 15.3125C19.4822 15.3125 19.0625 15.7322 19.0625 16.25V19.0625H16.25C15.7322 19.0625 15.3125 19.4822 15.3125 20Z" fill="#DFEDE6"/>
<path d="M15.5192 10.8968L16.7318 10.3945C17.2101 10.1963 17.4373 9.64796 17.2392 9.1696C17.041 8.69124 16.4926 8.46394 16.0142 8.66227L14.8016 9.16458C14.3233 9.36277 14.0961 9.91116 14.2943 10.3895C14.4918 10.8663 15.0393 11.0955 15.5192 10.8968Z" fill="#DFEDE6"/>
<path d="M20 8C19.4822 8 19.0625 8.41972 19.0625 8.9375C19.0625 9.45528 19.4822 9.875 20 9.875C25.5958 9.875 30.125 14.4035 30.125 20C30.125 25.5958 25.5965 30.125 20 30.125C14.4042 30.125 9.875 25.5965 9.875 20C9.875 19.4822 9.45528 19.0625 8.9375 19.0625C8.41972 19.0625 8 19.4822 8 20C8 26.632 13.367 32 20 32C26.632 32 32 26.633 32 20C32 13.368 26.633 8 20 8Z" fill="#DFEDE6"/>
<path d="M12.3768 13.3046L13.3049 12.3766C13.6711 12.0104 13.6711 11.4168 13.3049 11.0507C12.9388 10.6846 12.3451 10.6846 11.9791 11.0507L11.051 11.9788C10.6848 12.3449 10.6848 12.9386 11.051 13.3046C11.417 13.6707 12.0107 13.6708 12.3768 13.3046Z" fill="#DFEDE6"/>
<path d="M9.16978 17.2389C9.64917 17.4375 10.197 17.2088 10.3947 16.7316L10.897 15.519C11.0952 15.0406 10.868 14.4922 10.3897 14.294C9.91125 14.0959 9.36295 14.323 9.16476 14.8013L8.66245 16.014C8.46426 16.4924 8.69146 17.0408 9.16978 17.2389Z" fill="#DFEDE6"/>
</svg>
