<svg width="24" height="24" viewBox="0 0 24 24" fill="none" xmlns="http://www.w3.org/2000/svg">
<path fill-rule="evenodd" clip-rule="evenodd" d="M0 0.571429C0 0.25584 0.25584 0 0.571429 0H16.5714C16.887 0 17.1429 0.25584 17.1429 0.571429V16.5714C17.1429 16.887 16.887 17.1429 16.5714 17.1429H0.571429C0.25584 17.1429 0 16.887 0 16.5714V0.571429ZM1.14286 1.14286V16H16V1.14286H1.14286Z" fill="#DFEDE6"/>
<path fill-rule="evenodd" clip-rule="evenodd" d="M6.85718 7.42857C6.85718 7.11298 7.11302 6.85714 7.42861 6.85714H23.4286C23.7441 6.85714 24 7.11298 24 7.42857V23.4286C24 23.7441 23.7441 24 23.4286 24H7.42861C7.11302 24 6.85718 23.7441 6.85718 23.4286V7.42857ZM8.00003 8V22.8571H22.8572V8H8.00003Z" fill="#DFEDE6"/>
<path fill-rule="evenodd" clip-rule="evenodd" d="M7.83266 7.02455L16.9755 16.1674L16.1674 16.9755L7.02454 7.83268L7.83266 7.02455Z" fill="#DFEDE6"/>
<path fill-rule="evenodd" clip-rule="evenodd" d="M12.4041 7.02455L16.9755 11.596L16.1674 12.4041L11.5959 7.83268L12.4041 7.02455Z" fill="#DFEDE6"/>
<path fill-rule="evenodd" clip-rule="evenodd" d="M7.83266 11.596L12.4041 16.1674L11.596 16.9755L7.02454 12.4041L7.83266 11.596Z" fill="#DFEDE6"/>
</svg>
