<svg width="26" height="26" viewBox="0 0 26 26" fill="none" xmlns="http://www.w3.org/2000/svg">
<path d="M21.358 4.01646L17.2934 8.08727L15.9453 4.94679L20.01 0.875977L21.358 4.01646Z" stroke="#DFEDE6" stroke-miterlimit="10"/>
<path d="M9.4408 15.9361L21.358 3.98584" stroke="#DFEDE6" stroke-miterlimit="10"/>
<path d="M20.4404 9.41359L24.4999 5.34278L21.3733 3.98584L17.3086 8.06179L20.4404 9.41359Z" stroke="#DFEDE6" stroke-miterlimit="10"/>
<path d="M9.44056 16.7889C9.96143 16.7889 10.3837 16.3655 10.3837 15.8432C10.3837 15.3209 9.96143 14.8975 9.44056 14.8975C8.91969 14.8975 8.49744 15.3209 8.49744 15.8432C8.49744 16.3655 8.91969 16.7889 9.44056 16.7889Z" fill="#DFEDE6"/>
<path d="M14.9765 8.85857C13.3619 7.58387 11.3116 6.85914 9.09735 6.94138C4.16133 7.1367 0.317076 11.3052 0.506726 16.2549C0.696376 21.2046 4.8533 25.0596 9.78932 24.8694C14.7253 24.6792 18.5696 20.5056 18.3799 15.5559C18.3031 13.6078 17.6162 11.8243 16.504 10.3954" stroke="#DFEDE6" stroke-miterlimit="10"/>
<path d="M12.8851 10.9553C11.8498 10.2306 10.5735 9.82454 9.21003 9.87594C5.8886 10.0044 3.30526 12.8108 3.4334 16.1364C3.56154 19.467 6.36016 22.0575 9.67647 21.929C12.9979 21.8005 15.5812 18.9941 15.4531 15.6686C15.407 14.4916 15.0277 13.4019 14.4075 12.4973" stroke="#DFEDE6" stroke-miterlimit="10"/>
<path d="M10.6556 13.1964C10.2865 13.032 9.87647 12.9395 9.44592 12.9395C7.81083 12.9395 6.48328 14.2707 6.48328 15.9103C6.48328 17.55 7.81083 18.8812 9.44592 18.8812C11.081 18.8812 12.4086 17.55 12.4086 15.9103C12.4086 15.4991 12.3265 15.1034 12.1728 14.7487" stroke="#DFEDE6" stroke-miterlimit="10"/>
</svg>
