<svg width="40" height="40" viewBox="0 0 40 40" fill="none" xmlns="http://www.w3.org/2000/svg">
<path fill-rule="evenodd" clip-rule="evenodd" d="M30.3306 17.806C29.2118 12.5509 24.1965 8.79402 18.5282 9.22119C12.3835 9.68424 7.78308 14.89 8.26136 20.839C8.73965 26.788 14.1167 31.2419 20.2614 30.7788C24.2928 30.475 27.6593 28.1296 29.3633 24.8725C29.5164 24.58 29.8858 24.4628 30.188 24.6109C30.4901 24.7591 30.6111 25.1168 30.4581 25.4093C28.567 29.024 24.8305 31.6261 20.3566 31.9633C13.5367 32.4772 7.56879 27.5339 7.03791 20.9312C6.50709 14.3285 11.613 8.55068 18.433 8.03671C24.7407 7.56136 30.3194 11.7544 31.5419 17.6107L31.8964 17.1552C32.1001 16.8932 32.4851 16.8407 32.7556 17.038C33.0261 17.2353 33.0804 17.608 32.8766 17.8699L31.6301 19.4723C31.4282 19.7318 31.0486 19.7862 30.7778 19.5944L29.1052 18.4103C28.8319 18.2168 28.7722 17.8448 28.9721 17.5802C29.1721 17.3155 29.5562 17.2578 29.8296 17.4513L30.3306 17.806ZM16.2656 20.3706H9.99324C9.75257 20.3706 9.55725 20.1815 9.55725 19.9485C9.55725 19.7155 9.75257 19.5264 9.99324 19.5264H16.6054L18.7396 14.2236C18.8589 13.9271 19.1553 13.7331 19.4839 13.7363C19.8125 13.7395 20.1047 13.9393 20.2178 14.2381L22.2196 19.5264H27.8685C28.1092 19.5264 28.3045 19.7155 28.3045 19.9485C28.3045 20.1815 28.1092 20.3706 27.8685 20.3706H22.5391L24.0354 24.3235C24.1351 24.587 24.3779 24.7749 24.6653 24.811C24.9527 24.8471 25.237 24.7255 25.4029 24.4954L27.1535 22.0678C27.4591 21.6439 27.9593 21.3914 28.4932 21.3914H29.7113C29.9519 21.3914 30.1473 21.5805 30.1473 21.8135C30.1473 22.0465 29.9519 22.2356 29.7113 22.2356H28.4932C28.2443 22.2356 28.011 22.3534 27.8685 22.551L26.1179 24.9787C25.766 25.4668 25.1628 25.7248 24.5531 25.6482C23.9433 25.5715 23.4282 25.173 23.2167 24.6141L21.6105 20.3706H17.2015L15.2831 25.137C15.1013 25.5887 14.6686 25.9001 14.1693 25.9382C13.6701 25.9764 13.1922 25.7347 12.9394 25.3162L11.1139 22.2938C10.9924 22.0928 11.0625 21.834 11.2702 21.7164C11.4779 21.5988 11.7452 21.6666 11.8666 21.8677L13.6922 24.89C13.7761 25.029 13.9348 25.1093 14.1007 25.0966C14.2665 25.084 14.4103 24.9805 14.4707 24.8305L16.2656 20.3706ZM21.2909 19.5264L19.4735 14.7252L17.5412 19.5264H21.2909Z" fill="#DFEDE6"/>
</svg>
