<svg width="26" height="24" viewBox="0 0 26 24" fill="none" xmlns="http://www.w3.org/2000/svg">
<path fill-rule="evenodd" clip-rule="evenodd" d="M23.3306 9.806C22.2118 4.55093 17.1965 0.79402 11.5282 1.22119C5.38352 1.68424 0.783079 6.89003 1.26136 12.839C1.73965 18.788 7.1167 23.2419 13.2614 22.7788C17.2928 22.475 20.6593 20.1296 22.3633 16.8725C22.5164 16.58 22.8858 16.4628 23.188 16.6109C23.4901 16.7591 23.6111 17.1168 23.4581 17.4093C21.567 21.024 17.8305 23.6261 13.3566 23.9633C6.53667 24.4772 0.568788 19.5339 0.0379113 12.9312C-0.492911 6.32847 4.61301 0.550675 11.433 0.0367074C17.7407 -0.438637 23.3194 3.75436 24.542 9.61072L24.8964 9.15516C25.1001 8.89324 25.4851 8.84074 25.7556 9.03803C26.0261 9.23526 26.0804 9.60803 25.8766 9.86989L24.6301 11.4723C24.4282 11.7318 24.0486 11.7862 23.7778 11.5944L22.1052 10.4103C21.8319 10.2168 21.7722 9.84478 21.9721 9.58017C22.1721 9.31551 22.5562 9.25779 22.8296 9.45127L23.3306 9.806ZM9.26561 12.3706H2.99324C2.75257 12.3706 2.55725 12.1815 2.55725 11.9485C2.55725 11.7155 2.75257 11.5264 2.99324 11.5264H9.60541L11.7396 6.22358C11.8589 5.9271 12.1553 5.73309 12.4839 5.73631C12.8125 5.73953 13.1047 5.93934 13.2178 6.23809L15.2196 11.5264H20.8685C21.1092 11.5264 21.3045 11.7155 21.3045 11.9485C21.3045 12.1815 21.1092 12.3706 20.8685 12.3706H15.5391L17.0354 16.3235C17.1351 16.587 17.3779 16.7749 17.6653 16.811C17.9527 16.8471 18.237 16.7255 18.4029 16.4954L20.1535 14.0678C20.4591 13.6439 20.9593 13.3914 21.4932 13.3914H22.7113C22.9519 13.3914 23.1473 13.5805 23.1473 13.8135C23.1473 14.0465 22.9519 14.2356 22.7113 14.2356H21.4932C21.2443 14.2356 21.011 14.3534 20.8685 14.551L19.1179 16.9787C18.766 17.4668 18.1628 17.7248 17.5531 17.6482C16.9433 17.5715 16.4282 17.173 16.2167 16.614L14.6105 12.3706H10.2015L8.28315 17.137C8.10134 17.5887 7.66862 17.9001 7.16935 17.9382C6.67008 17.9764 6.19223 17.7347 5.93941 17.3162L4.11391 14.2938C3.99243 14.0928 4.06246 13.834 4.27021 13.7164C4.47791 13.5988 4.74517 13.6666 4.86665 13.8677L6.69215 16.89C6.77614 17.029 6.93484 17.1093 7.10068 17.0966C7.26652 17.084 7.41029 16.9805 7.47067 16.8305L9.26561 12.3706ZM14.2909 11.5264L12.4735 6.7252L10.5412 11.5264H14.2909Z" fill="#DFEDE6"/>
</svg>
