<svg width="40" height="40" viewBox="0 0 40 40" fill="none" xmlns="http://www.w3.org/2000/svg">
<path d="M26.27 28.7347L25.1893 27.6341C24.603 27.0403 23.666 26.1743 23.6518 25.272C23.6494 25.1151 23.6662 25.1399 23.5393 25.0332L23.1424 24.6856C23.0319 24.5795 22.936 24.4651 22.8409 24.3455C21.006 25.7301 18.6761 26.493 16.3704 26.2853C12.2329 25.9126 8.91215 22.863 8.15412 18.8195C7.13045 13.3589 11.3346 8.14886 16.9519 8.00538C17.2563 8.00275 17.5676 7.99126 17.8712 8.01302C22.5905 8.35129 26.3706 12.3605 26.3706 17.0842L26.3651 17.6469C26.267 19.3177 25.7013 20.9615 24.7456 22.3362L24.3991 22.8228C24.5133 22.9465 24.6416 23.0574 24.7611 23.176L25.078 23.4957C25.3105 23.7283 25.3561 23.6879 25.67 23.7507C26.5423 23.9254 27.8232 25.3684 28.4443 25.9789L31.2313 28.7454C31.4198 28.9342 31.6113 29.1307 31.7484 29.361C32.6505 30.8763 30.9563 32.7021 29.3669 31.7251C29.068 31.5414 28.8182 31.2852 28.5709 31.0395L26.27 28.7347ZM16.9955 8.80472C11.7156 8.92479 7.7848 13.9792 9.01368 19.0625C9.84377 22.4961 12.6526 24.9843 16.1193 25.4527C16.5561 25.5118 16.9317 25.5253 17.3746 25.5237C17.8583 25.5153 18.3076 25.4464 18.7833 25.351C24.273 24.2494 27.218 18.2044 24.6209 13.3008C24.2221 12.5479 23.7373 11.8267 23.1194 11.2339C21.4169 9.60095 19.3828 8.76431 17.0369 8.80333L16.9955 8.80472ZM23.8402 23.4066L23.3957 23.8211L24.3108 24.6792C24.3355 24.675 24.3395 24.6736 24.3608 24.6579L24.813 24.3339L24.1624 23.6943C24.061 23.5972 23.9565 23.4857 23.8402 23.4066ZM25.5996 24.5159L25.5078 24.8075C25.4571 24.9836 24.7003 25.1251 24.4017 25.4061C24.8295 26.1909 25.4553 26.7854 26.075 27.4122L28.8359 30.2026C29.1735 30.5396 29.5676 31.0192 30.0427 31.1591C30.956 31.3425 31.5228 30.4127 31.0334 29.7154C30.8892 29.51 30.698 29.3336 30.5197 29.1581L26.3175 25.0277C26.1087 24.8449 25.8641 24.6082 25.5996 24.5159Z" fill="#DFEDE6"/>
<path d="M17.4039 24.801C17.1249 24.802 16.839 24.8131 16.561 24.7895C12.4199 24.4367 9.18787 20.7619 9.515 16.6285C9.82222 12.7465 13.1002 9.55641 17.0069 9.50655L17.0492 9.50161C20.1197 9.38806 23.1651 11.4146 24.3048 14.2575C25.0366 16.0827 25.0707 18.1277 24.3394 19.9629C23.215 22.7845 20.4318 24.6954 17.4039 24.801ZM17.0804 10.2885C13.1245 10.4264 10.1722 13.6089 10.306 17.5519C10.3752 19.5927 11.6202 21.6548 13.2834 22.7995C14.5286 23.6565 15.8261 23.9984 17.3117 24.0069C20.8178 24.0045 23.812 21.1234 24.0664 17.652C24.3552 13.7123 21.1098 10.2308 17.1199 10.2869L17.0804 10.2885Z" fill="#DFEDE6"/>
<path d="M22.5501 16.5988C22.2575 16.5725 22.2138 16.3798 22.1307 16.1366L21.9811 15.7249C21.2691 13.9318 19.732 12.6843 17.8038 12.4232C17.3496 12.3616 16.8402 12.4393 16.4459 12.3792C16.0904 12.3251 15.9855 11.6555 16.5935 11.5963C19.3294 11.463 21.656 12.7915 22.7171 15.4056C22.88 15.8068 23.2567 16.5201 22.5501 16.5988Z" fill="#DFEDE6"/>
</svg>
