<svg width="40" height="40" viewBox="0 0 40 40" fill="none" xmlns="http://www.w3.org/2000/svg">
<path d="M16.3086 20.0001C16.3086 19.852 16.243 19.7132 16.1284 19.6194L12.5789 16.7113C12.4303 16.5895 12.2301 16.5649 12.0564 16.6471C11.8827 16.7294 11.7748 16.8999 11.7748 17.092V18.4242H8.49219C8.22078 18.4242 8 18.645 8 18.9164V21.0837C8 21.3551 8.22078 21.5759 8.49219 21.5759H9.82812C10.0223 21.5759 10.1797 21.4185 10.1797 21.2243C10.1797 21.0301 10.0223 20.8727 9.82812 20.8727H8.70312V19.1273H11.9858C12.2572 19.1273 12.478 18.9065 12.478 18.6351V17.5375L15.4836 20.0001L12.478 22.4626V21.365C12.478 21.0936 12.2572 20.8728 11.9858 20.8728H11.4687C11.2746 20.8728 11.1172 21.0302 11.1172 21.2244C11.1172 21.4185 11.2746 21.5759 11.4687 21.5759H11.7748V22.9081C11.7748 23.1003 11.8827 23.2707 12.0564 23.3529C12.1245 23.3852 12.1966 23.401 12.2681 23.401C12.3791 23.401 12.4886 23.3629 12.5789 23.2888L16.1285 20.3807C16.243 20.2869 16.3086 20.1481 16.3086 20.0001Z" fill="#DFEDE6"/>
<path d="M31.5079 18.4242H28.2252V17.092C28.2252 16.8998 28.1173 16.7294 27.9436 16.6472C27.77 16.5649 27.5698 16.5895 27.4211 16.7113L23.8716 19.6194C23.7571 19.7132 23.6914 19.852 23.6914 20C23.6914 20.1481 23.7571 20.2869 23.8717 20.3808L27.4211 23.2888C27.5115 23.3629 27.621 23.401 27.7319 23.401C27.8034 23.401 27.8756 23.3852 27.9437 23.353C28.1173 23.2707 28.2253 23.1003 28.2253 22.9081V21.5759H31.5079C31.7793 21.5759 32.0001 21.3551 32.0001 21.0837V18.9164C32 18.645 31.7793 18.4242 31.5079 18.4242ZM31.2969 20.8728H28.0143C27.7429 20.8728 27.5221 21.0935 27.5221 21.3649V22.4626L24.5164 20L27.5221 17.5375V18.6351C27.5221 18.9065 27.7429 19.1273 28.0143 19.1273H31.2969V20.8728Z" fill="#DFEDE6"/>
<path d="M19.6189 16.1285C19.7127 16.243 19.8515 16.3086 19.9995 16.3086C20.1476 16.3086 20.2864 16.243 20.3803 16.1284L23.2883 12.5789C23.4101 12.4303 23.4347 12.23 23.3525 12.0564C23.2703 11.8827 23.0998 11.7748 22.9076 11.7748H21.5754V11.0937C21.5754 10.8996 21.418 10.7422 21.2239 10.7422C21.0297 10.7422 20.8723 10.8996 20.8723 11.0937V11.9858C20.8723 12.2572 21.0931 12.478 21.3645 12.478H22.4621L19.9995 15.4836L17.537 12.478H18.6346C18.906 12.478 19.1268 12.2572 19.1268 11.9858V8.70312H20.8723V9.45312C20.8723 9.64728 21.0297 9.80469 21.2238 9.80469C21.418 9.80469 21.5754 9.64728 21.5754 9.45312V8.49219C21.5754 8.22078 21.3546 8 21.0832 8H18.9159C18.6445 8 18.4237 8.22078 18.4237 8.49219V11.7748H17.0915C16.8993 11.7748 16.7289 11.8827 16.6467 12.0564C16.5645 12.2301 16.589 12.4303 16.7108 12.5789L19.6189 16.1285Z" fill="#DFEDE6"/>
<path d="M22.5351 26.5018C22.4121 26.3516 22.1906 26.3296 22.0403 26.4527C21.8902 26.5757 21.8682 26.7973 21.9912 26.9474L22.462 27.5221H21.3644C21.093 27.5221 20.8722 27.7429 20.8722 28.0143V31.2969H19.1268V28.0143C19.1268 27.7429 18.906 27.5221 18.6346 27.5221H17.537L19.9995 24.5164L20.9464 25.6721C21.0694 25.8223 21.291 25.8442 21.4411 25.7212C21.5913 25.5982 21.6134 25.3767 21.4903 25.2265L20.3803 23.8716C20.2864 23.7571 20.1477 23.6914 19.9996 23.6914C19.8515 23.6914 19.7128 23.7571 19.6189 23.8717L16.7108 27.4211C16.589 27.5698 16.5645 27.77 16.6467 27.9436C16.7289 28.1173 16.8994 28.2252 17.0915 28.2252H18.4237V31.5079C18.4237 31.7793 18.6445 32 18.9159 32H21.0832C21.3546 32 21.5754 31.7793 21.5754 31.5079V28.2252H22.9076C23.0998 28.2252 23.2702 28.1173 23.3524 27.9436C23.4346 27.77 23.4101 27.5697 23.2883 27.4211L22.5351 26.5018Z" fill="#DFEDE6"/>
<path d="M18.4107 23.8438V16.1562C18.4107 15.9621 18.2533 15.8047 18.0591 15.8047H16.167C15.9728 15.8047 15.8154 15.9621 15.8154 16.1562C15.8154 16.3504 15.9728 16.5078 16.167 16.5078H17.7076V23.4922H16.167C15.9728 23.4922 15.8154 23.6496 15.8154 23.8438C15.8154 24.0379 15.9728 24.1953 16.167 24.1953H18.0591C18.2533 24.1953 18.4107 24.0379 18.4107 23.8438Z" fill="#DFEDE6"/>
<path d="M23.8326 23.4922H22.292V16.5078H23.8326C24.0267 16.5078 24.1841 16.3504 24.1841 16.1562C24.1841 15.9621 24.0267 15.8047 23.8326 15.8047H21.9404C21.7463 15.8047 21.5889 15.9621 21.5889 16.1562V23.8438C21.5889 24.0379 21.7463 24.1953 21.9404 24.1953H23.8326C24.0267 24.1953 24.1841 24.0379 24.1841 23.8438C24.1841 23.6496 24.0267 23.4922 23.8326 23.4922Z" fill="#DFEDE6"/>
</svg>
