<svg width="36" height="36" viewBox="0 0 36 36" fill="none" xmlns="http://www.w3.org/2000/svg">
<path d="M24.7783 7.98047C26.3791 7.77101 28.0553 7.71356 29.6709 7.77051H29.6738C30.3028 7.79905 30.9234 7.8495 31.543 7.9375L32.1631 8.03906L32.167 8.04004C33.0168 8.21356 33.7738 8.4121 34.5723 8.41211C34.6553 8.41211 34.731 8.43394 34.79 8.45703C35.0152 8.49347 35.1748 8.66975 35.2285 8.85645C35.2913 9.07522 35.2201 9.33433 34.9688 9.48145L34.9609 9.48633L34.8428 9.26562L34.96 9.48633C31.8231 11.1556 29.5112 13.8492 27.4082 16.6533C26.9333 17.3019 26.4788 17.9776 25.9736 18.6221C25.66 19.0235 25.2737 19.4528 24.6973 19.6475L24.6963 19.6465C23.9813 19.892 23.0778 19.8281 22.3936 19.7725L22.3838 19.7715C21.7207 19.6931 21.083 19.5148 20.502 19.1504H20.501C20.1895 18.9529 19.8619 18.7262 19.5479 18.4648C19.3858 18.7787 19.2468 19.0938 19.1309 19.4189C18.8512 20.2765 18.7374 21.1925 18.6211 22.1191V22.1201C18.3905 23.9197 18.2754 25.7198 18.2754 27.5381V27.6133H18.2744C18.3143 27.9443 18.082 28.167 17.8486 28.2295C17.7258 28.2623 17.5817 28.2596 17.4521 28.1953C17.3149 28.1271 17.2159 27.9998 17.1816 27.833L17.1797 27.8271C16.698 25.1524 15.8593 22.3872 14.4668 20.0264C14.3363 20.1439 14.2001 20.2612 14.0586 20.3623L14.0596 20.3633C13.2057 21.0176 11.9878 21.4044 10.8887 20.9209L10.8857 20.9199C10.2886 20.6494 9.86883 20.173 9.48828 19.7461V19.7451C9.02431 19.2359 8.58284 18.7509 8.10449 18.2656L8.10352 18.2646C7.10377 17.2331 6.06629 16.2578 4.97168 15.3398L4.96875 15.3379C3.91745 14.4363 2.79495 14.2481 1.36914 14.1914C1.24893 14.2076 1.14616 14.1715 1.11133 14.1602L1.09766 14.1562C0.924645 14.0887 0.811411 13.9479 0.772461 13.7959C0.742804 13.6799 0.742732 13.5808 0.772461 13.4648L0.774414 13.4551L0.77832 13.4463C0.793538 13.4018 0.82979 13.2769 0.947266 13.1865C1.97348 12.1071 3.36423 11.5818 4.81445 11.3496C6.27252 11.1162 7.81396 11.1743 9.15234 11.2783L9.15332 11.2793C11.4982 11.4653 13.8905 12.337 15.4775 14.1514L15.6289 14.3301L15.6309 14.333C16.3398 15.2224 16.7361 16.3533 16.2861 17.5029V17.5039C16.061 18.0712 15.6847 18.6442 15.2588 19.166C15.8029 20.0205 16.2335 20.9519 16.6064 21.8838L16.9844 22.8682V22.8691C17.1029 23.1913 17.213 23.5136 17.3184 23.8369C17.3856 23.0747 17.4661 22.3144 17.5645 21.5469V21.5459H17.5654C17.6812 20.68 17.8185 19.7488 18.1387 18.8896L18.1396 18.8867C18.2989 18.4724 18.505 18.0619 18.7266 17.668C18.321 17.1893 18.0128 16.6544 17.8604 16.0605L17.8047 15.8252C17.5496 14.6392 17.6474 13.2787 18.082 12.1543C18.5555 10.8917 19.5191 10.0415 20.6738 9.43945H20.6748C21.9196 8.79438 23.361 8.17493 24.7764 7.98047H24.7783ZM8.10156 12.3252C6.27101 12.2747 4.28319 12.2935 2.75391 13.1621C3.44652 13.2555 4.142 13.426 4.77441 13.8018H4.77539C5.83076 14.4233 6.74616 15.3749 7.58301 16.1729L8.24512 16.8066C8.89647 17.4474 9.51933 18.1093 10.1309 18.791H10.1318C10.3378 19.0221 10.5099 19.2398 10.7139 19.4434C10.862 19.5912 11.014 19.7173 11.1807 19.8115L11.3535 19.8945L11.3604 19.8975H11.3594C11.8276 20.1022 12.385 20.0166 12.8896 19.7705C13.2224 19.6082 13.5336 19.3634 13.8281 19.0801C13.1249 18.1199 12.1987 17.2487 11.2881 16.4492L11.2861 16.4473C10.1417 15.4239 8.83691 14.5786 7.30957 14.417V14.416C6.96431 14.3814 6.79207 14.0907 6.78809 13.8418C6.78611 13.7149 6.82585 13.5742 6.92871 13.4658C7.03735 13.3514 7.19099 13.3 7.3584 13.3154H7.36035C8.91049 13.4725 10.2692 14.1791 11.4531 15.1221L11.9062 15.4893C12.875 16.2972 13.8099 17.232 14.583 18.2119C14.8003 17.919 14.9898 17.6132 15.1328 17.3203L15.1348 17.3174C15.6545 16.2866 15.1259 15.2556 14.2266 14.4697V14.4688C13.3712 13.7273 12.4159 13.0918 11.3604 12.7666L11.3574 12.7656C10.3289 12.4373 9.21696 12.3439 8.10449 12.3252H8.10156ZM29.7471 8.85449C28.1125 8.77947 26.3534 8.79947 24.7344 9.05957H24.7324C23.6873 9.21888 22.6176 9.65921 21.6309 10.1445L21.2129 10.3555C20.0452 10.9521 19.252 11.8047 18.9443 13.04C18.7951 13.6404 18.7172 14.338 18.7793 15.0049C18.8349 15.6014 19.0023 16.159 19.3164 16.6045C21.1153 13.8752 23.5894 11.621 26.4678 10.0273L26.4697 10.0264C26.7902 9.85267 27.0916 10.0234 27.2197 10.2422C27.2842 10.3522 27.3192 10.4916 27.291 10.6338C27.2615 10.7825 27.167 10.9103 27.0195 10.9912C24.2886 12.5189 21.9423 14.6613 20.2451 17.2471L20.2441 17.2461C20.2033 17.3151 20.1598 17.3836 20.1191 17.4453C20.1154 17.451 20.1111 17.4563 20.1074 17.4619C20.8779 18.1657 21.7955 18.6368 22.8662 18.6699H22.8652C23.7026 18.6894 24.3524 18.7102 24.8623 18.1807L24.8643 18.1787C25.2909 17.7443 25.6168 17.2105 25.999 16.6807L26.001 16.6777C26.6101 15.8571 27.2218 15.0439 27.8672 14.248L28.5254 13.458C29.8419 11.917 31.3063 10.4941 32.9893 9.33203C32.5484 9.26507 32.1124 9.18321 31.6836 9.10547C31.0344 8.98776 30.3963 8.88296 29.748 8.85547L29.7471 8.85449Z" fill="#356A72" stroke="#356A72" stroke-width="0.5"/>
</svg>
