<svg width="36" height="36" viewBox="0 0 36 36" fill="none" xmlns="http://www.w3.org/2000/svg">
<g clip-path="url(#clip0_13981_7814)">
<path d="M15.1875 34.6667C14.9932 34.6666 14.8023 34.6162 14.6332 34.5204L5.07071 29.1036C4.89752 29.0055 4.75344 28.8633 4.65318 28.6913C4.55292 28.5194 4.50006 28.324 4.5 28.1249V16.8749C4.50004 16.6759 4.55289 16.4804 4.65315 16.3085C4.75341 16.1365 4.8975 15.9942 5.07071 15.8962L14.6332 10.4793C14.8023 10.3837 14.9933 10.3335 15.1875 10.3335C15.3817 10.3335 15.5727 10.3837 15.7418 10.4793L25.3043 15.8962C25.4775 15.9942 25.6216 16.1365 25.7218 16.3085C25.8221 16.4804 25.875 16.6759 25.875 16.8749V28.1249C25.875 28.324 25.8221 28.5194 25.7218 28.6914C25.6216 28.8633 25.4775 29.0056 25.3043 29.1037L15.7418 34.5206C15.5727 34.6163 15.3818 34.6666 15.1875 34.6667ZM6.75 27.4691L15.1875 32.2486L23.625 27.4691V17.5308L15.1875 12.7512L6.75 17.5308V27.4691Z" fill="#356A72"/>
<path d="M31.5001 19.1249H29.2501V8.5308L20.8126 3.75124L11.8044 8.85368L10.6958 6.89618L20.2583 1.4793C20.4274 1.38372 20.6183 1.3335 20.8126 1.3335C21.0068 1.3335 21.1978 1.38372 21.3669 1.4793L30.9294 6.89618C31.1026 6.99425 31.2467 7.13652 31.3469 7.30847C31.4472 7.48041 31.5 7.67588 31.5001 7.87493V19.1249Z" fill="#356A72"/>
</g>
<defs>
<clipPath id="clip0_13981_7814">
<rect width="36" height="36" fill="white"/>
</clipPath>
</defs>
</svg>
