<svg width="82" height="82" viewBox="0 0 82 82" fill="none" xmlns="http://www.w3.org/2000/svg">
<mask id="mask0_1406_10001" style="mask-type:luminance" maskUnits="userSpaceOnUse" x="0" y="0" width="82" height="82">
<path d="M81.2641 0.0478516H0V81.236H81.2641V0.0478516Z" fill="white"/>
</mask>
<g mask="url(#mask0_1406_10001)">
<mask id="mask1_1406_10001" style="mask-type:luminance" maskUnits="userSpaceOnUse" x="0" y="0" width="82" height="82">
<path d="M81.2641 0.0478516H0V81.2363H81.2641V0.0478516Z" fill="white"/>
</mask>
<g mask="url(#mask1_1406_10001)">
<path d="M65.4784 40.6243H57.7615C56.6696 40.6243 56.2902 39.8459 56.9287 38.9001L60.7871 33.1462C61.2406 32.4565 61.9993 32.4565 62.4527 33.1462L66.3112 38.9001C66.9496 39.8459 66.5703 40.6243 65.4784 40.6243Z" fill="#164347"/>
<path d="M67.0303 48.0473H56.211C54.6819 48.0473 54.1594 47.0655 55.0594 45.8686L58.9207 40.623H64.3207L68.1819 45.8686C69.0819 47.0655 68.5593 48.0473 67.0303 48.0473Z" fill="#164347"/>
<path d="M62.3358 48.0488V51.8962C62.3358 52.2906 62.0119 52.6176 61.6213 52.6176C61.2307 52.6176 60.9067 52.2906 60.9067 51.8962V48.0488H62.3358Z" fill="#164347"/>
<path d="M40.8478 46.11C45.641 46.11 49.5266 42.228 49.5266 37.4393C49.5266 32.6506 45.641 28.7686 40.8478 28.7686C36.0546 28.7686 32.1689 32.6506 32.1689 37.4393C32.1689 42.228 36.0546 46.11 40.8478 46.11Z" fill="#164347"/>
<path d="M40.8489 14.6621C59.6362 14.6621 75.7851 25.1322 81.4902 39.9628C81.6707 40.4315 81.6707 40.9507 81.4902 41.4193C79.741 45.9671 77.008 50.1031 73.5195 53.6546L69.0556 52.9268L68.7128 52.6089C72.5524 49.2315 75.542 45.1717 77.405 40.6907C72.1411 28.0311 57.8936 18.7215 40.8489 18.7215C23.8041 18.7217 9.55559 28.0309 4.29191 40.6907C4.31396 40.7437 4.3378 40.7963 4.36016 40.8493H0.0795129C0.056156 40.5502 0.0978963 40.2472 0.207282 39.9628C5.91247 25.1321 22.0615 14.6623 40.8489 14.6621Z" fill="#32666D"/>
<path d="M73.524 53.4729C70.4134 53.022 69.1948 52.6989 66.1756 52.2612C66.1756 52.2612 60.3745 51.0351 59.2158 50.8246C59.2158 50.8246 42.8192 48.3721 33.8336 51.3456C29.197 52.5971 23.5824 54.312 23.5824 54.312C23.5824 54.312 14.3708 56.6357 13.2627 57.2152C16.4751 59.2489 22.5016 63.598 32.3872 65.3758C38.5028 66.1931 46.1628 67.1533 57.9383 63.3715C64.1049 60.9439 68.0415 58.2551 73.524 53.4729Z" fill="#278791"/>
<path d="M29.0824 46.1057L30.2485 46.7349C30.4794 46.836 31.8738 47.5468 31.8738 47.5468C31.8738 47.3107 31.8738 47.776 31.8738 47.5468C24.9297 50.3641 14.8669 55.54 7.33033 52.9379C3.74315 49.3157 1.40368 44.7486 0 40.7946C0.649977 40.568 1.12876 40.5587 1.78043 40.3363C2.14293 40.2114 2.50543 40.0865 2.87892 39.9579C12.4855 37.1124 21.1197 41.7136 29.0824 46.1057Z" fill="#278791"/>
</g>
</g>
</svg>
