<svg width="475" height="52" viewBox="0 0 475 52" fill="none" xmlns="http://www.w3.org/2000/svg">
<path d="M22.2988 1.07812C22.7463 0.973942 23.2117 0.973947 23.6592 1.07812L42.6387 5.49609C43.9969 5.81243 44.9578 7.02344 44.958 8.41797V30.4082C44.958 30.8263 44.8697 31.245 44.6973 31.6289C42.5452 36.419 40.2855 39.9487 37.0791 42.8936C33.8838 45.8282 29.8075 48.1272 24.1143 50.5527C23.3993 50.8573 22.5842 50.8692 21.8604 50.584C16.0893 48.3103 12.0036 46.0623 8.81738 43.1025C5.62384 40.136 3.40097 36.5161 1.25098 31.6143C1.08556 31.237 1 30.827 1 30.417V8.41797C1.00018 7.02344 1.96116 5.81244 3.31934 5.49609L22.2988 1.07812Z" stroke="white" stroke-width="2"/>
<path d="M17.105 13.6052L21.1913 17.7227L28.8532 10.0024" stroke="#96C85A" stroke-width="2" stroke-linecap="round" stroke-linejoin="round"/>
<path d="M8.04199 27.7925H14.4196V43.233C11.5416 41.288 10.1076 40.0109 8.04199 37.256L8.04199 27.7925Z" fill="#9ADBDD"/>
<path d="M15.7622 25.1069H22.1398V47.2608C19.3321 46.3322 17.9335 45.6463 15.7622 44.072L15.7622 25.1069Z" fill="#72D6D9"/>
<path d="M23.8181 21.415H30.1957V44.093C28.1248 45.5093 26.7021 46.1917 23.8181 47.2612L23.8181 21.415Z" fill="#56C7CC"/>
<path d="M31.5383 17.7227H37.916V37.6475C35.8869 40.288 34.422 41.4433 31.5383 43.2331L31.5383 17.7227Z" fill="#42A8AC"/>
<path d="M62.582 37.9463V15.6103H76.95V19.3543H66.806V24.7623H75.638V28.5063H66.806V37.9463H62.582ZM89.9663 35.1623H89.8063C89.6569 35.589 89.4543 35.9943 89.1983 36.3783C88.9636 36.741 88.6543 37.0716 88.2703 37.3703C87.9076 37.669 87.4596 37.9036 86.9263 38.0743C86.4143 38.245 85.8169 38.3303 85.1343 38.3303C83.4063 38.3303 82.0836 37.765 81.1663 36.6343C80.2489 35.5036 79.7903 33.893 79.7903 31.8023V21.2423H83.8863V31.3863C83.8863 32.5383 84.1103 33.4236 84.5583 34.0423C85.0063 34.6396 85.7209 34.9383 86.7023 34.9383C87.1076 34.9383 87.5023 34.885 87.8863 34.7783C88.2916 34.6716 88.6436 34.5116 88.9423 34.2983C89.2409 34.0636 89.4863 33.7863 89.6783 33.4663C89.8703 33.125 89.9663 32.7303 89.9663 32.2823V21.2423H94.0623V37.9463H89.9663V35.1623ZM98.7948 37.9463V21.2423H102.891V24.0263H103.051C103.392 23.1303 103.925 22.3836 104.651 21.7863C105.397 21.1676 106.421 20.8583 107.723 20.8583C109.451 20.8583 110.773 21.4236 111.691 22.5543C112.608 23.685 113.067 25.2956 113.067 27.3863V37.9463H108.971V27.8023C108.971 26.6076 108.757 25.7116 108.331 25.1143C107.904 24.517 107.2 24.2183 106.219 24.2183C105.792 24.2183 105.376 24.2823 104.971 24.4103C104.587 24.517 104.235 24.6876 103.915 24.9223C103.616 25.1356 103.371 25.413 103.179 25.7543C102.987 26.0743 102.891 26.4583 102.891 26.9063V37.9463H98.7948ZM127.975 35.1623H127.815C127.517 36.1223 126.951 36.8903 126.119 37.4663C125.287 38.0423 124.317 38.3303 123.207 38.3303C121.095 38.3303 119.474 37.573 118.343 36.0583C117.234 34.5436 116.679 32.3783 116.679 29.5623C116.679 26.7676 117.234 24.6236 118.343 23.1303C119.474 21.6156 121.095 20.8583 123.207 20.8583C124.317 20.8583 125.287 21.1463 126.119 21.7223C126.951 22.277 127.517 23.0343 127.815 23.9943H127.975V14.2663H132.071V37.9463H127.975V35.1623ZM124.519 34.9383C125.501 34.9383 126.322 34.7036 126.983 34.2343C127.645 33.765 127.975 33.093 127.975 32.2183V26.9063C127.975 26.0956 127.645 25.445 126.983 24.9543C126.322 24.4636 125.501 24.2183 124.519 24.2183C123.453 24.2183 122.589 24.581 121.927 25.3063C121.287 26.0103 120.967 26.9596 120.967 28.1543V31.0343C120.967 32.229 121.287 33.1783 121.927 33.8823C122.589 34.5863 123.453 34.9383 124.519 34.9383ZM138.843 18.8103C137.989 18.8103 137.371 18.6183 136.987 18.2343C136.624 17.8503 136.443 17.3596 136.443 16.7623V16.1223C136.443 15.525 136.624 15.0343 136.987 14.6503C137.371 14.2663 137.989 14.0743 138.843 14.0743C139.675 14.0743 140.283 14.2663 140.667 14.6503C141.051 15.0343 141.243 15.525 141.243 16.1223V16.7623C141.243 17.3596 141.051 17.8503 140.667 18.2343C140.283 18.6183 139.675 18.8103 138.843 18.8103ZM136.795 21.2423H140.891V37.9463H136.795V21.2423ZM145.639 37.9463V21.2423H149.735V24.0263H149.895C150.236 23.1303 150.769 22.3836 151.495 21.7863C152.241 21.1676 153.265 20.8583 154.567 20.8583C156.295 20.8583 157.617 21.4236 158.535 22.5543C159.452 23.685 159.911 25.2956 159.911 27.3863V37.9463H155.815V27.8023C155.815 26.6076 155.601 25.7116 155.175 25.1143C154.748 24.517 154.044 24.2183 153.063 24.2183C152.636 24.2183 152.22 24.2823 151.815 24.4103C151.431 24.517 151.079 24.6876 150.759 24.9223C150.46 25.1356 150.215 25.413 150.023 25.7543C149.831 26.0743 149.735 26.4583 149.735 26.9063V37.9463H145.639ZM179.523 39.3543C179.523 40.229 179.363 40.997 179.043 41.6583C178.744 42.341 178.243 42.9063 177.539 43.3543C176.835 43.8023 175.928 44.1436 174.819 44.3783C173.71 44.613 172.355 44.7303 170.755 44.7303C169.347 44.7303 168.152 44.6343 167.171 44.4423C166.19 44.2716 165.379 44.0156 164.739 43.6743C164.12 43.3543 163.672 42.949 163.395 42.4583C163.118 41.9676 162.979 41.413 162.979 40.7943C162.979 39.8556 163.235 39.1196 163.747 38.5863C164.28 38.0743 165.016 37.7436 165.955 37.5943V37.2423C165.272 37.0716 164.739 36.741 164.355 36.2503C163.992 35.7383 163.811 35.141 163.811 34.4583C163.811 34.0316 163.896 33.6583 164.067 33.3383C164.238 32.997 164.462 32.709 164.739 32.4743C165.038 32.2396 165.368 32.0476 165.731 31.8983C166.094 31.7276 166.478 31.5996 166.883 31.5143V31.3863C165.859 30.917 165.091 30.2663 164.579 29.4343C164.088 28.6023 163.843 27.6316 163.843 26.5223C163.843 24.8156 164.43 23.4503 165.603 22.4263C166.776 21.381 168.494 20.8583 170.755 20.8583C171.267 20.8583 171.768 20.8903 172.259 20.9543C172.771 21.0183 173.24 21.125 173.667 21.2743V20.7303C173.667 19.109 174.456 18.2983 176.035 18.2983H178.627V21.4343H175.075V21.8823C175.95 22.373 176.6 23.013 177.027 23.8023C177.454 24.5916 177.667 25.4983 177.667 26.5223C177.667 28.2076 177.08 29.5623 175.907 30.5863C174.755 31.6103 173.038 32.1223 170.755 32.1223C169.774 32.1223 168.92 32.0263 168.195 31.8343C167.875 31.9836 167.598 32.1863 167.363 32.4423C167.128 32.677 167.011 32.9756 167.011 33.3383C167.011 34.1703 167.736 34.5863 169.187 34.5863H173.667C175.715 34.5863 177.198 35.013 178.115 35.8663C179.054 36.6983 179.523 37.861 179.523 39.3543ZM175.683 39.8343C175.683 39.301 175.47 38.885 175.043 38.5863C174.616 38.2876 173.88 38.1383 172.835 38.1383H167.139C166.563 38.565 166.275 39.141 166.275 39.8663C166.275 40.5063 166.542 41.0076 167.075 41.3703C167.608 41.733 168.515 41.9143 169.795 41.9143H171.843C173.187 41.9143 174.158 41.7436 174.755 41.4023C175.374 41.061 175.683 40.5383 175.683 39.8343ZM170.755 29.3383C172.76 29.3383 173.763 28.485 173.763 26.7783V26.2343C173.763 24.5276 172.76 23.6743 170.755 23.6743C168.75 23.6743 167.747 24.5276 167.747 26.2343V26.7783C167.747 28.485 168.75 29.3383 170.755 29.3383ZM198.475 38.3303C197.003 38.3303 195.67 38.085 194.475 37.5943C193.28 37.1036 192.256 36.3676 191.403 35.3863C190.571 34.405 189.92 33.1996 189.451 31.7703C188.982 30.341 188.747 28.677 188.747 26.7783C188.747 24.901 188.982 23.2476 189.451 21.8183C189.92 20.3676 190.571 19.1516 191.403 18.1703C192.256 17.189 193.28 16.453 194.475 15.9623C195.67 15.4716 197.003 15.2263 198.475 15.2263C199.947 15.2263 201.28 15.4716 202.475 15.9623C203.67 16.453 204.694 17.189 205.547 18.1703C206.4 19.1516 207.051 20.3676 207.499 21.8183C207.968 23.2476 208.203 24.901 208.203 26.7783C208.203 28.677 207.968 30.341 207.499 31.7703C207.051 33.1996 206.4 34.405 205.547 35.3863C204.694 36.3676 203.67 37.1036 202.475 37.5943C201.28 38.085 199.947 38.3303 198.475 38.3303ZM198.475 34.5863C200.075 34.5863 201.344 34.053 202.283 32.9863C203.243 31.9196 203.723 30.4263 203.723 28.5063V25.0503C203.723 23.1303 203.243 21.637 202.283 20.5703C201.344 19.5036 200.075 18.9703 198.475 18.9703C196.875 18.9703 195.595 19.5036 194.635 20.5703C193.696 21.637 193.227 23.1303 193.227 25.0503V28.5063C193.227 30.4263 193.696 31.9196 194.635 32.9863C195.595 34.053 196.875 34.5863 198.475 34.5863ZM212.232 21.2423H216.328V23.9943H216.456C216.755 23.0343 217.32 22.277 218.152 21.7223C218.984 21.1463 219.955 20.8583 221.064 20.8583C223.198 20.8583 224.819 21.6156 225.928 23.1303C227.059 24.6236 227.624 26.7676 227.624 29.5623C227.624 32.3783 227.059 34.5436 225.928 36.0583C224.819 37.573 223.198 38.3303 221.064 38.3303C219.955 38.3303 218.984 38.0423 218.152 37.4663C217.342 36.8903 216.776 36.1223 216.456 35.1623H216.328V44.3463H212.232V21.2423ZM219.752 34.9383C220.819 34.9383 221.683 34.5863 222.344 33.8823C223.006 33.1783 223.336 32.229 223.336 31.0343V28.1543C223.336 26.9596 223.006 26.0103 222.344 25.3063C221.683 24.581 220.819 24.2183 219.752 24.2183C218.771 24.2183 217.95 24.4636 217.288 24.9543C216.648 25.445 216.328 26.0956 216.328 26.9063V32.2183C216.328 33.093 216.648 33.765 217.288 34.2343C217.95 34.7036 218.771 34.9383 219.752 34.9383ZM231.42 21.2423H235.516V23.9943H235.644C235.942 23.0343 236.508 22.277 237.34 21.7223C238.172 21.1463 239.142 20.8583 240.252 20.8583C242.385 20.8583 244.006 21.6156 245.116 23.1303C246.246 24.6236 246.812 26.7676 246.812 29.5623C246.812 32.3783 246.246 34.5436 245.116 36.0583C244.006 37.573 242.385 38.3303 240.252 38.3303C239.142 38.3303 238.172 38.0423 237.34 37.4663C236.529 36.8903 235.964 36.1223 235.644 35.1623H235.516V44.3463H231.42V21.2423ZM238.94 34.9383C240.006 34.9383 240.87 34.5863 241.532 33.8823C242.193 33.1783 242.524 32.229 242.524 31.0343V28.1543C242.524 26.9596 242.193 26.0103 241.532 25.3063C240.87 24.581 240.006 24.2183 238.94 24.2183C237.958 24.2183 237.137 24.4636 236.476 24.9543C235.836 25.445 235.516 26.0956 235.516 26.9063V32.2183C235.516 33.093 235.836 33.765 236.476 34.2343C237.137 34.7036 237.958 34.9383 238.94 34.9383ZM257.231 38.3303C256.037 38.3303 254.959 38.1276 253.999 37.7223C253.061 37.317 252.25 36.7303 251.567 35.9623C250.906 35.1943 250.394 34.277 250.031 33.2103C249.669 32.1223 249.487 30.9063 249.487 29.5623C249.487 28.2183 249.669 27.013 250.031 25.9463C250.394 24.8796 250.906 23.973 251.567 23.2263C252.25 22.4583 253.061 21.8716 253.999 21.4663C254.959 21.061 256.037 20.8583 257.231 20.8583C258.426 20.8583 259.503 21.061 260.463 21.4663C261.423 21.8716 262.234 22.4583 262.895 23.2263C263.578 23.973 264.101 24.8796 264.463 25.9463C264.826 27.013 265.007 28.2183 265.007 29.5623C265.007 30.9063 264.826 32.1223 264.463 33.2103C264.101 34.277 263.578 35.1943 262.895 35.9623C262.234 36.7303 261.423 37.317 260.463 37.7223C259.503 38.1276 258.426 38.3303 257.231 38.3303ZM257.231 35.0343C258.319 35.0343 259.173 34.7036 259.791 34.0423C260.41 33.381 260.719 32.4103 260.719 31.1303V28.0263C260.719 26.7676 260.41 25.8076 259.791 25.1463C259.173 24.485 258.319 24.1543 257.231 24.1543C256.165 24.1543 255.322 24.485 254.703 25.1463C254.085 25.8076 253.775 26.7676 253.775 28.0263V31.1303C253.775 32.4103 254.085 33.381 254.703 34.0423C255.322 34.7036 256.165 35.0343 257.231 35.0343ZM268.639 37.9463V21.2423H272.735V24.6983H272.895C273.001 24.2503 273.161 23.8236 273.375 23.4183C273.609 22.9916 273.908 22.6183 274.271 22.2983C274.633 21.9783 275.06 21.7223 275.551 21.5303C276.063 21.3383 276.649 21.2423 277.311 21.2423H278.207V25.1143H276.927C275.54 25.1143 274.495 25.317 273.791 25.7223C273.087 26.1276 272.735 26.789 272.735 27.7063V37.9463H268.639ZM286.542 37.9463C285.134 37.9463 284.057 37.5836 283.31 36.8583C282.585 36.1116 282.222 35.0556 282.222 33.6903V24.5063H279.758V21.2423H281.038C281.657 21.2423 282.073 21.1036 282.286 20.8263C282.521 20.5276 282.638 20.0903 282.638 19.5143V16.6663H286.318V21.2423H289.742V24.5063H286.318V34.6823H289.486V37.9463H286.542ZM303.279 35.1623H303.119C302.969 35.589 302.767 35.9943 302.511 36.3783C302.276 36.741 301.967 37.0716 301.583 37.3703C301.22 37.669 300.772 37.9036 300.239 38.0743C299.727 38.245 299.129 38.3303 298.447 38.3303C296.719 38.3303 295.396 37.765 294.479 36.6343C293.561 35.5036 293.103 33.893 293.103 31.8023V21.2423H297.199V31.3863C297.199 32.5383 297.423 33.4236 297.871 34.0423C298.319 34.6396 299.033 34.9383 300.015 34.9383C300.42 34.9383 300.815 34.885 301.199 34.7783C301.604 34.6716 301.956 34.5116 302.255 34.2983C302.553 34.0636 302.799 33.7863 302.991 33.4663C303.183 33.125 303.279 32.7303 303.279 32.2823V21.2423H307.375V37.9463H303.279V35.1623ZM312.107 37.9463V21.2423H316.203V24.0263H316.363C316.705 23.1303 317.238 22.3836 317.963 21.7863C318.71 21.1676 319.734 20.8583 321.035 20.8583C322.763 20.8583 324.086 21.4236 325.003 22.5543C325.921 23.685 326.379 25.2956 326.379 27.3863V37.9463H322.283V27.8023C322.283 26.6076 322.07 25.7116 321.643 25.1143C321.217 24.517 320.513 24.2183 319.531 24.2183C319.105 24.2183 318.689 24.2823 318.283 24.4103C317.899 24.517 317.547 24.6876 317.227 24.9223C316.929 25.1356 316.683 25.413 316.491 25.7543C316.299 26.0743 316.203 26.4583 316.203 26.9063V37.9463H312.107ZM332.968 18.8103C332.114 18.8103 331.496 18.6183 331.112 18.2343C330.749 17.8503 330.568 17.3596 330.568 16.7623V16.1223C330.568 15.525 330.749 15.0343 331.112 14.6503C331.496 14.2663 332.114 14.0743 332.968 14.0743C333.8 14.0743 334.408 14.2663 334.792 14.6503C335.176 15.0343 335.368 15.525 335.368 16.1223V16.7623C335.368 17.3596 335.176 17.8503 334.792 18.2343C334.408 18.6183 333.8 18.8103 332.968 18.8103ZM330.92 21.2423H335.016V37.9463H330.92V21.2423ZM344.98 37.9463C343.572 37.9463 342.494 37.5836 341.748 36.8583C341.022 36.1116 340.66 35.0556 340.66 33.6903V24.5063H338.196V21.2423H339.476C340.094 21.2423 340.51 21.1036 340.724 20.8263C340.958 20.5276 341.076 20.0903 341.076 19.5143V16.6663H344.756V21.2423H348.18V24.5063H344.756V34.6823H347.924V37.9463H344.98ZM361.972 21.2423H365.812L359.092 40.9223C358.879 41.5196 358.634 42.0316 358.356 42.4583C358.1 42.9063 357.791 43.269 357.428 43.5463C357.066 43.8236 356.628 44.0263 356.116 44.1543C355.604 44.2823 355.007 44.3463 354.324 44.3463H351.86V41.0823H354.868L355.636 38.7463L349.652 21.2423H353.716L356.628 30.0743L357.716 34.2983H357.908L359.06 30.0743L361.972 21.2423ZM380.556 37.9463H376.332V15.6103H386.412C387.436 15.6103 388.353 15.7703 389.164 16.0903C389.975 16.4103 390.657 16.8796 391.212 17.4983C391.788 18.0956 392.225 18.821 392.524 19.6743C392.844 20.5276 393.004 21.477 393.004 22.5223C393.004 24.0583 392.652 25.381 391.948 26.4903C391.265 27.5996 390.231 28.389 388.844 28.8583L393.42 37.9463H388.716L384.556 29.3383H380.556V37.9463ZM385.996 25.7863C386.807 25.7863 387.447 25.573 387.916 25.1463C388.385 24.6983 388.62 24.069 388.62 23.2583V21.7863C388.62 20.9756 388.385 20.357 387.916 19.9303C387.447 19.5036 386.807 19.2903 385.996 19.2903H380.556V25.7863H385.996ZM403.609 38.3303C402.372 38.3303 401.263 38.1276 400.281 37.7223C399.321 37.2956 398.5 36.709 397.817 35.9623C397.156 35.1943 396.644 34.277 396.281 33.2103C395.919 32.1223 395.737 30.9063 395.737 29.5623C395.737 28.2396 395.908 27.045 396.249 25.9783C396.612 24.9116 397.124 24.005 397.785 23.2583C398.447 22.4903 399.257 21.9036 400.217 21.4983C401.177 21.0716 402.265 20.8583 403.481 20.8583C404.783 20.8583 405.913 21.0823 406.873 21.5303C407.833 21.9783 408.623 22.5863 409.241 23.3543C409.86 24.1223 410.319 25.0183 410.617 26.0423C410.937 27.045 411.097 28.1223 411.097 29.2743V30.6183H399.993V31.0343C399.993 32.2503 400.335 33.2316 401.017 33.9783C401.7 34.7036 402.713 35.0663 404.057 35.0663C405.081 35.0663 405.913 34.853 406.553 34.4263C407.215 33.9996 407.801 33.4556 408.313 32.7943L410.521 35.2583C409.839 36.2183 408.9 36.9756 407.705 37.5303C406.532 38.0636 405.167 38.3303 403.609 38.3303ZM403.545 23.9303C402.457 23.9303 401.593 24.293 400.953 25.0183C400.313 25.7436 399.993 26.6823 399.993 27.8343V28.0903H406.841V27.8023C406.841 26.6503 406.553 25.7223 405.977 25.0183C405.423 24.293 404.612 23.9303 403.545 23.9303ZM414.701 21.2423H418.797V23.9943H418.925C419.224 23.0343 419.789 22.277 420.621 21.7223C421.453 21.1463 422.424 20.8583 423.533 20.8583C425.666 20.8583 427.288 21.6156 428.397 23.1303C429.528 24.6236 430.093 26.7676 430.093 29.5623C430.093 32.3783 429.528 34.5436 428.397 36.0583C427.288 37.573 425.666 38.3303 423.533 38.3303C422.424 38.3303 421.453 38.0423 420.621 37.4663C419.81 36.8903 419.245 36.1223 418.925 35.1623H418.797V44.3463H414.701V21.2423ZM422.221 34.9383C423.288 34.9383 424.152 34.5863 424.813 33.8823C425.474 33.1783 425.805 32.229 425.805 31.0343V28.1543C425.805 26.9596 425.474 26.0103 424.813 25.3063C424.152 24.581 423.288 24.2183 422.221 24.2183C421.24 24.2183 420.418 24.4636 419.757 24.9543C419.117 25.445 418.797 26.0956 418.797 26.9063V32.2183C418.797 33.093 419.117 33.765 419.757 34.2343C420.418 34.7036 421.24 34.9383 422.221 34.9383ZM440.513 38.3303C439.318 38.3303 438.241 38.1276 437.281 37.7223C436.342 37.317 435.531 36.7303 434.849 35.9623C434.187 35.1943 433.675 34.277 433.313 33.2103C432.95 32.1223 432.769 30.9063 432.769 29.5623C432.769 28.2183 432.95 27.013 433.313 25.9463C433.675 24.8796 434.187 23.973 434.849 23.2263C435.531 22.4583 436.342 21.8716 437.281 21.4663C438.241 21.061 439.318 20.8583 440.513 20.8583C441.707 20.8583 442.785 21.061 443.745 21.4663C444.705 21.8716 445.515 22.4583 446.177 23.2263C446.859 23.973 447.382 24.8796 447.745 25.9463C448.107 27.013 448.289 28.2183 448.289 29.5623C448.289 30.9063 448.107 32.1223 447.745 33.2103C447.382 34.277 446.859 35.1943 446.177 35.9623C445.515 36.7303 444.705 37.317 443.745 37.7223C442.785 38.1276 441.707 38.3303 440.513 38.3303ZM440.513 35.0343C441.601 35.0343 442.454 34.7036 443.073 34.0423C443.691 33.381 444.001 32.4103 444.001 31.1303V28.0263C444.001 26.7676 443.691 25.8076 443.073 25.1463C442.454 24.485 441.601 24.1543 440.513 24.1543C439.446 24.1543 438.603 24.485 437.985 25.1463C437.366 25.8076 437.057 26.7676 437.057 28.0263V31.1303C437.057 32.4103 437.366 33.381 437.985 34.0423C438.603 34.7036 439.446 35.0343 440.513 35.0343ZM451.92 37.9463V21.2423H456.016V24.6983H456.176C456.282 24.2503 456.442 23.8236 456.656 23.4183C456.89 22.9916 457.189 22.6183 457.552 22.2983C457.914 21.9783 458.341 21.7223 458.832 21.5303C459.344 21.3383 459.93 21.2423 460.592 21.2423H461.488V25.1143H460.208C458.821 25.1143 457.776 25.317 457.072 25.7223C456.368 26.1276 456.016 26.789 456.016 27.7063V37.9463H451.92ZM469.823 37.9463C468.415 37.9463 467.338 37.5836 466.591 36.8583C465.866 36.1116 465.503 35.0556 465.503 33.6903V24.5063H463.039V21.2423H464.319C464.938 21.2423 465.354 21.1036 465.567 20.8263C465.802 20.5276 465.919 20.0903 465.919 19.5143V16.6663H469.599V21.2423H473.023V24.5063H469.599V34.6823H472.767V37.9463H469.823Z" fill="white"/>
</svg>
