<svg width="46" height="52" viewBox="0 0 46 52" fill="none" xmlns="http://www.w3.org/2000/svg">
<path d="M22.2988 1.07812C22.7463 0.973942 23.2117 0.973947 23.6592 1.07812L42.6387 5.49609C43.9969 5.81243 44.9578 7.02344 44.958 8.41797V30.4082C44.958 30.8263 44.8697 31.245 44.6973 31.6289C42.5452 36.419 40.2855 39.9487 37.0791 42.8936C33.8838 45.8282 29.8075 48.1272 24.1143 50.5527C23.3993 50.8573 22.5842 50.8692 21.8604 50.584C16.0893 48.3103 12.0036 46.0623 8.81738 43.1025C5.62384 40.136 3.40097 36.5161 1.25098 31.6143C1.08556 31.237 1 30.827 1 30.417V8.41797C1.00018 7.02344 1.96116 5.81244 3.31934 5.49609L22.2988 1.07812Z" stroke="white" stroke-width="2"/>
<path d="M17.105 13.6052L21.1913 17.7227L28.8532 10.0024" stroke="#96C85A" stroke-width="2" stroke-linecap="round" stroke-linejoin="round"/>
<path d="M8.04199 27.7925H14.4196V43.233C11.5416 41.288 10.1076 40.0109 8.04199 37.256L8.04199 27.7925Z" fill="#9ADBDD"/>
<path d="M15.7622 25.1069H22.1398V47.2608C19.3321 46.3322 17.9335 45.6463 15.7622 44.072L15.7622 25.1069Z" fill="#72D6D9"/>
<path d="M23.8181 21.415H30.1957V44.093C28.1248 45.5093 26.7021 46.1917 23.8181 47.2612L23.8181 21.415Z" fill="#56C7CC"/>
<path d="M31.5383 17.7227H37.916V37.6475C35.8869 40.288 34.422 41.4433 31.5383 43.2331L31.5383 17.7227Z" fill="#42A8AC"/>
</svg>
