<svg width="32" height="32" viewBox="0 0 32 32" fill="none" xmlns="http://www.w3.org/2000/svg">
<circle cx="16" cy="16" r="15" stroke="#F9FFF9" stroke-width="2"/>
<path d="M11.3548 1.37627V8.94616C11.9283 10.0358 12.215 11.8709 15.1397 12.387C17.3763 12.387 18.4086 10.8386 18.4086 7.9139C18.1333 5.98702 17.4336 1.83505 17.2043 0.516052" stroke="#F9FFF9" stroke-width="2"/>
<path d="M1.72046 9.97854C2.58067 9.92119 5.29895 10.2538 5.84949 11.3549C6.53766 12.7312 5.16132 19.0968 6.36562 20.4732C7.56992 21.8495 10.4947 20.9893 11.5269 23.2258C12.3527 25.0151 11.2975 28.3298 10.6667 29.7635" stroke="#F9FFF9" stroke-width="2"/>
<path d="M24.9463 4.12903C24.6022 4.35842 23.8108 5.05806 23.3979 6.0215C22.8817 7.2258 24.2581 14.4516 21.3334 16.6882C18.4086 18.9247 13.4194 20.129 11.3549 16.6882C9.29035 13.2473 9.46239 10.1505 8.77422 7.39785C8.22368 5.1957 6.59501 4.75985 5.84949 4.8172" stroke="#F9FFF9" stroke-width="2"/>
<path d="M17.7205 30.9677C18.0072 29.3046 18.7784 25.8796 20.3011 25.1182C22.3656 24.0859 26.1506 24.43 27.3549 25.8064" stroke="#F9FFF9" stroke-width="2"/>
<path d="M12.9032 30.2795C12.9605 28.7311 13.4881 25.2559 15.1398 23.7419C18.5806 19.9569 20.6451 22.5376 25.6344 19.2688C28.043 14.7956 26.1505 11.0107 28.7312 8.43005" stroke="#F9FFF9" stroke-width="2"/>
</svg>
