<svg width="22" height="22" viewBox="0 0 22 22" fill="none" xmlns="http://www.w3.org/2000/svg">
<path d="M16.7815 3.31168C16.6942 3.38 16.6107 3.44155 16.5329 3.50702C16.0342 3.91837 15.6747 4.47372 15.5036 5.09715C15.4202 5.42954 15.3748 5.77033 15.3683 6.11296C15.3545 6.47663 15.3852 6.84043 15.402 7.20391C15.4163 7.50756 15.4407 7.8117 15.4498 8.11585C15.4747 8.73664 15.3884 9.35688 15.195 9.94731C14.8691 10.9711 14.2232 11.8634 13.3524 12.4928C12.7365 12.9393 12.0074 13.2037 11.2485 13.2559C10.6939 13.3007 10.1359 13.2349 9.60693 13.0623C8.69113 12.7843 7.91642 12.1664 7.44172 11.3354C7.27584 11.0418 7.13966 10.7324 7.03522 10.4118C6.86468 9.86726 6.73498 9.31075 6.64719 8.74692C6.56059 8.25325 6.47835 7.76154 6.38347 7.2709C6.30364 6.84334 6.18452 6.42406 6.02764 6.01839C5.92544 5.74874 5.79166 5.49215 5.62911 5.25397C5.42828 4.95432 5.15575 4.7096 4.83629 4.54206C4.60157 4.42111 4.34465 4.34926 4.08124 4.3309C3.4795 4.94227 2.96549 5.63416 2.55392 6.3868C2.35537 6.72001 2.19654 7.07533 2.08069 7.4455C2.11915 7.44347 2.15603 7.44398 2.1924 7.43955C2.60401 7.38409 3.02296 7.43357 3.41032 7.5834C3.6875 7.68464 3.93631 7.851 4.13579 8.06846C4.33526 8.28593 4.47957 8.54813 4.55656 8.83301C4.61976 9.05277 4.65467 9.2797 4.66043 9.5083C4.66622 9.95994 4.61508 10.4105 4.50823 10.8494C4.41499 11.2683 4.30694 11.6844 4.24849 12.1099C4.19652 12.4214 4.19179 12.739 4.23445 13.052C4.28511 13.4144 4.42448 13.7587 4.64019 14.0543C4.74987 14.2074 4.89056 14.3356 5.0531 14.4307C5.21564 14.5258 5.39638 14.5856 5.58356 14.6062C5.75082 14.6264 5.91818 14.6451 6.08565 14.6623C6.43922 14.6984 6.77722 14.8263 7.06615 15.0332C7.38327 15.2559 7.64945 15.5434 7.84706 15.8767C8.04467 16.2099 8.1692 16.5814 8.2124 16.9665C8.26705 17.4102 8.237 17.8602 8.12383 18.2927C7.99218 18.8152 7.77946 19.3138 7.4934 19.7703C7.46588 19.8158 7.43912 19.8615 7.41211 19.907C7.85354 20.112 8.31862 20.2616 8.79678 20.3524C8.80708 20.2614 8.80533 20.1695 8.79159 20.0789C8.75655 19.5299 8.80917 18.9787 8.94746 18.4462C9.18291 17.5186 9.6643 16.6717 10.3409 15.9948C11.0174 15.3178 11.8641 14.836 12.7916 14.6001C13.2043 14.5036 13.6216 14.4284 14.042 14.3746C14.4238 14.319 14.8056 14.2648 15.1812 14.1739C15.5898 14.0798 15.9813 13.923 16.3417 13.7089C16.5987 13.5594 16.8233 13.3601 17.0024 13.1228C17.1815 12.8854 17.3114 12.6148 17.3846 12.3266C17.4478 12.0902 17.49 11.8488 17.5108 11.605C17.5387 11.2746 17.5592 10.9437 17.5768 10.6125C17.6001 10.1673 17.661 9.72474 17.7586 9.28967C18.0101 8.16162 18.4832 7.09475 19.1503 6.15098C19.1781 6.1115 19.2023 6.0707 19.2347 6.02319C18.5981 4.97051 17.7652 4.04993 16.7812 3.31149M16.6745 3.23122C15.7832 2.57811 14.7853 2.08449 13.7254 1.77229C13.029 1.56632 12.0474 1.39489 11.7867 1.43461C11.7804 1.4515 11.7726 1.47099 11.767 1.49123C11.7056 1.72859 11.6803 1.97382 11.6919 2.2187C11.7057 2.55039 11.7599 2.87915 11.8534 3.19769C11.9464 3.53296 12.0474 3.86545 12.1454 4.19895C12.2761 4.63116 12.3572 5.07683 12.3872 5.52737C12.4176 5.98353 12.3962 6.44166 12.3234 6.893C12.274 7.22671 12.1778 7.55179 12.0377 7.8587C11.9323 8.08656 11.7814 8.29045 11.5943 8.45782C11.4072 8.62519 11.1878 8.7525 10.9497 8.83194C10.7037 8.92093 10.4434 8.96365 10.1819 8.95795C9.82128 8.95897 9.46556 8.87458 9.14385 8.71169C8.82213 8.54879 8.54356 8.31203 8.33094 8.02077C8.1723 7.80619 8.04509 7.57007 7.95316 7.31955C7.77837 6.84466 7.68015 6.34502 7.66217 5.8393C7.64845 5.56267 7.65231 5.28471 7.65281 5.00809C7.65281 4.62759 7.65983 4.24683 7.66217 3.86526C7.66391 3.54965 7.64089 3.2344 7.59335 2.92239C7.55834 2.67467 7.49901 2.431 7.41623 2.19492C7.40035 2.15962 7.38193 2.12552 7.36113 2.09288C6.22234 2.55676 5.184 3.23646 4.30327 4.09457C4.26981 4.12727 4.22534 4.15429 4.21604 4.20413C4.22275 4.21141 4.22534 4.21678 4.22926 4.21792C4.2812 4.23057 4.33497 4.24392 4.38798 4.2543C4.71939 4.3247 5.02808 4.47644 5.28625 4.69584C5.50598 4.88342 5.69294 5.1063 5.83944 5.35531C6.04957 5.7178 6.21187 6.10598 6.3223 6.51016C6.47374 7.07155 6.59393 7.6409 6.6823 8.21561C6.76492 8.6865 6.84753 9.15765 6.94463 9.62545C7.04326 10.1219 7.20638 10.6033 7.42983 11.0574C7.71741 11.6538 8.1656 12.1583 8.72403 12.514C9.58879 13.06 10.6258 13.2645 11.6331 13.0878C12.2262 12.9919 12.7885 12.7579 13.2744 12.4046C13.8783 11.9639 14.3759 11.3935 14.7305 10.7353C15.0852 10.0772 15.288 9.34793 15.324 8.60117C15.3364 8.11181 15.3218 7.62214 15.2803 7.13439C15.2338 6.60322 15.2388 6.06879 15.2951 5.53857C15.3575 5.00682 15.552 4.49913 15.8607 4.06174C16.0535 3.79125 16.2832 3.54916 16.5433 3.34255C16.5848 3.30953 16.6249 3.27449 16.6755 3.23217M19.2937 6.16072C19.2508 6.21993 19.2158 6.26725 19.181 6.31659C18.7525 6.93998 18.4086 7.61738 18.1581 8.33112C17.9023 9.04285 17.7486 9.78719 17.7015 10.542C17.6841 10.8514 17.6643 11.1606 17.642 11.4696C17.6227 11.7516 17.5793 12.0316 17.5122 12.3062C17.4398 12.6171 17.3055 12.9101 17.1173 13.1679C16.9291 13.4257 16.6909 13.6428 16.4168 13.8065C16.1939 13.9423 15.9574 14.0546 15.7111 14.1413C15.2941 14.2809 14.8647 14.3806 14.4287 14.4389C14.0152 14.5031 13.6004 14.5587 13.1889 14.6345C11.9436 14.8617 10.8231 15.5331 10.0355 16.5242C9.24793 17.5152 8.84686 18.7584 8.90679 20.0228C8.90749 20.1489 8.92196 20.2746 8.94993 20.3976C9.20462 20.457 9.46221 20.5031 9.72168 20.5358C10.1149 20.59 10.5114 20.6173 10.9084 20.6174C11.1637 20.6174 11.4194 20.6064 11.6747 20.5984C11.729 20.6035 11.7835 20.5914 11.8305 20.5639C11.8341 20.5379 11.8378 20.5179 11.8401 20.4966C11.8789 20.0853 11.9542 19.6782 12.065 19.2802C12.2157 18.7334 12.4772 18.2234 12.8331 17.7817C13.1126 17.4319 13.4668 17.1491 13.8697 16.9539C14.2727 16.7587 14.7142 16.6562 15.1619 16.6537C15.6628 16.6419 16.1622 16.7144 16.6391 16.868C17.0838 17.0123 17.5138 17.1987 17.9232 17.4247C17.974 17.4598 18.0306 17.4856 18.0905 17.5006C18.7457 16.7867 19.2895 15.978 19.7036 15.1019C20.2293 13.9939 20.5351 12.7944 20.604 11.5699C20.6773 10.3344 20.512 9.0963 20.1169 7.92335C19.9149 7.30433 19.6381 6.71226 19.2926 6.16028M7.28275 19.8595C7.30046 19.8364 7.32222 19.8125 7.33937 19.7857C7.57988 19.4165 7.77195 19.0179 7.91084 18.5997C8.09702 18.0693 8.15704 17.5029 8.08613 16.9452C8.00716 16.3301 7.71475 15.7623 7.25991 15.3407C6.94367 15.0368 6.53845 14.842 6.10355 14.7849C5.94768 14.7646 5.79054 14.7498 5.63366 14.735C5.41332 14.7174 5.19958 14.6514 5.00776 14.5415C4.81593 14.4317 4.65075 14.2808 4.52405 14.0997C4.28461 13.767 4.13909 13.376 4.10275 12.9677C4.06928 12.6262 4.08681 12.2817 4.15474 11.9454C4.22382 11.5818 4.30587 11.2225 4.38456 10.8618C4.47185 10.497 4.52456 10.1248 4.54201 9.75007C4.55444 9.47273 4.52674 9.19504 4.45978 8.92562C4.39504 8.65145 4.2645 8.39716 4.07944 8.18475C3.89439 7.97234 3.66039 7.8082 3.39767 7.7065C3.09944 7.58592 2.77875 7.53098 2.45739 7.54545C2.30163 7.54008 2.14605 7.56036 1.99687 7.60548C1.28497 9.49271 1.18414 11.5559 1.70861 13.5036C2.23309 15.4512 3.35635 17.1848 4.91967 18.4594C5.63499 19.0446 6.83083 19.7519 7.28332 19.8593M7.49682 2.05739C7.51004 2.09769 7.51965 2.12881 7.53053 2.15949C7.65016 2.50953 7.72513 2.87328 7.75365 3.2421C7.78667 3.65402 7.79622 4.0675 7.78224 4.48051C7.77237 4.94805 7.75061 5.4156 7.78433 5.88314C7.80433 6.20332 7.85187 6.52119 7.9264 6.83322C8.01546 7.21538 8.17394 7.57794 8.39395 7.90286C8.64404 8.25925 8.99427 8.53342 9.40029 8.69063C9.8063 8.84785 10.2498 8.88104 10.6747 8.78601C10.9628 8.73271 11.2325 8.60699 11.4585 8.42068C11.6845 8.23437 11.8594 7.9936 11.9667 7.72105C12.0312 7.56559 12.0849 7.40581 12.1272 7.24288C12.2093 6.90466 12.2581 6.55919 12.2728 6.21145C12.2928 5.81482 12.2716 5.41717 12.2096 5.02491C12.1485 4.66032 12.0605 4.30073 11.9465 3.94907C11.8397 3.59533 11.7281 3.24286 11.6535 2.88051C11.5469 2.42913 11.5417 1.95975 11.6381 1.50609C11.6427 1.47611 11.6446 1.44577 11.6438 1.41544C10.8877 1.3543 10.1269 1.38781 9.37914 1.5152C8.73308 1.624 8.10149 1.80594 7.49656 2.05752M11.9711 20.5566C12.634 20.5054 13.2885 20.3759 13.921 20.1708C15.0516 19.8088 16.1059 19.2415 17.0308 18.4973C17.3787 18.2352 17.6946 17.9331 17.9721 17.5974C17.9518 17.5814 17.9305 17.5666 17.9085 17.5531C17.4406 17.287 16.9426 17.0777 16.4251 16.9297C15.8643 16.7694 15.2755 16.7317 14.6989 16.8193C14.2127 16.8949 13.7555 17.0986 13.3742 17.4094C12.9752 17.7401 12.6557 18.1563 12.4391 18.6271C12.1785 19.202 12.0188 19.8176 11.9672 20.4468C11.9658 20.4832 11.9669 20.5195 11.9706 20.5557M20.7404 11.0117C20.7399 13.5974 19.7124 16.0771 17.8837 17.9052C16.0551 19.7333 13.5751 20.7602 10.9894 20.76C8.40369 20.7597 5.92395 19.7324 4.09565 17.9039C2.26735 16.0754 1.24023 13.5956 1.24023 11.0099C1.24023 8.42413 2.26735 5.9443 4.09565 4.11583C5.92395 2.28736 8.40369 1.26001 10.9894 1.25977C13.5751 1.25952 16.0551 2.2864 17.8837 4.11453C19.7124 5.94266 20.7399 8.4223 20.7404 11.008V11.0117Z" stroke="black" stroke-width="0.8"/>
</svg>
