<svg width="248" height="248" viewBox="0 0 248 248" fill="none" xmlns="http://www.w3.org/2000/svg">
<path d="M224.132 90.2978C224.069 90.1112 223.948 89.9492 223.788 89.8345C223.627 89.7199 223.435 89.6582 223.237 89.6582C223.04 89.6582 222.848 89.7199 222.687 89.8345C222.527 89.9492 222.406 90.1112 222.342 90.2978C221.85 91.1503 222.252 91.8478 223.237 91.8478C224.222 91.8478 224.625 91.1499 224.132 90.2978Z" fill="#DADCE0"/>
<path d="M17.5077 167.4C17.5716 167.586 17.6922 167.748 17.8527 167.863C18.0131 167.978 18.2054 168.039 18.4027 168.039C18.5999 168.039 18.7922 167.978 18.9527 167.863C19.1132 167.748 19.2338 167.586 19.2977 167.4C19.7899 166.547 19.3877 165.85 18.4028 165.85C17.4179 165.85 17.0156 166.547 17.5077 167.4Z" fill="#DADCE0"/>
<path d="M180.378 15.5002C180.442 15.6868 180.563 15.8489 180.723 15.9636C180.884 16.0783 181.076 16.14 181.273 16.14C181.471 16.14 181.663 16.0783 181.823 15.9636C181.984 15.8489 182.104 15.6868 182.168 15.5002C182.66 14.6477 182.258 13.9502 181.273 13.9502C180.289 13.9502 179.886 14.6477 180.378 15.5002Z" fill="#DADCE0"/>
<path d="M238.546 130.2C237.562 128.495 235.951 128.495 234.966 130.2C233.982 131.905 234.787 133.3 236.756 133.3C238.725 133.3 239.531 131.905 238.546 130.2Z" fill="#DADCE0"/>
<path d="M216.345 201.87C214.376 205.28 211.155 205.28 209.186 201.87C207.217 198.46 208.828 195.67 212.766 195.67C216.704 195.67 218.314 198.46 216.345 201.87Z" fill="#EA4335"/>
<path d="M212.766 130.57C204.89 144.21 192.004 144.21 184.129 130.57C176.254 116.93 182.697 105.77 198.447 105.77C214.197 105.77 220.641 116.93 212.766 130.57Z" fill="#34A853"/>
<path d="M57.0543 25.1697C60.9919 18.3497 67.4351 18.3497 71.3726 25.1697C75.3101 31.9897 72.0885 37.5697 64.2135 37.5697C56.3385 37.5697 53.1168 31.9897 57.0543 25.1697Z" fill="#4285F4"/>
<path d="M58.8441 204.97C54.9066 198.15 48.4634 198.15 44.5258 204.97C40.5882 211.79 43.8099 217.37 51.685 217.37C59.5601 217.37 62.7816 211.79 58.8441 204.97Z" fill="#FBBC04"/>
<path d="M19.8 62.3702C19.6696 62.3709 19.5441 62.3206 19.4501 62.2302C19.3584 62.1361 19.305 62.0114 19.3 61.8802C19.3009 61.7452 19.3547 61.6159 19.4501 61.5202C19.5467 61.4309 19.6734 61.3812 19.805 61.3812C19.9367 61.3812 20.0634 61.4309 20.16 61.5202C20.25 61.6165 20.3001 61.7434 20.3001 61.8752C20.3001 62.007 20.25 62.1339 20.16 62.2302C20.0623 62.3211 19.9335 62.3711 19.8 62.3702Z" fill="#202124"/>
<path d="M16.2 62.3702C16.0666 62.371 15.9378 62.3209 15.84 62.2302C15.75 62.1339 15.7 62.007 15.7 61.8752C15.7 61.7434 15.75 61.6165 15.84 61.5202C15.9366 61.4309 16.0634 61.3812 16.195 61.3812C16.3266 61.3812 16.4534 61.4309 16.55 61.5202C16.5974 61.5664 16.6351 61.6215 16.6609 61.6825C16.6866 61.7435 16.6999 61.809 16.6999 61.8752C16.6999 61.9414 16.6866 62.0069 16.6609 62.0679C16.6351 62.1288 16.5974 62.184 16.55 62.2302C16.4561 62.3207 16.3304 62.371 16.2 62.3702Z" fill="#202124"/>
<path d="M19.81 68.6203C19.7442 68.6224 19.6786 68.6112 19.6171 68.5876C19.5556 68.564 19.4994 68.5283 19.4519 68.4826C19.4044 68.437 19.3665 68.3823 19.3404 68.3218C19.3143 68.2613 19.3006 68.1962 19.3 68.1303C19.3038 68.0621 19.3172 67.9947 19.34 67.9303C19.3672 67.871 19.4044 67.8169 19.4501 67.7703C19.5478 67.6832 19.6741 67.6351 19.805 67.6351C19.936 67.6351 20.0623 67.6832 20.16 67.7703C20.2023 67.8195 20.2392 67.8732 20.2701 67.9303C20.2905 67.995 20.3006 68.0625 20.3 68.1303C20.3008 68.2608 20.2506 68.3864 20.16 68.4803C20.111 68.5228 20.0573 68.5597 20 68.5903C19.9386 68.61 19.8745 68.6201 19.81 68.6203Z" fill="#202124"/>
<path d="M16.2 68.6202C16.0665 68.621 15.9378 68.5709 15.84 68.4802C15.7496 68.3862 15.6994 68.2607 15.7 68.1302C15.7002 68.0625 15.7103 67.9951 15.73 67.9302C15.7606 67.873 15.7975 67.8194 15.84 67.7702C15.9122 67.7024 16.002 67.6561 16.0992 67.6366C16.1964 67.6172 16.2972 67.6254 16.39 67.6602C16.4471 67.6911 16.5007 67.728 16.55 67.7702C16.5956 67.8168 16.6328 67.871 16.66 67.9302C16.6828 67.9947 16.6962 68.062 16.7 68.1302C16.6931 68.261 16.64 68.3851 16.55 68.4802C16.5034 68.5259 16.4492 68.5631 16.39 68.5902C16.3286 68.61 16.2645 68.6201 16.2 68.6202Z" fill="#202124"/>
<path d="M21.6099 65.5003C21.5429 65.5003 21.4767 65.487 21.4149 65.4613C21.3531 65.4355 21.297 65.3978 21.2499 65.3503C21.2051 65.305 21.171 65.2504 21.1499 65.1903C21.1212 65.1312 21.1075 65.0659 21.1099 65.0003C21.1089 64.8698 21.1591 64.7441 21.2499 64.6503C21.3211 64.5806 21.4109 64.5332 21.5086 64.5136C21.6062 64.4941 21.7074 64.5034 21.7999 64.5403C21.8624 64.5613 21.9178 64.5994 21.9599 64.6503C22.008 64.6948 22.0463 64.749 22.0721 64.8093C22.0979 64.8696 22.1108 64.9347 22.1099 65.0003C22.112 65.0659 22.0983 65.1311 22.0699 65.1903C22.0453 65.251 22.0078 65.3056 21.9599 65.3503C21.9159 65.3989 21.8611 65.4366 21.7999 65.4603C21.7403 65.4877 21.6754 65.5013 21.6099 65.5003Z" fill="#202124"/>
<path d="M23.4099 62.3703C23.2794 62.3712 23.1538 62.3209 23.0599 62.2303C22.9681 62.1363 22.9146 62.0115 22.9099 61.8803C22.9099 61.7807 22.9394 61.6833 22.9946 61.6004C23.0498 61.5174 23.1283 61.4527 23.2202 61.4142C23.312 61.3757 23.4133 61.3653 23.5111 61.3842C23.6089 61.403 23.6989 61.4504 23.7699 61.5203C23.8608 61.618 23.9109 61.7468 23.9099 61.8803C23.907 62.01 23.8573 62.1343 23.7699 62.2303C23.6711 62.3195 23.543 62.3693 23.4099 62.3703Z" fill="#202124"/>
<path d="M12.5899 68.6202C12.5254 68.6208 12.4612 68.6107 12.3999 68.5902C12.3375 68.5632 12.2801 68.5261 12.2299 68.4802C12.1393 68.3863 12.0891 68.2607 12.0899 68.1302C12.0886 68.0614 12.1023 67.9932 12.1299 67.9302C12.1534 67.8713 12.1873 67.8171 12.2299 67.7702C12.2827 67.7278 12.3397 67.691 12.3999 67.6602C12.4911 67.6254 12.5903 67.6172 12.6859 67.6367C12.7816 67.6562 12.8697 67.7025 12.9399 67.7702C12.9855 67.8168 13.0228 67.8709 13.0499 67.9302C13.0727 67.9946 13.0862 68.062 13.0899 68.1302C13.0869 68.2618 13.0332 68.3872 12.9399 68.4802C12.8459 68.5706 12.7204 68.6208 12.5899 68.6202Z" fill="#202124"/>
<path d="M14.3901 65.5002C14.3245 65.5011 14.2595 65.4882 14.1992 65.4624C14.1389 65.4365 14.0847 65.3983 14.0401 65.3502C13.9923 65.3055 13.9547 65.2509 13.9301 65.1902C13.9017 65.131 13.888 65.0658 13.8901 65.0002C13.8892 64.9346 13.9021 64.8695 13.9279 64.8093C13.9538 64.749 13.992 64.6948 14.0401 64.6502C14.109 64.5803 14.1972 64.5325 14.2933 64.5129C14.3895 64.4933 14.4894 64.5028 14.5801 64.5402C14.6444 64.5635 14.7025 64.6012 14.7501 64.6502C14.8407 64.7441 14.891 64.8697 14.8901 65.0002C14.8925 65.0658 14.8788 65.1311 14.8501 65.1902C14.8291 65.2503 14.7949 65.3049 14.7501 65.3502C14.7024 65.3992 14.6443 65.4368 14.5801 65.4602C14.5209 65.4886 14.4557 65.5024 14.3901 65.5002Z" fill="#202124"/>
<path d="M217.48 47.25C217.48 47.1175 217.533 46.9906 217.627 46.8969C217.721 46.8032 217.848 46.7504 217.98 46.75C218.046 46.7493 218.111 46.7618 218.172 46.7866C218.233 46.8115 218.289 46.8483 218.335 46.8949C218.382 46.9415 218.419 46.9969 218.443 47.0578C218.468 47.1188 218.481 47.1841 218.48 47.25C218.481 47.3159 218.468 47.3812 218.443 47.4422C218.419 47.5031 218.382 47.5585 218.335 47.6051C218.289 47.6517 218.233 47.6885 218.172 47.7134C218.111 47.7382 218.046 47.7507 217.98 47.75C217.848 47.7494 217.721 47.6966 217.627 47.6029C217.533 47.5093 217.481 47.3824 217.48 47.25ZM222.04 45.79C221.948 45.6944 221.897 45.566 221.899 45.4329C221.9 45.2999 221.955 45.173 222.05 45.08C222.096 45.0343 222.151 44.9983 222.212 44.974C222.272 44.9497 222.337 44.9377 222.402 44.9386C222.467 44.9396 222.532 44.9534 222.591 44.9794C222.651 45.0054 222.705 45.043 222.75 45.09C222.797 45.1351 222.835 45.1894 222.861 45.2496C222.887 45.3098 222.9 45.3745 222.9 45.44C222.9 45.5055 222.887 45.5702 222.861 45.6304C222.835 45.6906 222.797 45.7449 222.75 45.79C222.705 45.8372 222.65 45.8748 222.59 45.9005C222.53 45.9262 222.465 45.9394 222.399 45.9395C222.333 45.9395 222.266 45.9263 222.205 45.9006C222.143 45.875 222.087 45.8374 222.04 45.79ZM213.22 45.77V45.76C213.173 45.7149 213.135 45.6606 213.109 45.6004C213.083 45.5402 213.07 45.4755 213.07 45.41C213.07 45.3445 213.083 45.2798 213.109 45.2196C213.135 45.1594 213.173 45.1051 213.22 45.06C213.266 45.0125 213.321 44.9747 213.382 44.9489C213.443 44.9231 213.509 44.9098 213.575 44.9098C213.641 44.9098 213.707 44.9231 213.768 44.9489C213.829 44.9747 213.884 45.0125 213.93 45.06C214.022 45.1554 214.073 45.2827 214.073 45.415C214.073 45.5473 214.022 45.6746 213.93 45.77C213.831 45.8595 213.703 45.9096 213.57 45.9107C213.44 45.9095 213.315 45.8592 213.22 45.77ZM224.25 41.54C224.117 41.5374 223.989 41.4825 223.896 41.3871C223.802 41.2918 223.75 41.1635 223.75 41.03C223.75 40.9649 223.764 40.9005 223.789 40.8405C223.814 40.7805 223.851 40.7262 223.898 40.6806C223.944 40.6351 223.999 40.5992 224.06 40.575C224.12 40.5509 224.185 40.539 224.25 40.54C224.316 40.5393 224.381 40.5518 224.442 40.5766C224.503 40.6015 224.559 40.6383 224.605 40.6849C224.652 40.7315 224.689 40.7869 224.713 40.8478C224.738 40.9088 224.751 40.9741 224.75 41.04C224.748 41.1719 224.694 41.2979 224.601 41.3912C224.508 41.4845 224.382 41.5378 224.25 41.54ZM211.25 41V40.96V40.92C211.25 40.8539 211.263 40.7884 211.289 40.7276C211.315 40.6667 211.353 40.6117 211.4 40.5659C211.448 40.5201 211.504 40.4845 211.566 40.4611C211.628 40.4377 211.694 40.4272 211.76 40.43C211.891 40.4324 212.016 40.4862 212.107 40.5797C212.199 40.6733 212.25 40.7991 212.25 40.93V40.98V41C212.251 41.0658 212.238 41.1312 212.213 41.1921C212.188 41.2531 212.152 41.3085 212.105 41.355C212.058 41.4016 212.003 41.4384 211.942 41.4633C211.881 41.4882 211.816 41.5007 211.75 41.5C211.684 41.5007 211.619 41.4882 211.558 41.4633C211.497 41.4384 211.442 41.4016 211.395 41.355C211.348 41.3085 211.312 41.2531 211.287 41.1921C211.262 41.1312 211.249 41.0658 211.25 41ZM222.1 36.96C222.053 36.9149 222.015 36.8606 221.989 36.8004C221.963 36.7402 221.95 36.6755 221.95 36.61C221.95 36.5445 221.963 36.4798 221.989 36.4196C222.015 36.3594 222.053 36.3051 222.1 36.26C222.146 36.2126 222.201 36.1749 222.262 36.1492C222.323 36.1235 222.389 36.1102 222.455 36.1102C222.521 36.1102 222.587 36.1235 222.648 36.1492C222.709 36.1749 222.764 36.2126 222.81 36.26C222.903 36.3556 222.953 36.484 222.952 36.6171C222.95 36.7501 222.895 36.877 222.8 36.97C222.705 37.0593 222.58 37.1093 222.45 37.11C222.384 37.1109 222.319 37.098 222.259 37.0722C222.199 37.0463 222.145 37.0081 222.1 36.96ZM213.27 36.88C213.224 36.8335 213.189 36.7784 213.164 36.7179C213.14 36.6575 213.128 36.5928 213.129 36.5277C213.13 36.4627 213.144 36.3984 213.17 36.3387C213.196 36.279 213.234 36.2251 213.281 36.18C213.327 36.1337 213.381 36.0969 213.441 36.0719C213.501 36.0468 213.565 36.0338 213.63 36.0338C213.695 36.0338 213.76 36.0468 213.82 36.0719C213.88 36.0969 213.934 36.1337 213.98 36.18C214.074 36.2743 214.127 36.402 214.127 36.535C214.127 36.668 214.074 36.7957 213.98 36.89C213.934 36.9353 213.879 36.9711 213.819 36.9951C213.759 37.0191 213.695 37.031 213.63 37.03C213.563 37.0299 213.497 37.0166 213.435 36.9908C213.373 36.9651 213.317 36.9274 213.27 36.88ZM218.05 35.25C217.918 35.2497 217.791 35.1969 217.697 35.1032C217.603 35.0095 217.55 34.8825 217.55 34.75C217.553 34.6165 217.608 34.4893 217.703 34.3958C217.798 34.3023 217.926 34.25 218.06 34.25C218.125 34.2504 218.189 34.2636 218.249 34.289C218.309 34.3144 218.364 34.3514 218.409 34.3979C218.455 34.4444 218.491 34.4994 218.515 34.5599C218.539 34.6203 218.551 34.6849 218.55 34.75C218.551 34.8158 218.538 34.8812 218.513 34.9421C218.488 35.0031 218.452 35.0585 218.405 35.105C218.358 35.1516 218.303 35.1884 218.242 35.2133C218.181 35.2382 218.116 35.2507 218.05 35.25Z" fill="#202124"/>
<path d="M149.78 220.5C149.715 220.5 149.65 220.486 149.59 220.46C149.53 220.435 149.476 220.397 149.43 220.35C149.383 220.305 149.345 220.251 149.319 220.191C149.294 220.13 149.28 220.066 149.28 220C149.28 219.935 149.294 219.87 149.319 219.81C149.345 219.75 149.383 219.695 149.43 219.65C149.526 219.559 149.653 219.508 149.785 219.508C149.917 219.508 150.044 219.559 150.14 219.65C150.23 219.744 150.28 219.87 150.28 220C150.28 220.13 150.23 220.256 150.14 220.35C150.094 220.399 150.038 220.437 149.976 220.463C149.914 220.489 149.847 220.501 149.78 220.5Z" fill="#202124"/>
<path d="M151.94 216.27C151.825 216.202 151.741 216.092 151.707 215.963C151.674 215.833 151.692 215.696 151.76 215.581C151.792 215.524 151.835 215.473 151.887 215.433C151.939 215.393 151.998 215.364 152.062 215.347C152.125 215.33 152.191 215.326 152.256 215.335C152.321 215.344 152.384 215.366 152.44 215.4C152.497 215.433 152.547 215.476 152.587 215.528C152.626 215.58 152.656 215.639 152.672 215.703C152.689 215.766 152.693 215.832 152.684 215.897C152.675 215.962 152.653 216.024 152.62 216.081C152.577 216.157 152.514 216.22 152.439 216.264C152.363 216.308 152.277 216.331 152.19 216.331C152.103 216.331 152.017 216.31 151.94 216.27ZM154.34 212.1C154.227 212.033 154.145 211.924 154.111 211.797C154.077 211.67 154.095 211.534 154.16 211.42C154.226 211.306 154.334 211.222 154.461 211.187C154.588 211.151 154.724 211.167 154.84 211.23C154.954 211.299 155.038 211.409 155.073 211.537C155.109 211.666 155.093 211.803 155.03 211.92C154.984 211.995 154.919 212.057 154.842 212.099C154.765 212.141 154.678 212.162 154.59 212.16C154.503 212.159 154.418 212.139 154.34 212.1Z" fill="#202124"/>
<path d="M157 208C156.934 208.003 156.869 207.989 156.81 207.96C156.748 207.939 156.692 207.901 156.65 207.85C156.603 207.805 156.565 207.751 156.539 207.691C156.514 207.63 156.5 207.566 156.5 207.5C156.5 207.435 156.514 207.37 156.539 207.31C156.565 207.25 156.603 207.195 156.65 207.15C156.719 207.08 156.807 207.032 156.903 207.013C157 206.993 157.099 207.003 157.19 207.041C157.253 207.061 157.308 207.099 157.35 207.15C157.398 207.195 157.436 207.249 157.462 207.309C157.488 207.37 157.501 207.435 157.5 207.5C157.501 207.566 157.487 207.63 157.46 207.69C157.439 207.752 157.401 207.808 157.35 207.85C157.306 207.898 157.251 207.936 157.191 207.962C157.131 207.988 157.066 208.001 157 208Z" fill="#202124"/>
<path d="M161.38 216.08C161.347 216.024 161.325 215.961 161.316 215.896C161.307 215.831 161.311 215.765 161.327 215.702C161.344 215.639 161.373 215.579 161.413 215.527C161.453 215.475 161.503 215.432 161.56 215.399C161.616 215.366 161.679 215.344 161.744 215.335C161.809 215.325 161.875 215.329 161.938 215.346C162.002 215.363 162.061 215.392 162.113 215.433C162.165 215.473 162.208 215.523 162.24 215.58C162.307 215.695 162.326 215.833 162.293 215.962C162.259 216.091 162.175 216.202 162.06 216.269C161.983 216.309 161.897 216.33 161.81 216.33C161.723 216.33 161.637 216.307 161.561 216.263C161.486 216.219 161.423 216.156 161.38 216.08ZM158.97 211.92C158.905 211.803 158.888 211.665 158.923 211.536C158.959 211.407 159.044 211.297 159.16 211.23C159.276 211.167 159.412 211.152 159.538 211.188C159.665 211.223 159.773 211.306 159.84 211.42C159.873 211.477 159.894 211.54 159.902 211.605C159.91 211.67 159.905 211.737 159.887 211.8C159.87 211.863 159.839 211.922 159.799 211.974C159.758 212.025 159.708 212.068 159.65 212.1C159.579 212.147 159.495 212.171 159.41 212.17C159.321 212.17 159.234 212.147 159.157 212.103C159.08 212.06 159.015 211.996 158.97 211.92Z" fill="#202124"/>
<path d="M164.22 220.5C164.154 220.502 164.089 220.489 164.03 220.46C163.966 220.437 163.908 220.399 163.86 220.35C163.77 220.256 163.72 220.13 163.72 220C163.72 219.87 163.77 219.744 163.86 219.65C163.931 219.58 164.021 219.532 164.119 219.513C164.216 219.493 164.318 219.503 164.41 219.541C164.473 219.562 164.528 219.599 164.57 219.65C164.617 219.695 164.655 219.75 164.681 219.81C164.707 219.87 164.72 219.935 164.72 220C164.72 220.066 164.707 220.13 164.681 220.19C164.655 220.251 164.617 220.305 164.57 220.35C164.526 220.398 164.471 220.437 164.411 220.462C164.351 220.488 164.286 220.501 164.22 220.5Z" fill="#202124"/>
<path d="M164.22 220.5C164.154 220.502 164.089 220.489 164.03 220.46C163.966 220.437 163.908 220.399 163.86 220.35C163.77 220.256 163.72 220.13 163.72 220C163.72 219.87 163.77 219.744 163.86 219.65C163.931 219.58 164.021 219.532 164.119 219.513C164.216 219.493 164.318 219.503 164.41 219.541C164.473 219.562 164.528 219.599 164.57 219.65C164.617 219.695 164.655 219.75 164.681 219.81C164.707 219.87 164.72 219.935 164.72 220C164.72 220.066 164.707 220.13 164.681 220.19C164.655 220.251 164.617 220.305 164.57 220.35C164.526 220.398 164.471 220.437 164.411 220.462C164.351 220.488 164.286 220.501 164.22 220.5Z" fill="#202124"/>
<path d="M159.16 228.77C159.044 228.703 158.959 228.594 158.923 228.465C158.887 228.335 158.904 228.197 158.97 228.081C159.003 228.024 159.046 227.974 159.098 227.935C159.15 227.895 159.209 227.866 159.272 227.849C159.336 227.832 159.402 227.828 159.466 227.837C159.531 227.846 159.594 227.867 159.65 227.9C159.708 227.931 159.76 227.974 159.801 228.025C159.842 228.077 159.873 228.136 159.89 228.2C159.908 228.263 159.913 228.33 159.904 228.395C159.896 228.461 159.874 228.524 159.84 228.581C159.796 228.658 159.731 228.722 159.654 228.766C159.577 228.81 159.489 228.832 159.4 228.831C159.316 228.831 159.234 228.81 159.16 228.77ZM161.56 224.6C161.503 224.568 161.453 224.524 161.413 224.472C161.373 224.421 161.344 224.361 161.327 224.298C161.31 224.235 161.306 224.169 161.316 224.104C161.325 224.039 161.347 223.976 161.38 223.92C161.446 223.806 161.554 223.722 161.681 223.687C161.808 223.651 161.944 223.667 162.06 223.73C162.175 223.798 162.259 223.909 162.292 224.038C162.326 224.167 162.307 224.305 162.24 224.42C162.197 224.496 162.134 224.559 162.059 224.603C161.983 224.647 161.897 224.67 161.81 224.67C161.722 224.67 161.635 224.646 161.56 224.6Z" fill="#202124"/>
<path d="M157 233C156.934 233.003 156.869 232.989 156.81 232.96C156.748 232.939 156.692 232.901 156.65 232.85C156.602 232.806 156.564 232.751 156.538 232.691C156.512 232.631 156.499 232.566 156.5 232.5C156.498 232.435 156.511 232.369 156.54 232.31C156.561 232.248 156.599 232.192 156.65 232.15C156.744 232.059 156.869 232.008 157 232.008C157.131 232.008 157.256 232.059 157.35 232.15C157.401 232.192 157.439 232.248 157.46 232.31C157.486 232.37 157.5 232.435 157.5 232.5C157.5 232.566 157.486 232.63 157.46 232.69C157.439 232.753 157.401 232.808 157.35 232.85C157.308 232.901 157.252 232.939 157.19 232.96C157.131 232.989 157.066 233.002 157 233Z" fill="#202124"/>
<path d="M154.16 228.58C154.095 228.466 154.078 228.33 154.111 228.203C154.145 228.076 154.227 227.967 154.34 227.899C154.456 227.832 154.593 227.813 154.722 227.847C154.852 227.881 154.962 227.965 155.03 228.08C155.096 228.197 155.113 228.335 155.077 228.464C155.041 228.593 154.956 228.703 154.84 228.77C154.763 228.81 154.677 228.83 154.59 228.83C154.503 228.83 154.417 228.807 154.341 228.763C154.266 228.719 154.203 228.656 154.16 228.58ZM151.76 224.42C151.693 224.305 151.674 224.167 151.708 224.038C151.741 223.909 151.825 223.798 151.94 223.73C152.056 223.667 152.192 223.651 152.319 223.687C152.446 223.722 152.554 223.806 152.62 223.92C152.653 223.977 152.675 224.039 152.684 224.104C152.693 224.169 152.688 224.234 152.672 224.298C152.655 224.361 152.626 224.42 152.586 224.472C152.546 224.524 152.497 224.568 152.44 224.6C152.363 224.642 152.278 224.666 152.19 224.67C152.103 224.67 152.017 224.647 151.941 224.603C151.866 224.559 151.803 224.496 151.76 224.42Z" fill="#202124"/>
<path d="M149.78 220.5C149.715 220.5 149.65 220.486 149.59 220.46C149.53 220.435 149.476 220.397 149.43 220.35C149.383 220.305 149.345 220.251 149.319 220.191C149.294 220.13 149.28 220.066 149.28 220C149.28 219.935 149.294 219.87 149.319 219.81C149.345 219.75 149.383 219.695 149.43 219.65C149.526 219.559 149.653 219.508 149.785 219.508C149.917 219.508 150.044 219.559 150.14 219.65C150.23 219.744 150.28 219.87 150.28 220C150.28 220.13 150.23 220.256 150.14 220.35C150.094 220.399 150.038 220.437 149.976 220.463C149.914 220.489 149.847 220.501 149.78 220.5Z" fill="#202124"/>
<path d="M158.9 220C158.901 219.934 158.914 219.868 158.94 219.807C158.966 219.746 159.004 219.691 159.051 219.644C159.098 219.598 159.155 219.561 159.216 219.536C159.278 219.512 159.344 219.499 159.41 219.5C159.543 219.501 159.67 219.553 159.763 219.647C159.857 219.741 159.91 219.868 159.91 220C159.91 220.133 159.857 220.26 159.763 220.353C159.67 220.447 159.543 220.5 159.41 220.5C159.344 220.501 159.278 220.489 159.216 220.464C159.155 220.439 159.098 220.403 159.051 220.356C159.004 220.31 158.966 220.254 158.94 220.193C158.914 220.132 158.901 220.067 158.9 220ZM154.09 220C154.09 219.868 154.143 219.741 154.237 219.647C154.331 219.553 154.458 219.501 154.59 219.5C154.656 219.5 154.721 219.512 154.782 219.537C154.843 219.562 154.899 219.599 154.945 219.645C154.992 219.692 155.028 219.747 155.053 219.808C155.078 219.869 155.091 219.934 155.09 220C155.091 220.066 155.078 220.131 155.053 220.192C155.028 220.253 154.992 220.309 154.945 220.355C154.899 220.402 154.843 220.439 154.782 220.463C154.721 220.488 154.656 220.501 154.59 220.5C154.458 220.5 154.331 220.447 154.237 220.353C154.143 220.26 154.09 220.133 154.09 220Z" fill="#202124"/>
<path d="M124 55.5C86.2 55.5 55.5 86.2 55.5 124C55.5 161.8 86.2 192.5 124 192.5C161.8 192.5 192.5 161.8 192.5 124C192.5 86.2 161.8 55.5 124 55.5ZM188.5 107.8C182.7 96.8 171.1 89.2 157.7 89.2C140 89.2 125.6 75.1 125 57.5C155.7 58 181.3 79.3 188.5 107.8ZM104 60.6C115.5 66 123 77.6 123 90.3C123 109.4 138.6 125 157.7 125C170.4 125 182 132.4 187.4 144C185.2 150.9 181.9 157.4 177.7 163.2C171.8 159.1 164.9 156.8 157.7 156.8C139.7 156.8 125 142.1 125 124C125 104.8 109.4 89.2 90.2 89.2C83.4 89.2 76.9 87.1 71.4 83.2C79.7 72.7 91 64.7 104 60.6ZM59.7 106.9C65.8 118 77.5 125 90.2 125C108.3 125 123 139.7 123 157.8C123 170.6 130 182.3 141.1 188.3C135.9 189.7 130.5 190.4 125 190.5C124.5 171.8 109.1 156.8 90.3 156.8C72.2 156.8 57.5 142.1 57.5 124C57.5 118.1 58.3 112.3 59.7 106.9ZM59.5 140.2C65.3 151.2 76.9 158.8 90.3 158.8C108 158.8 122.5 172.9 123 190.5C92.3 190 66.6 168.7 59.5 140.2ZM144 187.4C132.5 182 125 170.4 125 157.7C125 138.6 109.4 123 90.2 123C77.5 123 65.9 115.6 60.5 104C62.7 97.1 66 90.6 70.2 84.8C76.1 88.9 83 91.2 90.2 91.2C108.3 91.2 123 105.9 123 124C123 143.2 138.6 158.8 157.8 158.8C164.6 158.8 171.1 160.9 176.6 164.8C168.3 175.3 157 183.3 144 187.4ZM188.3 141.1C182.2 130 170.5 123 157.7 123C139.7 123 125 108.3 125 90.2C125 77.4 118 65.8 106.9 59.7C112.1 58.3 117.5 57.6 123.1 57.5C123.6 76.2 139 91.2 157.8 91.2C175.9 91.2 190.5 105.9 190.5 124C190.5 129.9 189.7 135.7 188.3 141.1Z" fill="#202124"/>
</svg>
