<svg width="255" height="44" viewBox="0 0 255 44" fill="none" xmlns="http://www.w3.org/2000/svg">
<g clip-path="url(#clip0_69_1618)">
<path d="M14.4095 33.1375C14.2424 31.8419 13.626 30.6452 12.666 29.7574C12.0001 29.117 11.1471 28.7079 10.2312 28.5875C9.90228 28.5447 9.57203 28.514 9.24311 28.4819C8.30317 28.407 7.44612 27.9163 6.90595 27.1435C6.40054 26.4429 6.09435 25.6179 6.01814 24.7582C5.94594 24.0389 5.98204 23.3129 6.12511 22.6042C6.27085 21.8408 6.44333 21.0813 6.60912 20.3219C6.7923 19.5531 6.90193 18.7695 6.93804 17.9807C6.96478 17.3964 6.90595 16.8121 6.76556 16.2439C6.48879 15.0726 5.65446 14.1126 4.53268 13.6767C3.90426 13.4213 3.22905 13.305 2.5525 13.3358C2.22492 13.3237 1.89735 13.3665 1.5818 13.4614C-1.49476 21.6148 0.98414 30.8217 7.73759 36.3264C9.24445 37.5591 11.7635 39.0486 12.7154 39.2746C12.7529 39.2264 12.7983 39.1756 12.8344 39.1195C13.3412 38.3413 13.7463 37.503 14.0391 36.6219C14.4309 35.5041 14.5579 34.3114 14.4081 33.1375" fill="#164347"/>
<path d="M14.4095 33.1375C14.2424 31.8419 13.626 30.6452 12.666 29.7574C12.0001 29.117 11.1471 28.7079 10.2312 28.5875C9.90228 28.5447 9.57203 28.514 9.24311 28.4819C8.30317 28.407 7.44612 27.9163 6.90595 27.1435C6.40054 26.4429 6.09435 25.6179 6.01814 24.7582C5.94594 24.0389 5.98204 23.3129 6.12511 22.6042C6.27085 21.8408 6.44333 21.0813 6.60912 20.3219C6.7923 19.5531 6.90193 18.7695 6.93804 17.9807C6.96478 17.3964 6.90595 16.8121 6.76556 16.2439C6.48879 15.0726 5.65446 14.1126 4.53268 13.6767C3.90426 13.4213 3.22905 13.305 2.5525 13.3358C2.22492 13.3237 1.89735 13.3665 1.5818 13.4614C-1.49476 21.6148 0.98414 30.8217 7.73759 36.3264C9.24445 37.5591 11.7635 39.0486 12.7154 39.2746C12.7529 39.2264 12.7983 39.1756 12.8344 39.1195C13.3412 38.3413 13.7463 37.503 14.0391 36.6219C14.4309 35.5041 14.5579 34.3114 14.4081 33.1375" stroke="white" stroke-width="0.549529" stroke-miterlimit="10"/>
<path d="M13.7089 4.27459C13.7784 5.14233 13.7984 6.01409 13.7677 6.88451C13.7463 7.86859 13.7008 8.85266 13.7717 9.83806C13.8145 10.5119 13.9134 11.1818 14.0712 11.8396C14.2597 12.6432 14.5927 13.4067 15.0566 14.0899C16.1343 15.6248 18.0302 16.3602 19.8606 15.9511C21.0934 15.7224 22.1229 14.8747 22.5815 13.7075C22.7179 13.3799 22.8302 13.043 22.9198 12.7007C23.0936 11.988 23.1966 11.2607 23.2273 10.528C23.2701 9.69232 23.2247 8.85533 23.095 8.02903C22.9666 7.26156 22.7808 6.50345 22.5414 5.76273C22.3168 5.01799 22.0815 4.27592 21.9237 3.51247C21.6991 2.56182 21.6871 1.5724 21.8903 0.616411C21.8996 0.55357 21.9037 0.489391 21.9023 0.425213C20.3099 0.296856 18.7068 0.367719 17.1317 0.63513C15.7706 0.863766 14.4402 1.2475 13.166 1.77697C13.1941 1.86254 13.2141 1.92806 13.2369 1.99224C13.4896 2.72895 13.6474 3.49642 13.7089 4.27325" fill="#164347"/>
<path d="M13.7089 4.27459C13.7784 5.14233 13.7984 6.01409 13.7677 6.88451C13.7463 7.86858 13.7008 8.85266 13.7717 9.83806C13.8145 10.5119 13.9134 11.1818 14.0712 11.8396C14.2597 12.6432 14.5927 13.4067 15.0566 14.0899C16.1343 15.6248 18.0302 16.3602 19.8606 15.9511C21.0934 15.7224 22.1229 14.8747 22.5815 13.7075C22.7179 13.3799 22.8302 13.043 22.9198 12.7007C23.0936 11.988 23.1966 11.2607 23.2273 10.528C23.2701 9.69232 23.2247 8.85533 23.095 8.02903C22.9666 7.26156 22.7808 6.50345 22.5414 5.76273C22.3168 5.01799 22.0815 4.27592 21.9237 3.51247C21.6991 2.56182 21.6871 1.5724 21.8903 0.616411C21.8996 0.55357 21.9037 0.489391 21.9023 0.425213C20.3099 0.296856 18.7068 0.367719 17.1317 0.63513C15.7706 0.863766 14.4402 1.2475 13.166 1.77697C13.1941 1.86254 13.2141 1.92806 13.2369 1.99224C13.4896 2.72895 13.6474 3.49642 13.7089 4.27325" stroke="white" stroke-width="0.549529" stroke-miterlimit="10"/>
<path d="M31.9754 33.1081C30.7934 32.7698 29.554 32.6909 28.3386 32.8754C27.3158 33.0345 26.3531 33.4637 25.5508 34.1189C24.7098 34.8155 24.0373 35.6926 23.5814 36.6834C23.0318 37.8947 22.6962 39.1903 22.5879 40.5153C22.5853 40.5916 22.5879 40.6678 22.5946 40.744C23.9905 40.6357 25.369 40.3629 26.7021 39.9311C29.0833 39.1689 31.3042 37.975 33.2523 36.4066C33.985 35.8544 34.6495 35.2179 35.2338 34.5106C35.191 34.4772 35.1455 34.4465 35.0987 34.4171C34.1133 33.8582 33.0637 33.4183 31.974 33.1067" fill="#278791"/>
<path d="M6.28137 6.32959C6.39101 6.35633 6.50332 6.38441 6.61563 6.4058C7.31357 6.55421 7.96338 6.87243 8.50756 7.33371C8.97018 7.72948 9.36327 8.19879 9.67213 8.72291C10.1147 9.48637 10.457 10.3046 10.6896 11.155C11.0092 12.337 11.2619 13.5363 11.4477 14.7477C11.6216 15.7398 11.7954 16.7319 11.9999 17.7173C12.2072 18.7628 12.5508 19.7763 13.0228 20.7337C13.6285 21.9905 14.5724 23.0521 15.749 23.8022C17.5714 24.9521 19.7562 25.3826 21.8781 25.0095C23.1282 24.8077 24.3129 24.3143 25.337 23.5709C27.9135 21.691 29.4993 18.7455 29.653 15.5606C29.6798 14.5297 29.649 13.4989 29.5608 12.472C29.4632 11.3529 29.4739 10.2271 29.5915 9.11066C29.7226 7.99021 30.133 6.9219 30.7829 6.00067C31.1893 5.43109 31.6733 4.92033 32.2202 4.48579C32.3084 4.41626 32.3927 4.34273 32.4983 4.25314C30.6211 2.87732 28.5192 1.83709 26.2864 1.17926C24.8196 0.746055 22.7525 0.385051 22.203 0.465274C22.191 0.501375 22.1736 0.541486 22.1615 0.584272C22.0318 1.08433 21.9797 1.60043 22.0038 2.11653C22.0332 2.81581 22.1468 3.50707 22.3447 4.17827C22.5413 4.88423 22.7525 5.58485 22.9598 6.28814C23.2352 7.19867 23.4063 8.13862 23.4692 9.08793C23.5334 10.0493 23.4879 11.0133 23.3341 11.9653C23.2298 12.6686 23.0253 13.3531 22.7298 13.9989C22.2805 14.9683 21.4529 15.7103 20.4394 16.0486C19.9206 16.2358 19.3725 16.3254 18.8216 16.3134C17.2813 16.3174 15.8319 15.582 14.9241 14.3372C14.5898 13.8853 14.3211 13.3879 14.1272 12.8611C13.7582 11.8596 13.5523 10.806 13.5135 9.74041C13.4841 9.15745 13.4921 8.57316 13.4934 7.98887C13.4934 7.18797 13.5081 6.38574 13.5135 5.58351C13.5175 4.919 13.4694 4.25582 13.3691 3.59799C13.2942 3.07654 13.1685 2.56311 12.9934 2.06706C12.9599 1.99219 12.9212 1.92132 12.877 1.8518C10.4784 2.82918 8.2923 4.26117 6.43647 6.06752C6.3656 6.13571 6.27201 6.19321 6.25195 6.29883C6.26666 6.31354 6.27201 6.32558 6.28003 6.32825" fill="#356A72"/>
<path d="M6.28137 6.32959C6.39101 6.35633 6.50332 6.38441 6.61563 6.4058C7.31357 6.55421 7.96338 6.87243 8.50756 7.33371C8.97018 7.72948 9.36327 8.19879 9.67213 8.72291C10.1147 9.48637 10.457 10.3046 10.6896 11.155C11.0092 12.337 11.2619 13.5363 11.4477 14.7477C11.6216 15.7398 11.7954 16.7319 11.9999 17.7173C12.2072 18.7628 12.5508 19.7763 13.0228 20.7337C13.6285 21.9905 14.5724 23.0521 15.749 23.8022C17.5714 24.9521 19.7562 25.3826 21.8781 25.0095C23.1282 24.8077 24.3129 24.3143 25.337 23.5709C27.9135 21.691 29.4993 18.7455 29.653 15.5606C29.6798 14.5297 29.649 13.4989 29.5608 12.472C29.4632 11.3529 29.4739 10.2271 29.5915 9.11066C29.7226 7.99021 30.133 6.9219 30.7829 6.00067C31.1893 5.43109 31.6733 4.92033 32.2202 4.48579C32.3084 4.41626 32.3927 4.34273 32.4983 4.25314C30.6211 2.87732 28.5192 1.83709 26.2864 1.17926C24.8196 0.746055 22.7525 0.385051 22.203 0.465274C22.191 0.501375 22.1736 0.541486 22.1615 0.584272C22.0318 1.08433 21.9797 1.60043 22.0038 2.11653C22.0332 2.81581 22.1468 3.50707 22.3447 4.17827C22.5413 4.88423 22.7525 5.58485 22.9598 6.28814C23.2352 7.19867 23.4063 8.13862 23.4692 9.08793C23.5334 10.0493 23.4879 11.0133 23.3341 11.9653C23.2298 12.6686 23.0253 13.3531 22.7298 13.9989C22.2805 14.9683 21.4529 15.7103 20.4394 16.0486C19.9206 16.2358 19.3725 16.3254 18.8216 16.3134C17.2813 16.3174 15.8319 15.582 14.9241 14.3372C14.5898 13.8853 14.3211 13.3879 14.1272 12.8611C13.7582 11.8596 13.5523 10.806 13.5135 9.74041C13.4841 9.15745 13.4921 8.57316 13.4934 7.98887C13.4934 7.18797 13.5081 6.38574 13.5135 5.58351C13.5175 4.919 13.4694 4.25582 13.3691 3.59799C13.2942 3.07654 13.1685 2.56311 12.9934 2.06706C12.9599 1.99219 12.9212 1.92132 12.877 1.8518C10.4784 2.82918 8.2923 4.26117 6.43647 6.06752C6.3656 6.13571 6.27201 6.19321 6.25195 6.29883C6.26666 6.31354 6.27201 6.32558 6.28003 6.32825" stroke="white" stroke-width="0.549529" stroke-miterlimit="10"/>
<path d="M35.6217 14.9937C35.0842 16.4939 34.7607 18.0623 34.6617 19.652C34.6243 20.3032 34.5842 20.9543 34.536 21.6055C34.4946 22.1991 34.4037 22.7888 34.2619 23.3677C33.9544 24.69 33.1214 25.8306 31.9555 26.5272C31.4862 26.8133 30.9875 27.0499 30.4687 27.2318C29.5889 27.5259 28.6838 27.7359 27.7639 27.8589C26.8934 27.9939 26.019 28.1102 25.1526 28.2707C19.7282 29.2614 15.8748 34.1123 16.1355 39.6209C16.1369 39.887 16.1676 40.1517 16.2264 40.4098C16.7626 40.5355 17.3054 40.6317 17.8523 40.7013C18.6799 40.8162 19.5156 40.8737 20.3512 40.8737C20.8887 40.8737 21.4276 40.851 21.9651 40.8336C22.0801 40.8443 22.195 40.8189 22.294 40.7601C22.302 40.7053 22.3087 40.6625 22.314 40.6184C22.3956 39.7519 22.5547 38.8949 22.7887 38.0566C23.1056 36.9054 23.6564 35.8304 24.4065 34.8998C25.5992 33.4076 27.4015 32.5345 29.3122 32.5238C30.3671 32.4984 31.4194 32.6509 32.4235 32.9758C33.3608 33.2793 34.266 33.6724 35.1284 34.1484C35.2353 34.2219 35.3543 34.2767 35.48 34.3075C36.8598 32.8046 38.0057 31.1012 38.8774 29.2561C39.9845 26.9216 40.629 24.3946 40.7734 21.8154C40.9285 19.2135 40.5809 16.6049 39.7479 14.134C39.3227 12.8304 38.7397 11.5829 38.011 10.421C37.9201 10.5454 37.8466 10.6456 37.7744 10.7499C36.8719 12.0629 36.1472 13.4896 35.619 14.9937" fill="#164347"/>
<path d="M35.6217 14.9937C35.0842 16.4939 34.7607 18.0623 34.6617 19.652C34.6243 20.3032 34.5842 20.9543 34.536 21.6055C34.4946 22.1991 34.4037 22.7888 34.2619 23.3677C33.9544 24.69 33.1214 25.8306 31.9555 26.5272C31.4862 26.8133 30.9875 27.0499 30.4687 27.2318C29.5889 27.5259 28.6838 27.7359 27.7639 27.8589C26.8934 27.9939 26.019 28.1102 25.1526 28.2707C19.7282 29.2614 15.8748 34.1123 16.1355 39.6209C16.1369 39.887 16.1676 40.1517 16.2264 40.4098C16.7626 40.5355 17.3054 40.6317 17.8523 40.7013C18.6799 40.8162 19.5156 40.8737 20.3512 40.8737C20.8887 40.8737 21.4276 40.851 21.9651 40.8336C22.0801 40.8443 22.195 40.8189 22.294 40.7601C22.302 40.7053 22.3087 40.6625 22.314 40.6184C22.3956 39.7519 22.5547 38.8949 22.7887 38.0566C23.1056 36.9054 23.6564 35.8304 24.4065 34.8998C25.5992 33.4076 27.4015 32.5345 29.3122 32.5238C30.3671 32.4984 31.4194 32.6509 32.4235 32.9758C33.3608 33.2793 34.266 33.6724 35.1284 34.1484C35.2353 34.2219 35.3543 34.2767 35.48 34.3075C36.8598 32.8046 38.0057 31.1012 38.8774 29.2561C39.9845 26.9216 40.629 24.3946 40.7734 21.8154C40.9285 19.2135 40.5809 16.6049 39.7479 14.134C39.3227 12.8304 38.7397 11.5829 38.011 10.421C37.9201 10.5454 37.8466 10.6456 37.7744 10.7499C36.8719 12.0629 36.1472 13.4896 35.619 14.9937" stroke="white" stroke-width="0.549529" stroke-miterlimit="10"/>
<path d="M32.7243 4.42163C32.5398 4.56603 32.3646 4.69305 32.2002 4.83344C31.1493 5.69985 30.3925 6.86977 30.0328 8.18276C29.8577 8.88338 29.7614 9.60137 29.748 10.3234C29.7186 11.0922 29.7828 11.857 29.8189 12.6231C29.8496 13.2636 29.9005 13.904 29.9192 14.5445C29.9713 15.8521 29.7895 17.1584 29.3817 18.4019C28.6958 20.5585 27.3347 22.4384 25.5002 23.7648C24.2033 24.7047 22.6683 25.2623 21.0692 25.3719C19.9006 25.4668 18.7254 25.3278 17.6103 24.9641C15.6809 24.3771 14.0484 23.0749 13.0496 21.322C12.7006 20.7043 12.4131 20.0518 12.1925 19.3766C11.8329 18.2294 11.5601 17.0568 11.3756 15.8695C11.1938 14.8319 11.0199 13.7944 10.8194 12.7608C10.6509 11.8597 10.3995 10.9772 10.0693 10.1228C9.85403 9.55458 9.57191 9.01441 9.22962 8.51301C8.80711 7.88192 8.23352 7.36582 7.55964 7.01284C7.06493 6.75746 6.52343 6.60637 5.96721 6.5676C4.69969 7.85518 3.61668 9.31391 2.75027 10.8997C2.33311 11.6029 1.99884 12.3517 1.75684 13.1325C1.8384 13.1285 1.91595 13.1299 1.99216 13.1205C2.85857 13.0042 3.74102 13.1071 4.55662 13.4227C5.74125 13.8559 6.64243 14.8373 6.97268 16.0553C7.10638 16.5179 7.17992 16.9953 7.19196 17.4766C7.20399 18.4273 7.09702 19.3766 6.87106 20.3005C6.67452 21.1829 6.44722 22.0574 6.32153 22.9559C6.21189 23.6123 6.20254 24.2809 6.29212 24.94C6.39775 25.7022 6.68922 26.4255 7.14248 27.0486C7.60912 27.7011 8.33246 28.1236 9.12934 28.2105C9.48099 28.2533 9.83397 28.292 10.187 28.3295C10.933 28.4043 11.6457 28.6731 12.2554 29.109C13.6071 30.0569 14.4869 31.5411 14.6714 33.1816C14.7864 34.1162 14.7236 35.0642 14.4856 35.9747C14.2088 37.0751 13.7609 38.1261 13.1579 39.0887C13.0991 39.1837 13.0429 39.2813 12.9867 39.3762C13.916 39.8081 14.8961 40.1236 15.9042 40.3148C15.9256 40.1236 15.9216 39.9297 15.8935 39.7385C15.8186 38.582 15.9296 37.4214 16.2197 36.2996C17.2305 32.3206 20.3365 29.2133 24.3156 28.1998C25.1847 27.9965 26.0645 27.8374 26.9509 27.7251C27.7558 27.6075 28.5594 27.4938 29.3509 27.3026C30.212 27.1047 31.0356 26.7745 31.7951 26.3225C32.8874 25.6861 33.679 24.6379 33.9905 23.4131C34.1242 22.9157 34.2124 22.4063 34.2566 21.8929C34.3154 21.1963 34.3582 20.4997 34.3956 19.8017C34.4451 18.8645 34.5735 17.9312 34.7794 17.0153C35.3088 14.6394 36.3049 12.3918 37.7102 10.4036C37.769 10.3207 37.8198 10.2351 37.888 10.1335C36.5483 7.91802 34.7954 5.9793 32.7243 4.42431" fill="#416E46"/>
<path d="M32.7243 4.42163C32.5398 4.56603 32.3646 4.69305 32.2002 4.83344C31.1493 5.69985 30.3925 6.86977 30.0328 8.18276C29.8577 8.88338 29.7614 9.60137 29.748 10.3234C29.7186 11.0922 29.7828 11.857 29.8189 12.6231C29.8496 13.2636 29.9005 13.904 29.9192 14.5445C29.9713 15.8521 29.7895 17.1584 29.3817 18.4019C28.6958 20.5585 27.3347 22.4384 25.5002 23.7648C24.2033 24.7047 22.6683 25.2623 21.0692 25.3719C19.9006 25.4668 18.7254 25.3278 17.6103 24.9641C15.6809 24.3771 14.0484 23.0749 13.0496 21.322C12.7006 20.7043 12.4131 20.0518 12.1925 19.3766C11.8329 18.2294 11.5601 17.0568 11.3756 15.8695C11.1938 14.8319 11.0199 13.7944 10.8194 12.7608C10.6509 11.8597 10.3995 10.9772 10.0693 10.1228C9.85403 9.55458 9.57191 9.01441 9.22962 8.51301C8.80711 7.88192 8.23352 7.36582 7.55964 7.01284C7.06493 6.75746 6.52343 6.60637 5.96721 6.5676C4.69969 7.85518 3.61668 9.31391 2.75027 10.8997C2.33311 11.6029 1.99884 12.3517 1.75684 13.1325C1.8384 13.1285 1.91595 13.1299 1.99216 13.1205C2.85857 13.0042 3.74102 13.1071 4.55662 13.4227C5.74125 13.8559 6.64243 14.8373 6.97268 16.0553C7.10638 16.5179 7.17992 16.9953 7.19195 17.4766C7.20399 18.4273 7.09702 19.3766 6.87106 20.3005C6.67452 21.1829 6.44722 22.0574 6.32153 22.9559C6.2119 23.6123 6.20254 24.2809 6.29212 24.94C6.39775 25.7022 6.68922 26.4255 7.14248 27.0486C7.60911 27.7011 8.33246 28.1236 9.12934 28.2105C9.48099 28.2533 9.83397 28.292 10.187 28.3295C10.933 28.4043 11.6457 28.6731 12.2554 29.109C13.6071 30.0569 14.4869 31.5411 14.6714 33.1816C14.7864 34.1162 14.7236 35.0642 14.4856 35.9747C14.2088 37.0751 13.7609 38.1261 13.1579 39.0887C13.0991 39.1837 13.0429 39.2813 12.9867 39.3762C13.916 39.8081 14.8961 40.1236 15.9042 40.3148C15.9256 40.1236 15.9216 39.9297 15.8935 39.7385C15.8186 38.582 15.9296 37.4214 16.2197 36.2996C17.2305 32.3206 20.3365 29.2133 24.3156 28.1998C25.1847 27.9965 26.0645 27.8374 26.9509 27.7251C27.7558 27.6075 28.5594 27.4938 29.3509 27.3026C30.212 27.1047 31.0356 26.7745 31.7951 26.3226C32.8874 25.6861 33.679 24.6379 33.9905 23.4131C34.1242 22.9157 34.2124 22.4063 34.2566 21.8929C34.3154 21.1963 34.3582 20.4997 34.3956 19.8017C34.4451 18.8645 34.5735 17.9312 34.7794 17.0153C35.3088 14.6394 36.3049 12.3918 37.7102 10.4036C37.769 10.3207 37.8198 10.2351 37.888 10.1335C36.5483 7.91802 34.7954 5.9793 32.7243 4.42431" stroke="white" stroke-width="0.549529" stroke-miterlimit="10"/>
<path d="M20.5504 0.100281C9.21886 0.0976072 0.0319716 9.28182 0.0292975 20.612C0.0266234 31.9435 9.21084 41.1304 20.5424 41.1318C31.8645 41.1344 41.0487 31.9622 41.0621 20.6401C41.0728 9.30723 31.8939 0.109641 20.5597 0.100281C20.5571 0.100281 20.5531 0.100281 20.5504 0.100281ZM17.1315 0.637777C18.7066 0.370366 20.3097 0.300839 21.9021 0.429196C21.9035 0.493375 21.8995 0.557553 21.8901 0.620395C21.6869 1.57639 21.6989 2.56581 21.9235 3.51645C22.08 4.27991 22.3153 5.02197 22.5413 5.76671C22.7819 6.50744 22.9664 7.26421 23.0948 8.03302C23.2258 8.85931 23.2699 9.69631 23.2285 10.5306C23.1977 11.2633 23.0948 11.9907 22.921 12.7033C22.8314 13.047 22.7191 13.3826 22.5827 13.7101C22.1228 14.8774 21.0946 15.7251 19.8618 15.9524C18.0314 16.3615 16.1354 15.6261 15.0578 14.0912C14.5951 13.408 14.2609 12.6445 14.0724 11.8409C13.9159 11.1831 13.8156 10.5146 13.7729 9.83937C13.702 8.85397 13.7475 7.86989 13.7689 6.88582C13.7983 6.0154 13.7782 5.14498 13.71 4.2759C13.6499 3.49907 13.4907 2.73294 13.238 1.99489C13.2153 1.93071 13.1953 1.86519 13.1672 1.77962C14.4414 1.24881 15.7718 0.865076 17.1315 0.635102M6.43779 6.07156C8.29228 4.2652 10.4784 2.83322 12.877 1.85583C12.9212 1.92402 12.9599 1.99622 12.9934 2.0711C13.1699 2.56714 13.2955 3.07923 13.3717 3.59935C13.472 4.25584 13.5202 4.92036 13.5161 5.58487C13.5108 6.38577 13.4974 7.188 13.4961 7.99023C13.4961 8.57452 13.4867 9.15881 13.5161 9.74177C13.5536 10.8074 13.7608 11.861 14.1299 12.8624C14.3237 13.3892 14.5925 13.8866 14.9267 14.3386C15.8346 15.5834 17.284 16.3187 18.8242 16.3147C19.3751 16.3268 19.9233 16.2372 20.4421 16.05C21.4556 15.7117 22.2845 14.9696 22.7325 14.0003C23.0279 13.3545 23.2312 12.6686 23.3368 11.9666C23.4906 11.016 23.536 10.0506 23.4718 9.08929C23.409 8.13998 23.2379 7.20003 22.9624 6.2895C22.7565 5.58621 22.5439 4.88559 22.3474 4.17963C22.1508 3.50843 22.0358 2.81584 22.0064 2.11789C21.9824 1.60179 22.0358 1.08569 22.1642 0.585631C22.1762 0.542846 22.1936 0.501397 22.2057 0.465297C22.7552 0.382399 24.8223 0.743404 26.289 1.17928C28.5219 1.83711 30.6237 2.87734 32.501 4.25317C32.394 4.34275 32.3111 4.41762 32.2228 4.48581C31.6747 4.92169 31.1906 5.43111 30.7855 6.0007C30.1344 6.92192 29.7252 7.99157 29.5942 9.11068C29.4752 10.2271 29.4658 11.3529 29.5635 12.472C29.6504 13.4989 29.6811 14.5311 29.6557 15.5606C29.5019 18.7455 27.9162 21.6897 25.341 23.5696C24.3169 24.3143 23.1322 24.8063 21.8821 25.0082C19.7602 25.3813 17.5754 24.9507 15.753 23.8009C14.5764 23.0521 13.6325 21.9892 13.0268 20.7323C12.5561 19.7763 12.2125 18.7615 12.0039 17.716C11.7994 16.7279 11.6256 15.7398 11.4517 14.7464C11.2659 13.5363 11.0118 12.337 10.6936 11.1537C10.461 10.302 10.1187 9.48505 9.67613 8.7216C9.36727 8.19747 8.97418 7.72817 8.51156 7.3324C7.96738 6.87112 7.31757 6.55156 6.61963 6.40449C6.50999 6.38042 6.39634 6.35368 6.28537 6.32827C6.27734 6.32827 6.272 6.3149 6.25729 6.29886C6.27734 6.19323 6.37094 6.1344 6.4418 6.06755M12.7179 39.2746C11.7659 39.0473 9.24694 37.5578 7.74008 36.3264C0.993312 30.8164 -1.48291 21.6161 1.58295 13.4628C1.89716 13.3679 2.22474 13.3251 2.55232 13.3371C3.22886 13.3077 3.90541 13.424 4.53249 13.6781C5.65428 14.1139 6.48993 15.0739 6.76537 16.2452C6.90576 16.8121 6.96459 17.3977 6.93785 17.982C6.90175 18.7709 6.79211 19.5557 6.60893 20.3232C6.44448 21.0826 6.27066 21.8421 6.12492 22.6056C5.98319 23.3142 5.94709 24.0402 6.01796 24.7595C6.09417 25.6193 6.40169 26.4429 6.90576 27.1435C7.44593 27.915 8.30164 28.4057 9.24025 28.4819C9.56917 28.514 9.89942 28.5447 10.2283 28.5875C11.1442 28.7079 11.9973 29.1183 12.6631 29.7574C13.6218 30.6453 14.2395 31.8419 14.4066 33.1375C14.5564 34.3114 14.4294 35.5054 14.0376 36.6219C13.7448 37.503 13.3397 38.3427 12.8329 39.1195C12.7968 39.1743 12.7514 39.2265 12.7139 39.2746M33.2457 36.4053C31.2976 37.9723 29.0768 39.1676 26.6955 39.9297C25.3651 40.3616 23.9879 40.6344 22.5921 40.744C22.584 40.6678 22.5814 40.5916 22.5854 40.5154C22.6937 39.1904 23.0306 37.8934 23.5801 36.682C24.0361 35.69 24.7099 34.8142 25.5496 34.1176C26.3519 33.4638 27.3132 33.0332 28.336 32.8741C29.5501 32.6896 30.7909 32.7685 31.9715 33.1068C33.0612 33.4183 34.1108 33.8582 35.0962 34.4171C35.143 34.4452 35.1871 34.4772 35.2312 34.5107C34.6469 35.218 33.9824 35.8544 33.2497 36.4066M39.7505 14.1353C40.5821 16.6062 40.9297 19.2134 40.776 21.8167C40.6316 24.3959 39.9871 26.9229 38.88 29.2561C38.0083 31.1012 36.8624 32.8033 35.4826 34.3074C35.3569 34.2753 35.2379 34.2219 35.1309 34.1483C34.2685 33.6723 33.3634 33.2792 32.4261 32.9757C31.422 32.6522 30.3697 32.4997 29.3148 32.5238C27.4041 32.5332 25.5991 33.4076 24.4064 34.9011C23.6564 35.8317 23.1055 36.9053 22.7886 38.0579C22.5546 38.8962 22.3955 39.7533 22.314 40.6197C22.3086 40.6651 22.3019 40.7092 22.2939 40.7614C22.195 40.8202 22.0786 40.8456 21.965 40.8349C21.4275 40.8523 20.8887 40.8737 20.3512 40.875C19.5155 40.875 18.6798 40.8176 17.8509 40.7026C17.304 40.633 16.7612 40.5368 16.225 40.4111C16.1662 40.1517 16.1354 39.887 16.1341 39.6222C15.8734 34.1136 19.7308 29.2614 25.1565 28.2733C26.0229 28.1142 26.8974 27.9992 27.7678 27.8615C28.6877 27.7385 29.5929 27.5286 30.4726 27.2344C30.9914 27.0513 31.4901 26.8159 31.9594 26.5298C33.1254 25.8332 33.957 24.6927 34.2659 23.3703C34.4076 22.7914 34.4998 22.2018 34.54 21.6081C34.5881 20.957 34.6282 20.3058 34.6656 19.6547C34.7646 18.0649 35.0868 16.4966 35.6256 14.9964C36.1538 13.4922 36.8785 12.0656 37.781 10.7526C37.8518 10.6496 37.9281 10.5493 38.0176 10.4237C38.745 11.5869 39.3279 12.833 39.7545 14.138M37.7141 10.4049C36.3089 12.3931 35.3141 14.6407 34.7846 17.018C34.5787 17.9339 34.4504 18.8658 34.4009 19.8044C34.3635 20.501 34.3207 21.199 34.2619 21.8956C34.2177 22.409 34.1281 22.9184 33.9958 23.4158C33.6842 24.6405 32.8927 25.6901 31.8003 26.3252C31.0409 26.7758 30.2173 27.1061 29.3562 27.3053C28.566 27.4965 27.7611 27.6101 26.9562 27.7278C26.0697 27.8415 25.1913 27.9992 24.3209 28.2025C20.3405 29.2146 17.2332 32.3246 16.2237 36.305C15.9335 37.4268 15.8226 38.5873 15.8974 39.7439C15.9269 39.9351 15.9295 40.1276 15.9081 40.3202C14.9013 40.129 13.9213 39.8148 12.9907 39.3829C13.0455 39.288 13.1043 39.1904 13.1618 39.0954C13.7648 38.1327 14.2128 37.0832 14.4895 35.9814C14.7275 35.0709 14.7904 34.1229 14.6754 33.1883C14.4909 31.5478 13.6111 30.065 12.2593 29.1157C11.651 28.6798 10.9396 28.411 10.1949 28.3348C9.84193 28.2987 9.48894 28.2586 9.1373 28.2158C8.34042 28.1276 7.61707 27.7051 7.15044 27.0526C6.69584 26.4295 6.40303 25.7048 6.29606 24.9414C6.20648 24.2822 6.21584 23.6137 6.32548 22.9572C6.44982 22.06 6.67846 21.1843 6.87501 20.3018C7.09963 19.3779 7.20793 18.4286 7.1959 17.478C7.18387 16.9966 7.10899 16.5193 6.97662 16.0567C6.64771 14.8386 5.74653 13.8572 4.56057 13.424C3.74497 13.1085 2.86251 13.0042 1.9961 13.1218C1.91989 13.1312 1.84234 13.1299 1.76078 13.1339C2.00546 12.3544 2.33972 11.6056 2.75822 10.9037C3.62463 9.31792 4.70764 7.86054 5.97517 6.57162C6.53005 6.61039 7.07289 6.76148 7.5676 7.01685C8.24014 7.36984 8.81373 7.88594 9.23758 8.51703C9.57986 9.01842 9.86198 9.55859 10.0772 10.1268C10.4075 10.9812 10.6589 11.865 10.8273 12.7648C11.0266 13.7984 11.2017 14.8373 11.3835 15.8735C11.5681 17.0608 11.8422 18.2334 12.2005 19.3806C12.4211 20.0558 12.7072 20.7069 13.0575 21.326C14.0563 23.0775 15.6889 24.3812 17.6182 24.9681C18.7333 25.3318 19.9086 25.4709 21.0772 25.3759C22.6763 25.2649 24.2126 24.7074 25.5095 23.7661C27.3439 22.4398 28.7051 20.5599 29.391 18.4032C29.7988 17.1597 29.9793 15.8534 29.9271 14.5458C29.9084 13.9054 29.8563 13.2649 29.8269 12.6245C29.7908 11.8556 29.7266 11.0922 29.756 10.3247C29.7694 9.60272 29.8656 8.88472 30.0408 8.1841C30.4018 6.87112 31.1586 5.7012 32.2081 4.83478C32.3726 4.69439 32.5478 4.56737 32.7323 4.42297C34.8034 5.97797 36.5562 7.91669 37.896 10.1322C37.8304 10.2325 37.777 10.318 37.7181 10.4023" fill="white"/>
<path d="M20.6182 40.9981C31.8365 40.9981 40.9307 31.9038 40.9307 20.6856C40.9307 9.46727 31.8365 0.373047 20.6182 0.373047C9.39988 0.373047 0.305664 9.46727 0.305664 20.6856C0.305664 31.9038 9.39988 40.9981 20.6182 40.9981Z" stroke="white" stroke-width="0.549529"/>
<path d="M71.1253 5.06877C73.2004 6.90722 74.238 9.45698 74.238 12.718C74.238 14.5859 73.8676 16.3268 73.1269 17.9433C72.3848 19.5597 71.1922 20.8781 69.5476 21.9009C67.9017 22.9238 65.7905 23.4345 63.2113 23.4345H58.5423V34.6845H53.3398V2.31177H62.5C66.1755 2.31177 69.0515 3.23032 71.1266 5.06877H71.1253ZM66.6556 17.5421C67.53 16.9351 68.1517 16.1944 68.5234 15.3186C68.8938 14.4442 69.0796 13.6072 69.0796 12.8063C69.0796 11.4425 68.6424 10.183 67.768 9.02645C66.8935 7.8699 65.4188 7.29229 63.3437 7.29229H58.541V18.454H63.21C64.6326 18.454 65.7811 18.1505 66.6556 17.5421Z" fill="black"/>
<path d="M84.4649 0V34.6858H79.4844V0H84.4649Z" fill="black"/>
<path d="M111.012 15.8748V34.6845H106.032V31.9716C105.35 32.7725 104.431 33.5065 103.275 34.1724C102.118 34.8396 100.769 35.1725 99.2275 35.1725C97.4185 35.1725 95.8034 34.7941 94.3807 34.0387C92.9581 33.2832 91.831 32.1641 91.0007 30.6813C90.1703 29.1999 89.7559 27.4055 89.7559 25.301C89.7559 23.1965 90.1851 21.4543 91.0461 19.898C91.9058 18.3417 93.0544 17.141 94.4917 16.296C95.929 15.451 97.5081 15.0284 99.2275 15.0284C102.281 15.0284 104.564 16.1556 106.076 18.4072L106.432 15.8735H111.012V15.8748ZM104.053 30.0382C104.988 29.3429 105.647 28.3562 106.032 27.082V22.9906C105.676 21.834 104.986 20.9008 103.965 20.1881C102.942 19.4768 101.764 19.1212 100.43 19.1212C98.8585 19.1212 97.5241 19.676 96.4278 20.7885C95.3314 21.9009 94.7832 23.3168 94.7832 25.0349C94.7832 26.1621 95.0493 27.1849 95.5841 28.1035C96.1176 29.0234 96.8289 29.7494 97.718 30.2829C98.6071 30.8164 99.5712 31.0838 100.609 31.0838C101.971 31.0838 103.121 30.7348 104.054 30.0382H104.053Z" fill="black"/>
<path d="M134.559 16.653C135.73 17.7066 136.331 19.0623 136.36 20.7216V34.6845H131.38V22.4999C131.32 21.5225 131.031 20.751 130.513 20.1881C129.995 19.6252 129.216 19.3284 128.179 19.299C126.637 19.299 125.37 19.9595 124.376 21.2778C123.383 22.5975 122.887 24.2795 122.887 26.3252V34.6845H117.906V15.8748H122.397L122.753 19.2094C123.435 17.9058 124.42 16.8896 125.711 16.1636C127 15.4376 128.49 15.0739 130.179 15.0739C131.868 15.0739 133.388 15.6007 134.559 16.6516V16.653Z" fill="black"/>
<path d="M144.741 34.3074C143.451 33.7886 142.39 33.0559 141.562 32.1066L143.651 29.3055C145.222 30.8471 146.823 31.6173 148.454 31.6173C149.343 31.6173 150.077 31.4461 150.655 31.1052C151.232 30.7642 151.521 30.2535 151.521 29.5702C151.521 28.887 151.224 28.3255 150.632 27.9698C150.038 27.6141 149.379 27.3253 148.653 27.1034C147.926 26.8814 147.459 26.741 147.252 26.6809C145.621 26.1768 144.405 25.4441 143.606 24.4801C142.805 23.5174 142.405 22.3836 142.405 21.0786C142.405 20.0411 142.665 19.0704 143.183 18.1652C143.702 17.2613 144.488 16.5273 145.541 15.9644C146.593 15.4015 147.875 15.1194 149.387 15.1194C150.81 15.1194 152.048 15.2825 153.1 15.6087C154.153 15.935 155.138 16.4538 156.058 17.1651L154.146 20.144C153.612 19.64 152.968 19.2402 152.211 18.9434C151.456 18.6479 150.766 18.4981 150.143 18.4981C149.371 18.4981 148.735 18.6759 148.231 19.0316C147.727 19.3873 147.475 19.8472 147.475 20.4101C147.446 21.092 147.697 21.6041 148.231 21.945C148.764 22.286 149.624 22.6497 150.81 23.0347C151.314 23.1831 151.64 23.2861 151.789 23.3463C153.27 23.8209 154.427 24.4801 155.257 25.3251C156.087 26.1701 156.502 27.2745 156.502 28.6383C156.502 30.4768 155.841 32.0104 154.523 33.2405C153.203 34.4719 151.314 35.0856 148.852 35.0856C147.399 35.0856 146.029 34.8262 144.74 34.3074H144.741Z" fill="black"/>
<path d="M174.534 34.5748C173.333 34.9746 172.125 35.1752 170.909 35.1752C168.833 35.1752 167.003 34.7754 165.418 33.9745C163.832 33.1736 162.609 32.0251 161.749 30.5289C160.89 29.0314 160.459 27.2759 160.459 25.2596C160.459 23.2433 160.919 21.5319 161.837 20.0344C162.756 18.5369 163.979 17.3884 165.506 16.5888C167.033 15.7879 168.67 15.3881 170.42 15.3881C173.384 15.3881 175.83 16.189 177.758 17.7895L175.267 21.0358C174.704 20.5919 174.045 20.2135 173.288 19.902C172.533 19.5905 171.724 19.4354 170.865 19.4354C169.352 19.4354 168.069 19.9916 167.019 21.1027C165.966 22.2138 165.44 23.6003 165.44 25.2609C165.44 26.9215 165.996 28.3067 167.107 29.4192C168.218 30.5316 169.634 31.0865 171.353 31.0865C172.835 31.0865 174.08 30.672 175.088 29.8417L177.579 32.9543C176.747 33.6362 175.733 34.1777 174.533 34.5775L174.534 34.5748Z" fill="black"/>
<path d="M202.394 15.8748V34.6845H197.414V31.9716C196.732 32.7725 195.813 33.5065 194.657 34.1724C193.5 34.8396 192.151 35.1725 190.609 35.1725C188.8 35.1725 187.185 34.7941 185.763 34.0387C184.34 33.2832 183.213 32.1641 182.382 30.6813C181.552 29.1999 181.138 27.4055 181.138 25.301C181.138 23.1965 181.567 21.4543 182.427 19.898C183.286 18.3417 184.435 17.141 185.872 16.296C187.31 15.451 188.889 15.0284 190.608 15.0284C193.661 15.0284 195.944 16.1556 197.456 18.4072L197.812 15.8735H202.393L202.394 15.8748ZM195.435 30.0382C196.369 29.3429 197.029 28.3562 197.414 27.082V22.9906C197.058 21.834 196.368 20.9008 195.345 20.1881C194.322 19.4768 193.144 19.1212 191.81 19.1212C190.239 19.1212 188.905 19.676 187.808 20.7885C186.712 21.9009 186.162 23.3168 186.162 25.0349C186.162 26.1621 186.43 27.1849 186.963 28.1035C187.497 29.0234 188.208 29.7494 189.099 30.2829C189.988 30.8164 190.95 31.0838 191.989 31.0838C193.353 31.0838 194.502 30.7348 195.435 30.0382Z" fill="black"/>
<path d="M226.407 16.2746C227.83 17.105 228.942 18.2909 229.742 19.8325C230.543 21.3742 230.942 23.1672 230.942 25.2128C230.942 27.2585 230.505 28.9927 229.631 30.5049C228.756 32.0171 227.541 33.1737 225.985 33.9732C224.428 34.7741 222.671 35.1739 220.715 35.1739C219.47 35.1739 218.27 34.9225 217.113 34.4185C215.957 33.9144 215.007 33.2325 214.267 32.3728V43.7123H209.286V15.5192H213.599L214.045 18.3217C215.022 17.3135 216.157 16.514 217.446 15.9203C218.735 15.328 220.136 15.0312 221.649 15.0312C223.397 15.0312 224.983 15.447 226.407 16.276V16.2746ZM222.782 30.438C223.717 29.9193 224.464 29.2146 225.029 28.3255C225.591 27.4364 225.874 26.4282 225.874 25.3011C225.874 23.5522 225.317 22.1069 224.206 20.965C223.095 19.8245 221.723 19.2523 220.094 19.2523C218.64 19.2523 217.418 19.6079 216.425 20.3192C215.431 21.0305 214.713 22.024 214.268 23.2982V27.078C214.565 28.2934 215.209 29.2868 216.203 30.057C217.196 30.8285 218.374 31.2135 219.738 31.2135C220.834 31.2135 221.849 30.9541 222.784 30.4354L222.782 30.438Z" fill="black"/>
<path d="M249.486 29.4379L251.753 33.1281C250.745 33.7512 249.664 34.2472 248.507 34.6176C247.35 34.988 246.239 35.1725 245.172 35.1725C243.008 35.1725 241.133 34.742 239.547 33.8836C237.962 33.0238 236.745 31.8379 235.901 30.3257C235.056 28.8135 234.634 27.0793 234.634 25.1232C234.634 23.2847 235.107 21.596 236.056 20.0531C237.004 18.5128 238.295 17.2894 239.925 16.3856C241.554 15.4817 243.333 15.0298 245.261 15.0298C247.81 15.0298 249.93 15.7785 251.62 17.2747C253.31 18.7722 254.436 20.8847 255 23.6123L240.503 28.5046C241.008 29.2761 241.675 29.8684 242.505 30.2829C243.334 30.6987 244.254 30.9059 245.262 30.9059C246.655 30.9059 248.064 30.4166 249.487 29.4392L249.486 29.4379ZM241.014 20.5879C240.021 21.6843 239.525 23.1083 239.525 24.8571C239.525 25.1834 239.539 25.4361 239.569 25.6126L249.442 22.1001C249.057 21.1816 248.492 20.4248 247.752 19.8325C247.01 19.2402 246.047 18.9433 244.861 18.9433C243.289 18.9433 242.008 19.4929 241.014 20.5893V20.5879Z" fill="black"/>
</g>
<defs>
<clipPath id="clip0_69_1618">
<rect width="255" height="43.7123" fill="white"/>
</clipPath>
</defs>
</svg>
