<svg width="247" height="43" viewBox="0 0 247 43" fill="none" xmlns="http://www.w3.org/2000/svg">
<g clip-path="url(#clip0_151_1346)">
<path d="M40 20.022C39.9854 30.5141 31.4701 39.0073 20.978 39C10.4859 38.9854 1.99268 30.4701 2 19.978C2.01465 9.49326 10.5152 1 21 1C31.4921 1 40 9.51522 39.9927 20.0146M32.2682 4.99769C32.0998 5.12948 31.9387 5.25395 31.785 5.37842C30.8112 6.18381 30.1083 7.26744 29.7788 8.48285C29.6177 9.13449 29.5299 9.79345 29.5152 10.4671C29.4859 11.1773 29.5445 11.8875 29.5811 12.5977C29.6104 13.1908 29.6543 13.7838 29.6763 14.3769C29.7276 15.585 29.5592 16.8004 29.1784 17.9499C28.5414 19.9487 27.2821 21.684 25.5834 22.9141C24.3827 23.7854 22.9622 24.2979 21.4832 24.4004C20.3996 24.4882 19.316 24.3565 18.2836 24.0197C16.4971 23.4778 14.9888 22.2697 14.059 20.6516C13.7368 20.0805 13.4732 19.4728 13.2682 18.8505C12.9387 17.7888 12.6825 16.7052 12.5141 15.5996C12.3457 14.6405 12.1846 13.6813 12.0015 12.7222C11.8478 11.8875 11.6135 11.0674 11.306 10.2767C11.1083 9.74952 10.8447 9.25164 10.5299 8.78304C10.1418 8.1973 9.60733 7.72139 8.98498 7.39191C8.5237 7.15761 8.02582 7.0185 7.5133 6.98189C6.34182 8.17534 5.33873 9.52254 4.53334 10.9942C4.14528 11.6459 3.83777 12.3341 3.61079 13.059C3.68401 13.059 3.75723 13.059 3.83045 13.0443C4.63584 12.9345 5.44856 13.0297 6.2027 13.3225C7.30097 13.7252 8.13565 14.6331 8.43584 15.7607C8.56031 16.1927 8.62621 16.632 8.64085 17.0786C8.6555 17.9572 8.55299 18.8358 8.34066 19.6925C8.15762 20.5125 7.94528 21.3179 7.83546 22.1526C7.73295 22.7603 7.72563 23.3827 7.80617 23.9904C7.90135 24.7006 8.17958 25.3669 8.59692 25.9453C9.02891 26.5457 9.69519 26.941 10.4347 27.0216C10.7642 27.0582 11.0863 27.0948 11.4158 27.1314C12.1041 27.2046 12.763 27.4536 13.3268 27.8563C14.5788 28.7349 15.3915 30.1114 15.5599 31.627C15.6698 32.4909 15.6112 33.3696 15.3842 34.2116C15.1279 35.2293 14.7106 36.2031 14.1541 37.0963C14.1029 37.1842 14.0516 37.2721 13.9931 37.3599C14.857 37.7626 15.7576 38.0482 16.6948 38.2312C16.7168 38.0555 16.7094 37.8724 16.6875 37.6967C16.6216 36.6277 16.7241 35.5514 16.995 34.5118C17.9322 30.8289 20.8096 27.9441 24.4925 27.0069C25.2979 26.8166 26.1106 26.6701 26.9306 26.5676C27.6775 26.4578 28.417 26.3553 29.1491 26.1796C29.9472 25.9965 30.7087 25.689 31.4116 25.2717C32.422 24.6859 33.1541 23.7121 33.447 22.5773C33.5715 22.116 33.652 21.6474 33.696 21.1715C33.7472 20.5272 33.7911 19.8828 33.8277 19.2385C33.8717 18.3672 33.9888 17.5033 34.1792 16.6613C34.6698 14.4574 35.5923 12.378 36.8956 10.5403C36.9468 10.4597 36.9981 10.3865 37.0567 10.2913C35.8119 8.24123 34.1938 6.44008 32.2682 5.00501M32.0632 4.85125C30.3279 3.57726 28.3803 2.61811 26.3083 2.00308C24.9464 1.60039 23.0355 1.26358 22.5303 1.34412C22.5156 1.37341 22.501 1.41734 22.4936 1.45395C22.3765 1.91522 22.3252 2.39846 22.3472 2.87437C22.3765 3.51869 22.479 4.16301 22.662 4.78536C22.8451 5.43699 23.0428 6.08863 23.2331 6.74027C23.4894 7.58227 23.6432 8.45356 23.7017 9.33218C23.7603 10.2254 23.7164 11.1187 23.5773 11.9973C23.4821 12.6489 23.2917 13.2786 23.0208 13.879C22.6035 14.7796 21.8347 15.4605 20.8975 15.7753C20.4143 15.9511 19.9091 16.0316 19.3965 16.0243C17.9688 16.0243 16.6289 15.3507 15.7869 14.1938C15.4794 13.7765 15.2304 13.3152 15.0474 12.8247C14.7033 11.8948 14.5129 10.921 14.4763 9.93988C14.447 9.39807 14.4543 8.85626 14.4617 8.32177C14.4617 7.58227 14.4763 6.83545 14.4763 6.09595C14.4763 5.48092 14.4324 4.8659 14.3445 4.25819C14.2786 3.77495 14.1615 3.29904 14.0004 2.83776C13.9711 2.77187 13.9345 2.70597 13.8906 2.64008C11.6721 3.54798 9.64393 4.87322 7.93064 6.54258C7.86474 6.60848 7.77688 6.65973 7.76224 6.75491C7.77688 6.76956 7.77688 6.77688 7.79153 6.7842C7.89403 6.80617 7.99654 6.83545 8.09904 6.85742C8.74336 6.99653 9.34374 7.2894 9.84894 7.72139C10.2809 8.08748 10.6397 8.51946 10.9252 9.01002C11.3353 9.72023 11.6501 10.4744 11.8698 11.2651C12.1626 12.3634 12.3969 13.469 12.5726 14.5892C12.7337 15.5044 12.8948 16.427 13.0852 17.3422C13.2755 18.3087 13.5977 19.2459 14.0297 20.1318C14.5935 21.296 15.4647 22.2771 16.5557 22.9726C18.2397 24.0343 20.2678 24.437 22.2301 24.0929C23.3869 23.9025 24.4852 23.4486 25.4297 22.7603C27.8166 21.0177 29.2883 18.294 29.4274 15.3434C29.4493 14.3915 29.4274 13.4324 29.3395 12.4805C29.2516 11.4408 29.259 10.4012 29.3688 9.36879C29.4933 8.32909 29.8667 7.34065 30.4744 6.49133C30.8478 5.96416 31.3017 5.48825 31.8069 5.08555C31.8875 5.01965 31.968 4.95376 32.0632 4.87322M37.1665 10.5842C37.0859 10.7013 37.0127 10.7892 36.9468 10.8917C36.1121 12.1071 35.4385 13.4324 34.9553 14.8235C34.4574 16.2146 34.1572 17.6644 34.062 19.136C34.0254 19.7364 33.9888 20.3441 33.9449 20.9445C33.9083 21.4936 33.8204 22.0428 33.6886 22.5773C33.4031 23.8 32.6343 24.8617 31.5507 25.506C31.1187 25.7696 30.6574 25.9892 30.1742 26.1576C29.3615 26.4285 28.5268 26.6262 27.6701 26.736C26.8647 26.8605 26.052 26.9703 25.254 27.1168C20.2312 28.032 16.6582 32.5276 16.8998 37.6235C16.8998 37.8724 16.9291 38.1141 16.9804 38.3557C17.4782 38.4728 17.9761 38.5607 18.4886 38.6266C19.2574 38.7291 20.0262 38.7877 20.8023 38.7877C21.3002 38.7877 21.7981 38.7657 22.296 38.7511C22.3985 38.7584 22.5083 38.7364 22.6035 38.6852C22.6035 38.6339 22.6181 38.5973 22.6254 38.5534C22.6987 37.748 22.8451 36.9572 23.0647 36.1811C23.3576 35.1121 23.8701 34.1164 24.5657 33.2597C25.6713 31.8759 27.3407 31.0705 29.1052 31.0559C30.079 31.0339 31.0528 31.173 31.9827 31.4732C32.8466 31.7514 33.6886 32.1175 34.4867 32.5568C34.5892 32.6227 34.699 32.674 34.8162 32.7033C36.0975 31.3121 37.1518 29.7306 37.9646 28.0247C38.9896 25.8647 39.5827 23.5218 39.7218 21.1349C39.8682 18.726 39.5461 16.3098 38.7699 14.0254C38.3746 12.8173 37.8328 11.6605 37.1592 10.5842M13.7368 37.3013C13.7734 37.2574 13.8173 37.2062 13.8466 37.1549C14.3152 36.4374 14.6886 35.6539 14.9595 34.8412C15.3256 33.8089 15.4428 32.7033 15.3037 31.6123C15.1499 30.4116 14.5788 29.306 13.6929 28.4859C13.0778 27.8929 12.2871 27.5121 11.4378 27.4023C11.1303 27.3657 10.8301 27.3364 10.5225 27.3071C9.65126 27.2412 8.86051 26.78 8.3553 26.0697C7.88671 25.4181 7.60116 24.6566 7.53526 23.8586C7.46937 23.1923 7.50598 22.5187 7.63777 21.867C7.76956 21.1568 7.93064 20.4539 8.0844 19.7511C8.2528 19.0408 8.3553 18.316 8.39191 17.5838C8.41388 17.042 8.36262 16.5002 8.23083 15.973C7.97457 14.8894 7.19846 13.9961 6.15877 13.5934C5.58035 13.3592 4.95068 13.2493 4.32833 13.2786C4.02814 13.2713 3.72062 13.3079 3.42775 13.3958C0.579581 20.9445 2.87862 29.467 9.13141 34.563C10.5299 35.7052 12.8582 37.0817 13.7441 37.294M14.1615 2.57418C14.1908 2.65472 14.2054 2.71329 14.2274 2.77187C14.4617 3.45279 14.6081 4.16301 14.6593 4.88054C14.7252 5.68593 14.7399 6.49133 14.7179 7.29672C14.696 8.21195 14.652 9.11985 14.7179 10.0351C14.7545 10.6574 14.8497 11.2798 14.9962 11.8875C15.1719 12.6343 15.4794 13.3372 15.9114 13.9742C16.9071 15.3946 18.6644 16.0755 20.363 15.6948C21.5052 15.4825 22.457 14.699 22.8817 13.6154C23.0062 13.3152 23.1087 13.0004 23.1965 12.6855C23.3576 12.0266 23.4528 11.353 23.4821 10.6721C23.5187 9.89595 23.4821 9.11984 23.3576 8.35838C23.2405 7.64817 23.0647 6.94528 22.8451 6.25703C22.6401 5.56879 22.4204 4.88054 22.274 4.17033C22.069 3.29171 22.0543 2.37649 22.2447 1.49056C22.252 1.43198 22.2594 1.37341 22.2594 1.31484C20.7877 1.19769 19.3014 1.26358 17.8443 1.51252C16.585 1.72486 15.3549 2.0763 14.1688 2.56686M22.8963 38.6486C24.1923 38.546 25.4663 38.2971 26.6963 37.8944C28.9002 37.1915 30.9576 36.0786 32.7588 34.6289C33.4397 34.1164 34.0547 33.5306 34.5965 32.8717C34.5599 32.8424 34.516 32.8131 34.4721 32.7838C33.5568 32.264 32.5904 31.8539 31.58 31.5684C30.489 31.2536 29.3395 31.1803 28.212 31.3561C27.2601 31.5025 26.3742 31.8979 25.6274 32.5056C24.8513 33.1499 24.2289 33.9626 23.8042 34.8778C23.299 35.9981 22.9842 37.1988 22.8817 38.4289C22.8817 38.5021 22.8817 38.568 22.8817 38.6412" stroke="white" stroke-width="1.38"/>
<path d="M65.4948 5.98593C67.5385 7.79472 68.5545 10.3024 68.5545 13.5089C68.5545 15.347 68.1904 17.0619 67.4622 18.6475C66.734 20.239 65.5594 21.5369 63.9385 22.5411C62.3177 23.5453 60.2446 24.0504 57.7076 24.0504H53.1151V35.1146H48V3.27274H57.0087C60.6263 3.27274 63.4511 4.17713 65.4948 5.98593ZM61.0961 18.254C61.9536 17.655 62.5702 16.9268 62.9343 16.0694C63.2984 15.212 63.4805 14.3839 63.4805 13.597C63.4805 12.258 63.0518 11.0188 62.1885 9.87954C61.3252 8.74023 59.8746 8.17645 57.8368 8.17645H53.1151V19.1584H57.7076C59.1053 19.1584 60.2387 18.8589 61.0961 18.2599V18.254Z" fill="white"/>
<path d="M78.6204 1V35.1205H73.7225V1H78.6204Z" fill="white"/>
<path d="M104.736 16.6155V35.1204H99.8384V32.4542C99.1689 33.2412 98.2645 33.9635 97.1252 34.6213C95.9859 35.279 94.6586 35.6079 93.1435 35.6079C91.364 35.6079 89.7725 35.2379 88.3748 34.4921C86.9771 33.7462 85.8672 32.648 85.0509 31.1916C84.2346 29.7352 83.8235 27.9675 83.8235 25.9003C83.8235 23.8331 84.2463 22.1183 85.092 20.5855C85.9377 19.0527 87.0652 17.8723 88.4805 17.0442C89.8959 16.2103 91.4463 15.7992 93.1376 15.7992C96.1386 15.7992 98.3878 16.9092 99.8736 19.1232L100.226 16.6273H104.73L104.736 16.6155ZM97.8886 30.5456C98.8048 29.8585 99.4566 28.8895 99.8325 27.6386V23.6158C99.4801 22.4765 98.8048 21.5604 97.8005 20.8615C96.7963 20.1626 95.6335 19.8103 94.3239 19.8103C92.7794 19.8103 91.4639 20.3564 90.3892 21.4488C89.3086 22.5411 88.7683 23.9329 88.7683 25.6243C88.7683 26.7342 89.0326 27.7384 89.5553 28.6428C90.0779 29.5472 90.7826 30.2637 91.6577 30.7864C92.5327 31.3091 93.4782 31.5733 94.5001 31.5733C95.8391 31.5733 96.9725 31.2327 97.8886 30.5456Z" fill="white"/>
<path d="M127.898 17.379C129.049 18.4126 129.642 19.7457 129.672 21.3842V35.1205H124.774V23.1343C124.715 22.1711 124.433 21.4136 123.922 20.8615C123.412 20.3095 122.648 20.0159 121.626 19.9865C120.111 19.9865 118.86 20.6384 117.885 21.9304C116.91 23.2282 116.417 24.8843 116.417 26.8928V35.1146H111.519V16.6097H115.936L116.288 19.8925C116.957 18.6123 117.926 17.608 119.195 16.8974C120.463 16.181 121.932 15.8286 123.594 15.8286C125.256 15.8286 126.747 16.3454 127.904 17.379H127.898Z" fill="white"/>
<path d="M137.911 34.7505C136.643 34.2395 135.597 33.5172 134.781 32.5834L136.836 29.8291C138.381 31.3443 139.955 32.1019 141.558 32.1019C142.433 32.1019 143.156 31.9316 143.725 31.5968C144.295 31.2621 144.577 30.757 144.577 30.0875C144.577 29.418 144.283 28.8601 143.702 28.5137C143.12 28.1613 142.468 27.8794 141.758 27.6621C141.041 27.4448 140.583 27.3039 140.378 27.2451C138.774 26.7518 137.576 26.0295 136.789 25.0781C136.003 24.1326 135.609 23.0168 135.609 21.7307C135.609 20.7088 135.862 19.7574 136.373 18.8648C136.883 17.978 137.653 17.2557 138.692 16.6978C139.726 16.1457 140.988 15.8638 142.474 15.8638C143.872 15.8638 145.093 16.0224 146.127 16.3454C147.161 16.6684 148.13 17.1793 149.034 17.8782L147.155 20.8087C146.632 20.3153 145.998 19.9219 145.252 19.6282C144.506 19.3346 143.831 19.1937 143.22 19.1937C142.463 19.1937 141.834 19.3698 141.341 19.7163C140.848 20.0687 140.595 20.5209 140.595 21.0729C140.566 21.7424 140.812 22.2475 141.341 22.5822C141.864 22.917 142.709 23.2752 143.878 23.651C144.371 23.7979 144.694 23.8977 144.841 23.9564C146.297 24.4204 147.437 25.0722 148.253 25.9003C149.069 26.7342 149.48 27.8207 149.48 29.1597C149.48 30.9684 148.829 32.4777 147.537 33.6875C146.239 34.8973 144.377 35.5022 141.957 35.5022C140.53 35.5022 139.18 35.2438 137.911 34.7387V34.7505Z" fill="white"/>
<path d="M167.222 35.0089C166.041 35.4024 164.855 35.602 163.657 35.602C161.613 35.602 159.816 35.2086 158.254 34.4216C156.692 33.6347 155.488 32.5071 154.643 31.0331C153.797 29.559 153.374 27.8324 153.374 25.8475C153.374 23.8625 153.826 22.1829 154.731 20.7088C155.635 19.2348 156.839 18.1072 158.342 17.3203C159.846 16.5333 161.455 16.1399 163.176 16.1399C166.094 16.1399 168.496 16.9268 170.393 18.5007L167.944 21.6954C167.392 21.2609 166.74 20.885 166 20.5796C165.255 20.2743 164.462 20.1216 163.616 20.1216C162.13 20.1216 160.868 20.6677 159.834 21.76C158.8 22.8524 158.284 24.2148 158.284 25.8475C158.284 27.4801 158.83 28.8425 159.922 29.9349C161.014 31.0272 162.406 31.5733 164.098 31.5733C165.554 31.5733 166.781 31.1681 167.774 30.346L170.223 33.4056C169.407 34.0751 168.408 34.6095 167.228 35.003L167.222 35.0089Z" fill="white"/>
<path d="M194.624 16.6155V35.1204H189.726V32.4542C189.057 33.2412 188.152 33.9635 187.013 34.6213C185.874 35.279 184.546 35.6079 183.031 35.6079C181.252 35.6079 179.66 35.2379 178.263 34.4921C176.865 33.7462 175.755 32.648 174.939 31.1916C174.122 29.7352 173.711 27.9675 173.711 25.9003C173.711 23.8331 174.134 22.1183 174.98 20.5855C175.825 19.0527 176.953 17.8723 178.368 17.0442C179.784 16.2103 181.334 15.7992 183.025 15.7992C186.026 15.7992 188.276 16.9092 189.761 19.1232L190.114 16.6273H194.618L194.624 16.6155ZM187.776 30.5456C188.692 29.8585 189.344 28.8895 189.72 27.6386V23.6158C189.368 22.4765 188.692 21.5604 187.688 20.8615C186.684 20.1626 185.521 19.8103 184.212 19.8103C182.667 19.8103 181.352 20.3564 180.277 21.4488C179.196 22.5411 178.656 23.9329 178.656 25.6243C178.656 26.7342 178.92 27.7384 179.443 28.6428C179.966 29.5472 180.67 30.2637 181.545 30.7864C182.42 31.3091 183.366 31.5733 184.388 31.5733C185.727 31.5733 186.86 31.2327 187.776 30.5456Z" fill="white"/>
<path d="M218.244 17.009C219.642 17.8253 220.74 18.994 221.527 20.5091C222.314 22.0243 222.707 23.792 222.707 25.8004C222.707 27.8089 222.279 29.5179 221.415 31.0037C220.552 32.4895 219.36 33.6288 217.827 34.4157C216.294 35.2027 214.568 35.5961 212.642 35.5961C211.414 35.5961 210.234 35.3495 209.1 34.8503C207.961 34.357 207.027 33.6816 206.299 32.836V43.9882H201.401V16.269H205.647L206.082 19.0233C207.045 18.0309 208.161 17.2439 209.429 16.6625C210.698 16.0811 212.078 15.7875 213.564 15.7875C215.284 15.7875 216.846 16.1986 218.244 17.0149V17.009ZM214.679 30.9391C215.595 30.4281 216.335 29.7352 216.887 28.8601C217.439 27.9851 217.721 26.9926 217.721 25.8827C217.721 24.162 217.175 22.7408 216.083 21.6191C214.991 20.4974 213.64 19.9336 212.037 19.9336C210.61 19.9336 209.406 20.286 208.425 20.9848C207.45 21.6837 206.739 22.6644 206.305 23.9153V27.6327C206.598 28.8308 207.233 29.8056 208.208 30.5632C209.182 31.3208 210.345 31.7025 211.684 31.7025C212.765 31.7025 213.763 31.45 214.679 30.9391Z" fill="white"/>
<path d="M240.948 29.9583L243.18 33.5877C242.187 34.1984 241.124 34.6859 239.985 35.0558C238.846 35.42 237.753 35.602 236.702 35.602C234.57 35.602 232.726 35.1792 231.17 34.3335C229.608 33.4878 228.416 32.3192 227.582 30.8334C226.748 29.3476 226.337 27.6386 226.337 25.7182C226.337 23.9094 226.801 22.2475 227.734 20.7323C228.668 19.2171 229.937 18.0132 231.54 17.1206C233.143 16.2338 234.893 15.7875 236.79 15.7875C239.298 15.7875 241.383 16.5216 243.045 17.9956C244.707 19.4697 245.816 21.5486 246.369 24.2266L232.11 29.0363C232.603 29.7939 233.261 30.3753 234.077 30.7864C234.893 31.1975 235.798 31.3971 236.79 31.3971C238.158 31.3971 239.544 30.9156 240.948 29.9525V29.9583ZM232.615 21.255C231.64 22.3356 231.146 23.7333 231.146 25.454C231.146 25.777 231.158 26.0236 231.188 26.1998L240.901 22.7466C240.519 21.8422 239.967 21.1023 239.239 20.515C238.511 19.9336 237.559 19.64 236.397 19.64C234.852 19.64 233.589 20.1803 232.615 21.2608V21.255Z" fill="white"/>
</g>
<defs>
<clipPath id="clip0_151_1346">
<rect width="246.368" height="43" fill="white"/>
</clipPath>
</defs>
</svg>
