<svg width="250" height="44" viewBox="0 0 250 44" fill="none" xmlns="http://www.w3.org/2000/svg">
<g clip-path="url(#clip0_151_1345)">
<path d="M13.2709 30.4915C13.1166 29.2958 12.5478 28.1915 11.6618 27.3721C11.0473 26.7811 10.2601 26.4035 9.41485 26.2924C9.1113 26.253 8.80652 26.2246 8.50298 26.195C7.63553 26.1259 6.84458 25.673 6.34607 24.9598C5.87965 24.3132 5.59708 23.5519 5.52675 22.7585C5.46011 22.0946 5.49343 21.4246 5.62546 20.7706C5.75996 20.0661 5.91913 19.3652 6.07214 18.6643C6.24119 17.9548 6.34237 17.2317 6.37569 16.5037C6.40037 15.9645 6.34607 15.4253 6.21651 14.9008C5.96109 13.8199 5.19112 12.934 4.15585 12.5317C3.57591 12.296 2.95278 12.1887 2.32841 12.217C2.0261 12.2059 1.72378 12.2454 1.43258 12.333C-1.40669 19.8575 0.881013 28.3543 7.11357 33.4344C8.50421 34.5721 10.8289 35.9467 11.7075 36.1552C11.742 36.1108 11.784 36.0639 11.8173 36.0121C12.285 35.2939 12.6588 34.5203 12.9291 33.7071C13.2906 32.6755 13.4078 31.5749 13.2696 30.4915" fill="#164347"/>
<path d="M13.2709 30.4915C13.1166 29.2958 12.5478 28.1915 11.6618 27.3721C11.0473 26.7811 10.2601 26.4035 9.41485 26.2924C9.1113 26.253 8.80652 26.2246 8.50298 26.195C7.63553 26.1259 6.84458 25.673 6.34607 24.9598C5.87965 24.3132 5.59708 23.5519 5.52675 22.7585C5.46011 22.0946 5.49343 21.4246 5.62546 20.7706C5.75996 20.0661 5.91913 19.3652 6.07214 18.6643C6.24119 17.9548 6.34237 17.2317 6.37569 16.5037C6.40037 15.9645 6.34607 15.4253 6.21651 14.9008C5.96109 13.8199 5.19112 12.934 4.15585 12.5317C3.57591 12.296 2.95278 12.1887 2.32841 12.217C2.0261 12.2059 1.72378 12.2454 1.43258 12.333C-1.40669 19.8575 0.881013 28.3543 7.11357 33.4344C8.50421 34.5721 10.8289 35.9467 11.7075 36.1552C11.742 36.1108 11.784 36.0639 11.8173 36.0121C12.285 35.2939 12.6588 34.5203 12.9291 33.7071C13.2906 32.6755 13.4078 31.5749 13.2696 30.4915" stroke="white" stroke-width="0.549529" stroke-miterlimit="10"/>
<path d="M12.6243 3.85479C12.6884 4.65561 12.7069 5.46013 12.6786 6.26342C12.6588 7.17159 12.6169 8.07976 12.6823 8.98916C12.7217 9.61106 12.8131 10.2293 12.9587 10.8363C13.1326 11.5779 13.4399 12.2825 13.8681 12.913C14.8626 14.3296 16.6123 15.0083 18.3016 14.6307C19.4392 14.4197 20.3894 13.6374 20.8126 12.5601C20.9385 12.2578 21.0421 11.9469 21.1248 11.631C21.2852 10.9733 21.3802 10.3021 21.4086 9.62587C21.4481 8.85466 21.4061 8.08222 21.2864 7.31966C21.168 6.61138 20.9965 5.91175 20.7756 5.22815C20.5683 4.54086 20.3511 3.85603 20.2055 3.15145C19.9982 2.27413 19.9871 1.36103 20.1747 0.47877C20.1833 0.420776 20.187 0.361547 20.1858 0.302319C18.7162 0.183862 17.2367 0.24926 15.7831 0.496045C14.527 0.707047 13.2992 1.06118 12.1233 1.54982C12.1492 1.62879 12.1677 1.68925 12.1887 1.74848C12.4219 2.42837 12.5675 3.13665 12.6243 3.85356" fill="#164347"/>
<path d="M12.6243 3.85479C12.6884 4.65561 12.7069 5.46013 12.6786 6.26342C12.6588 7.17159 12.6169 8.07976 12.6823 8.98916C12.7217 9.61106 12.8131 10.2293 12.9587 10.8363C13.1326 11.5779 13.4399 12.2825 13.8681 12.913C14.8626 14.3296 16.6123 15.0083 18.3016 14.6307C19.4392 14.4197 20.3894 13.6374 20.8126 12.5601C20.9385 12.2578 21.0421 11.9469 21.1248 11.631C21.2852 10.9733 21.3802 10.3021 21.4086 9.62587C21.4481 8.85466 21.4061 8.08222 21.2864 7.31966C21.168 6.61138 20.9965 5.91175 20.7756 5.22815C20.5683 4.54086 20.3511 3.85603 20.2055 3.15145C19.9982 2.27413 19.9871 1.36103 20.1747 0.47877C20.1833 0.420776 20.187 0.361547 20.1858 0.302319C18.7162 0.183862 17.2367 0.24926 15.7831 0.496045C14.527 0.707047 13.2992 1.06118 12.1233 1.54982C12.1492 1.62879 12.1677 1.68925 12.1887 1.74848C12.4219 2.42837 12.5675 3.13665 12.6243 3.85356" stroke="white" stroke-width="0.549529" stroke-miterlimit="10"/>
<path d="M29.4821 30.4644C28.3913 30.1522 27.2475 30.0794 26.1258 30.2497C25.1819 30.3965 24.2934 30.7926 23.5531 31.3972C22.7769 32.0401 22.1563 32.8495 21.7355 33.7639C21.2284 34.8818 20.9186 36.0775 20.8187 37.3003C20.8162 37.3706 20.8187 37.441 20.8249 37.5113C22.1131 37.4114 23.3853 37.1596 24.6155 36.7611C26.8131 36.0577 28.8627 34.9559 30.6605 33.5085C31.3367 32.9988 31.9499 32.4115 32.4892 31.7587C32.4497 31.7279 32.4077 31.6995 32.3645 31.6724C31.4551 31.1566 30.4865 30.7506 29.4809 30.4631" fill="#278791"/>
<path d="M5.76958 5.75129C5.87076 5.77597 5.97441 5.80188 6.07806 5.82162C6.72217 5.95859 7.32186 6.25226 7.82407 6.67797C8.251 7.04321 8.61378 7.47632 8.89882 7.96002C9.30725 8.66459 9.62313 9.41975 9.83783 10.2045C10.1327 11.2953 10.366 12.4022 10.5375 13.5201C10.6979 14.4357 10.8583 15.3512 11.0471 16.2606C11.2383 17.2256 11.5555 18.1609 11.991 19.0444C12.55 20.2043 13.4212 21.184 14.507 21.8762C16.1889 22.9374 18.2051 23.3347 20.1633 22.9905C21.3171 22.8042 22.4103 22.3488 23.3555 21.6628C25.7333 19.9279 27.1967 17.2095 27.3386 14.2703C27.3633 13.319 27.3349 12.3676 27.2535 11.4199C27.1634 10.3871 27.1733 9.34818 27.2819 8.31785C27.4028 7.28382 27.7816 6.29792 28.3813 5.44774C28.7564 4.92209 29.2031 4.45073 29.7078 4.0497C29.7892 3.98554 29.8669 3.91767 29.9644 3.835C28.232 2.56529 26.2922 1.60529 24.2316 0.998203C22.878 0.59841 20.9703 0.26525 20.4632 0.339286C20.4521 0.372602 20.436 0.40962 20.4249 0.449105C20.3052 0.910594 20.2571 1.38689 20.2793 1.86319C20.3065 2.50853 20.4114 3.14647 20.594 3.7659C20.7754 4.41741 20.9703 5.06399 21.1616 5.71304C21.4158 6.55334 21.5737 7.42079 21.6317 8.29688C21.6909 9.18407 21.649 10.0737 21.5071 10.9523C21.4108 11.6013 21.222 12.2331 20.9493 12.8291C20.5347 13.7237 19.7709 14.4085 18.8356 14.7207C18.3569 14.8934 17.851 14.9761 17.3426 14.965C15.9211 14.9687 14.5835 14.2901 13.7457 13.1413C13.4372 12.7242 13.1892 12.2652 13.0103 11.779C12.6697 10.8548 12.4797 9.88247 12.4439 8.89903C12.4167 8.36104 12.4241 7.82182 12.4254 7.28259C12.4254 6.54347 12.439 5.80311 12.4439 5.06276C12.4476 4.44949 12.4032 3.83747 12.3106 3.23038C12.2415 2.74914 12.1255 2.27532 11.9639 1.81753C11.933 1.74843 11.8973 1.68303 11.8565 1.61887C9.64287 2.52087 7.6254 3.8424 5.91271 5.50944C5.84732 5.57237 5.76094 5.62543 5.74243 5.72291C5.756 5.73648 5.76094 5.74759 5.76834 5.75005" fill="#356A72"/>
<path d="M5.76958 5.75129C5.87076 5.77597 5.97441 5.80188 6.07806 5.82162C6.72217 5.95859 7.32186 6.25226 7.82407 6.67797C8.251 7.04321 8.61378 7.47632 8.89882 7.96002C9.30725 8.66459 9.62313 9.41975 9.83783 10.2045C10.1327 11.2953 10.366 12.4022 10.5375 13.5201C10.6979 14.4357 10.8583 15.3512 11.0471 16.2606C11.2383 17.2256 11.5555 18.1609 11.991 19.0444C12.55 20.2043 13.4212 21.184 14.507 21.8762C16.1889 22.9374 18.2051 23.3347 20.1633 22.9905C21.3171 22.8042 22.4103 22.3488 23.3555 21.6628C25.7333 19.9279 27.1967 17.2095 27.3386 14.2703C27.3633 13.319 27.3349 12.3676 27.2535 11.4199C27.1634 10.3871 27.1733 9.34818 27.2819 8.31785C27.4028 7.28382 27.7816 6.29792 28.3813 5.44774C28.7564 4.92209 29.2031 4.45073 29.7078 4.0497C29.7892 3.98554 29.8669 3.91767 29.9644 3.835C28.232 2.56529 26.2922 1.60529 24.2316 0.998203C22.878 0.59841 20.9703 0.26525 20.4632 0.339286C20.4521 0.372602 20.436 0.40962 20.4249 0.449105C20.3052 0.910594 20.2571 1.38689 20.2793 1.86319C20.3065 2.50853 20.4113 3.14647 20.594 3.7659C20.7754 4.41741 20.9703 5.06399 21.1616 5.71304C21.4158 6.55334 21.5737 7.42079 21.6317 8.29688C21.6909 9.18407 21.649 10.0737 21.5071 10.9523C21.4108 11.6013 21.222 12.2331 20.9493 12.8291C20.5347 13.7237 19.7709 14.4085 18.8356 14.7207C18.3569 14.8934 17.851 14.9761 17.3426 14.965C15.9211 14.9687 14.5835 14.2901 13.7457 13.1413C13.4372 12.7242 13.1892 12.2652 13.0103 11.779C12.6697 10.8548 12.4797 9.88247 12.4439 8.89903C12.4167 8.36104 12.4241 7.82182 12.4254 7.28259C12.4254 6.54347 12.439 5.80311 12.4439 5.06276C12.4476 4.44949 12.4032 3.83747 12.3106 3.23038C12.2415 2.74914 12.1255 2.27532 11.9639 1.81753C11.933 1.74843 11.8973 1.68303 11.8565 1.61887C9.64287 2.52087 7.6254 3.8424 5.91271 5.50944C5.84732 5.57237 5.76094 5.62543 5.74243 5.72291C5.756 5.73648 5.76094 5.74759 5.76834 5.75005" stroke="white" stroke-width="0.549529" stroke-miterlimit="10"/>
<path d="M32.8469 13.7471C32.3509 15.1316 32.0523 16.579 31.961 18.0461C31.9264 18.647 31.8894 19.248 31.845 19.8489C31.8067 20.3968 31.7228 20.9409 31.592 21.4752C31.3082 22.6956 30.5395 23.7481 29.4635 24.391C29.0304 24.655 28.5701 24.8734 28.0914 25.0413C27.2795 25.3127 26.4441 25.5064 25.5951 25.62C24.7919 25.7446 23.9849 25.8519 23.1853 26C18.1792 26.9144 14.6231 31.391 14.8637 36.4748C14.8649 36.7204 14.8933 36.9647 14.9476 37.2028C15.4424 37.3188 15.9434 37.4077 16.448 37.4718C17.2118 37.578 17.9831 37.631 18.7543 37.631C19.2503 37.631 19.7476 37.61 20.2436 37.594C20.3497 37.6039 20.4558 37.5804 20.5472 37.5261C20.5546 37.4755 20.5607 37.4361 20.5657 37.3953C20.6409 36.5957 20.7878 35.8048 21.0037 35.0311C21.2961 33.9687 21.8045 32.9766 22.4968 32.1178C23.5974 30.7408 25.2607 29.935 27.024 29.9251C27.9976 29.9017 28.9687 30.0424 29.8954 30.3422C30.7604 30.6223 31.5957 30.9851 32.3916 31.4244C32.4903 31.4922 32.6001 31.5428 32.7161 31.5712C33.9895 30.1843 35.047 28.6122 35.8515 26.9094C36.8732 24.755 37.468 22.4229 37.6012 20.0426C37.7444 17.6414 37.4236 15.234 36.6548 12.9537C36.2624 11.7506 35.7244 10.5994 35.052 9.5271C34.968 9.64185 34.9002 9.7344 34.8335 9.83065C34.0006 11.0424 33.3319 12.359 32.8445 13.7471" fill="#164347"/>
<path d="M32.8469 13.7471C32.3509 15.1316 32.0523 16.579 31.961 18.0461C31.9264 18.647 31.8894 19.248 31.845 19.8489C31.8067 20.3968 31.7228 20.9409 31.592 21.4752C31.3082 22.6956 30.5395 23.7481 29.4635 24.391C29.0304 24.655 28.5701 24.8734 28.0914 25.0413C27.2795 25.3127 26.4441 25.5064 25.5951 25.62C24.7919 25.7446 23.9849 25.8519 23.1853 26C18.1792 26.9144 14.6231 31.391 14.8637 36.4748C14.8649 36.7204 14.8933 36.9647 14.9476 37.2028C15.4424 37.3188 15.9434 37.4077 16.448 37.4718C17.2118 37.578 17.9831 37.631 18.7543 37.631C19.2503 37.631 19.7476 37.61 20.2436 37.594C20.3497 37.6039 20.4558 37.5804 20.5472 37.5261C20.5546 37.4755 20.5607 37.436 20.5657 37.3953C20.6409 36.5957 20.7878 35.8048 21.0037 35.0311C21.2961 33.9687 21.8045 32.9766 22.4968 32.1178C23.5974 30.7408 25.2607 29.935 27.024 29.9251C27.9976 29.9017 28.9687 30.0424 29.8954 30.3422C30.7604 30.6223 31.5957 30.9851 32.3916 31.4244C32.4903 31.4922 32.6001 31.5428 32.7161 31.5712C33.9895 30.1843 35.047 28.6122 35.8515 26.9094C36.8732 24.755 37.468 22.4229 37.6012 20.0426C37.7444 17.6414 37.4236 15.234 36.6548 12.9537C36.2624 11.7506 35.7244 10.5994 35.052 9.5271C34.968 9.64185 34.9002 9.7344 34.8335 9.83065C34.0006 11.0424 33.3319 12.359 32.8445 13.7471" stroke="white" stroke-width="0.549529" stroke-miterlimit="10"/>
<path d="M30.1731 3.99048C30.0028 4.12374 29.8412 4.24097 29.6894 4.37053C28.7195 5.17011 28.0211 6.2498 27.6892 7.46151C27.5275 8.10809 27.4387 8.77071 27.4264 9.43703C27.3992 10.1465 27.4584 10.8523 27.4918 11.5594C27.5201 12.1504 27.567 12.7415 27.5843 13.3325C27.6324 14.5393 27.4646 15.7449 27.0883 16.8924C26.4553 18.8827 25.1991 20.6176 23.5062 21.8417C22.3093 22.7091 20.8927 23.2237 19.417 23.3249C18.3385 23.4125 17.2539 23.2842 16.2248 22.9485C14.4442 22.4068 12.9376 21.205 12.0159 19.5873C11.6938 19.0172 11.4285 18.4151 11.2249 17.7919C10.893 16.7332 10.6413 15.6511 10.471 14.5554C10.3032 13.5978 10.1428 12.6403 9.95767 11.6865C9.80219 10.8548 9.57022 10.0404 9.26544 9.25194C9.06677 8.72752 8.80642 8.22902 8.49053 7.76629C8.10061 7.18388 7.57126 6.70758 6.94936 6.38183C6.4928 6.14615 5.99306 6.00671 5.47975 5.97093C4.30999 7.1592 3.31051 8.50541 2.51092 9.96885C2.12594 10.6179 1.81746 11.3089 1.59412 12.0295C1.66939 12.0258 1.74095 12.027 1.81129 12.0184C2.61087 11.9111 3.42526 12.0061 4.17796 12.2973C5.27122 12.6971 6.10288 13.6028 6.40766 14.7269C6.53106 15.1538 6.59892 15.5943 6.61003 16.0385C6.62113 16.9159 6.52242 17.7919 6.31388 18.6446C6.1325 19.459 5.92273 20.266 5.80674 21.0952C5.70556 21.701 5.69692 22.318 5.77959 22.9263C5.87708 23.6297 6.14607 24.2972 6.56437 24.8722C6.99501 25.4744 7.66257 25.8643 8.39799 25.9445C8.72251 25.984 9.04827 26.0198 9.37402 26.0543C10.0626 26.1234 10.7202 26.3714 11.2829 26.7737C12.5304 27.6486 13.3423 29.0182 13.5126 30.5322C13.6187 31.3948 13.5607 32.2696 13.3411 33.1099C13.0857 34.1254 12.6723 35.0953 12.1158 35.9837C12.0615 36.0713 12.0097 36.1614 11.9579 36.249C12.8154 36.6476 13.7199 36.9388 14.6503 37.1152C14.67 36.9388 14.6663 36.7599 14.6404 36.5834C14.5713 35.5161 14.6737 34.445 14.9415 33.4097C15.8743 29.7376 18.7408 26.8699 22.4129 25.9346C23.215 25.7471 24.0269 25.6002 24.845 25.4966C25.5878 25.388 26.3294 25.2831 27.0599 25.1067C27.8545 24.924 28.6146 24.6193 29.3155 24.2022C30.3236 23.6148 31.0541 22.6474 31.3416 21.5172C31.465 21.0581 31.5464 20.588 31.5872 20.1142C31.6415 19.4713 31.6809 18.8284 31.7155 18.1843C31.7611 17.3194 31.8796 16.4581 32.0696 15.6128C32.5583 13.4201 33.4775 11.3459 34.7744 9.51107C34.8287 9.43456 34.8756 9.35559 34.9385 9.26181C33.7021 7.2172 32.0844 5.428 30.1731 3.99295" fill="#416E46"/>
<path d="M30.1731 3.99048C30.0028 4.12374 29.8412 4.24097 29.6894 4.37053C28.7195 5.17011 28.0211 6.2498 27.6892 7.46151C27.5275 8.10809 27.4387 8.77071 27.4264 9.43703C27.3992 10.1465 27.4584 10.8523 27.4918 11.5594C27.5201 12.1504 27.567 12.7415 27.5843 13.3325C27.6324 14.5393 27.4646 15.7449 27.0883 16.8924C26.4553 18.8827 25.1991 20.6176 23.5062 21.8417C22.3093 22.7091 20.8927 23.2237 19.4169 23.3249C18.3385 23.4125 17.2539 23.2842 16.2248 22.9485C14.4442 22.4068 12.9376 21.205 12.0159 19.5873C11.6938 19.0172 11.4285 18.4151 11.2249 17.7919C10.893 16.7332 10.6413 15.6511 10.471 14.5554C10.3032 13.5978 10.1428 12.6403 9.95767 11.6865C9.80219 10.8548 9.57022 10.0404 9.26544 9.25194C9.06677 8.72752 8.80642 8.22902 8.49053 7.76629C8.10061 7.18388 7.57126 6.70758 6.94936 6.38183C6.4928 6.14615 5.99306 6.00671 5.47975 5.97093C4.30999 7.1592 3.31051 8.50541 2.51092 9.96885C2.12594 10.6179 1.81746 11.3089 1.59412 12.0295C1.66939 12.0258 1.74095 12.027 1.81129 12.0184C2.61087 11.9111 3.42526 12.0061 4.17796 12.2973C5.27122 12.6971 6.10288 13.6028 6.40766 14.7269C6.53106 15.1538 6.59892 15.5943 6.61003 16.0385C6.62113 16.9159 6.52242 17.7919 6.31388 18.6446C6.1325 19.459 5.92273 20.266 5.80674 21.0952C5.70556 21.701 5.69692 22.318 5.77959 22.9263C5.87708 23.6297 6.14607 24.2972 6.56437 24.8722C6.99501 25.4744 7.66257 25.8643 8.39799 25.9445C8.72251 25.984 9.04827 26.0198 9.37402 26.0543C10.0626 26.1234 10.7202 26.3714 11.2829 26.7737C12.5304 27.6486 13.3423 29.0182 13.5126 30.5322C13.6187 31.3948 13.5607 32.2696 13.3411 33.1099C13.0857 34.1254 12.6723 35.0953 12.1158 35.9837C12.0615 36.0713 12.0097 36.1614 11.9579 36.249C12.8154 36.6476 13.7199 36.9388 14.6503 37.1152C14.67 36.9388 14.6663 36.7599 14.6404 36.5834C14.5713 35.5161 14.6737 34.445 14.9415 33.4098C15.8743 29.7376 18.7408 26.8699 22.4129 25.9346C23.215 25.7471 24.0269 25.6002 24.845 25.4966C25.5878 25.388 26.3294 25.2831 27.0599 25.1067C27.8545 24.924 28.6146 24.6193 29.3155 24.2022C30.3236 23.6148 31.0541 22.6474 31.3416 21.5172C31.465 21.0581 31.5464 20.588 31.5872 20.1142C31.6415 19.4713 31.6809 18.8284 31.7155 18.1843C31.7611 17.3194 31.8796 16.4581 32.0696 15.6128C32.5583 13.4201 33.4775 11.3459 34.7744 9.51107C34.8287 9.43456 34.8756 9.35559 34.9385 9.26181C33.7021 7.2172 32.0844 5.428 30.1731 3.99295" stroke="white" stroke-width="0.549529" stroke-miterlimit="10"/>
<path d="M18.9383 0.00262505C8.48078 0.000157197 0.00246839 8.476 5.38774e-07 18.9323C-0.00246731 29.3898 8.47337 37.8681 18.9309 37.8694C29.3798 37.8718 37.8556 29.4071 37.868 18.9582C37.8778 8.49944 29.4069 0.0112625 18.9469 0.00262505C18.9445 0.00262505 18.9408 0.00262505 18.9383 0.00262505ZM15.7832 0.498664C17.2367 0.251878 18.7162 0.187714 20.1858 0.306171C20.187 0.365399 20.1833 0.424628 20.1747 0.482622C19.9871 1.36488 19.9982 2.27799 20.2055 3.15531C20.3499 3.85988 20.5671 4.54471 20.7756 5.23201C20.9977 5.9156 21.168 6.614 21.2865 7.32351C21.4074 8.08608 21.4481 8.85852 21.4099 9.62849C21.3815 10.3047 21.2865 10.9759 21.1261 11.6336C21.0434 11.9507 20.9397 12.2605 20.8139 12.5628C20.3894 13.64 19.4405 14.4223 18.3028 14.6321C16.6136 15.0096 14.8639 14.331 13.8693 12.9144C13.4424 12.2839 13.1339 11.5793 12.9599 10.8377C12.8156 10.2306 12.723 9.61368 12.6835 8.99055C12.6181 8.08114 12.6601 7.17297 12.6798 6.2648C12.707 5.46152 12.6885 4.65823 12.6255 3.85618C12.57 3.13927 12.4232 2.43223 12.19 1.7511C12.169 1.69187 12.1505 1.63141 12.1246 1.55244C13.3005 1.06257 14.5283 0.708431 15.7832 0.496196M5.91421 5.51334C7.62567 3.84631 9.64314 2.52477 11.8568 1.62277C11.8975 1.6857 11.9333 1.75233 11.9642 1.82143C12.127 2.27922 12.243 2.75181 12.3134 3.23181C12.4059 3.83767 12.4503 4.45093 12.4466 5.06419C12.4417 5.80331 12.4293 6.54367 12.4281 7.28403C12.4281 7.82325 12.4195 8.36248 12.4466 8.90047C12.4812 9.88391 12.6724 10.8562 13.013 11.7805C13.1919 12.2666 13.4399 12.7256 13.7484 13.1427C14.5862 14.2915 15.9238 14.9702 17.3453 14.9665C17.8537 14.9776 18.3596 14.8949 18.8384 14.7221C19.7737 14.41 20.5387 13.7251 20.9521 12.8305C21.2248 12.2345 21.4123 11.6015 21.5098 10.9537C21.6517 10.0764 21.6937 9.18551 21.6344 8.29832C21.5764 7.42223 21.4185 6.55478 21.1643 5.71447C20.9743 5.06543 20.7781 4.41885 20.5967 3.76734C20.4153 3.1479 20.3092 2.50873 20.282 1.86462C20.2598 1.38832 20.3092 0.912029 20.4277 0.45054C20.4388 0.411055 20.4548 0.372803 20.4659 0.339487C20.973 0.262984 22.8807 0.596144 24.2343 0.998404C26.295 1.6055 28.2347 2.56549 29.9671 3.8352C29.8684 3.91787 29.7919 3.98697 29.7105 4.0499C29.2046 4.45216 28.7579 4.92229 28.384 5.44794C27.7831 6.29812 27.4055 7.28526 27.2846 8.31806C27.1748 9.34839 27.1661 10.3874 27.2562 11.4201C27.3364 12.3678 27.3648 13.3204 27.3413 14.2705C27.1994 17.2097 25.736 19.9268 23.3595 21.6617C22.4143 22.349 21.321 22.8031 20.1673 22.9894C18.2091 23.3337 16.1928 22.9364 14.511 21.8752C13.4251 21.1842 12.554 20.2032 11.995 19.0433C11.5607 18.1611 11.2435 17.2245 11.051 16.2596C10.8623 15.3477 10.7018 14.4359 10.5414 13.5191C10.3699 12.4024 10.1355 11.2955 9.8418 10.2035C9.6271 9.41749 9.31121 8.66356 8.90278 7.95898C8.61774 7.47529 8.25497 7.04218 7.82803 6.67693C7.32582 6.25123 6.72613 5.95632 6.08202 5.82059C5.98084 5.79838 5.87596 5.7737 5.77354 5.75026C5.76614 5.75026 5.7612 5.73792 5.74763 5.72311C5.76614 5.62563 5.85251 5.57134 5.91791 5.50964M11.71 36.1554C10.8314 35.9457 8.50669 34.5711 7.11605 33.4346C0.889661 28.3496 -1.39557 19.859 1.43382 12.3345C1.7238 12.2469 2.02611 12.2074 2.32842 12.2185C2.95279 12.1914 3.57715 12.2987 4.15586 12.5332C5.19113 12.9354 5.96233 13.8214 6.21652 14.9023C6.34608 15.4255 6.40038 15.9659 6.3757 16.5052C6.34238 17.2332 6.2412 17.9575 6.07215 18.6658C5.92038 19.3666 5.75997 20.0675 5.62547 20.7721C5.49467 21.4261 5.46136 22.0961 5.52676 22.7599C5.59709 23.5533 5.88089 24.3134 6.34608 24.96C6.84459 25.672 7.6343 26.1249 8.50052 26.1952C8.80407 26.2248 9.10885 26.2532 9.41239 26.2927C10.2576 26.4037 11.0449 26.7825 11.6594 27.3724C12.5441 28.1917 13.1142 29.296 13.2684 30.4917C13.4066 31.5751 13.2894 32.677 12.9278 33.7073C12.6576 34.5205 12.2837 35.2954 11.8161 36.0123C11.7828 36.0629 11.7408 36.111 11.7063 36.1554M30.6544 33.5074C28.8566 34.9536 26.8071 36.0567 24.6094 36.7601C23.3817 37.1586 22.1107 37.4103 20.8225 37.5115C20.8151 37.4412 20.8126 37.3709 20.8163 37.3005C20.9163 36.0777 21.2272 34.8808 21.7344 33.7629C22.1551 32.8473 22.777 32.0391 23.552 31.3962C24.2923 30.7928 25.1795 30.3955 26.1235 30.2486C27.2439 30.0784 28.3889 30.1512 29.4785 30.4633C30.4842 30.7508 31.4528 31.1568 32.3622 31.6726C32.4054 31.6985 32.4461 31.7281 32.4868 31.759C31.9476 32.4117 31.3343 32.9991 30.6581 33.5087M36.6575 12.9552C37.425 15.2354 37.7458 17.6416 37.6039 20.0441C37.4706 22.4243 36.8759 24.7564 35.8542 26.9096C35.0497 28.6124 33.9922 30.1832 32.7188 31.5714C32.6028 31.5418 32.493 31.4924 32.3943 31.4246C31.5984 30.9853 30.763 30.6225 29.898 30.3424C28.9714 30.0438 28.0003 29.9031 27.0267 29.9253C25.2634 29.934 23.5976 30.741 22.4969 32.1193C21.8047 32.9781 21.2963 33.9689 21.0039 35.0326C20.788 35.8062 20.6411 36.5972 20.5659 37.3968C20.5609 37.4387 20.5547 37.4794 20.5473 37.5276C20.456 37.5819 20.3487 37.6053 20.2438 37.5954C19.7478 37.6115 19.2505 37.6312 18.7544 37.6325C17.9832 37.6325 17.212 37.5794 16.447 37.4733C15.9423 37.4091 15.4414 37.3203 14.9466 37.2043C14.8923 36.9649 14.8639 36.7206 14.8626 36.4763C14.622 31.3925 18.1819 26.9146 23.1892 26.0027C23.9888 25.8559 24.7957 25.7497 25.599 25.6226C26.448 25.5091 27.2833 25.3154 28.0953 25.0439C28.574 24.8749 29.0343 24.6577 29.4674 24.3937C30.5434 23.7508 31.3109 22.6982 31.5959 21.4779C31.7267 20.9436 31.8119 20.3994 31.8489 19.8516C31.8933 19.2506 31.9303 18.6497 31.9649 18.0488C32.0562 16.5817 32.3536 15.1343 32.8508 13.7498C33.3382 12.3616 34.007 11.045 34.8399 9.83332C34.9053 9.73831 34.9756 9.64576 35.0583 9.52977C35.7296 10.6033 36.2676 11.7533 36.6612 12.9576M34.7782 9.5125C33.4814 11.3473 32.5633 13.4216 32.0747 15.6155C31.8847 16.4607 31.7662 17.3208 31.7205 18.187C31.686 18.8299 31.6465 19.474 31.5922 20.1169C31.5515 20.5907 31.4688 21.0608 31.3467 21.5198C31.0592 22.6501 30.3287 23.6187 29.3206 24.2049C28.6197 24.6207 27.8596 24.9255 27.0649 25.1093C26.3357 25.2858 25.5929 25.3907 24.85 25.4993C24.0319 25.6041 23.2213 25.7497 22.418 25.9373C18.7446 26.8714 15.8769 29.7415 14.9453 33.4149C14.6776 34.4502 14.5751 35.5212 14.6442 36.5886C14.6714 36.765 14.6739 36.9427 14.6541 37.1204C13.725 36.9439 12.8205 36.6539 11.9617 36.2554C12.0123 36.1678 12.0666 36.0777 12.1196 35.9901C12.6761 35.1017 13.0895 34.133 13.3449 33.1163C13.5646 32.276 13.6225 31.4011 13.5164 30.5386C13.3461 29.0246 12.5342 27.6562 11.2867 26.7801C10.7253 26.3778 10.0688 26.1298 9.38154 26.0595C9.05579 26.0261 8.73003 25.9891 8.40551 25.9496C7.67009 25.8682 7.00253 25.4783 6.57189 24.8761C6.15236 24.3011 5.88213 23.6323 5.78341 22.9277C5.70074 22.3194 5.70938 21.7025 5.81056 21.0966C5.92531 20.2686 6.13632 19.4604 6.3177 18.646C6.525 17.7934 6.62495 16.9173 6.61385 16.04C6.60274 15.5958 6.53364 15.1552 6.41148 14.7283C6.10794 13.6042 5.27627 12.6985 4.18178 12.2987C3.42908 12.0075 2.61469 11.9113 1.81511 12.0198C1.74477 12.0285 1.6732 12.0272 1.59794 12.0309C1.82374 11.3116 2.13223 10.6206 2.51844 9.97275C3.31803 8.50932 4.31751 7.16434 5.48727 5.97483C5.99935 6.01061 6.50032 6.15005 6.95688 6.38573C7.57754 6.71148 8.1069 7.18778 8.49805 7.77019C8.81394 8.23292 9.0743 8.73142 9.27296 9.25584C9.57774 10.0443 9.80972 10.8599 9.96519 11.6904C10.149 12.6442 10.3107 13.603 10.4785 14.5593C10.6488 15.655 10.9017 16.7371 11.2324 17.7958C11.436 18.419 11.7001 19.0199 12.0234 19.5912C12.9451 21.2077 14.4517 22.4107 16.2323 22.9524C17.2614 23.2881 18.346 23.4164 19.4245 23.3288C20.9002 23.2264 22.318 22.7118 23.5149 21.8431C25.2079 20.6191 26.464 18.8842 27.097 16.8938C27.4734 15.7463 27.64 14.5407 27.5918 13.334C27.5746 12.7429 27.5264 12.1519 27.4993 11.5608C27.466 10.8513 27.4067 10.1467 27.4339 9.43846C27.4462 8.77214 27.5351 8.10952 27.6967 7.46295C28.0299 6.25123 28.7283 5.17154 29.6969 4.37196C29.8487 4.2424 30.0103 4.12517 30.1806 3.99191C32.092 5.42697 33.7096 7.21616 34.946 9.26078C34.8856 9.35332 34.8362 9.43229 34.7819 9.51003" fill="white"/>
<path d="M19.0011 37.7458C29.3541 37.7458 37.7469 29.353 37.7469 19C37.7469 8.64694 29.3541 0.25415 19.0011 0.25415C8.64804 0.25415 0.255249 8.64694 0.255249 19C0.255249 29.353 8.64804 37.7458 19.0011 37.7458Z" stroke="white" stroke-width="0.549529"/>
<path d="M65.7866 5.06877C67.8617 6.90722 68.8992 9.45698 68.8992 12.718C68.8992 14.5859 68.5289 16.3268 67.7881 17.9433C67.0461 19.5597 65.8534 20.8781 64.2088 21.9009C62.5629 22.9238 60.4517 23.4345 57.8726 23.4345H53.2036V34.6845H48.0011V2.31177H57.1612C60.8368 2.31177 63.7128 3.23032 65.7879 5.06877H65.7866ZM61.3168 17.5421C62.1912 16.9351 62.813 16.1944 63.1847 15.3186C63.555 14.4442 63.7409 13.6072 63.7409 12.8063C63.7409 11.4425 63.3037 10.183 62.4292 9.02645C61.5548 7.8699 60.08 7.29229 58.0049 7.29229H53.2022V18.454H57.8712C59.2938 18.454 60.4424 18.1505 61.3168 17.5421Z" fill="black"/>
<path d="M79.1265 0V34.6858H74.146V0H79.1265Z" fill="black"/>
<path d="M105.674 15.8748V34.6845H100.693V31.9716C100.011 32.7725 99.0926 33.5065 97.9361 34.1724C96.7795 34.8396 95.4304 35.1725 93.8888 35.1725C92.0798 35.1725 90.4646 34.7941 89.042 34.0387C87.6194 33.2832 86.4922 32.1641 85.6619 30.6813C84.8316 29.1999 84.4171 27.4055 84.4171 25.301C84.4171 23.1965 84.8463 21.4543 85.7074 19.898C86.5671 18.3417 87.7156 17.141 89.153 16.296C90.5903 15.451 92.1693 15.0284 93.8888 15.0284C96.9426 15.0284 99.225 16.1556 100.737 18.4072L101.093 15.8735H105.674V15.8748ZM98.7142 30.0382C99.6488 29.3429 100.308 28.3562 100.693 27.082V22.9906C100.337 21.834 99.6475 20.9008 98.626 20.1881C97.6031 19.4768 96.4252 19.1212 95.0908 19.1212C93.5198 19.1212 92.1854 19.676 91.089 20.7885C89.9926 21.9009 89.4444 23.3168 89.4444 25.0349C89.4444 26.1621 89.7105 27.1849 90.2453 28.1035C90.7788 29.0234 91.4901 29.7494 92.3793 30.2829C93.2684 30.8164 94.2324 31.0838 95.27 31.0838C96.6324 31.0838 97.7823 30.7348 98.7156 30.0382H98.7142Z" fill="black"/>
<path d="M129.22 16.653C130.392 17.7066 130.992 19.0623 131.021 20.7216V34.6845H126.041V22.4999C125.981 21.5225 125.692 20.751 125.174 20.1881C124.656 19.6252 123.877 19.3284 122.84 19.299C121.298 19.299 120.031 19.9595 119.037 21.2778C118.044 22.5975 117.548 24.2795 117.548 26.3252V34.6845H112.567V15.8748H117.058L117.414 19.2094C118.096 17.9058 119.081 16.8896 120.372 16.1636C121.661 15.4376 123.151 15.0739 124.84 15.0739C126.529 15.0739 128.049 15.6007 129.22 16.6516V16.653Z" fill="black"/>
<path d="M139.402 34.3074C138.112 33.7886 137.052 33.0559 136.223 32.1066L138.312 29.3055C139.884 30.8471 141.484 31.6173 143.115 31.6173C144.004 31.6173 144.738 31.4461 145.316 31.1052C145.894 30.7642 146.182 30.2535 146.182 29.5702C146.182 28.887 145.886 28.3255 145.293 27.9698C144.7 27.6141 144.04 27.3253 143.314 27.1034C142.587 26.8814 142.12 26.741 141.913 26.6809C140.282 26.1768 139.067 25.4441 138.267 24.4801C137.466 23.5174 137.066 22.3836 137.066 21.0786C137.066 20.0411 137.326 19.0704 137.845 18.1652C138.363 17.2613 139.149 16.5273 140.202 15.9644C141.254 15.4015 142.536 15.1194 144.048 15.1194C145.471 15.1194 146.709 15.2825 147.761 15.6087C148.814 15.935 149.799 16.4538 150.719 17.1651L148.807 20.144C148.274 19.64 147.629 19.2402 146.872 18.9434C146.117 18.6479 145.427 18.4981 144.804 18.4981C144.032 18.4981 143.396 18.6759 142.892 19.0316C142.388 19.3873 142.136 19.8472 142.136 20.4101C142.107 21.092 142.358 21.6041 142.892 21.945C143.425 22.286 144.285 22.6497 145.471 23.0347C145.975 23.1831 146.301 23.2861 146.45 23.3463C147.931 23.8209 149.088 24.4801 149.918 25.3251C150.748 26.1701 151.163 27.2745 151.163 28.6383C151.163 30.4768 150.502 32.0104 149.184 33.2405C147.864 34.4719 145.975 35.0856 143.514 35.0856C142.06 35.0856 140.69 34.8262 139.401 34.3074H139.402Z" fill="black"/>
<path d="M169.196 34.5748C167.995 34.9746 166.786 35.1752 165.571 35.1752C163.494 35.1752 161.664 34.7754 160.08 33.9745C158.494 33.1736 157.27 32.0251 156.411 30.5289C155.551 29.0314 155.12 27.2759 155.12 25.2596C155.12 23.2433 155.58 21.5319 156.499 20.0344C157.418 18.5369 158.641 17.3884 160.168 16.5888C161.695 15.7879 163.331 15.3881 165.082 15.3881C168.046 15.3881 170.491 16.189 172.419 17.7895L169.928 21.0358C169.365 20.5919 168.706 20.2135 167.95 19.902C167.194 19.5905 166.385 19.4354 165.527 19.4354C164.013 19.4354 162.731 19.9916 161.68 21.1027C160.628 22.2138 160.101 23.6003 160.101 25.2609C160.101 26.9215 160.657 28.3067 161.768 29.4192C162.879 30.5316 164.295 31.0865 166.015 31.0865C167.496 31.0865 168.741 30.672 169.749 29.8417L172.24 32.9543C171.408 33.6362 170.395 34.1777 169.194 34.5775L169.196 34.5748Z" fill="black"/>
<path d="M197.056 15.8748V34.6845H192.075V31.9716C191.393 32.7725 190.475 33.5065 189.318 34.1724C188.162 34.8396 186.813 35.1725 185.271 35.1725C183.462 35.1725 181.847 34.7941 180.424 34.0387C179.002 33.2832 177.874 32.1641 177.044 30.6813C176.214 29.1999 175.799 27.4055 175.799 25.301C175.799 23.1965 176.229 21.4543 177.088 19.898C177.948 18.3417 179.096 17.141 180.534 16.296C181.971 15.451 183.55 15.0284 185.27 15.0284C188.322 15.0284 190.606 16.1556 192.118 18.4072L192.474 15.8735H197.054L197.056 15.8748ZM190.096 30.0382C191.031 29.3429 191.69 28.3562 192.075 27.082V22.9906C191.72 21.834 191.03 20.9008 190.007 20.1881C188.984 19.4768 187.806 19.1212 186.472 19.1212C184.901 19.1212 183.566 19.676 182.47 20.7885C181.373 21.9009 180.824 23.3168 180.824 25.0349C180.824 26.1621 181.091 27.1849 181.625 28.1035C182.158 29.0234 182.87 29.7494 183.76 30.2829C184.649 30.8164 185.612 31.0838 186.651 31.0838C188.015 31.0838 189.163 30.7348 190.096 30.0382Z" fill="black"/>
<path d="M221.068 16.2746C222.491 17.105 223.603 18.2909 224.403 19.8325C225.203 21.3742 225.603 23.1672 225.603 25.2128C225.603 27.2585 225.166 28.9927 224.292 30.5049C223.417 32.0171 222.202 33.1737 220.645 33.9732C219.089 34.7741 217.332 35.1739 215.376 35.1739C214.131 35.1739 212.931 34.9225 211.774 34.4185C210.618 33.9144 209.668 33.2325 208.928 32.3728V43.7123H203.947V15.5192H208.26L208.706 18.3217C209.683 17.3135 210.818 16.514 212.107 15.9203C213.396 15.328 214.797 15.0312 216.309 15.0312C218.058 15.0312 219.644 15.447 221.068 16.276V16.2746ZM217.443 30.438C218.378 29.9193 219.125 29.2146 219.689 28.3255C220.252 27.4364 220.534 26.4282 220.534 25.3011C220.534 23.5522 219.978 22.1069 218.867 20.965C217.756 19.8245 216.384 19.2523 214.754 19.2523C213.301 19.2523 212.079 19.6079 211.086 20.3192C210.092 21.0305 209.374 22.024 208.929 23.2982V27.078C209.226 28.2934 209.87 29.2868 210.864 30.057C211.857 30.8285 213.035 31.2135 214.399 31.2135C215.495 31.2135 216.51 30.9541 217.445 30.4354L217.443 30.438Z" fill="black"/>
<path d="M244.147 29.4379L246.414 33.1281C245.406 33.7512 244.325 34.2472 243.168 34.6176C242.012 34.988 240.9 35.1725 239.833 35.1725C237.669 35.1725 235.794 34.742 234.208 33.8836C232.623 33.0238 231.406 31.8379 230.562 30.3257C229.717 28.8135 229.295 27.0793 229.295 25.1232C229.295 23.2847 229.768 21.596 230.717 20.0531C231.665 18.5128 232.956 17.2894 234.586 16.3856C236.215 15.4817 237.994 15.0298 239.922 15.0298C242.471 15.0298 244.591 15.7785 246.281 17.2747C247.971 18.7722 249.097 20.8847 249.661 23.6123L235.164 28.5046C235.669 29.2761 236.336 29.8684 237.166 30.2829C237.995 30.6987 238.915 30.9059 239.923 30.9059C241.316 30.9059 242.725 30.4166 244.148 29.4392L244.147 29.4379ZM235.675 20.5879C234.682 21.6843 234.186 23.1083 234.186 24.8571C234.186 25.1834 234.2 25.4361 234.23 25.6126L244.103 22.1001C243.718 21.1816 243.153 20.4248 242.413 19.8325C241.671 19.2402 240.708 18.9433 239.522 18.9433C237.95 18.9433 236.669 19.4929 235.675 20.5893V20.5879Z" fill="black"/>
</g>
<defs>
<clipPath id="clip0_151_1345">
<rect width="249.661" height="43.7123" fill="white"/>
</clipPath>
</defs>
</svg>
