<svg width="247" height="43" viewBox="0 0 247 43" fill="none" xmlns="http://www.w3.org/2000/svg">
<g clip-path="url(#clip0_151_1346)">
<path d="M38 19.5161C37.9854 30.0082 29.4701 38.5015 18.978 38.4941C8.48594 38.4795 -0.00731704 29.9643 4.73035e-06 19.4722C0.0146483 8.9874 8.51523 0.494141 19 0.494141C29.4921 0.494141 38 9.00936 37.9927 19.5088M30.2682 4.49183C30.0998 4.62362 29.9387 4.74809 29.785 4.87256C28.8112 5.67796 28.1083 6.76158 27.7788 7.97699C27.6177 8.62863 27.5299 9.28759 27.5152 9.96119C27.4859 10.6714 27.5445 11.3816 27.5811 12.0918C27.6104 12.6849 27.6543 13.278 27.6763 13.871C27.7276 15.0791 27.5592 16.2945 27.1784 17.444C26.5414 19.4429 25.2821 21.1781 23.5834 22.4082C22.3827 23.2795 20.9622 23.792 19.4832 23.8945C18.3996 23.9824 17.316 23.8506 16.2836 23.5138C14.4971 22.972 12.9888 21.7639 12.059 20.1458C11.7368 19.5747 11.4732 18.967 11.2682 18.3446C10.9387 17.283 10.6825 16.1993 10.5141 15.0938C10.3457 14.1346 10.1846 13.1754 10.0015 12.2163C9.84779 11.3816 9.61349 10.5616 9.30598 9.77083C9.10829 9.24366 8.84471 8.74578 8.52987 8.27718C8.14182 7.69144 7.60733 7.21553 6.98498 6.88605C6.5237 6.65175 6.02582 6.51264 5.5133 6.47603C4.34182 7.66948 3.33873 9.01668 2.53334 10.4884C2.14528 11.14 1.83777 11.8282 1.61079 12.5531C1.68401 12.5531 1.75723 12.5531 1.83045 12.5385C2.63584 12.4286 3.44856 12.5238 4.2027 12.8167C5.30097 13.2194 6.13565 14.1273 6.43584 15.2548C6.56031 15.6868 6.62621 16.1261 6.64085 16.5728C6.6555 17.4514 6.55299 18.33 6.34066 19.1866C6.15762 20.0067 5.94528 20.8121 5.83546 21.6467C5.73295 22.2544 5.72563 22.8768 5.80617 23.4845C5.90135 24.1947 6.17958 24.861 6.59692 25.4394C7.02891 26.0398 7.69519 26.4352 8.43469 26.5157C8.76417 26.5523 9.08632 26.5889 9.4158 26.6255C10.1041 26.6988 10.763 26.9477 11.3268 27.3504C12.5788 28.229 13.3915 29.6055 13.5599 31.1211C13.6698 31.9851 13.6112 32.8637 13.3842 33.7057C13.1279 34.7234 12.7106 35.6972 12.1541 36.5905C12.1029 36.6783 12.0516 36.7662 11.9931 36.8541C12.857 37.2568 13.7576 37.5423 14.6948 37.7254C14.7168 37.5496 14.7094 37.3666 14.6875 37.1909C14.6216 36.1219 14.7241 35.0456 14.995 34.0059C15.9322 30.323 18.8096 27.4383 22.4925 26.5011C23.2979 26.3107 24.1106 26.1643 24.9306 26.0618C25.6775 25.9519 26.417 25.8494 27.1491 25.6737C27.9472 25.4907 28.7087 25.1832 29.4116 24.7658C30.422 24.1801 31.1541 23.2063 31.447 22.0714C31.5715 21.6101 31.652 21.1415 31.696 20.6656C31.7472 20.0213 31.7911 19.377 31.8277 18.7327C31.8717 17.8614 31.9888 16.9974 32.1792 16.1554C32.6698 13.9516 33.5923 11.8722 34.8956 10.0344C34.9468 9.95387 34.9981 9.88065 35.0567 9.78547C33.8119 7.73537 32.1938 5.93422 30.2682 4.49915M30.0632 4.34539C28.3279 3.0714 26.3803 2.11225 24.3083 1.49722C22.9464 1.09453 21.0355 0.757725 20.5303 0.838264C20.5156 0.867551 20.501 0.911482 20.4936 0.94809C20.3765 1.40936 20.3252 1.8926 20.3472 2.36851C20.3765 3.01283 20.479 3.65715 20.662 4.2795C20.8451 4.93113 21.0428 5.58277 21.2331 6.23441C21.4894 7.07641 21.6432 7.9477 21.7017 8.82632C21.7603 9.71957 21.7164 10.6128 21.5773 11.4914C21.4821 12.1431 21.2917 12.7728 21.0208 13.3731C20.6035 14.2737 19.8347 14.9546 18.8975 15.2695C18.4143 15.4452 17.9091 15.5257 17.3965 15.5184C15.9688 15.5184 14.6289 14.8448 13.7869 13.688C13.4794 13.2706 13.2304 12.8094 13.0474 12.3188C12.7033 11.3889 12.5129 10.4151 12.4763 9.43402C12.447 8.89221 12.4543 8.3504 12.4617 7.81591C12.4617 7.07641 12.4763 6.32959 12.4763 5.59009C12.4763 4.97507 12.4324 4.36004 12.3445 3.75233C12.2786 3.26909 12.1615 2.79318 12.0004 2.33191C11.9711 2.26601 11.9345 2.20011 11.8906 2.13422C9.67207 3.04212 7.64393 4.36736 5.93064 6.03672C5.86474 6.10262 5.77688 6.15387 5.76224 6.24905C5.77688 6.2637 5.77688 6.27102 5.79153 6.27834C5.89403 6.30031 5.99654 6.32959 6.09904 6.35156C6.74336 6.49067 7.34374 6.78354 7.84894 7.21553C8.28093 7.58162 8.6397 8.0136 8.92525 8.50416C9.33526 9.21437 9.6501 9.96851 9.86975 10.7593C10.1626 11.8575 10.3969 12.9631 10.5726 14.0833C10.7337 14.9986 10.8948 15.9211 11.0852 16.8363C11.2755 17.8028 11.5977 18.74 12.0297 19.6259C12.5935 20.7901 13.4647 21.7712 14.5557 22.4668C16.2397 23.5284 18.2678 23.9311 20.2301 23.587C21.3869 23.3966 22.4852 22.9427 23.4297 22.2544C25.8166 20.5119 27.2883 17.7882 27.4274 14.8375C27.4493 13.8857 27.4274 12.9265 27.3395 11.9747C27.2516 10.935 27.259 9.8953 27.3688 8.86293C27.4933 7.82323 27.8667 6.8348 28.4744 5.98547C28.8478 5.4583 29.3017 4.98239 29.8069 4.57969C29.8875 4.51379 29.968 4.4479 30.0632 4.36736M35.1665 10.0783C35.0859 10.1955 35.0127 10.2833 34.9468 10.3859C34.1121 11.6013 33.4385 12.9265 32.9553 14.3176C32.4574 15.7088 32.1572 17.1585 32.062 18.6302C32.0254 19.2306 31.9888 19.8383 31.9449 20.4386C31.9083 20.9878 31.8204 21.5369 31.6886 22.0714C31.4031 23.2941 30.6343 24.3558 29.5507 25.0001C29.1187 25.2637 28.6574 25.4833 28.1742 25.6517C27.3615 25.9227 26.5268 26.1203 25.6701 26.2302C24.8647 26.3546 24.052 26.4645 23.254 26.6109C18.2312 27.5261 14.6582 32.0217 14.8998 37.1176C14.8998 37.3666 14.9291 37.6082 14.9804 37.8498C15.4782 37.967 15.9761 38.0548 16.4886 38.1207C17.2574 38.2232 18.0262 38.2818 18.8023 38.2818C19.3002 38.2818 19.7981 38.2598 20.296 38.2452C20.3985 38.2525 20.5083 38.2306 20.6035 38.1793C20.6035 38.128 20.6181 38.0914 20.6254 38.0475C20.6987 37.2421 20.8451 36.4514 21.0647 35.6753C21.3576 34.6063 21.8701 33.6105 22.5657 32.7539C23.6713 31.3701 25.3407 30.5647 27.1052 30.55C28.079 30.5281 29.0528 30.6672 29.9827 30.9674C30.8466 31.2456 31.6886 31.6117 32.4867 32.051C32.5892 32.1169 32.699 32.1681 32.8162 32.1974C34.0975 30.8063 35.1518 29.2248 35.9646 27.5188C36.9896 25.3589 37.5827 23.0159 37.7218 20.629C37.8682 18.2201 37.5461 15.804 36.7699 13.5196C36.3746 12.3115 35.8328 11.1546 35.1592 10.0783M11.7368 36.7955C11.7734 36.7516 11.8173 36.7003 11.8466 36.6491C12.3152 35.9315 12.6886 35.1481 12.9595 34.3354C13.3256 33.303 13.4428 32.1974 13.3037 31.1065C13.1499 29.9057 12.5788 28.8001 11.6929 27.9801C11.0778 27.387 10.2871 27.0063 9.43777 26.8965C9.13025 26.8598 8.83006 26.8306 8.52255 26.8013C7.65126 26.7354 6.86051 26.2741 6.3553 25.5639C5.88671 24.9123 5.60116 24.1508 5.53526 23.3527C5.46937 22.6864 5.50598 22.0128 5.63777 21.3612C5.76956 20.651 5.93064 19.9481 6.0844 19.2452C6.2528 18.535 6.3553 17.8101 6.39191 17.078C6.41388 16.5361 6.36262 15.9943 6.23083 15.4672C5.97457 14.3835 5.19846 13.4903 4.15877 13.0876C3.58035 12.8533 2.95068 12.7435 2.32833 12.7728C2.02814 12.7654 1.72062 12.802 1.42775 12.8899C-1.42042 20.4386 0.878617 28.9612 7.13141 34.0571C8.52987 35.1993 10.8582 36.5758 11.7441 36.7882M12.1615 2.06832C12.1908 2.14886 12.2054 2.20744 12.2274 2.26601C12.4617 2.94693 12.6081 3.65715 12.6593 4.37468C12.7252 5.18007 12.7399 5.98547 12.7179 6.79086C12.696 7.70609 12.652 8.61399 12.7179 9.52921C12.7545 10.1516 12.8497 10.7739 12.9962 11.3816C13.1719 12.1284 13.4794 12.8313 13.9114 13.4683C14.9071 14.8887 16.6644 15.5697 18.363 15.1889C19.5052 14.9766 20.457 14.1932 20.8817 13.1096C21.0062 12.8094 21.1087 12.4945 21.1965 12.1797C21.3576 11.5207 21.4528 10.8471 21.4821 10.1662C21.5187 9.39009 21.4821 8.61399 21.3576 7.85252C21.2405 7.14231 21.0647 6.43942 20.8451 5.75117C20.6401 5.06293 20.4204 4.37468 20.274 3.66447C20.069 2.78586 20.0543 1.87063 20.2447 0.984699C20.252 0.926125 20.2594 0.867551 20.2594 0.808977C18.7877 0.691829 17.3014 0.757725 15.8443 1.00666C14.585 1.219 13.3549 1.57044 12.1688 2.061M20.8963 38.1427C22.1923 38.0402 23.4663 37.7912 24.6963 37.3886C26.9002 36.6857 28.9576 35.5728 30.7588 34.123C31.4397 33.6105 32.0547 33.0248 32.5965 32.3658C32.5599 32.3365 32.516 32.3072 32.4721 32.278C31.5568 31.7581 30.5904 31.3481 29.58 31.0625C28.489 30.7477 27.3395 30.6745 26.212 30.8502C25.2601 30.9966 24.3742 31.392 23.6274 31.9997C22.8513 32.644 22.2289 33.4568 21.8042 34.372C21.299 35.4922 20.9842 36.693 20.8817 37.923C20.8817 37.9963 20.8817 38.0622 20.8817 38.1354" stroke="white" stroke-width="1.38"/>
<path d="M65.4948 4.98596C67.5385 6.79475 68.5545 9.3024 68.5545 12.5089C68.5545 14.3471 68.1904 16.0619 67.4622 17.6475C66.734 19.239 65.5594 20.5369 63.9385 21.5411C62.3177 22.5454 60.2446 23.0504 57.7076 23.0504H53.1151V34.1146H48V2.27277H57.0087C60.6263 2.27277 63.4511 3.17716 65.4948 4.98596ZM61.0961 17.2541C61.9536 16.655 62.5702 15.9268 62.9343 15.0694C63.2984 14.212 63.4805 13.3839 63.4805 12.597C63.4805 11.258 63.0518 10.0189 62.1885 8.87957C61.3252 7.74026 59.8746 7.17648 57.8368 7.17648H53.1151V18.1585H57.7076C59.1053 18.1585 60.2387 17.8589 61.0961 17.2599V17.2541Z" fill="white"/>
<path d="M78.6204 0V34.1205H73.7225V0H78.6204Z" fill="white"/>
<path d="M104.736 15.6156V34.1205H99.8384V31.4543C99.1689 32.2412 98.2645 32.9636 97.1252 33.6213C95.9859 34.279 94.6586 34.6079 93.1435 34.6079C91.364 34.6079 89.7725 34.2379 88.3748 33.4921C86.9771 32.7463 85.8672 31.6481 85.0509 30.1916C84.2346 28.7352 83.8235 26.9675 83.8235 24.9003C83.8235 22.8331 84.2463 21.1183 85.092 19.5855C85.9377 18.0527 87.0652 16.8723 88.4805 16.0443C89.8959 15.2103 91.4463 14.7993 93.1376 14.7993C96.1386 14.7993 98.3878 15.9092 99.8736 18.1232L100.226 15.6273H104.73L104.736 15.6156ZM97.8886 29.5456C98.8048 28.8585 99.4566 27.8895 99.8325 26.6386V22.6158C99.4801 21.4765 98.8048 20.5604 97.8005 19.8615C96.7963 19.1627 95.6335 18.8103 94.3239 18.8103C92.7794 18.8103 91.4639 19.3565 90.3892 20.4488C89.3086 21.5411 88.7683 22.933 88.7683 24.6243C88.7683 25.7342 89.0326 26.7385 89.5553 27.6429C90.0779 28.5473 90.7826 29.2637 91.6577 29.7864C92.5327 30.3091 93.4782 30.5734 94.5001 30.5734C95.8391 30.5734 96.9725 30.2327 97.8886 29.5456Z" fill="white"/>
<path d="M127.898 16.379C129.049 17.4126 129.642 18.7457 129.672 20.3842V34.1205H124.774V22.1343C124.715 21.1711 124.433 20.4136 123.922 19.8615C123.412 19.3095 122.648 19.0159 121.626 18.9865C120.111 18.9865 118.86 19.6384 117.885 20.9304C116.91 22.2282 116.417 23.8843 116.417 25.8928V34.1146H111.519V15.6097H115.936L116.288 18.8925C116.957 17.6123 117.926 16.608 119.195 15.8974C120.463 15.181 121.932 14.8286 123.594 14.8286C125.256 14.8286 126.747 15.3454 127.904 16.379H127.898Z" fill="white"/>
<path d="M137.911 33.7505C136.643 33.2395 135.597 32.5172 134.781 31.5834L136.836 28.8291C138.381 30.3443 139.955 31.1019 141.558 31.1019C142.433 31.1019 143.156 30.9316 143.725 30.5968C144.295 30.2621 144.577 29.757 144.577 29.0875C144.577 28.418 144.283 27.8601 143.702 27.5137C143.12 27.1613 142.468 26.8794 141.758 26.6621C141.041 26.4448 140.583 26.3039 140.378 26.2451C138.774 25.7518 137.576 25.0295 136.789 24.0781C136.003 23.1326 135.609 22.0168 135.609 20.7307C135.609 19.7088 135.862 18.7574 136.373 17.8648C136.883 16.978 137.653 16.2557 138.692 15.6978C139.726 15.1457 140.988 14.8638 142.474 14.8638C143.872 14.8638 145.093 15.0224 146.127 15.3454C147.161 15.6684 148.13 16.1793 149.034 16.8782L147.155 19.8087C146.632 19.3153 145.998 18.9219 145.252 18.6282C144.506 18.3346 143.831 18.1937 143.22 18.1937C142.463 18.1937 141.834 18.3698 141.341 18.7163C140.848 19.0687 140.595 19.5209 140.595 20.0729C140.566 20.7424 140.812 21.2475 141.341 21.5822C141.864 21.917 142.709 22.2752 143.878 22.651C144.371 22.7979 144.694 22.8977 144.841 22.9564C146.297 23.4204 147.437 24.0722 148.253 24.9003C149.069 25.7342 149.48 26.8207 149.48 28.1597C149.48 29.9684 148.829 31.4777 147.537 32.6875C146.239 33.8973 144.377 34.5022 141.957 34.5022C140.53 34.5022 139.18 34.2438 137.911 33.7387V33.7505Z" fill="white"/>
<path d="M167.222 34.0089C166.041 34.4023 164.855 34.602 163.657 34.602C161.613 34.602 159.816 34.2085 158.254 33.4216C156.692 32.6346 155.488 31.5071 154.643 30.033C153.797 28.559 153.374 26.8324 153.374 24.8474C153.374 22.8624 153.826 21.1829 154.731 19.7088C155.635 18.2348 156.839 17.1072 158.342 16.3202C159.846 15.5333 161.455 15.1398 163.176 15.1398C166.094 15.1398 168.496 15.9268 170.393 17.5007L167.944 20.6954C167.392 20.2608 166.74 19.885 166 19.5796C165.255 19.2742 164.462 19.1215 163.616 19.1215C162.13 19.1215 160.868 19.6677 159.834 20.76C158.8 21.8523 158.284 23.2148 158.284 24.8474C158.284 26.48 158.83 27.8425 159.922 28.9348C161.014 30.0272 162.406 30.5733 164.098 30.5733C165.554 30.5733 166.781 30.1681 167.774 29.3459L170.223 32.4056C169.407 33.0751 168.408 33.6095 167.228 34.003L167.222 34.0089Z" fill="white"/>
<path d="M194.624 15.6156V34.1205H189.726V31.4543C189.057 32.2412 188.152 32.9636 187.013 33.6213C185.874 34.279 184.546 34.6079 183.031 34.6079C181.252 34.6079 179.66 34.2379 178.263 33.4921C176.865 32.7463 175.755 31.6481 174.939 30.1916C174.122 28.7352 173.711 26.9675 173.711 24.9003C173.711 22.8331 174.134 21.1183 174.98 19.5855C175.825 18.0527 176.953 16.8723 178.368 16.0443C179.784 15.2103 181.334 14.7993 183.025 14.7993C186.026 14.7993 188.276 15.9092 189.761 18.1232L190.114 15.6273H194.618L194.624 15.6156ZM187.776 29.5456C188.692 28.8585 189.344 27.8895 189.72 26.6386V22.6158C189.368 21.4765 188.692 20.5604 187.688 19.8615C186.684 19.1627 185.521 18.8103 184.212 18.8103C182.667 18.8103 181.352 19.3565 180.277 20.4488C179.196 21.5411 178.656 22.933 178.656 24.6243C178.656 25.7342 178.92 26.7385 179.443 27.6429C179.966 28.5473 180.67 29.2637 181.545 29.7864C182.42 30.3091 183.366 30.5734 184.388 30.5734C185.727 30.5734 186.86 30.2327 187.776 29.5456Z" fill="white"/>
<path d="M218.244 16.009C219.642 16.8253 220.74 17.994 221.527 19.5091C222.314 21.0243 222.707 22.792 222.707 24.8004C222.707 26.8089 222.279 28.5179 221.415 30.0037C220.552 31.4895 219.36 32.6288 217.827 33.4157C216.294 34.2027 214.568 34.5961 212.642 34.5961C211.414 34.5961 210.234 34.3495 209.1 33.8503C207.961 33.357 207.027 32.6816 206.299 31.836V42.9882H201.401V15.269H205.647L206.082 18.0233C207.045 17.0309 208.161 16.2439 209.429 15.6625C210.698 15.0811 212.078 14.7875 213.564 14.7875C215.284 14.7875 216.846 15.1986 218.244 16.0149V16.009ZM214.679 29.9391C215.595 29.4281 216.335 28.7352 216.887 27.8601C217.439 26.9851 217.721 25.9926 217.721 24.8827C217.721 23.162 217.175 21.7408 216.083 20.6191C214.991 19.4974 213.64 18.9336 212.037 18.9336C210.61 18.9336 209.406 19.286 208.425 19.9848C207.45 20.6837 206.739 21.6644 206.305 22.9153V26.6327C206.598 27.8308 207.233 28.8056 208.208 29.5632C209.182 30.3208 210.345 30.7025 211.684 30.7025C212.765 30.7025 213.763 30.45 214.679 29.9391Z" fill="white"/>
<path d="M240.948 28.9583L243.18 32.5877C242.187 33.1984 241.124 33.6859 239.985 34.0558C238.846 34.42 237.753 34.602 236.702 34.602C234.57 34.602 232.726 34.1792 231.17 33.3335C229.608 32.4878 228.416 31.3192 227.582 29.8334C226.748 28.3476 226.337 26.6386 226.337 24.7182C226.337 22.9094 226.801 21.2475 227.734 19.7323C228.668 18.2171 229.937 17.0132 231.54 16.1206C233.143 15.2338 234.893 14.7875 236.79 14.7875C239.298 14.7875 241.383 15.5216 243.045 16.9956C244.707 18.4697 245.816 20.5486 246.369 23.2266L232.11 28.0363C232.603 28.7939 233.261 29.3753 234.077 29.7864C234.893 30.1975 235.798 30.3971 236.79 30.3971C238.158 30.3971 239.544 29.9156 240.948 28.9525V28.9583ZM232.615 20.255C231.64 21.3356 231.146 22.7333 231.146 24.454C231.146 24.777 231.158 25.0236 231.188 25.1998L240.901 21.7466C240.519 20.8422 239.967 20.1023 239.239 19.515C238.511 18.9336 237.559 18.64 236.397 18.64C234.852 18.64 233.589 19.1803 232.615 20.2608V20.255Z" fill="white"/>
</g>
<defs>
<clipPath id="clip0_151_1346">
<rect width="246.368" height="43" fill="white"/>
</clipPath>
</defs>
</svg>
