<svg width="402" height="54" viewBox="0 0 402 54" fill="none" xmlns="http://www.w3.org/2000/svg">
<path d="M44.3929 30.0771C22.4818 28.0183 13.6169 41.0237 11.3915 49.5358C11.0976 50.66 11.9493 51.7139 13.1106 51.7541C26.1997 52.2073 33.7054 47.5624 38.5706 43.0856C42.7674 39.2238 45.4405 35.323 45.9693 31.9122C46.1167 30.9614 45.3507 30.1671 44.3929 30.0771Z" fill="url(#paint0_linear_4696_13326)"/>
<path d="M23.0721 17.4308L18.4453 10.2924C17.6753 9.10434 18.3606 7.51548 19.7662 7.34659C38.196 5.13215 48.5636 17.5242 52.2458 25.7139C52.7024 26.7294 52.1359 27.8878 51.063 28.1857C35.5329 32.4984 25.9815 22.9643 23.0721 17.4308Z" fill="url(#paint1_linear_4696_13326)"/>
<path d="M10.0185 41.7323C-2.01613 27.2091 3.89109 12.0596 9.55185 4.68396C10.27 3.74824 11.6509 3.75962 12.4063 4.66549C22.6907 16.9975 20.4076 26.0827 17.9054 32.0378C15.9547 36.6804 14.6003 38.8255 13.3227 41.2693C12.6615 42.5339 10.929 42.8311 10.0185 41.7323Z" fill="#278791"/>
<path d="M84.24 18.76V42H78.96V18.76H71.04V14.08H92.16V18.76H84.24ZM94.3663 42V21.12H99.4863V25.44H99.6863C99.8196 24.88 100.02 24.3467 100.286 23.84C100.58 23.3067 100.953 22.84 101.406 22.44C101.86 22.04 102.393 21.72 103.006 21.48C103.646 21.24 104.38 21.12 105.206 21.12H106.326V25.96H104.726C102.993 25.96 101.686 26.2133 100.806 26.72C99.9263 27.2267 99.4863 28.0533 99.4863 29.2V42H94.3663ZM118.314 42.48C116.767 42.48 115.381 42.2267 114.154 41.72C112.954 41.1867 111.927 40.4533 111.074 39.52C110.247 38.56 109.607 37.4133 109.154 36.08C108.701 34.72 108.474 33.2 108.474 31.52C108.474 29.8667 108.687 28.3733 109.114 27.04C109.567 25.7067 110.207 24.5733 111.034 23.64C111.861 22.68 112.874 21.9467 114.074 21.44C115.274 20.9067 116.634 20.64 118.154 20.64C119.781 20.64 121.194 20.92 122.394 21.48C123.594 22.04 124.581 22.8 125.354 23.76C126.127 24.72 126.701 25.84 127.074 27.12C127.474 28.3733 127.674 29.72 127.674 31.16V32.84H113.794V33.36C113.794 34.88 114.221 36.1067 115.074 37.04C115.927 37.9467 117.194 38.4 118.874 38.4C120.154 38.4 121.194 38.1333 121.994 37.6C122.821 37.0667 123.554 36.3867 124.194 35.56L126.954 38.64C126.101 39.84 124.927 40.7867 123.434 41.48C121.967 42.1467 120.261 42.48 118.314 42.48ZM118.234 24.48C116.874 24.48 115.794 24.9333 114.994 25.84C114.194 26.7467 113.794 27.92 113.794 29.36V29.68H122.354V29.32C122.354 27.88 121.994 26.72 121.274 25.84C120.581 24.9333 119.567 24.48 118.234 24.48ZM147.539 42C146.419 42 145.525 41.68 144.859 41.04C144.219 40.3733 143.819 39.4933 143.659 38.4H143.419C143.072 39.76 142.365 40.7867 141.299 41.48C140.232 42.1467 138.912 42.48 137.339 42.48C135.205 42.48 133.565 41.92 132.419 40.8C131.272 39.68 130.699 38.1867 130.699 36.32C130.699 34.16 131.472 32.56 133.019 31.52C134.565 30.4533 136.765 29.92 139.619 29.92H143.179V28.4C143.179 27.2267 142.872 26.32 142.259 25.68C141.645 25.04 140.659 24.72 139.299 24.72C138.099 24.72 137.125 24.9867 136.379 25.52C135.659 26.0267 135.045 26.64 134.539 27.36L131.499 24.64C132.272 23.44 133.299 22.48 134.579 21.76C135.859 21.0133 137.552 20.64 139.659 20.64C142.485 20.64 144.632 21.28 146.099 22.56C147.565 23.84 148.299 25.68 148.299 28.08V37.92H150.379V42H147.539ZM139.059 38.76C140.205 38.76 141.179 38.5067 141.979 38C142.779 37.4933 143.179 36.7467 143.179 35.76V33H139.899C137.232 33 135.899 33.8533 135.899 35.56V36.24C135.899 37.0933 136.165 37.7333 136.699 38.16C137.259 38.56 138.045 38.76 139.059 38.76ZM160.886 42C159.126 42 157.78 41.5467 156.846 40.64C155.94 39.7067 155.486 38.3867 155.486 36.68V25.2H152.406V21.12H154.006C154.78 21.12 155.3 20.9467 155.566 20.6C155.86 20.2267 156.006 19.68 156.006 18.96V15.4H160.606V21.12H164.886V25.2H160.606V37.92H164.566V42H160.886ZM169.327 42V21.12H174.447V24.6H174.647C175.047 23.5067 175.687 22.5733 176.567 21.8C177.447 21.0267 178.674 20.64 180.247 20.64C181.687 20.64 182.927 20.9867 183.967 21.68C185.007 22.3733 185.781 23.4267 186.287 24.84H186.367C186.741 23.6667 187.474 22.68 188.567 21.88C189.687 21.0533 191.087 20.64 192.767 20.64C194.821 20.64 196.394 21.3467 197.487 22.76C198.607 24.1733 199.167 26.1867 199.167 28.8V42H194.047V29.32C194.047 26.3333 192.927 24.84 190.687 24.84C190.181 24.84 189.687 24.92 189.207 25.08C188.754 25.2133 188.341 25.4267 187.967 25.72C187.621 25.9867 187.341 26.3333 187.127 26.76C186.914 27.16 186.807 27.64 186.807 28.2V42H181.687V29.32C181.687 26.3333 180.567 24.84 178.327 24.84C177.847 24.84 177.367 24.92 176.887 25.08C176.434 25.2133 176.021 25.4267 175.647 25.72C175.301 25.9867 175.007 26.3333 174.767 26.76C174.554 27.16 174.447 27.64 174.447 28.2V42H169.327ZM213.275 42.48C211.728 42.48 210.342 42.2267 209.115 41.72C207.915 41.1867 206.888 40.4533 206.035 39.52C205.208 38.56 204.568 37.4133 204.115 36.08C203.662 34.72 203.435 33.2 203.435 31.52C203.435 29.8667 203.648 28.3733 204.075 27.04C204.528 25.7067 205.168 24.5733 205.995 23.64C206.822 22.68 207.835 21.9467 209.035 21.44C210.235 20.9067 211.595 20.64 213.115 20.64C214.742 20.64 216.155 20.92 217.355 21.48C218.555 22.04 219.542 22.8 220.315 23.76C221.088 24.72 221.662 25.84 222.035 27.12C222.435 28.3733 222.635 29.72 222.635 31.16V32.84H208.755V33.36C208.755 34.88 209.182 36.1067 210.035 37.04C210.888 37.9467 212.155 38.4 213.835 38.4C215.115 38.4 216.155 38.1333 216.955 37.6C217.782 37.0667 218.515 36.3867 219.155 35.56L221.915 38.64C221.062 39.84 219.888 40.7867 218.395 41.48C216.928 42.1467 215.222 42.48 213.275 42.48ZM213.195 24.48C211.835 24.48 210.755 24.9333 209.955 25.84C209.155 26.7467 208.755 27.92 208.755 29.36V29.68H217.315V29.32C217.315 27.88 216.955 26.72 216.235 25.84C215.542 24.9333 214.528 24.48 213.195 24.48ZM227.14 42V21.12H232.26V24.6H232.46C232.886 23.48 233.553 22.5467 234.46 21.8C235.393 21.0267 236.673 20.64 238.3 20.64C240.46 20.64 242.113 21.3467 243.26 22.76C244.406 24.1733 244.98 26.1867 244.98 28.8V42H239.86V29.32C239.86 27.8267 239.593 26.7067 239.06 25.96C238.526 25.2133 237.646 24.84 236.42 24.84C235.886 24.84 235.366 24.92 234.86 25.08C234.38 25.2133 233.94 25.4267 233.54 25.72C233.166 25.9867 232.86 26.3333 232.62 26.76C232.38 27.16 232.26 27.64 232.26 28.2V42H227.14ZM257.175 42C255.415 42 254.069 41.5467 253.135 40.64C252.229 39.7067 251.775 38.3867 251.775 36.68V25.2H248.695V21.12H250.295C251.069 21.12 251.589 20.9467 251.855 20.6C252.149 20.2267 252.295 19.68 252.295 18.96V15.4H256.895V21.12H261.175V25.2H256.895V37.92H260.855V42H257.175ZM275.389 42V14.08H293.789V18.76H280.669V25.52H292.269V30.2H280.669V37.32H293.789V42H275.389ZM300.094 25.16H297.014V21.12H300.094V18.12C300.094 16.28 300.574 14.8667 301.534 13.88C302.52 12.8933 303.96 12.4 305.854 12.4H309.494V16.48H305.214V21.12H309.494V25.16H305.214V42H300.094V25.16ZM314.195 25.16H311.115V21.12H314.195V18.12C314.195 16.28 314.675 14.8667 315.635 13.88C316.622 12.8933 318.062 12.4 319.955 12.4H323.595V16.48H319.315V21.12H323.595V25.16H319.315V42H314.195V25.16ZM335.423 42.48C333.877 42.48 332.49 42.2267 331.263 41.72C330.063 41.1867 329.037 40.4533 328.183 39.52C327.357 38.56 326.717 37.4133 326.263 36.08C325.81 34.72 325.583 33.2 325.583 31.52C325.583 29.8667 325.797 28.3733 326.223 27.04C326.677 25.7067 327.317 24.5733 328.143 23.64C328.97 22.68 329.983 21.9467 331.183 21.44C332.383 20.9067 333.743 20.64 335.263 20.64C336.89 20.64 338.303 20.92 339.503 21.48C340.703 22.04 341.69 22.8 342.463 23.76C343.237 24.72 343.81 25.84 344.183 27.12C344.583 28.3733 344.783 29.72 344.783 31.16V32.84H330.903V33.36C330.903 34.88 331.33 36.1067 332.183 37.04C333.037 37.9467 334.303 38.4 335.983 38.4C337.263 38.4 338.303 38.1333 339.103 37.6C339.93 37.0667 340.663 36.3867 341.303 35.56L344.063 38.64C343.21 39.84 342.037 40.7867 340.543 41.48C339.077 42.1467 337.37 42.48 335.423 42.48ZM335.343 24.48C333.983 24.48 332.903 24.9333 332.103 25.84C331.303 26.7467 330.903 27.92 330.903 29.36V29.68H339.463V29.32C339.463 27.88 339.103 26.72 338.383 25.84C337.69 24.9333 336.677 24.48 335.343 24.48ZM357.528 42.48C355.981 42.48 354.608 42.2267 353.408 41.72C352.208 41.2133 351.195 40.48 350.368 39.52C349.568 38.56 348.955 37.4133 348.528 36.08C348.101 34.72 347.888 33.2 347.888 31.52C347.888 29.84 348.101 28.3333 348.528 27C348.955 25.6667 349.568 24.5333 350.368 23.6C351.195 22.64 352.208 21.9067 353.408 21.4C354.608 20.8933 355.981 20.64 357.528 20.64C359.635 20.64 361.368 21.1067 362.728 22.04C364.115 22.9733 365.115 24.2667 365.728 25.92L361.528 27.8C361.288 26.92 360.835 26.2 360.168 25.64C359.528 25.0533 358.648 24.76 357.528 24.76C356.088 24.76 355.008 25.2133 354.288 26.12C353.595 27.0267 353.248 28.2133 353.248 29.68V33.48C353.248 34.9467 353.595 36.1333 354.288 37.04C355.008 37.92 356.088 38.36 357.528 38.36C358.755 38.36 359.701 38.0533 360.368 37.44C361.035 36.8 361.555 36.0133 361.928 35.08L365.848 36.96C365.155 38.8 364.101 40.1867 362.688 41.12C361.275 42.0267 359.555 42.48 357.528 42.48ZM376.316 42C374.556 42 373.209 41.5467 372.276 40.64C371.369 39.7067 370.916 38.3867 370.916 36.68V25.2H367.836V21.12H369.436C370.209 21.12 370.729 20.9467 370.996 20.6C371.289 20.2267 371.436 19.68 371.436 18.96V15.4H376.036V21.12H380.316V25.2H376.036V37.92H379.996V42H376.316ZM391.597 42.48C389.597 42.48 387.917 42.1467 386.557 41.48C385.197 40.7867 383.997 39.84 382.957 38.64L386.077 35.6C386.85 36.48 387.69 37.1733 388.597 37.68C389.53 38.1867 390.597 38.44 391.797 38.44C393.024 38.44 393.904 38.2267 394.437 37.8C394.997 37.3733 395.277 36.7867 395.277 36.04C395.277 35.4267 395.077 34.9467 394.677 34.6C394.304 34.2267 393.65 33.9733 392.717 33.84L390.637 33.56C388.37 33.2667 386.637 32.6267 385.437 31.64C384.264 30.6267 383.677 29.16 383.677 27.24C383.677 26.2267 383.864 25.32 384.237 24.52C384.61 23.6933 385.144 23 385.837 22.44C386.53 21.8533 387.357 21.4133 388.317 21.12C389.304 20.8 390.397 20.64 391.597 20.64C392.61 20.64 393.504 20.72 394.277 20.88C395.077 21.0133 395.797 21.2267 396.437 21.52C397.077 21.7867 397.664 22.1333 398.197 22.56C398.73 22.96 399.25 23.4133 399.757 23.92L396.757 26.92C396.144 26.28 395.41 25.7467 394.557 25.32C393.704 24.8933 392.77 24.68 391.757 24.68C390.637 24.68 389.824 24.88 389.317 25.28C388.837 25.68 388.597 26.2 388.597 26.84C388.597 27.5333 388.797 28.0667 389.197 28.44C389.624 28.7867 390.33 29.04 391.317 29.2L393.437 29.48C397.944 30.12 400.197 32.1733 400.197 35.64C400.197 36.6533 399.984 37.5867 399.557 38.44C399.157 39.2667 398.584 39.9867 397.837 40.6C397.09 41.1867 396.184 41.6533 395.117 42C394.077 42.32 392.904 42.48 391.597 42.48Z" fill="black"/>
<defs>
<linearGradient id="paint0_linear_4696_13326" x1="46.0527" y1="30.6154" x2="11.1362" y2="51.8146" gradientUnits="userSpaceOnUse">
<stop offset="0.194925" stop-color="#344F42"/>
<stop offset="1" stop-color="#278791"/>
</linearGradient>
<linearGradient id="paint1_linear_4696_13326" x1="22.3595" y1="9.0579" x2="49.6158" y2="27.585" gradientUnits="userSpaceOnUse">
<stop stop-color="#356A72"/>
<stop offset="0.991406" stop-color="#344F42"/>
</linearGradient>
</defs>
</svg>
