<svg width="54" height="54" viewBox="0 0 54 54" fill="none" xmlns="http://www.w3.org/2000/svg">
<path d="M44.3929 30.0771C22.4818 28.0183 13.6169 41.0237 11.3915 49.5358C11.0976 50.66 11.9493 51.7139 13.1106 51.7541C26.1997 52.2073 33.7054 47.5624 38.5706 43.0856C42.7674 39.2238 45.4405 35.323 45.9693 31.9122C46.1167 30.9614 45.3507 30.1671 44.3929 30.0771Z" fill="url(#paint0_linear_3870_12495)"/>
<path d="M23.0721 17.4308L18.4453 10.2924C17.6753 9.10434 18.3606 7.51548 19.7662 7.34659C38.196 5.13215 48.5636 17.5242 52.2458 25.7139C52.7024 26.7294 52.1359 27.8878 51.063 28.1857C35.5329 32.4984 25.9815 22.9643 23.0721 17.4308Z" fill="url(#paint1_linear_3870_12495)"/>
<path d="M10.0185 41.7323C-2.01613 27.2091 3.89109 12.0596 9.55185 4.68396C10.27 3.74824 11.6509 3.75962 12.4063 4.66549C22.6907 16.9975 20.4076 26.0827 17.9054 32.0378C15.9547 36.6804 14.6003 38.8255 13.3227 41.2693C12.6615 42.5339 10.929 42.8311 10.0185 41.7323Z" fill="#278791"/>
<defs>
<linearGradient id="paint0_linear_3870_12495" x1="46.0527" y1="30.6154" x2="11.1362" y2="51.8146" gradientUnits="userSpaceOnUse">
<stop offset="0.194925" stop-color="#344F42"/>
<stop offset="1" stop-color="#278791"/>
</linearGradient>
<linearGradient id="paint1_linear_3870_12495" x1="22.3595" y1="9.0579" x2="49.6158" y2="27.585" gradientUnits="userSpaceOnUse">
<stop stop-color="#356A72"/>
<stop offset="0.991406" stop-color="#344F42"/>
</linearGradient>
</defs>
</svg>
