<svg width="36" height="36" viewBox="0 0 36 36" fill="none" xmlns="http://www.w3.org/2000/svg">
<path fill-rule="evenodd" clip-rule="evenodd" d="M18 28.125C14.9006 28.125 12.3885 25.4655 12.3885 22.1839C12.3885 18.9022 15.8558 16.3305 17.9629 14.0681C20.1533 16.3879 23.6115 18.9022 23.6115 22.1839C23.6115 25.4655 21.0994 28.125 18 28.125ZM18 11.25C15.0435 14.2076 10.125 18.3139 10.125 22.6057C10.125 26.8965 13.6508 30.375 18 30.375C22.3493 30.375 25.875 26.8965 25.875 22.6057C25.875 18.3139 21.0746 14.2841 18 11.25ZM18 33.75C11.1656 33.75 5.625 28.2251 5.625 21.4099C5.625 14.5958 13.3549 8.073 18 3.375C22.833 8.19337 30.375 14.5958 30.375 21.4099C30.375 28.2251 24.8344 33.75 18 33.75ZM18 0C12.51 5.56763 3.375 13.2975 3.375 21.375C3.375 29.4525 9.9225 36 18 36C26.0775 36 32.625 29.4525 32.625 21.375C32.625 13.2975 23.7116 5.71163 18 0Z" fill="#356A72"/>
</svg>
