<svg width="334" height="114" viewBox="0 0 334 114" fill="none" xmlns="http://www.w3.org/2000/svg">
<g opacity="0.6" clip-path="url(#clip0_84_2768)">
<mask id="mask0_84_2768" style="mask-type:luminance" maskUnits="userSpaceOnUse" x="0" y="0" width="414" height="353">
<path d="M414 0H0V353H414V0Z" fill="white"/>
</mask>
<g mask="url(#mask0_84_2768)">
<path d="M237.77 206.578C234.05 206.511 230.336 206.247 226.644 205.788C225.355 205.649 224.119 205.516 222.969 205.411C219.355 205.007 215.773 204.355 212.248 203.461C209.206 202.71 206.128 202.117 203.025 201.683C193.943 201.034 184.814 201.763 175.949 203.844C173.146 204.359 170.247 204.887 167.373 205.325C149.756 207.998 131.522 203.192 114.672 191.437C103.905 183.931 97.0561 174.08 95.3656 163.708C95.1987 162.671 95.0565 161.652 94.8927 160.646C94.3956 156.362 93.4456 152.142 92.0587 148.057C89.2772 140.58 86.6842 132.626 87.9977 125.013C88.217 123.175 88.8268 121.405 89.7861 119.822C90.7455 118.239 92.0324 116.878 93.5607 115.831C98.4253 112.671 104.885 113.362 109.449 114.523C110.067 114.677 110.686 114.831 111.276 114.967C116.391 116.334 121.691 116.884 126.979 116.597C130.193 116.307 133.391 115.855 136.56 115.242C143.331 113.508 150.416 113.389 157.242 114.896C167.873 117.982 173.684 125.361 179.84 133.182C181.769 135.635 183.765 138.172 185.919 140.561C195.417 151.094 205.547 161.319 216.031 170.948C217.36 172.182 218.729 173.485 220.048 174.756C223.752 178.555 227.801 182 232.145 185.049C233.053 185.638 234.441 186.37 236.048 187.209C242.563 190.644 251.482 195.347 250.293 201.128C250.074 202.13 249.597 203.057 248.91 203.819C248.223 204.581 247.349 205.151 246.374 205.473C243.575 206.281 240.669 206.655 237.757 206.581M196.807 199.677C198.955 199.672 201.1 199.798 203.233 200.054C206.392 200.49 209.526 201.094 212.622 201.862C216.077 202.735 219.588 203.374 223.13 203.776C224.292 203.881 225.534 204.013 226.838 204.155C232.958 204.816 240.57 205.634 245.892 203.908C246.59 203.672 247.216 203.261 247.71 202.715C248.204 202.169 248.551 201.506 248.716 200.788C249.659 196.208 241.024 191.653 235.31 188.638C233.668 187.774 232.25 187.027 231.292 186.397C226.851 183.297 222.711 179.787 218.926 175.914C217.551 174.59 216.253 173.34 214.937 172.13C204.429 162.467 194.245 152.208 184.717 141.638C182.526 139.206 180.514 136.648 178.567 134.173C172.58 126.565 166.925 119.377 156.8 116.445C150.072 114.498 143.653 115.631 136.86 116.831C133.638 117.454 130.387 117.913 127.118 118.205C121.663 118.51 116.193 117.948 110.914 116.541C110.296 116.395 109.678 116.244 109.06 116.087C106.677 115.282 104.157 114.964 101.648 115.153C99.1401 115.341 96.6954 116.031 94.4601 117.183C93.1238 118.111 92.0014 119.313 91.1679 120.709C90.3343 122.105 89.8088 123.663 89.6264 125.278C88.3902 132.506 90.909 140.209 93.6071 147.48C95.0362 151.668 96.0143 155.995 96.5246 160.39C96.676 161.39 96.8336 162.402 96.9943 163.433C98.6107 173.367 105.224 182.833 115.621 190.085C132.378 201.773 149.71 206.356 167.141 203.705C169.99 203.273 172.88 202.745 175.671 202.236C182.624 200.746 189.699 199.89 196.807 199.677Z" fill="#123D81" fill-opacity="0.3"/>
<path d="M156.188 353C134.764 353 110.417 339.393 90.9956 316.549C80.5278 304.235 72.4522 289.27 64.6207 274.799C55.1805 258.109 46.7408 240.874 39.346 223.185C35.2757 212.893 31.8328 202.146 28.4919 191.727C26.7674 186.339 24.981 180.771 23.1329 175.337C17.5081 158.801 12.934 141.885 8.48668 125.531C6.90122 119.668 5.25704 113.628 3.58504 107.65C-0.0488174 95.6535 -0.894418 82.9874 1.11259 70.6155C3.52014 57.9991 10.0752 47.7436 18.6825 43.1791C23.6159 40.7518 29.0532 39.521 34.5525 39.5868C47.128 39.238 59.9972 42.4384 72.4398 45.5308C86.6564 49.0645 101.346 52.7186 115.417 50.9656C131.871 48.9164 143.52 39.596 156.979 25.2297C159.245 22.8071 161.46 20.2178 163.605 17.7179C166.963 13.6484 170.541 9.76527 174.323 6.08602C181.021 -0.191314 191.102 -0.345625 199.138 0.222237C204.846 0.359778 210.444 1.82436 215.487 4.49972C220.964 8.3798 225.443 13.5008 228.557 19.4431C233.633 26.861 237.527 35.0202 240.1 43.6297C241.041 47.7903 241.693 52.011 242.05 56.2615C242.251 58.1132 242.455 60.0483 242.712 61.9278C243.582 68.2958 245.143 74.5503 247.369 80.5808C254.477 100.058 267.89 116.726 280.849 132.846C284.035 136.808 287.339 140.907 290.498 144.999C291.425 146.187 292.315 147.388 293.211 148.585C296.62 153.643 300.741 158.185 305.447 162.069C312.04 167.025 318.62 171.989 325.186 176.96C348.712 194.773 376.329 215.991 402.76 238.292L403.514 238.931C407.242 241.671 410.321 245.195 412.535 249.254C416.738 258.513 411.194 269.173 403.844 274.502C396.214 280.036 386.516 281.74 377.232 283.011C367.159 284.394 356.834 285.091 346.827 285.77C336.319 286.48 325.434 287.215 314.95 288.745C308.3 289.567 301.602 289.944 294.902 289.872C282.101 290.014 270.007 290.143 258.31 296.374C255.559 297.837 252.867 299.636 250.274 301.374C245.831 304.679 240.913 307.294 235.687 309.13C233.012 309.836 230.286 310.331 227.534 310.611C225.174 310.866 222.831 311.261 220.518 311.796C214.689 313.635 209.174 316.349 204.163 319.845C196.915 323.926 190.264 328.984 184.399 334.878C183.02 336.378 181.682 338.029 180.381 339.628C177.498 343.67 173.912 347.164 169.793 349.942C165.689 352.133 161.073 353.189 156.423 353H156.188ZM36.4501 41.1823C35.832 41.1823 35.2139 41.1823 34.5958 41.207C29.3511 41.1366 24.1633 42.2996 19.452 44.6018C11.2898 48.9225 5.03452 58.7675 2.71969 70.8994C0.756942 83.0314 1.59198 95.4506 5.16123 107.212C6.83632 113.196 8.47741 119.248 10.0629 125.112C14.4947 141.441 19.0719 158.332 24.6813 174.8C26.5356 180.25 28.3219 185.827 30.0496 191.218C33.375 201.6 36.8148 212.334 40.8666 222.574C48.2375 240.203 56.6504 257.379 66.0609 274.012C73.8398 288.412 81.8846 303.297 92.2441 315.484C111.353 337.964 135.24 351.355 156.188 351.355H156.426C160.79 351.544 165.125 350.565 168.983 348.519C172.922 345.832 176.354 342.471 179.12 338.591C180.43 336.973 181.784 335.304 183.193 333.764C189.158 327.759 195.924 322.606 203.301 318.45C208.451 314.859 214.122 312.078 220.116 310.204C222.494 309.647 224.903 309.235 227.33 308.969C229.996 308.701 232.638 308.223 235.229 307.54C240.293 305.746 245.058 303.204 249.365 299.998C252.005 298.232 254.734 296.414 257.552 294.911C269.606 288.492 282.462 288.35 294.896 288.214C301.523 288.288 308.147 287.918 314.725 287.11C325.27 285.566 336.18 284.832 346.731 284.116C356.698 283.44 367.005 282.746 377.018 281.372C386.092 280.138 395.562 278.468 402.889 273.16C409.716 268.222 414.896 258.377 411.052 249.908C408.957 246.057 406.023 242.724 402.466 240.156L401.712 239.517C375.303 217.269 347.707 196.063 324.201 178.262C317.63 173.287 311.051 168.325 304.464 163.374C299.641 159.391 295.411 154.741 291.904 149.564C291.014 148.372 290.121 147.178 289.206 145.996C286.051 141.916 282.759 137.824 279.579 133.867C266.53 117.646 253.043 100.87 245.833 81.1394C243.566 74.9963 241.976 68.6247 241.092 62.1377C240.832 60.2335 240.625 58.2953 240.424 56.4251C240.073 52.2488 239.435 48.1015 238.515 44.0124C235.973 35.568 232.142 27.566 227.157 20.2887C224.191 14.5634 219.901 9.62683 214.643 5.88851C209.822 3.35593 204.479 1.97416 199.033 1.85175C191.328 1.29932 181.688 1.42586 175.451 7.26804C171.713 10.9063 168.176 14.7461 164.857 18.7703C162.694 21.2856 160.475 23.8872 158.181 26.3346C144.475 40.9694 132.573 50.4656 115.63 52.5673C101.256 54.3573 86.4092 50.6662 72.0535 47.0986C60.4661 43.7071 48.5127 41.7177 36.4501 41.1731" fill="#123D81" fill-opacity="0.3"/>
<path d="M156.194 333.22H155.925C135.274 333.078 111.903 320.533 93.4062 299.642C83.6184 288.588 75.895 274.552 69.0803 262.164C60.4418 247.095 52.758 231.501 46.0741 215.472C42.2171 205.735 38.9658 195.566 35.8506 185.731C34.4289 181.256 32.9547 176.629 31.4496 172.117C25.8866 155.285 21.5598 138.033 17.3628 121.352L16.9054 119.529C16.244 116.899 15.5836 114.262 14.9243 111.619L14.2691 108.998C11.2074 97.8089 10.7842 86.0631 13.0329 74.6829C15.6444 63.2238 21.9677 54.4034 30.3741 50.484C34.8968 48.5029 39.7949 47.5217 44.7328 47.6076C56.2046 48.0552 67.572 49.9646 78.5591 53.2893C87.189 55.7452 95.9983 57.5221 104.906 58.6038C109.159 59.0255 113.446 58.9924 117.692 58.505C124.871 57.5883 131.755 55.0808 137.839 51.166C144.307 46.8963 150.279 41.9205 155.644 36.3306C157.736 34.2629 159.782 32.047 161.766 29.9082C164.905 26.3909 168.235 23.0476 171.74 19.8935C175.825 16.3567 181.596 14.6624 189.452 14.7519C191.016 14.7704 192.666 14.8599 194.496 15.0204C199.706 15.2538 204.796 16.6668 209.38 19.1528C210.391 19.7688 211.353 20.46 212.26 21.2206C215.893 24.5479 219.009 28.3963 221.507 32.6395C226.253 39.3014 229.976 46.6338 232.553 54.3942C233.539 58.1617 234.273 61.991 234.747 65.8563C234.985 67.4951 235.232 69.1925 235.517 70.8467C236.036 73.8641 236.716 76.8517 237.553 79.7967C238.298 82.4138 239.188 85.0711 240.202 87.6882C247.131 105.588 259.428 120.979 271.324 135.851L271.689 136.305C274.343 139.626 277.088 143.061 279.724 146.49C280.534 147.533 281.328 148.585 282.116 149.634C285.286 154.279 289.08 158.465 293.394 162.075C299.266 166.572 305.32 171.167 311.381 175.734L316.165 179.342C337.858 195.699 360.289 212.612 381.549 230.24L382.232 230.811C385.596 233.255 388.405 236.382 390.475 239.986C391.687 242.798 392.148 245.876 391.812 248.92C391.477 251.963 390.357 254.867 388.562 257.349C387.293 259.294 385.729 261.03 383.926 262.494C377.763 267.432 369.861 269.114 362.224 270.722L361.587 270.854C349.996 273.015 338.289 274.496 326.525 275.289C319.314 275.922 311.857 276.579 304.668 277.511C299.445 278.099 294.193 278.376 288.937 278.341C287.923 278.341 286.913 278.341 285.902 278.36C274.05 278.403 262.856 278.44 251.977 283.718C249.359 284.98 246.785 286.535 244.297 288.038C240.09 290.854 235.514 293.077 230.698 294.643C228.247 295.257 225.755 295.694 223.241 295.951C221.011 296.194 218.796 296.564 216.609 297.059C212.152 298.342 207.9 300.248 203.977 302.719C203.089 303.238 202.206 303.762 201.329 304.29C195.89 307.356 190.714 310.865 185.854 314.783C184.723 315.734 183.651 316.715 182.665 317.684C181.385 318.953 180.131 320.339 178.916 321.678C176.042 325.258 172.556 328.302 168.621 330.671C164.751 332.521 160.485 333.395 156.197 333.214M31.0633 51.9623C23.1143 55.6657 17.1248 64.0787 14.6245 75.044C12.4383 86.1748 12.8614 97.6599 15.8608 108.6L16.516 111.224C17.1773 113.865 17.8377 116.5 18.497 119.127L18.9544 120.954C23.1329 137.62 27.4535 154.825 33.0072 171.599C34.5154 176.12 35.9896 180.753 37.4175 185.234C40.5389 195.042 43.7655 205.183 47.6163 214.861C54.2666 230.828 61.9143 246.361 70.5144 261.37C77.6227 274.289 84.9628 287.64 94.6208 298.562C112.812 319.101 135.725 331.446 155.925 331.585C160.036 331.792 164.134 330.985 167.858 329.233C171.619 326.953 174.947 324.028 177.689 320.592C178.925 319.237 180.186 317.839 181.5 316.536C182.513 315.536 183.62 314.527 184.782 313.546C189.708 309.569 194.956 306.008 200.473 302.898C201.36 302.368 202.244 301.834 203.137 301.315C207.196 298.764 211.598 296.802 216.21 295.488C218.459 294.974 220.736 294.595 223.031 294.353C225.469 294.097 227.886 293.674 230.266 293.087C234.928 291.552 239.358 289.388 243.435 286.656C245.957 285.113 248.565 283.548 251.254 282.249C262.466 276.817 274.371 276.774 285.868 276.734C286.876 276.734 287.886 276.734 288.9 276.734C294.088 276.766 299.274 276.492 304.43 275.913C311.653 274.971 319.126 274.32 326.352 273.681C338.059 272.891 349.709 271.417 361.244 269.268L361.881 269.132C369.335 267.558 377.024 265.932 382.896 261.232C384.571 259.876 386.021 258.264 387.192 256.457C388.831 254.211 389.859 251.579 390.176 248.818C390.494 246.057 390.09 243.261 389.003 240.702C387.028 237.31 384.365 234.366 381.184 232.061L380.504 231.493C359.3 213.874 336.872 196.974 315.207 180.629L310.423 177.018C304.359 172.454 298.305 167.855 292.423 163.353C287.998 159.65 284.1 155.362 280.837 150.607C280.052 149.567 279.264 148.517 278.457 147.48C275.815 144.085 273.073 140.644 270.422 137.327L270.057 136.873C258.087 121.905 245.7 106.421 238.688 88.2653C237.658 85.5988 236.75 82.8953 235.993 80.2411C235.137 77.2418 234.443 74.1985 233.916 71.1245C233.631 69.4487 233.381 67.7297 233.143 66.094C232.671 62.3007 231.949 58.5427 230.98 54.8448C228.443 47.2421 224.787 40.0589 220.132 33.5315C217.719 29.4269 214.712 25.7008 211.209 22.4736C210.366 21.7658 209.47 21.123 208.53 20.5509C204.158 18.201 199.311 16.8675 194.35 16.6499C192.561 16.4925 190.951 16.4092 189.433 16.3876C183.488 15.8563 177.557 17.5465 172.787 21.1311C169.329 24.2407 166.044 27.5376 162.947 31.0069C160.954 33.1673 158.892 35.3863 156.766 37.488C151.312 43.1638 145.243 48.2161 138.671 52.5517C132.386 56.5898 125.278 59.1761 117.865 60.1222C113.503 60.6245 109.099 60.6587 104.73 60.224C95.7351 59.1363 86.8399 57.3438 78.1264 54.8633C67.2761 51.5807 56.0518 49.6891 44.7236 49.2341C40.0195 49.1466 35.3521 50.0762 31.0416 51.9592" fill="#123D81" fill-opacity="0.3"/>
<path d="M156.281 313.441C156.006 313.441 155.724 313.441 155.44 313.441C135.614 313.055 113.334 301.581 95.8416 282.743C86.7058 272.904 79.7366 260.476 73.5555 249.523C65.7204 236.075 58.7925 222.12 52.8178 207.751C49.0195 198.184 45.8764 188.194 42.8414 178.54C41.8246 175.312 40.8109 172.09 39.7756 168.886C34.4227 152.344 30.5471 135.219 27.1259 120.109C26.4243 117.023 25.7197 113.835 24.9625 110.338C22.5075 99.9522 22.5022 89.1389 24.947 78.7507C25.9712 74.168 28.0519 69.887 31.0237 66.2481C33.9954 62.6093 37.7763 59.7129 42.0657 57.7892C46.168 56.2464 50.5311 55.5127 54.9132 55.6289C65.0186 56.2206 75.0147 58.0363 84.6815 61.0359C92.501 63.339 100.49 65.0231 108.575 66.0726C112.368 66.477 116.194 66.4688 119.985 66.0479C126.38 65.2474 132.538 63.1275 138.068 59.823C143.906 56.2738 149.355 52.1217 154.324 47.435C156.2 45.7437 158.033 43.9383 159.832 42.1884C162.786 39.1943 165.901 36.3621 169.162 33.7045C173.894 30.4493 179.62 28.9583 185.341 29.4918C186.772 29.535 188.262 29.643 189.903 29.8251C194.619 30.124 199.207 31.484 203.322 33.8032C204.236 34.3664 205.11 34.9924 205.937 35.6766C209.245 38.6537 212.122 42.0762 214.485 45.8456C218.89 51.7604 222.441 58.2638 225.033 65.1652C226.074 68.5491 226.894 71.9963 227.49 75.4855C227.769 76.9144 228.044 78.3433 228.353 79.7691C228.921 82.4171 229.638 85.099 230.482 87.7316C231.233 90.074 232.098 92.4473 233.066 94.7835C239.843 111.193 251.3 125.605 261.403 138.324L262.42 139.601C264.627 142.379 266.836 145.157 269.012 147.934C269.708 148.826 270.388 149.721 271.067 150.616C274.001 154.855 277.475 158.694 281.402 162.035C286.907 166.337 292.368 170.519 297.637 174.463C303.114 178.577 308.714 182.737 314.128 186.756C329.464 198.144 345.321 209.917 360.385 222.148L361.003 222.645C364.014 224.783 366.555 227.514 368.47 230.669C369.616 233.063 370.143 235.705 370.005 238.354C369.866 241.004 369.065 243.577 367.676 245.838C366.717 247.548 365.501 249.1 364.069 250.439C359.523 254.046 354.219 256.578 348.554 257.846C347.704 258.109 346.857 258.368 346.011 258.636C334.313 262.34 319.651 263.762 305.469 265.136C301.812 265.488 298.036 265.852 294.383 266.25C289.555 266.71 284.706 266.906 279.857 266.836C278.831 266.836 277.789 266.836 276.766 266.836C265.928 266.796 255.676 266.759 245.651 271.04C243.178 272.095 240.734 273.407 238.366 274.672C234.4 277.006 230.163 278.849 225.75 280.159C223.526 280.673 221.273 281.052 219.004 281.295C216.897 281.523 214.805 281.865 212.736 282.32C208.612 283.46 204.657 285.143 200.976 287.323C200.154 287.782 199.329 288.248 198.504 288.717C193.454 291.472 188.601 294.572 183.978 297.995C182.875 298.843 181.88 299.658 180.928 300.494C179.76 301.522 178.607 302.63 177.491 303.704C174.605 306.824 171.206 309.428 167.441 311.404C163.906 312.87 160.096 313.559 156.271 313.423M54.394 57.2646C50.3956 57.207 46.4221 57.9012 42.6807 59.3107C38.6283 61.1416 35.0595 63.8911 32.2578 67.3408C29.4562 70.7905 27.499 74.8453 26.5418 79.1828C24.169 89.3185 24.1817 99.8655 26.5789 109.995C27.333 113.486 28.0376 116.677 28.7423 119.748C32.1419 134.824 36.0236 151.909 41.3518 168.383C42.3902 171.59 43.4039 174.818 44.4207 178.052C47.4525 187.675 50.5833 197.631 54.36 207.149C60.3077 221.45 67.2036 235.339 75.0019 248.723C81.1212 259.602 88.0502 271.932 97.0531 281.625C114.255 300.143 136.099 311.429 155.486 311.802C159.347 312.029 163.21 311.39 166.792 309.932C170.384 308.035 173.625 305.537 176.372 302.547C177.501 301.464 178.669 300.34 179.865 299.285C180.841 298.427 181.867 297.587 182.996 296.72C187.671 293.252 192.583 290.113 197.694 287.326C198.518 286.854 199.343 286.385 200.167 285.918C203.976 283.667 208.067 281.932 212.334 280.758C214.462 280.288 216.615 279.934 218.781 279.7C220.984 279.464 223.171 279.097 225.33 278.601C229.614 277.321 233.727 275.528 237.578 273.259C239.973 271.975 242.452 270.645 244.995 269.555C255.33 265.142 266.231 265.179 276.76 265.216H279.851C284.641 265.286 289.431 265.094 294.2 264.642C297.863 264.244 301.646 263.88 305.302 263.522C319.401 262.161 333.979 260.744 345.51 257.093L348.066 256.303C353.499 255.105 358.589 252.689 362.95 249.239C364.258 248.015 365.369 246.597 366.245 245.035C367.499 243.011 368.226 240.705 368.361 238.328C368.495 235.951 368.032 233.578 367.014 231.425C365.192 228.475 362.795 225.92 359.965 223.913L359.346 223.413C344.311 211.207 328.465 199.443 313.146 188.067C307.731 184.055 302.131 179.886 296.651 175.769C291.372 171.818 285.902 167.63 280.389 163.322C276.353 159.887 272.779 155.945 269.757 151.594C269.083 150.706 268.403 149.814 267.717 148.928C265.554 146.15 263.338 143.373 261.134 140.595L260.118 139.314C249.962 126.534 238.431 112.029 231.567 95.4069C230.584 93.0306 229.713 90.6141 228.94 88.2284C228.078 85.5434 227.348 82.8121 226.777 80.1117C226.467 78.6766 226.186 77.2354 225.908 75.791C225.321 72.3713 224.517 68.9923 223.501 65.6745C220.953 58.9201 217.472 52.5552 213.156 46.7653C210.87 43.1228 208.089 39.8148 204.892 36.9357C204.124 36.302 203.314 35.7215 202.466 35.1982C198.554 33.0076 194.197 31.7259 189.721 31.4485C188.126 31.2725 186.673 31.1645 185.289 31.1398C179.953 30.6284 174.606 31.9928 170.17 34.9976C166.956 37.6215 163.886 40.4154 160.972 43.3674C159.177 45.1265 157.316 46.9443 155.409 48.6571C150.353 53.4224 144.809 57.6429 138.868 61.2488C133.147 64.6651 126.776 66.8545 120.161 67.6774C116.254 68.1158 112.311 68.1261 108.402 67.7083C100.229 66.651 92.153 64.9504 84.2488 62.6222C74.7138 59.6642 64.8554 57.8694 54.8885 57.2769H54.394" fill="#123D81" fill-opacity="0.3"/>
<path d="M156.506 293.683C156.012 293.683 155.499 293.683 154.976 293.662C135.698 293.02 115.04 282.878 98.2986 265.836C90.3644 257.076 83.5672 247.352 78.0677 236.894C71.0336 225.069 64.8623 212.753 59.6016 200.042C55.8651 190.653 52.8518 180.907 49.9374 171.454C49.3378 169.52 48.7382 167.59 48.1387 165.664C43.7557 150.877 40.1696 135.866 37.3959 120.695C36.8086 117.739 36.2431 114.702 35.7115 111.681C33.8229 102.098 34.2467 92.2046 36.9477 82.8184C38.1103 78.7229 40.2535 74.9714 43.1923 71.8878C46.1311 68.8042 49.7773 66.4811 53.816 65.119C57.4815 63.9912 61.3146 63.5047 65.1461 63.6808C73.8622 64.4132 82.4675 66.1276 90.7978 68.7916C97.8158 70.9467 104.994 72.5422 112.265 73.5629C121.271 74.6625 130.395 72.8864 138.328 68.4891C143.545 65.6649 148.472 62.3364 153.039 58.5516C154.717 57.2183 156.377 55.7956 157.984 54.4191C160.747 51.9747 163.635 49.6755 166.637 47.5307C171.015 44.8683 176.149 43.7187 181.246 44.2593C182.547 44.3272 183.883 44.4538 185.332 44.6544C189.542 45.0701 193.615 46.3756 197.28 48.4844C198.099 48.9923 198.885 49.552 199.632 50.1602C202.635 52.7788 205.288 55.7723 207.525 59.067C211.582 64.2293 214.952 69.8943 217.551 75.9207C218.65 78.9328 219.566 82.0081 220.296 85.1299C220.605 86.312 220.898 87.494 221.223 88.676C221.841 90.9845 222.598 93.3331 223.448 95.6601C224.196 97.7155 225.046 99.8079 225.967 101.876C232.148 115.736 241.2 127.698 251.523 140.79L253.776 143.638C255.292 145.56 256.809 147.486 258.325 149.416C258.894 150.144 259.457 150.873 260.016 151.604C262.722 155.446 265.886 158.946 269.439 162.026C274.384 165.979 279.245 169.741 283.918 173.223C290.869 178.414 298.045 183.589 304.98 188.595C316.338 196.792 328.082 205.26 339.242 214.081L339.786 214.507C342.43 216.352 344.697 218.682 346.468 221.374C347.554 223.351 348.151 225.559 348.211 227.813C348.271 230.068 347.791 232.304 346.811 234.336C346.163 235.808 345.296 237.174 344.24 238.388C341.276 241.348 337.685 243.606 333.732 244.995C332.666 245.461 331.568 245.946 330.49 246.458C318.798 252.057 301.67 253.532 285.105 254.958L284.15 255.041C279.421 255.448 274.85 255.408 270.823 255.371C269.776 255.371 268.728 255.35 267.68 255.337C257.824 255.204 248.519 255.087 239.349 258.402C236.985 259.254 234.639 260.328 232.37 261.361C228.677 263.192 224.806 264.639 220.818 265.682C218.841 266.103 216.844 266.424 214.835 266.642C212.837 266.858 210.853 267.176 208.888 267.596C205.095 268.589 201.442 270.052 198.013 271.95C197.246 272.351 196.482 272.758 195.719 273.169C191.057 275.611 186.529 278.301 182.155 281.227C181.092 281.953 180.143 282.638 179.241 283.323C178.218 284.098 177.201 284.928 176.215 285.724C173.283 288.385 169.937 290.553 166.31 292.143C163.166 293.24 159.848 293.755 156.519 293.662M54.3043 66.6621C50.509 67.9483 47.0842 70.1377 44.3257 73.0413C41.5673 75.9448 39.558 79.4752 38.4714 83.3276C35.8588 92.4646 35.4615 102.091 37.3124 111.412C37.8409 114.424 38.4034 117.443 38.9875 120.393C41.7536 135.506 45.3304 150.459 49.7025 165.189C50.3021 167.115 50.9006 169.047 51.4981 170.985C54.4032 180.395 57.4104 190.12 61.1221 199.449C66.3531 212.089 72.4904 224.336 79.4863 236.095C84.9188 246.432 91.6316 256.046 99.4668 264.71C115.918 281.453 136.167 291.412 155.026 292.041C158.648 292.287 162.283 291.815 165.722 290.653C169.186 289.126 172.377 287.047 175.17 284.496C176.165 283.687 177.195 282.854 178.239 282.061C179.166 281.36 180.134 280.659 181.215 279.919C185.638 276.96 190.217 274.24 194.931 271.771C195.698 271.358 196.477 270.944 197.243 270.537C200.793 268.571 204.575 267.057 208.502 266.031C210.522 265.596 212.564 265.266 214.618 265.043C216.574 264.834 218.517 264.525 220.441 264.117C224.321 263.091 228.086 261.673 231.678 259.886C233.974 258.84 236.354 257.754 238.786 256.877C248.237 253.461 258.127 253.587 267.699 253.714C268.743 253.714 269.788 253.742 270.836 253.751C274.829 253.788 279.353 253.828 284.008 253.427L284.96 253.34C300.613 251.995 318.353 250.467 329.773 245.008C330.87 244.48 331.986 243.992 333.064 243.52C336.797 242.221 340.196 240.113 343.016 237.348C343.958 236.255 344.734 235.03 345.318 233.712C346.195 231.912 346.628 229.928 346.581 227.927C346.534 225.926 346.009 223.964 345.049 222.207C343.376 219.698 341.246 217.526 338.769 215.803L338.229 215.377C327.103 206.588 315.358 198.122 304.022 189.934C297.081 184.925 289.901 179.75 282.941 174.547C278.25 171.062 273.361 167.285 268.416 163.316C264.766 160.15 261.512 156.557 258.724 152.613C258.164 151.888 257.605 151.159 257.039 150.437C255.531 148.509 254.016 146.586 252.493 144.666L250.24 141.814C239.85 128.636 230.739 116.588 224.477 102.555C223.55 100.453 222.678 98.3235 221.915 96.2341C221.05 93.867 220.286 91.4721 219.647 89.1173C219.322 87.9322 219.028 86.7379 218.719 85.5497C218.003 82.4951 217.105 79.4858 216.031 76.538C213.476 70.6357 210.166 65.0889 206.184 60.036C204.027 56.8554 201.471 53.9638 198.578 51.4317C197.89 50.8722 197.168 50.3568 196.415 49.8886C192.942 47.9033 189.086 46.6758 185.103 46.287C183.7 46.0956 182.408 45.9784 181.16 45.9074C176.422 45.3882 171.644 46.4367 167.561 48.8917C164.608 51.0036 161.769 53.27 159.056 55.6814C157.44 57.0671 155.768 58.4991 154.068 59.8509C149.416 63.704 144.397 67.0914 139.082 69.9643C130.863 74.5082 121.417 76.3444 112.092 75.2109C104.726 74.1741 97.4548 72.5538 90.3465 70.3655C82.1411 67.7408 73.666 66.0461 65.0812 65.3134C61.437 65.145 57.7911 65.6065 54.3043 66.6775" fill="#123D81" fill-opacity="0.3"/>
<path d="M156.896 273.941C156.132 273.941 155.35 273.919 154.516 273.885C136.084 272.987 116.502 263.895 100.768 248.942C93.6296 241.56 87.5136 233.256 82.583 224.253C76.3356 214.062 70.9169 203.388 66.3792 192.332C62.5994 182.861 59.6727 173.068 56.8448 163.596L56.5017 162.442C52.6708 148.927 49.7112 135.181 47.6411 121.288C47.1899 118.538 46.7819 115.76 46.4327 113.023C45.0861 104.243 45.9289 95.2662 48.8866 86.8889C50.214 83.2647 52.4419 80.0368 55.3611 77.5082C58.2804 74.9796 61.7952 73.2333 65.5757 72.4331C68.7923 71.713 72.0977 71.4707 75.3851 71.714C82.6903 72.5775 89.8884 74.1824 96.8676 76.5038C103.096 78.5229 109.477 80.04 115.949 81.0405C118.819 81.4094 121.723 81.4487 124.602 81.1578C129.446 80.5484 134.167 79.1951 138.596 77.1458C143.188 75.026 147.588 72.5137 151.747 69.637C153.227 68.6525 154.705 67.6032 156.129 66.5878C158.664 64.7886 161.281 62.9245 164.078 61.3413C168.095 59.2946 172.63 58.4847 177.108 59.0143C178.252 59.1038 179.463 59.2581 180.715 59.4741C184.414 60.0035 187.972 61.2534 191.189 63.1529C191.909 63.6069 192.604 64.0993 193.272 64.6281C195.955 66.8975 198.374 69.4619 200.482 72.2726C204.224 76.6923 207.432 81.5371 210.038 86.7068C211.217 89.3744 212.249 92.1047 213.129 94.8853C213.438 95.7926 213.747 96.703 214.056 97.6104C214.748 99.5917 215.53 101.622 216.383 103.619C217.131 105.391 217.956 107.199 218.837 109.002C225.237 121.181 232.869 132.673 241.614 143.299C243.118 145.228 244.632 147.154 246.154 149.076L247.607 150.928C248.033 151.469 248.458 152.011 248.88 152.554C251.385 156.017 254.264 159.193 257.466 162.026C261.851 165.652 266.011 168.911 270.19 171.988C277.382 177.315 284.91 182.515 292.191 187.542C300.783 193.477 309.666 199.609 318.087 206.016L318.557 206.374C320.831 207.93 322.824 209.858 324.454 212.078C325.456 213.652 326.108 215.424 326.365 217.272C326.622 219.12 326.478 221.002 325.944 222.79C325.606 224.02 325.097 225.197 324.432 226.287C322.702 228.739 320.445 230.773 317.825 232.24C316.897 232.857 315.912 233.511 314.972 234.218C305.932 241.032 289.895 242.859 273.883 243.81C269.769 244.057 265.888 243.977 262.466 243.906H261.762C260.677 243.884 259.598 243.856 258.507 243.832C249.96 243.186 241.365 243.839 233.013 245.767C230.717 246.421 228.424 247.26 226.214 248.069C222.855 249.392 219.399 250.454 215.876 251.245C214.173 251.587 212.427 251.8 210.736 252.013C208.848 252.248 206.892 252.488 205.025 252.905C201.564 253.759 198.211 255.002 195.03 256.609C194.322 256.951 193.621 257.303 192.919 257.655C188.169 260.034 184.04 262.284 180.298 264.497C179.358 265.05 178.431 265.613 177.516 266.185C176.703 266.694 175.909 267.216 175.115 267.728C172.067 269.94 168.707 271.688 165.144 272.913C162.461 273.649 159.685 273.996 156.902 273.941M65.9218 74.0194C62.4038 74.7684 59.1342 76.3978 56.4198 78.7548C53.7054 81.1117 51.6354 84.1188 50.4041 87.4938C47.5527 95.609 46.746 104.3 48.0552 112.801C48.4045 115.513 48.8062 118.276 49.2544 121.004C51.313 134.831 54.2572 148.513 58.0687 161.964L58.4148 163.121C61.2303 172.556 64.1447 182.314 67.8998 191.718C72.3995 202.698 77.7737 213.3 83.9707 223.423C88.8355 232.292 94.8638 240.474 101.896 247.751C117.349 262.438 136.551 271.367 154.59 272.243C157.98 272.502 161.389 272.196 164.678 271.336C168.085 270.155 171.299 268.475 174.212 266.352C175.012 265.825 175.82 265.302 176.638 264.784C177.565 264.207 178.493 263.636 179.457 263.077C183.234 260.834 187.39 258.581 192.175 256.176C192.885 255.822 193.596 255.47 194.313 255.127C197.605 253.46 201.076 252.173 204.66 251.291C206.604 250.859 208.598 250.612 210.533 250.365C212.192 250.161 213.907 249.949 215.552 249.618C218.993 248.841 222.369 247.802 225.652 246.51C227.895 245.69 230.216 244.844 232.571 244.171C241.08 242.192 249.842 241.519 258.554 242.174C259.635 242.199 260.717 242.227 261.802 242.248H262.507C265.906 242.316 269.745 242.397 273.793 242.156C289.534 241.215 305.302 239.44 313.992 232.897C314.972 232.16 315.964 231.502 316.928 230.866C319.343 229.517 321.431 227.654 323.045 225.41C323.631 224.449 324.079 223.41 324.374 222.324C324.844 220.761 324.973 219.115 324.752 217.497C324.531 215.88 323.966 214.329 323.094 212.948C321.56 210.889 319.693 209.099 317.571 207.652L317.105 207.294C308.711 200.912 299.844 194.789 291.267 188.866C283.974 183.827 276.433 178.62 269.222 173.278C265.022 170.192 260.835 166.908 256.431 163.26C253.143 160.341 250.186 157.071 247.613 153.508C247.193 152.965 246.773 152.424 246.346 151.887L244.893 150.036C243.373 148.11 241.859 146.182 240.35 144.252C231.533 133.538 223.841 121.948 217.394 109.665C216.497 107.841 215.66 106.002 214.903 104.206C214.034 102.169 213.24 100.113 212.535 98.098C212.226 97.1721 211.917 96.271 211.608 95.3544C210.745 92.6267 209.734 89.9481 208.579 87.3302C206.027 82.2795 202.889 77.5457 199.23 73.2263C197.197 70.5123 194.864 68.035 192.277 65.841C191.658 65.3502 191.013 64.8938 190.345 64.4738C187.307 62.6858 183.947 61.5114 180.455 61.0172C179.25 60.8105 178.088 60.6623 176.997 60.579C172.846 60.1057 168.646 60.8398 164.903 62.6931C162.181 64.2547 159.594 66.0879 157.094 67.8686C155.66 68.8932 154.173 69.9487 152.671 70.9548C148.426 73.8829 143.934 76.4366 139.245 78.587C134.663 80.7086 129.778 82.1068 124.766 82.7318C121.764 83.0322 118.738 82.9919 115.745 82.6114C109.185 81.6022 102.717 80.0675 96.4041 78.0222C89.5333 75.7342 82.4472 74.15 75.2553 73.2942C72.1284 73.0629 68.9843 73.2937 65.9249 73.9793" fill="#123D81" fill-opacity="0.3"/>
<path d="M157.495 254.223C156.395 254.223 155.23 254.183 153.981 254.106C135.091 252.475 117.251 244.731 103.172 232.049C96.8311 226.062 91.3928 219.188 87.0273 211.643C81.5944 203.062 76.9302 194.019 73.0888 184.62C65.2723 164.455 60.1423 143.352 57.8307 121.853C57.5216 119.334 57.2713 116.807 57.0982 114.341C56.2903 106.347 57.5679 98.2804 60.8069 90.9258C62.338 87.7924 64.6616 85.1125 67.548 83.1509C70.4343 81.1893 73.7835 80.0141 77.2641 79.7414C80.0141 79.4106 82.7938 79.4106 85.5438 79.7414C91.4103 80.7114 97.1814 82.188 102.792 84.1546C108.253 86.0617 113.862 87.5181 119.562 88.5093C121.969 88.8584 124.409 88.9206 126.831 88.6944C130.923 88.1989 134.942 87.2199 138.804 85.778C142.797 84.3667 146.687 82.6765 150.443 80.7197C151.728 80.0778 152.989 79.405 154.253 78.7322C156.58 77.4977 158.988 76.2107 161.51 75.1244C165.143 73.7061 169.078 73.2335 172.945 73.751C173.996 73.8731 175.04 74.0482 176.073 74.2757C179.254 74.9131 182.297 76.1062 185.063 77.8001C185.663 78.1828 186.272 78.6118 186.874 79.0747C189.244 80.994 191.43 83.1285 193.405 85.4508C196.82 89.1302 199.852 93.1464 202.454 97.4377C203.829 99.8356 204.96 102.342 206.054 104.767C206.311 105.341 206.57 105.912 206.833 106.486C207.581 108.125 208.378 109.82 209.259 111.523C210.016 113.026 210.823 114.557 211.654 116.072C217.534 126.478 224.223 136.406 231.66 145.765C233.23 147.801 234.926 149.968 236.842 152.384L237.566 153.31C239.893 156.467 242.52 159.391 245.41 162.044C249.158 165.272 252.743 168.127 256.372 170.769C263.091 175.685 270.279 180.336 277.221 184.814C283.739 189.024 290.476 193.378 296.843 197.968L297.241 198.255C299.153 199.509 300.877 201.027 302.363 202.764C304.206 205.165 305.14 208.141 304.999 211.164C304.969 212.151 304.824 213.131 304.566 214.084C303.824 216.279 302.603 218.282 300.99 219.948C300.471 220.565 299.936 221.21 299.42 221.895C292.884 230.58 277.623 232.166 263.57 232.573C260.04 232.672 256.662 232.549 253.946 232.45L252.654 232.4C251.486 232.36 250.317 232.314 249.149 232.268C241.633 231.673 234.074 231.949 226.622 233.092C224.273 233.552 221.915 234.163 219.634 234.758C216.803 235.496 213.88 236.255 210.863 236.752C209.506 236.977 208.116 237.144 206.771 237.304C204.898 237.533 202.958 237.767 201.097 238.159C197.962 238.865 194.907 239.892 191.983 241.224C191.334 241.505 190.691 241.795 190.048 242.091C187.016 243.477 183.966 244.977 181.018 246.412L174.58 249.538C171.219 251.366 167.631 252.742 163.908 253.63C161.799 254.03 159.655 254.22 157.508 254.198M81.6095 81.1271C80.2205 81.1316 78.8329 81.2119 77.4527 81.3678C74.235 81.59 71.1337 82.6594 68.4644 84.4673C65.7951 86.2753 63.653 88.7571 62.2564 91.6603C59.155 98.7539 57.9373 106.526 58.7207 114.227C58.8938 116.662 59.138 119.165 59.447 121.652C61.7389 143.011 66.8304 163.977 74.5908 184.012C78.3994 193.327 83.0254 202.287 88.4149 210.788C92.697 218.196 98.0299 224.946 104.248 230.83C118.055 243.276 135.555 250.881 154.086 252.489C157.256 252.758 160.447 252.616 163.581 252.066C167.162 251.2 170.615 249.87 173.851 248.109L180.282 244.98C183.243 243.529 186.302 242.026 189.353 240.631C190.008 240.323 190.66 240.036 191.318 239.752C194.344 238.375 197.504 237.314 200.748 236.585C202.679 236.178 204.654 235.94 206.564 235.709C207.89 235.551 209.259 235.385 210.582 235.166C213.524 234.681 216.414 233.931 219.205 233.2C221.51 232.601 223.893 231.981 226.294 231.515C233.87 230.345 241.556 230.058 249.199 230.66C250.364 230.706 251.529 230.752 252.694 230.793L253.992 230.839C256.823 230.944 260.034 231.064 263.505 230.962C277.184 230.57 291.987 229.07 298.119 220.938C298.66 220.219 299.21 219.565 299.742 218.926C301.201 217.433 302.312 215.636 302.996 213.664C303.438 211.979 303.495 210.217 303.162 208.507C302.83 206.798 302.116 205.185 301.074 203.788C299.689 202.171 298.084 200.756 296.305 199.585L295.906 199.298C289.577 194.73 282.855 190.391 276.355 186.194C269.386 181.691 262.182 177.037 255.429 172.093C251.764 169.426 248.145 166.538 244.365 163.285C241.395 160.558 238.693 157.553 236.299 154.31L235.575 153.4C233.653 150.974 231.953 148.801 230.38 146.761C222.89 137.336 216.154 127.337 210.236 116.856C209.395 115.313 208.579 113.77 207.813 112.261C206.941 110.539 206.116 108.823 205.359 107.162L204.58 105.437C203.452 102.94 202.386 100.579 201.048 98.2462C198.502 94.0484 195.536 90.1191 192.196 86.5187C190.29 84.2716 188.179 82.2054 185.891 80.3463C185.329 79.9111 184.76 79.513 184.201 79.1581C181.598 77.5666 178.735 76.4466 175.742 75.8497C174.762 75.6346 173.772 75.4688 172.775 75.3528C169.19 74.8682 165.541 75.2993 162.168 76.6058C159.696 77.6613 157.331 78.9266 155.035 80.1518C153.759 80.8308 152.485 81.5098 151.191 82.1579C147.365 84.1608 143.404 85.8923 139.335 87.3396C135.355 88.8245 131.211 89.8295 126.991 90.3332C124.441 90.5716 121.871 90.5063 119.336 90.1388C113.548 89.135 107.853 87.6589 102.307 85.7255C96.7877 83.7884 91.1108 82.3325 85.3398 81.374C84.1029 81.2141 82.8567 81.1357 81.6095 81.1394" fill="#123D81" fill-opacity="0.3"/>
<path d="M158.203 235.144C156.584 235.144 154.847 235.067 152.921 234.909C135.436 233.308 118.8 226.641 105.058 215.726C99.5233 211.133 94.7612 205.685 90.9523 199.588C86.3149 192.638 82.4015 185.233 79.273 177.488C76.58 170.666 74.3366 163.677 72.5572 156.563C69.8464 145.552 68.1509 134.317 67.4918 122.998C67.3249 120.708 67.2415 118.43 67.2384 116.236C66.9489 109.013 68.6599 101.851 72.1833 95.5365C75.3449 90.7066 80.3547 88.2654 88.3902 87.6482C90.689 87.5644 92.9881 87.8033 95.2204 88.358C99.5913 89.3859 103.889 90.7014 108.086 92.296C112.82 94.1278 117.701 95.5546 122.677 96.5611C124.622 96.8904 126.601 96.9764 128.568 96.8173C131.042 96.5751 133.496 96.1553 135.911 95.5612C136.782 95.3699 137.657 95.1785 138.544 94.9995C142.083 94.2712 145.504 93.3083 148.672 92.3762C149.747 92.0573 150.818 91.7322 151.883 91.401C154.015 90.7467 156.21 90.0647 158.472 89.4999C162.568 88.4633 166.864 88.5219 170.93 89.6696C173.587 90.4067 176.117 91.5442 178.431 93.0429C178.931 93.3515 179.432 93.7126 179.976 94.1076C182.031 95.6768 183.98 97.381 185.808 99.2091C188.909 102.148 191.765 105.336 194.347 108.739C196.078 111.079 197.605 113.545 199.082 115.93C199.918 117.288 200.763 118.646 201.616 120.004C202.391 121.238 203.171 122.473 203.956 123.707C210.001 133.253 215.641 141.462 221.201 148.804C222.638 150.702 224.106 152.591 225.571 154.418C227.783 157.331 230.224 160.064 232.871 162.59C235.785 165.265 238.856 167.763 242.069 170.071C247.851 174.235 254.249 177.944 260.433 181.534C265.313 184.367 270.36 187.292 275.101 190.437L275.363 190.61C276.915 191.6 278.367 192.739 279.696 194.011C281.365 195.714 282.642 197.761 283.436 200.008C283.708 200.756 283.923 201.523 284.079 202.304C284.453 204.916 284.186 207.58 283.3 210.066C280.265 220.716 266.119 222.037 252.685 221.932C249.696 221.907 246.905 221.744 244.649 221.608L242.959 221.509C241.587 221.438 240.205 221.352 238.827 221.268C232.442 220.727 226.027 220.646 219.631 221.028C216.664 221.281 213.673 221.71 210.777 222.123C208.984 222.383 207.13 222.648 205.272 222.873C204.512 222.966 203.746 223.049 202.979 223.139C200.874 223.373 198.699 223.617 196.597 224.028C193.785 224.597 191.028 225.406 188.355 226.447C187.767 226.672 187.18 226.904 186.599 227.142C185.276 227.675 183.96 228.237 182.643 228.796C180.421 229.74 178.128 230.715 175.844 231.552C174.997 231.86 174.152 232.151 173.31 232.425C169.676 233.695 165.911 234.55 162.085 234.974C160.849 235.088 159.547 235.144 158.169 235.144M89.475 89.2468C89.1659 89.2468 88.8383 89.2468 88.52 89.2839C80.9203 89.8702 76.4514 92.009 73.5679 96.4284C70.2166 102.477 68.5927 109.329 68.8733 116.236C68.8733 118.396 68.9598 120.627 69.1236 122.88C69.7746 134.104 71.4546 145.244 74.1427 156.162C75.9047 163.207 78.1253 170.13 80.7905 176.886C83.8753 184.531 87.736 191.842 92.3121 198.702C96.0278 204.653 100.672 209.973 106.068 214.46C119.56 225.175 135.894 231.719 153.06 233.286C156.023 233.569 159.004 233.592 161.97 233.354C165.673 232.939 169.316 232.111 172.834 230.885C173.659 230.617 174.487 230.33 175.306 230.03C177.547 229.209 179.822 228.24 182.025 227.305C183.348 226.743 184.674 226.179 186.006 225.639C186.602 225.398 187.196 225.163 187.795 224.935C190.555 223.859 193.403 223.023 196.307 222.435C198.47 222.015 200.683 221.768 202.822 221.528C203.579 221.441 204.339 221.358 205.096 221.262C206.951 221.04 208.783 220.775 210.567 220.522C213.484 220.102 216.5 219.67 219.514 219.414C225.989 219.023 232.484 219.103 238.947 219.651C240.322 219.735 241.698 219.818 243.07 219.892L244.77 219.991C246.992 220.123 249.758 220.299 252.703 220.299C265.511 220.401 278.998 219.216 281.73 209.618C282.547 207.378 282.804 204.974 282.481 202.612C282.34 201.916 282.147 201.231 281.903 200.563C281.196 198.537 280.048 196.692 278.54 195.162C277.301 193.991 275.95 192.944 274.507 192.036L274.198 191.82C269.497 188.703 264.466 185.789 259.608 182.969C253.389 179.361 246.958 175.63 241.111 171.42C237.848 169.074 234.728 166.536 231.768 163.819C229.057 161.236 226.557 158.442 224.292 155.461C222.818 153.61 221.337 151.721 219.891 149.81C214.306 142.431 208.641 134.185 202.584 124.602C201.797 123.368 201.015 122.125 200.238 120.874C199.385 119.512 198.539 118.152 197.7 116.794C196.174 114.325 194.73 111.998 193.04 109.715C190.51 106.383 187.712 103.263 184.674 100.385C182.898 98.6074 181.006 96.9505 179.009 95.4254C178.505 95.052 178.029 94.7218 177.559 94.4162C175.384 93.0098 173.007 91.9421 170.51 91.2498C169.696 91.0213 168.871 90.8369 168.037 90.6973C164.993 90.2181 161.884 90.3524 158.892 91.0924C156.682 91.6448 154.497 92.3269 152.402 92.9688C151.33 93.299 150.254 93.6323 149.169 93.9502C145.967 94.8915 142.509 95.8636 138.909 96.6043C138.028 96.7833 137.162 96.9747 136.303 97.1629C133.811 97.772 131.279 98.2031 128.725 98.453C126.627 98.6207 124.515 98.5295 122.439 98.1814C117.362 97.1596 112.381 95.7069 107.552 93.8391C103.418 92.2693 99.1852 90.9744 94.8804 89.9628C93.1042 89.5429 91.2901 89.303 89.4657 89.2468" fill="#123D81" fill-opacity="0.3"/>
<path d="M161.779 219.484C160.722 219.484 159.693 219.46 158.71 219.429C139.67 219.069 121.14 213.221 105.351 202.587C93.2579 194.517 83.3001 177.494 78.7106 157.047C76.5903 147.267 75.5292 137.288 75.5458 127.281C75.4933 120.238 76.5008 107.529 83.844 101.502C85.8437 99.9689 88.1723 98.9201 90.6467 98.4382C93.1212 97.9562 95.6738 98.0542 98.1039 98.7244C102.695 99.818 107.167 101.36 111.455 103.329C115.553 105.201 119.817 106.689 124.191 107.773C126.821 108.228 129.51 108.228 132.14 107.773C133.599 107.603 135.101 107.427 136.711 107.39C140.494 107.304 144.275 107.228 148.054 107.162L153.873 107.051C156.596 106.885 159.329 107.06 162.008 107.573C165.421 108.535 168.619 110.139 171.431 112.298C179.245 117.753 186.271 124.256 192.311 131.623C196.041 136.175 199.4 141.089 202.652 145.841C204.732 148.884 206.879 152.029 209.102 155.038C213.76 161.788 219.512 167.715 226.121 172.577C230.887 175.693 235.898 178.418 241.104 180.725C247.923 183.59 254.318 187.371 260.111 191.965C262.988 194.321 264.901 197.648 265.489 201.316C265.751 202.812 265.661 204.348 265.224 205.802C264.788 207.257 264.018 208.589 262.976 209.695C256.826 216.034 241.126 214.602 233.585 213.917C232.893 213.855 232.268 213.797 231.731 213.753C229.506 213.574 227.271 213.368 225.03 213.164C211.123 211.895 196.73 210.581 183.19 214.809C181.79 215.247 180.384 215.753 179.021 216.241C176.653 217.145 174.233 217.906 171.774 218.518C168.491 219.21 165.142 219.534 161.788 219.484M80.3053 156.693C84.8052 176.737 94.5219 193.388 106.266 201.23C121.799 211.691 140.03 217.444 158.762 217.796C162.996 218.039 167.243 217.746 171.403 216.926C173.797 216.326 176.153 215.584 178.459 214.704C179.837 214.21 181.262 213.698 182.69 213.253C196.548 208.933 211.098 210.254 225.169 211.537C227.404 211.741 229.635 211.945 231.854 212.127C232.408 212.17 233.035 212.229 233.73 212.291C241.024 212.954 256.186 214.327 261.805 208.559C262.678 207.628 263.32 206.505 263.678 205.28C264.036 204.056 264.101 202.764 263.866 201.51C263.327 198.236 261.606 195.273 259.03 193.178C253.345 188.691 247.078 184.993 240.4 182.185C235.111 179.841 230.022 177.071 225.182 173.904C218.427 168.945 212.547 162.895 207.785 156.004C205.547 152.971 203.387 149.813 201.295 146.761C198.062 142.036 194.721 137.151 191.037 132.654C185.094 125.403 178.179 119.003 170.488 113.634C167.846 111.601 164.843 110.085 161.637 109.165C159.091 108.688 156.496 108.526 153.91 108.684L148.091 108.795C144.312 108.867 140.534 108.943 136.758 109.023C135.212 109.057 133.757 109.23 132.338 109.396C129.53 109.882 126.66 109.874 123.854 109.375C119.379 108.273 115.016 106.754 110.825 104.838C106.635 102.914 102.267 101.404 97.7825 100.329C95.5909 99.7131 93.2863 99.6123 91.0492 100.035C88.8121 100.457 86.7035 101.391 84.8886 102.764C78.0708 108.356 77.1375 120.516 77.1869 127.269C77.1711 137.16 78.2187 147.024 80.3115 156.693" fill="#123D81" fill-opacity="0.3"/>
</g>
</g>
<defs>
<clipPath id="clip0_84_2768">
<rect width="414" height="353" fill="white"/>
</clipPath>
</defs>
</svg>
