<svg width="334" height="331" viewBox="0 0 334 331" fill="none" xmlns="http://www.w3.org/2000/svg">
<mask id="mask0_3_1936" style="mask-type:luminance" maskUnits="userSpaceOnUse" x="0" y="0" width="414" height="353">
<path d="M414 0H0V353H414V0Z" fill="white"/>
</mask>
<g mask="url(#mask0_3_1936)">
<path d="M178.857 182.703C178.025 182.728 177.195 182.604 176.406 182.336C174.545 181.411 172.91 180.089 171.615 178.465C170.321 176.84 169.399 174.951 168.915 172.932C168.736 172.048 168.759 171.135 168.983 170.261C169.208 169.387 169.627 168.576 170.21 167.886C170.927 167.083 171.897 166.548 172.959 166.37C174.022 166.192 175.114 166.382 176.054 166.908C177.375 167.649 178.56 168.607 179.562 169.741L185.434 175.679C187.31 177.586 186.76 179.126 186.268 179.873C185.307 180.848 184.147 181.605 182.868 182.095C181.588 182.585 180.219 182.795 178.851 182.713M171.434 168.979C171.013 169.48 170.711 170.07 170.551 170.705C170.39 171.339 170.375 172.001 170.507 172.642C170.937 174.391 171.739 176.027 172.859 177.439C173.979 178.851 175.39 180.005 176.997 180.824C178.367 181.157 179.796 181.163 181.168 180.842C182.541 180.52 183.818 179.879 184.896 178.972C185.06 178.722 185.49 178.068 184.278 176.812L178.406 170.877C177.523 169.874 176.479 169.026 175.315 168.368C174.698 167.998 173.97 167.855 173.258 167.963C172.546 168.072 171.894 168.426 171.415 168.964" fill="#123D81" fill-opacity="0.3"/>
<path d="M165.729 190.666C156.115 190.94 146.637 188.352 138.501 183.231C129.827 177.441 122.991 169.297 118.798 159.757C116.878 155.873 115.751 151.646 115.482 147.323C115.423 145.687 115.618 141.731 118.638 140.324C119.839 139.863 121.134 139.702 122.411 139.854L141.554 140.688C142.552 140.734 143.557 140.777 144.558 140.839C147.987 140.942 151.378 141.581 154.609 142.731C158.082 144.283 161.315 146.324 164.208 148.792C165.333 149.665 166.443 150.505 167.537 151.335C172.011 154.528 176.199 158.105 180.05 162.026C180.223 162.214 180.406 162.396 180.585 162.581C183.261 165.3 186.148 167.917 188.929 170.445C190.258 171.652 191.587 172.861 192.907 174.09C193.908 175.016 194.888 175.991 195.831 176.929C196.909 178.003 197.932 179.015 198.921 179.904C199.23 180.191 199.672 180.521 200.13 180.889C202.203 182.509 205.041 184.731 204.147 187.326C203.996 187.757 203.755 188.152 203.441 188.483C203.127 188.815 202.746 189.077 202.324 189.252C199.784 190.015 197.124 190.296 194.48 190.082C194.066 190.082 193.661 190.067 193.272 190.067C191.768 190.028 190.268 189.886 188.784 189.641C187.718 189.49 186.621 189.332 185.527 189.265C182.423 189.162 179.317 189.369 176.255 189.882C174.71 190.089 173.223 190.286 171.74 190.406C169.681 190.567 167.676 190.653 165.732 190.653M121.36 141.456C120.666 141.426 119.974 141.544 119.33 141.805C117.136 142.826 117.08 146.243 117.117 147.264C117.378 151.375 118.456 155.392 120.288 159.081C124.351 168.337 130.976 176.241 139.385 181.864C149.023 187.759 160.384 190.201 171.598 188.789C173.035 188.675 174.487 188.481 176.023 188.274C179.188 187.75 182.398 187.543 185.604 187.657C186.757 187.731 187.888 187.891 189.004 188.045C190.413 188.281 191.837 188.418 193.266 188.456C193.661 188.456 194.069 188.456 194.502 188.456C196.928 188.658 199.37 188.416 201.709 187.743C201.912 187.658 202.096 187.531 202.249 187.372C202.401 187.213 202.52 187.024 202.596 186.817C203.112 185.32 200.803 183.515 199.116 182.188C198.634 181.811 198.189 181.456 197.818 181.132C196.801 180.207 195.769 179.191 194.675 178.102C193.748 177.176 192.774 176.213 191.791 175.299C190.475 174.065 189.149 172.871 187.826 171.67C185.026 169.124 182.13 166.491 179.423 163.742C179.231 163.55 179.043 163.356 178.86 163.158C175.069 159.304 170.951 155.785 166.551 152.641C165.45 151.807 164.338 150.965 163.21 150.088C160.434 147.723 157.339 145.759 154.015 144.255C150.942 143.173 147.72 142.573 144.462 142.478C143.47 142.416 142.475 142.37 141.486 142.326L122.34 141.49C122.031 141.49 121.697 141.462 121.364 141.462" fill="#123D81" fill-opacity="0.3"/>
<path d="M216.015 198.424C213.781 198.424 211.484 198.245 209.327 198.076C208.477 198.011 207.658 197.946 206.886 197.9C204.361 197.686 201.853 197.306 199.379 196.761C197.373 196.366 195.299 195.959 193.231 195.749C187.219 195.403 181.186 195.844 175.288 197.06C173.183 197.4 171.004 197.755 168.862 198.026C162.319 198.851 155.675 198.305 149.355 196.425C147.343 195.807 145.195 195.301 143.121 194.817C139.1 194.039 135.184 192.797 131.451 191.113C126.415 188.153 122.047 184.185 118.622 179.457C113.049 173.232 108.205 166.391 104.186 159.069C100.15 151.642 98.8435 143.038 100.493 134.75C100.713 133.631 101.174 132.572 101.843 131.648C103.93 129.019 107.688 129.102 111.446 129.584C113.492 129.846 115.578 130.08 117.649 130.275C125.028 130.96 132.443 131.195 139.851 130.978L141.032 130.938C144.324 130.716 147.631 130.842 150.897 131.315C164.22 133.741 172.815 143.181 181.129 152.301L181.503 152.712C181.812 153.042 182.105 153.366 182.411 153.69C188.206 159.748 194.86 166.103 203.356 173.685C204.398 174.611 205.445 175.593 206.493 176.577C208.92 178.958 211.51 181.167 214.244 183.188C214.862 183.617 215.765 184.135 216.813 184.731C221.022 187.144 226.783 190.447 225.76 194.477C225.567 195.179 225.204 195.822 224.705 196.352C224.206 196.882 223.584 197.282 222.895 197.517C220.664 198.179 218.342 198.483 216.015 198.418M189.291 193.919C190.651 193.919 192.02 193.98 193.398 194.116C195.543 194.335 197.654 194.752 199.694 195.153C202.099 195.682 204.537 196.052 206.991 196.261C207.77 196.31 208.595 196.375 209.463 196.443C213.763 197.059 218.139 196.899 222.382 195.971C222.814 195.825 223.204 195.577 223.518 195.247C223.832 194.916 224.06 194.514 224.184 194.076C224.904 191.246 219.548 188.178 216.009 186.147C214.927 185.53 213.994 184.993 213.32 184.524C210.52 182.46 207.869 180.201 205.387 177.765C204.345 176.79 203.31 175.821 202.274 174.898C193.748 167.288 187.063 160.905 181.24 154.813C180.931 154.483 180.622 154.147 180.313 153.81L179.939 153.4C171.811 144.468 163.404 135.234 150.625 132.91C147.474 132.458 144.285 132.34 141.109 132.559L139.922 132.596C132.447 132.819 124.965 132.582 117.519 131.886C115.43 131.691 113.325 131.457 111.257 131.191C107.981 130.772 104.73 130.658 103.145 132.651C102.628 133.392 102.273 134.233 102.103 135.12C100.539 143.031 101.795 151.238 105.651 158.322C109.612 165.526 114.382 172.256 119.868 178.383C123.155 182.931 127.343 186.758 132.171 189.626C135.794 191.258 139.594 192.466 143.495 193.227C145.597 193.721 147.769 194.23 149.834 194.863C155.933 196.677 162.344 197.202 168.658 196.406C170.772 196.138 172.936 195.789 175.028 195.449C179.733 194.558 184.503 194.048 189.291 193.925" fill="#123D81" fill-opacity="0.3"/>
<path d="M237.77 206.578C234.05 206.511 230.336 206.247 226.644 205.788C225.355 205.649 224.119 205.516 222.969 205.412C219.355 205.007 215.773 204.355 212.248 203.461C209.206 202.71 206.128 202.117 203.025 201.683C193.943 201.035 184.814 201.763 175.949 203.844C173.146 204.359 170.247 204.887 167.373 205.325C149.756 207.998 131.522 203.193 114.672 191.437C103.905 183.932 97.0561 174.08 95.3656 163.708C95.1987 162.671 95.0565 161.652 94.8927 160.646C94.3956 156.362 93.4456 152.142 92.0587 148.058C89.2772 140.58 86.6842 132.627 87.9977 125.013C88.217 123.175 88.8268 121.406 89.7861 119.822C90.7455 118.239 92.0324 116.878 93.5607 115.831C98.4253 112.671 104.885 113.362 109.449 114.523C110.067 114.677 110.686 114.831 111.276 114.967C116.391 116.334 121.691 116.884 126.979 116.597C130.193 116.307 133.391 115.855 136.56 115.242C143.331 113.508 150.416 113.39 157.242 114.896C167.873 117.982 173.684 125.362 179.84 133.182C181.769 135.636 183.765 138.172 185.919 140.561C195.417 151.094 205.547 161.319 216.031 170.948C217.36 172.182 218.729 173.485 220.048 174.756C223.752 178.555 227.801 182 232.145 185.049C233.053 185.638 234.441 186.37 236.048 187.209C242.563 190.644 251.482 195.347 250.293 201.128C250.074 202.13 249.597 203.057 248.91 203.819C248.223 204.581 247.349 205.151 246.374 205.473C243.575 206.281 240.669 206.655 237.757 206.581M196.807 199.677C198.955 199.673 201.1 199.798 203.233 200.054C206.392 200.49 209.526 201.094 212.622 201.862C216.077 202.735 219.588 203.374 223.13 203.776C224.292 203.881 225.534 204.014 226.838 204.155C232.958 204.816 240.57 205.634 245.892 203.909C246.59 203.672 247.216 203.261 247.71 202.715C248.204 202.169 248.551 201.506 248.716 200.788C249.659 196.208 241.024 191.653 235.31 188.638C233.668 187.774 232.25 187.027 231.292 186.397C226.851 183.297 222.711 179.787 218.926 175.914C217.551 174.59 216.253 173.34 214.937 172.13C204.429 162.467 194.245 152.208 184.717 141.638C182.526 139.206 180.514 136.648 178.567 134.173C172.58 126.565 166.925 119.377 156.8 116.446C150.072 114.498 143.653 115.631 136.86 116.831C133.638 117.454 130.387 117.913 127.118 118.205C121.663 118.51 116.193 117.948 110.914 116.541C110.296 116.395 109.678 116.244 109.06 116.088C106.677 115.282 104.157 114.965 101.648 115.153C99.1401 115.341 96.6954 116.032 94.4601 117.183C93.1238 118.111 92.0014 119.313 91.1679 120.709C90.3343 122.106 89.8088 123.663 89.6264 125.278C88.3902 132.506 90.909 140.209 93.6071 147.48C95.0362 151.668 96.0143 155.996 96.5246 160.39C96.676 161.39 96.8336 162.402 96.9943 163.433C98.6107 173.368 105.224 182.833 115.621 190.085C132.378 201.773 149.71 206.356 167.141 203.705C169.99 203.273 172.88 202.745 175.671 202.236C182.624 200.747 189.699 199.89 196.807 199.677Z" fill="#123D81" fill-opacity="0.3"/>
<path d="M156.188 353C134.764 353 110.417 339.393 90.9956 316.549C80.5278 304.235 72.4522 289.27 64.6207 274.799C55.1805 258.109 46.7408 240.874 39.346 223.185C35.2757 212.893 31.8328 202.146 28.4919 191.727C26.7674 186.339 24.981 180.771 23.1329 175.337C17.5081 158.801 12.934 141.885 8.48668 125.531C6.90122 119.668 5.25704 113.628 3.58504 107.65C-0.0488174 95.6535 -0.894418 82.9874 1.11259 70.6154C3.52014 57.999 10.0752 47.7436 18.6825 43.1791C23.6159 40.7518 29.0532 39.521 34.5525 39.5867C47.128 39.238 59.9972 42.4384 72.4398 45.5308C86.6564 49.0645 101.346 52.7185 115.417 50.9656C131.871 48.9163 143.52 39.596 156.979 25.2297C159.245 22.807 161.46 20.2177 163.605 17.7179C166.963 13.6483 170.541 9.76524 174.323 6.08599C181.021 -0.191345 191.102 -0.345655 199.138 0.222206C204.846 0.359748 210.444 1.82433 215.487 4.49968C220.964 8.37977 225.443 13.5008 228.557 19.4431C233.633 26.861 237.527 35.0201 240.1 43.6297C241.041 47.7903 241.693 52.011 242.05 56.2615C242.251 58.1132 242.455 60.0483 242.712 61.9278C243.582 68.2958 245.143 74.5503 247.369 80.5808C254.477 100.058 267.89 116.726 280.849 132.846C284.035 136.808 287.339 140.907 290.498 144.999C291.425 146.187 292.315 147.388 293.211 148.585C296.62 153.643 300.741 158.184 305.447 162.069C312.04 167.025 318.62 171.989 325.186 176.96C348.712 194.773 376.329 215.991 402.76 238.292L403.514 238.931C407.242 241.671 410.321 245.195 412.535 249.254C416.738 258.513 411.194 269.173 403.844 274.502C396.214 280.036 386.516 281.74 377.232 283.011C367.159 284.394 356.834 285.091 346.827 285.77C336.319 286.48 325.434 287.214 314.95 288.745C308.3 289.567 301.602 289.944 294.902 289.872C282.101 290.014 270.007 290.143 258.31 296.374C255.559 297.837 252.867 299.636 250.274 301.374C245.831 304.679 240.913 307.294 235.687 309.13C233.012 309.836 230.286 310.331 227.534 310.611C225.174 310.866 222.831 311.261 220.518 311.796C214.689 313.635 209.174 316.349 204.163 319.845C196.915 323.926 190.264 328.984 184.399 334.878C183.02 336.378 181.682 338.029 180.381 339.627C177.498 343.67 173.912 347.164 169.793 349.942C165.689 352.133 161.073 353.189 156.423 353H156.188ZM36.4501 41.1823C35.832 41.1823 35.2139 41.1823 34.5958 41.207C29.3511 41.1366 24.1633 42.2995 19.452 44.6018C11.2898 48.9225 5.03452 58.7675 2.71969 70.8994C0.756942 83.0313 1.59198 95.4506 5.16123 107.212C6.83632 113.196 8.47741 119.248 10.0629 125.112C14.4947 141.441 19.0719 158.332 24.6813 174.799C26.5356 180.25 28.3219 185.827 30.0496 191.218C33.375 201.6 36.8148 212.334 40.8666 222.574C48.2375 240.203 56.6504 257.379 66.0609 274.012C73.8398 288.412 81.8846 303.297 92.2441 315.484C111.353 337.964 135.24 351.355 156.188 351.355H156.426C160.79 351.544 165.125 350.565 168.983 348.519C172.922 345.832 176.354 342.471 179.12 338.591C180.43 336.973 181.784 335.304 183.193 333.764C189.158 327.759 195.924 322.606 203.301 318.45C208.451 314.859 214.122 312.078 220.116 310.204C222.494 309.647 224.903 309.235 227.33 308.969C229.996 308.701 232.638 308.223 235.229 307.54C240.293 305.746 245.058 303.204 249.365 299.998C252.005 298.232 254.734 296.414 257.552 294.911C269.606 288.492 282.462 288.35 294.896 288.214C301.523 288.288 308.147 287.918 314.725 287.11C325.27 285.566 336.18 284.832 346.731 284.116C356.698 283.44 367.005 282.746 377.018 281.372C386.092 280.138 395.562 278.468 402.889 273.16C409.716 268.222 414.896 258.377 411.052 249.908C408.957 246.057 406.023 242.724 402.466 240.156L401.712 239.517C375.303 217.269 347.707 196.063 324.201 178.262C317.63 173.287 311.051 168.325 304.464 163.374C299.641 159.391 295.411 154.741 291.904 149.564C291.014 148.372 290.121 147.178 289.206 145.996C286.051 141.916 282.759 137.824 279.579 133.867C266.53 117.646 253.043 100.869 245.833 81.1394C243.566 74.9962 241.976 68.6247 241.092 62.1376C240.832 60.2334 240.625 58.2953 240.424 56.4251C240.073 52.2488 239.435 48.1015 238.515 44.0124C235.973 35.568 232.142 27.5659 227.157 20.2887C224.191 14.5634 219.901 9.6268 214.643 5.88848C209.822 3.3559 204.479 1.97413 199.033 1.85172C191.328 1.29929 181.688 1.42583 175.451 7.26801C171.713 10.9063 168.176 14.7461 164.857 18.7703C162.694 21.2855 160.475 23.8872 158.181 26.3346C144.475 40.9694 132.573 50.4656 115.63 52.5673C101.256 54.3573 86.4092 50.6662 72.0535 47.0986C60.4661 43.7071 48.5127 41.7177 36.4501 41.173" fill="#123D81" fill-opacity="0.3"/>
<path d="M156.194 333.221H155.925C135.274 333.079 111.903 320.533 93.4062 299.643C83.6184 288.588 75.895 274.552 69.0803 262.164C60.4418 247.096 52.758 231.501 46.0741 215.473C42.2171 205.736 38.9658 195.567 35.8506 185.731C34.4289 181.256 32.9547 176.63 31.4496 172.118C25.8866 155.285 21.5598 138.034 17.3628 121.353L16.9054 119.529C16.244 116.899 15.5836 114.263 14.9243 111.619L14.2691 108.999C11.2074 97.8091 10.7842 86.0633 13.0329 74.683C15.6444 63.224 21.9677 54.4036 30.3741 50.4841C34.8968 48.503 39.7949 47.5219 44.7328 47.6078C56.2046 48.0554 67.572 49.9648 78.5591 53.2895C87.189 55.7454 95.9983 57.5223 104.906 58.6039C109.159 59.0257 113.446 58.9926 117.692 58.5052C124.871 57.5884 131.755 55.081 137.839 51.1662C144.307 46.8964 150.279 41.9206 155.644 36.3308C157.736 34.263 159.782 32.0471 161.766 29.9084C164.905 26.391 168.235 23.0478 171.74 19.8937C175.825 16.3569 181.596 14.6626 189.452 14.7521C191.016 14.7706 192.666 14.8601 194.496 15.0206C199.706 15.2539 204.796 16.667 209.38 19.153C210.391 19.7689 211.353 20.4601 212.26 21.2207C215.893 24.548 219.009 28.3965 221.507 32.6397C226.253 39.3015 229.976 46.634 232.553 54.3943C233.539 58.1619 234.273 61.9912 234.747 65.8565C234.985 67.4953 235.232 69.1927 235.517 70.8469C236.036 73.8643 236.716 76.8518 237.553 79.7969C238.298 82.414 239.188 85.0712 240.202 87.6883C247.131 105.588 259.428 120.979 271.324 135.852L271.689 136.305C274.343 139.626 277.088 143.061 279.724 146.49C280.534 147.533 281.328 148.585 282.116 149.635C285.286 154.279 289.08 158.465 293.394 162.075C299.266 166.572 305.32 171.167 311.381 175.735L316.165 179.342C337.858 195.699 360.289 212.612 381.549 230.24L382.232 230.811C385.596 233.255 388.405 236.382 390.475 239.986C391.687 242.798 392.148 245.877 391.812 248.92C391.477 251.963 390.357 254.868 388.562 257.349C387.293 259.294 385.729 261.03 383.926 262.494C377.763 267.432 369.861 269.114 362.224 270.722L361.587 270.855C349.996 273.016 338.289 274.496 326.525 275.289C319.314 275.922 311.857 276.579 304.668 277.511C299.445 278.099 294.193 278.376 288.937 278.342C287.923 278.342 286.913 278.342 285.902 278.36C274.05 278.403 262.856 278.44 251.977 283.718C249.359 284.98 246.785 286.536 244.297 288.038C240.09 290.855 235.514 293.077 230.698 294.643C228.247 295.257 225.755 295.695 223.241 295.952C221.011 296.194 218.796 296.564 216.609 297.059C212.152 298.342 207.9 300.248 203.977 302.72C203.089 303.238 202.206 303.762 201.329 304.29C195.89 307.356 190.714 310.866 185.854 314.784C184.723 315.734 183.651 316.715 182.665 317.685C181.385 318.953 180.131 320.339 178.916 321.678C176.042 325.258 172.556 328.302 168.621 330.671C164.751 332.521 160.485 333.395 156.197 333.214M31.0633 51.9624C23.1143 55.6659 17.1248 64.0788 14.6245 75.0441C12.4383 86.175 12.8614 97.6601 15.8608 108.6L16.516 111.224C17.1773 113.865 17.8377 116.5 18.497 119.127L18.9544 120.955C23.1329 137.62 27.4535 154.826 33.0072 171.599C34.5154 176.12 35.9896 180.753 37.4175 185.234C40.5389 195.042 43.7655 205.183 47.6163 214.862C54.2666 230.828 61.9143 246.361 70.5144 261.371C77.6227 274.289 84.9628 287.64 94.6208 298.562C112.812 319.101 135.725 331.446 155.925 331.585C160.036 331.792 164.134 330.985 167.858 329.233C171.619 326.954 174.947 324.028 177.689 320.592C178.925 319.237 180.186 317.839 181.5 316.536C182.513 315.537 183.62 314.527 184.782 313.546C189.708 309.569 194.956 306.008 200.473 302.899C201.36 302.368 202.244 301.834 203.137 301.315C207.196 298.764 211.598 296.802 216.21 295.489C218.459 294.974 220.736 294.595 223.031 294.353C225.469 294.097 227.886 293.674 230.266 293.088C234.928 291.552 239.358 289.388 243.435 286.656C245.957 285.113 248.565 283.548 251.254 282.249C262.466 276.817 274.371 276.774 285.868 276.734C286.876 276.734 287.886 276.734 288.9 276.734C294.088 276.766 299.274 276.492 304.43 275.913C311.653 274.971 319.126 274.32 326.352 273.681C338.059 272.891 349.709 271.417 361.244 269.268L361.881 269.132C369.335 267.558 377.024 265.932 382.896 261.232C384.571 259.876 386.021 258.265 387.192 256.457C388.831 254.211 389.859 251.579 390.176 248.818C390.494 246.057 390.09 243.261 389.003 240.702C387.028 237.31 384.365 234.367 381.184 232.061L380.504 231.493C359.3 213.874 336.872 196.974 315.207 180.629L310.423 177.018C304.359 172.454 298.305 167.856 292.423 163.353C287.998 159.65 284.1 155.362 280.837 150.607C280.052 149.567 279.264 148.517 278.457 147.48C275.815 144.086 273.073 140.644 270.422 137.327L270.057 136.873C258.087 121.905 245.7 106.422 238.688 88.2654C237.658 85.5989 236.75 82.8954 235.993 80.2413C235.137 77.242 234.443 74.1986 233.916 71.1246C233.631 69.4488 233.381 67.7298 233.143 66.0941C232.671 62.3008 231.949 58.5428 230.98 54.8449C228.443 47.2422 224.787 40.0591 220.132 33.5316C217.719 29.4271 214.712 25.7009 211.209 22.4737C210.366 21.7659 209.47 21.1232 208.53 20.551C204.158 18.2011 199.311 16.8676 194.35 16.6501C192.561 16.4927 190.951 16.4093 189.433 16.3877C183.488 15.8564 177.557 17.5466 172.787 21.1312C169.329 24.2408 166.044 27.5377 162.947 31.0071C160.954 33.1674 158.892 35.3864 156.766 37.4881C151.312 43.164 145.243 48.2163 138.671 52.5519C132.386 56.5899 125.278 59.1763 117.865 60.1223C113.503 60.6247 109.099 60.6588 104.73 60.2242C95.7351 59.1364 86.8399 57.344 78.1264 54.8634C67.2761 51.5809 56.0518 49.6893 44.7236 49.2342C40.0195 49.1468 35.3521 50.0764 31.0416 51.9593" fill="#123D81" fill-opacity="0.3"/>
<path d="M156.281 313.441C156.006 313.441 155.724 313.441 155.44 313.441C135.614 313.055 113.334 301.581 95.8416 282.743C86.7058 272.904 79.7366 260.476 73.5555 249.523C65.7204 236.075 58.7925 222.12 52.8178 207.751C49.0195 198.184 45.8764 188.194 42.8414 178.54C41.8246 175.312 40.8109 172.09 39.7756 168.886C34.4227 152.344 30.5471 135.219 27.1259 120.109C26.4243 117.023 25.7197 113.835 24.9625 110.338C22.5075 99.9522 22.5022 89.1389 24.947 78.7507C25.9712 74.1679 28.0519 69.887 31.0237 66.2481C33.9954 62.6093 37.7763 59.7129 42.0657 57.7892C46.168 56.2464 50.5311 55.5127 54.9132 55.6288C65.0186 56.2206 75.0147 58.0362 84.6815 61.0359C92.501 63.3389 100.49 65.023 108.575 66.0725C112.368 66.477 116.194 66.4687 119.985 66.0479C126.38 65.2473 132.538 63.1275 138.068 59.823C143.906 56.2738 149.355 52.1217 154.324 47.435C156.2 45.7437 158.033 43.9383 159.832 42.1884C162.786 39.1942 165.901 36.3621 169.162 33.7044C173.894 30.4493 179.62 28.9582 185.341 29.4918C186.772 29.535 188.262 29.643 189.903 29.8251C194.619 30.124 199.207 31.484 203.322 33.8032C204.236 34.3664 205.11 34.9923 205.937 35.6765C209.245 38.6537 212.122 42.0762 214.485 45.8456C218.89 51.7604 222.441 58.2638 225.033 65.1652C226.074 68.549 226.894 71.9963 227.49 75.4855C227.769 76.9144 228.044 78.3433 228.353 79.7691C228.921 82.4171 229.638 85.099 230.482 87.7315C231.233 90.074 232.098 92.4472 233.066 94.7835C239.843 111.193 251.3 125.605 261.403 138.324L262.42 139.601C264.627 142.379 266.836 145.157 269.012 147.934C269.708 148.826 270.388 149.721 271.067 150.616C274.001 154.855 277.475 158.694 281.402 162.035C286.907 166.337 292.368 170.519 297.637 174.463C303.114 178.577 308.714 182.737 314.128 186.755C329.464 198.144 345.321 209.917 360.385 222.148L361.003 222.645C364.014 224.783 366.555 227.514 368.47 230.669C369.616 233.063 370.143 235.705 370.005 238.354C369.866 241.004 369.065 243.576 367.676 245.838C366.717 247.547 365.501 249.1 364.069 250.439C359.523 254.046 354.219 256.578 348.554 257.846C347.704 258.108 346.857 258.368 346.011 258.636C334.313 262.34 319.651 263.762 305.469 265.136C301.812 265.488 298.036 265.852 294.383 266.25C289.555 266.71 284.706 266.906 279.857 266.836C278.831 266.836 277.789 266.836 276.766 266.836C265.928 266.796 255.676 266.759 245.651 271.04C243.178 272.095 240.734 273.407 238.366 274.672C234.4 277.006 230.163 278.849 225.75 280.159C223.526 280.672 221.273 281.052 219.004 281.295C216.897 281.523 214.805 281.865 212.736 282.32C208.612 283.46 204.657 285.142 200.976 287.323C200.154 287.782 199.329 288.248 198.504 288.717C193.454 291.472 188.601 294.572 183.978 297.995C182.875 298.843 181.88 299.658 180.928 300.494C179.76 301.522 178.607 302.63 177.491 303.704C174.605 306.824 171.206 309.428 167.441 311.404C163.906 312.87 160.096 313.558 156.271 313.423M54.394 57.2645C50.3956 57.207 46.4221 57.9011 42.6807 59.3107C38.6283 61.1415 35.0595 63.8911 32.2578 67.3408C29.4562 70.7905 27.499 74.8452 26.5418 79.1827C24.169 89.3184 24.1817 99.8654 26.5789 109.995C27.333 113.486 28.0376 116.677 28.7423 119.748C32.1419 134.824 36.0236 151.909 41.3518 168.383C42.3902 171.59 43.4039 174.818 44.4207 178.052C47.4525 187.675 50.5833 197.631 54.36 207.149C60.3077 221.45 67.2036 235.339 75.0019 248.723C81.1212 259.602 88.0502 271.932 97.0531 281.625C114.255 300.143 136.099 311.429 155.486 311.802C159.347 312.029 163.21 311.39 166.792 309.932C170.384 308.035 173.625 305.537 176.372 302.547C177.501 301.464 178.669 300.34 179.865 299.285C180.841 298.427 181.867 297.587 182.996 296.72C187.671 293.252 192.583 290.113 197.694 287.326C198.518 286.854 199.343 286.385 200.167 285.918C203.976 283.667 208.067 281.932 212.334 280.758C214.462 280.288 216.615 279.934 218.781 279.7C220.984 279.464 223.171 279.097 225.33 278.601C229.614 277.321 233.727 275.528 237.578 273.259C239.973 271.975 242.452 270.645 244.995 269.555C255.33 265.142 266.231 265.179 276.76 265.216H279.851C284.641 265.286 289.431 265.094 294.2 264.642C297.863 264.244 301.646 263.88 305.302 263.522C319.401 262.161 333.979 260.744 345.51 257.093L348.066 256.303C353.499 255.105 358.589 252.689 362.95 249.239C364.258 248.015 365.369 246.597 366.245 245.035C367.499 243.011 368.226 240.705 368.361 238.328C368.495 235.951 368.032 233.578 367.014 231.425C365.192 228.475 362.795 225.92 359.965 223.913L359.346 223.413C344.311 211.207 328.465 199.443 313.146 188.067C307.731 184.055 302.131 179.886 296.651 175.769C291.372 171.818 285.902 167.63 280.389 163.322C276.353 159.887 272.779 155.945 269.757 151.594C269.083 150.706 268.403 149.814 267.717 148.928C265.554 146.15 263.338 143.373 261.134 140.595L260.118 139.314C249.962 126.534 238.431 112.029 231.567 95.4069C230.584 93.0305 229.713 90.614 228.94 88.2284C228.078 85.5434 227.348 82.8121 226.777 80.1117C226.467 78.6766 226.186 77.2353 225.908 75.791C225.321 72.3713 224.517 68.9923 223.501 65.6744C220.953 58.92 217.472 52.5552 213.156 46.7653C210.87 43.1228 208.089 39.8147 204.892 36.9357C204.124 36.302 203.314 35.7214 202.466 35.1982C198.554 33.0076 194.197 31.7259 189.721 31.4484C188.126 31.2725 186.673 31.1645 185.289 31.1398C179.953 30.6284 174.606 31.9927 170.17 34.9976C166.956 37.6214 163.886 40.4154 160.972 43.3673C159.177 45.1265 157.316 46.9443 155.409 48.6571C150.353 53.4224 144.809 57.6429 138.868 61.2488C133.147 64.6651 126.776 66.8544 120.161 67.6774C116.254 68.1158 112.311 68.1261 108.402 67.7082C100.229 66.651 92.153 64.9504 84.2488 62.6222C74.7138 59.6641 64.8554 57.8693 54.8885 57.2769H54.394" fill="#123D81" fill-opacity="0.3"/>
<path d="M156.506 293.683C156.012 293.683 155.499 293.683 154.976 293.662C135.698 293.02 115.04 282.878 98.2986 265.836C90.3644 257.076 83.5672 247.352 78.0677 236.894C71.0336 225.069 64.8623 212.753 59.6016 200.042C55.8651 190.653 52.8518 180.907 49.9374 171.454C49.3378 169.52 48.7382 167.59 48.1387 165.664C43.7557 150.877 40.1696 135.866 37.3959 120.695C36.8086 117.739 36.2431 114.702 35.7115 111.68C33.8229 102.098 34.2467 92.2045 36.9477 82.8183C38.1103 78.7228 40.2535 74.9713 43.1923 71.8877C46.1311 68.8041 49.7773 66.481 53.816 65.1189C57.4815 63.9911 61.3146 63.5046 65.1461 63.6807C73.8622 64.4131 82.4675 66.1276 90.7978 68.7915C97.8158 70.9466 104.994 72.5421 112.265 73.5628C121.271 74.6624 130.395 72.8863 138.328 68.489C143.545 65.6648 148.472 62.3363 153.039 58.5515C154.717 57.2182 156.377 55.7955 157.984 54.419C160.747 51.9746 163.635 49.6754 166.637 47.5306C171.015 44.8682 176.149 43.7186 181.246 44.2593C182.547 44.3272 183.883 44.4537 185.332 44.6543C189.542 45.07 193.615 46.3756 197.28 48.4843C198.099 48.9922 198.885 49.5519 199.632 50.1601C202.635 52.7787 205.288 55.7722 207.525 59.0669C211.582 64.2292 214.952 69.8942 217.551 75.9206C218.65 78.9327 219.566 82.008 220.296 85.1299C220.605 86.3119 220.898 87.4939 221.223 88.6759C221.841 90.9844 222.598 93.333 223.448 95.66C224.196 97.7154 225.046 99.8078 225.967 101.876C232.148 115.736 241.2 127.698 251.523 140.79L253.776 143.638C255.292 145.56 256.809 147.486 258.325 149.415C258.894 150.144 259.457 150.873 260.016 151.604C262.722 155.446 265.886 158.946 269.439 162.026C274.384 165.979 279.245 169.741 283.918 173.222C290.869 178.413 298.045 183.589 304.98 188.595C316.338 196.792 328.082 205.26 339.242 214.081L339.786 214.507C342.43 216.352 344.697 218.682 346.468 221.373C347.554 223.351 348.151 225.559 348.211 227.813C348.271 230.067 347.791 232.304 346.811 234.335C346.163 235.808 345.296 237.174 344.24 238.388C341.276 241.347 337.685 243.605 333.732 244.995C332.666 245.461 331.568 245.946 330.49 246.458C318.798 252.056 301.67 253.532 285.105 254.957L284.15 255.041C279.421 255.448 274.85 255.408 270.823 255.371C269.776 255.371 268.728 255.349 267.68 255.337C257.824 255.204 248.519 255.087 239.349 258.402C236.985 259.253 234.639 260.327 232.37 261.361C228.677 263.191 224.806 264.639 220.818 265.682C218.841 266.103 216.844 266.424 214.835 266.642C212.837 266.858 210.853 267.176 208.888 267.595C205.095 268.589 201.442 270.052 198.013 271.95C197.246 272.351 196.482 272.758 195.719 273.169C191.057 275.611 186.529 278.301 182.155 281.227C181.092 281.953 180.143 282.638 179.241 283.323C178.218 284.097 177.201 284.928 176.215 285.724C173.283 288.385 169.937 290.553 166.31 292.143C163.166 293.24 159.848 293.755 156.519 293.662M54.3043 66.662C50.509 67.9482 47.0842 70.1376 44.3257 73.0412C41.5673 75.9447 39.558 79.4751 38.4714 83.3275C35.8588 92.4645 35.4615 102.091 37.3124 111.412C37.8409 114.424 38.4034 117.442 38.9875 120.393C41.7536 135.506 45.3304 150.459 49.7025 165.189C50.3021 167.115 50.9006 169.047 51.4981 170.985C54.4032 180.395 57.4104 190.119 61.1221 199.449C66.3531 212.089 72.4904 224.336 79.4863 236.095C84.9188 246.432 91.6316 256.046 99.4668 264.71C115.918 281.453 136.167 291.412 155.026 292.041C158.648 292.286 162.283 291.815 165.722 290.653C169.186 289.126 172.377 287.047 175.17 284.496C176.165 283.687 177.195 282.854 178.239 282.061C179.166 281.36 180.134 280.659 181.215 279.919C185.638 276.96 190.217 274.24 194.931 271.771C195.698 271.358 196.477 270.944 197.243 270.537C200.793 268.571 204.575 267.057 208.502 266.031C210.522 265.596 212.564 265.266 214.618 265.043C216.574 264.833 218.517 264.524 220.441 264.117C224.321 263.091 228.086 261.673 231.678 259.886C233.974 258.84 236.354 257.754 238.786 256.877C248.237 253.461 258.127 253.587 267.699 253.714C268.743 253.714 269.788 253.742 270.836 253.751C274.829 253.788 279.353 253.828 284.008 253.427L284.96 253.34C300.613 251.995 318.353 250.467 329.773 245.008C330.87 244.48 331.986 243.992 333.064 243.52C336.797 242.221 340.196 240.113 343.016 237.348C343.958 236.255 344.734 235.03 345.318 233.712C346.195 231.912 346.628 229.928 346.581 227.927C346.534 225.925 346.009 223.964 345.049 222.207C343.376 219.698 341.246 217.526 338.769 215.803L338.229 215.377C327.103 206.587 315.358 198.122 304.022 189.934C297.081 184.925 289.901 179.75 282.941 174.546C278.25 171.062 273.361 167.285 268.416 163.316C264.766 160.15 261.512 156.557 258.724 152.613C258.164 151.888 257.605 151.159 257.039 150.437C255.531 148.509 254.016 146.585 252.493 144.666L250.24 141.814C239.85 128.636 230.739 116.588 224.477 102.555C223.55 100.453 222.678 98.3234 221.915 96.234C221.05 93.8669 220.286 91.472 219.647 89.1172C219.322 87.9321 219.028 86.7378 218.719 85.5496C218.003 82.495 217.105 79.4857 216.031 76.5379C213.476 70.6356 210.166 65.0888 206.184 60.0359C204.027 56.8553 201.471 53.9637 198.578 51.4316C197.89 50.8722 197.168 50.3568 196.415 49.8885C192.942 47.9032 189.086 46.6757 185.103 46.2869C183.7 46.0955 182.408 45.9783 181.16 45.9073C176.422 45.3881 171.644 46.4366 167.561 48.8916C164.608 51.0035 161.769 53.2699 159.056 55.6813C157.44 57.067 155.768 58.499 154.068 59.8508C149.416 63.7039 144.397 67.0913 139.082 69.9643C130.863 74.5081 121.417 76.3443 112.092 75.2108C104.726 74.174 97.4548 72.5537 90.3465 70.3655C82.1411 67.7407 73.666 66.046 65.0812 65.3133C61.437 65.1449 57.7911 65.6064 54.3043 66.6774" fill="#123D81" fill-opacity="0.3"/>
<path d="M156.896 273.941C156.132 273.941 155.35 273.919 154.516 273.885C136.084 272.987 116.502 263.895 100.768 248.942C93.6296 241.56 87.5136 233.257 82.583 224.253C76.3356 214.062 70.9169 203.388 66.3792 192.332C62.5994 182.861 59.6727 173.068 56.8448 163.597L56.5017 162.442C52.6708 148.927 49.7112 135.181 47.6411 121.288C47.1899 118.538 46.7819 115.76 46.4327 113.023C45.0861 104.243 45.9289 95.2663 48.8866 86.889C50.214 83.2648 52.4419 80.0369 55.3611 77.5083C58.2804 74.9797 61.7952 73.2334 65.5757 72.4332C68.7923 71.7131 72.0977 71.4708 75.3851 71.7141C82.6903 72.5776 89.8884 74.1825 96.8676 76.5039C103.096 78.523 109.477 80.0401 115.949 81.0406C118.819 81.4095 121.723 81.4488 124.602 81.1579C129.446 80.5485 134.167 79.1952 138.596 77.1458C143.188 75.026 147.588 72.5138 151.747 69.6371C153.227 68.6526 154.705 67.6033 156.129 66.5879C158.664 64.7887 161.281 62.9246 164.078 61.3414C168.095 59.2947 172.63 58.4848 177.108 59.0144C178.252 59.1039 179.463 59.2582 180.715 59.4742C184.414 60.0036 187.972 61.2535 191.189 63.153C191.909 63.607 192.604 64.0994 193.272 64.6282C195.955 66.8976 198.374 69.462 200.482 72.2727C204.224 76.6924 207.432 81.5372 210.038 86.7069C211.217 89.3745 212.249 92.1047 213.129 94.8853C213.438 95.7927 213.747 96.7031 214.056 97.6105C214.748 99.5918 215.53 101.623 216.383 103.619C217.131 105.391 217.956 107.199 218.837 109.002C225.237 121.181 232.869 132.673 241.614 143.299C243.118 145.229 244.632 147.154 246.154 149.076L247.607 150.928C248.033 151.469 248.458 152.011 248.88 152.554C251.385 156.017 254.264 159.193 257.466 162.026C261.851 165.652 266.011 168.911 270.19 171.988C277.382 177.315 284.91 182.515 292.191 187.542C300.783 193.477 309.666 199.609 318.087 206.016L318.557 206.374C320.831 207.93 322.824 209.858 324.454 212.078C325.456 213.653 326.108 215.424 326.365 217.272C326.622 219.12 326.478 221.002 325.944 222.79C325.606 224.02 325.097 225.197 324.432 226.287C322.702 228.739 320.445 230.773 317.825 232.24C316.897 232.857 315.912 233.511 314.972 234.218C305.932 241.033 289.895 242.86 273.883 243.81C269.769 244.057 265.888 243.977 262.466 243.906H261.762C260.677 243.884 259.598 243.856 258.507 243.832C249.96 243.186 241.365 243.839 233.013 245.767C230.717 246.421 228.424 247.26 226.214 248.069C222.855 249.392 219.399 250.454 215.876 251.245C214.173 251.587 212.427 251.8 210.736 252.013C208.848 252.248 206.892 252.489 205.025 252.905C201.564 253.759 198.211 255.002 195.03 256.609C194.322 256.951 193.621 257.303 192.919 257.655C188.169 260.034 184.04 262.284 180.298 264.497C179.358 265.05 178.431 265.613 177.516 266.185C176.703 266.694 175.909 267.216 175.115 267.728C172.067 269.94 168.707 271.688 165.144 272.913C162.461 273.649 159.685 273.996 156.902 273.941M65.9218 74.0195C62.4038 74.7685 59.1342 76.3979 56.4198 78.7549C53.7054 81.1118 51.6354 84.1189 50.4041 87.4939C47.5527 95.6091 46.746 104.3 48.0552 112.801C48.4045 115.514 48.8062 118.276 49.2544 121.004C51.313 134.831 54.2572 148.513 58.0687 161.964L58.4148 163.121C61.2303 172.556 64.1447 182.314 67.8998 191.718C72.3995 202.698 77.7737 213.3 83.9707 223.423C88.8355 232.292 94.8638 240.474 101.896 247.751C117.349 262.438 136.551 271.367 154.59 272.243C157.98 272.503 161.389 272.196 164.678 271.336C168.085 270.155 171.299 268.475 174.212 266.352C175.012 265.825 175.82 265.302 176.638 264.784C177.565 264.207 178.493 263.636 179.457 263.077C183.234 260.834 187.39 258.581 192.175 256.177C192.885 255.822 193.596 255.47 194.313 255.127C197.605 253.46 201.076 252.173 204.66 251.291C206.604 250.859 208.598 250.612 210.533 250.365C212.192 250.162 213.907 249.949 215.552 249.618C218.993 248.841 222.369 247.802 225.652 246.511C227.895 245.69 230.216 244.844 232.571 244.171C241.08 242.192 249.842 241.519 258.554 242.174C259.635 242.199 260.717 242.227 261.802 242.249H262.507C265.906 242.316 269.745 242.397 273.793 242.156C289.534 241.215 305.302 239.44 313.992 232.897C314.972 232.16 315.964 231.502 316.928 230.867C319.343 229.517 321.431 227.654 323.045 225.41C323.631 224.449 324.079 223.41 324.374 222.324C324.844 220.761 324.973 219.115 324.752 217.497C324.531 215.88 323.966 214.329 323.094 212.948C321.56 210.889 319.693 209.1 317.571 207.652L317.105 207.294C308.711 200.912 299.844 194.789 291.267 188.866C283.974 183.827 276.433 178.62 269.222 173.278C265.022 170.192 260.835 166.908 256.431 163.26C253.143 160.341 250.186 157.071 247.613 153.508C247.193 152.965 246.773 152.425 246.346 151.888L244.893 150.036C243.373 148.11 241.859 146.182 240.35 144.252C231.533 133.538 223.841 121.948 217.394 109.665C216.497 107.841 215.66 106.002 214.903 104.206C214.034 102.169 213.24 100.113 212.535 98.0981C212.226 97.1722 211.917 96.271 211.608 95.3544C210.745 92.6268 209.734 89.9482 208.579 87.3303C206.027 82.2796 202.889 77.5458 199.23 73.2264C197.197 70.5124 194.864 68.0351 192.277 65.8411C191.658 65.3503 191.013 64.8939 190.345 64.4739C187.307 62.6859 183.947 61.5114 180.455 61.0173C179.25 60.8106 178.088 60.6624 176.997 60.5791C172.846 60.1058 168.646 60.8399 164.903 62.6931C162.181 64.2548 159.594 66.088 157.094 67.8687C155.66 68.8933 154.173 69.9488 152.671 70.9549C148.426 73.883 143.934 76.4367 139.245 78.5871C134.663 80.7087 129.778 82.1069 124.766 82.7319C121.764 83.0323 118.738 82.9919 115.745 82.6115C109.185 81.6023 102.717 80.0676 96.4041 78.0223C89.5333 75.7343 82.4472 74.1501 75.2553 73.2943C72.1284 73.063 68.9843 73.2938 65.9249 73.9794" fill="#123D81" fill-opacity="0.3"/>
<path d="M157.495 254.223C156.395 254.223 155.23 254.183 153.981 254.106C135.091 252.475 117.251 244.731 103.172 232.049C96.8311 226.062 91.3928 219.188 87.0273 211.643C81.5944 203.062 76.9302 194.019 73.0888 184.62C65.2723 164.455 60.1423 143.352 57.8307 121.853C57.5216 119.334 57.2713 116.807 57.0982 114.341C56.2903 106.347 57.5679 98.2804 60.8069 90.9257C62.338 87.7924 64.6616 85.1125 67.548 83.1509C70.4343 81.1893 73.7835 80.014 77.2641 79.7413C80.0141 79.4105 82.7938 79.4105 85.5438 79.7413C91.4103 80.7114 97.1814 82.188 102.792 84.1546C108.253 86.0616 113.862 87.5181 119.562 88.5092C121.969 88.8584 124.409 88.9205 126.831 88.6944C130.923 88.1988 134.942 87.2198 138.804 85.778C142.797 84.3667 146.687 82.6764 150.443 80.7197C151.728 80.0777 152.989 79.4049 154.253 78.7321C156.58 77.4977 158.988 76.2107 161.51 75.1244C165.143 73.7061 169.078 73.2335 172.945 73.751C173.996 73.873 175.04 74.0481 176.073 74.2757C179.254 74.9131 182.297 76.1062 185.063 77.8001C185.663 78.1828 186.272 78.6118 186.874 79.0747C189.244 80.994 191.43 83.1285 193.405 85.4508C196.82 89.1302 199.852 93.1464 202.454 97.4376C203.829 99.8356 204.96 102.342 206.054 104.767C206.311 105.341 206.57 105.912 206.833 106.486C207.581 108.125 208.378 109.819 209.259 111.523C210.016 113.026 210.823 114.557 211.654 116.072C217.534 126.477 224.223 136.405 231.66 145.764C233.23 147.801 234.926 149.968 236.842 152.384L237.566 153.31C239.893 156.467 242.52 159.391 245.41 162.044C249.158 165.272 252.743 168.127 256.372 170.769C263.091 175.685 270.279 180.336 277.221 184.814C283.739 189.024 290.476 193.378 296.843 197.968L297.241 198.255C299.153 199.509 300.877 201.027 302.363 202.764C304.206 205.165 305.14 208.141 304.999 211.164C304.969 212.151 304.824 213.131 304.566 214.084C303.824 216.279 302.603 218.282 300.99 219.948C300.471 220.565 299.936 221.21 299.42 221.895C292.884 230.58 277.623 232.166 263.57 232.573C260.04 232.672 256.662 232.549 253.946 232.45L252.654 232.4C251.486 232.36 250.317 232.314 249.149 232.268C241.633 231.673 234.074 231.949 226.622 233.092C224.273 233.552 221.915 234.163 219.634 234.758C216.803 235.496 213.88 236.255 210.863 236.752C209.506 236.977 208.116 237.144 206.771 237.304C204.898 237.533 202.958 237.767 201.097 238.159C197.962 238.865 194.907 239.892 191.983 241.224C191.334 241.505 190.691 241.795 190.048 242.091C187.016 243.477 183.966 244.977 181.018 246.412L174.58 249.538C171.219 251.366 167.631 252.742 163.908 253.63C161.799 254.03 159.655 254.22 157.508 254.198M81.6095 81.127C80.2205 81.1316 78.8329 81.2119 77.4527 81.3678C74.235 81.5899 71.1337 82.6594 68.4644 84.4673C65.7951 86.2752 63.653 88.7571 62.2564 91.6603C59.155 98.7538 57.9373 106.526 58.7207 114.227C58.8938 116.662 59.138 119.165 59.447 121.652C61.7389 143.011 66.8304 163.977 74.5908 184.012C78.3994 193.327 83.0254 202.287 88.4149 210.788C92.697 218.196 98.0299 224.946 104.248 230.83C118.055 243.276 135.555 250.881 154.086 252.488C157.256 252.758 160.447 252.616 163.581 252.066C167.162 251.2 170.615 249.87 173.851 248.109L180.282 244.98C183.243 243.529 186.302 242.026 189.353 240.631C190.008 240.323 190.66 240.036 191.318 239.752C194.344 238.375 197.504 237.314 200.748 236.585C202.679 236.178 204.654 235.94 206.564 235.709C207.89 235.551 209.259 235.385 210.582 235.166C213.524 234.681 216.414 233.931 219.205 233.2C221.51 232.601 223.893 231.981 226.294 231.515C233.87 230.345 241.556 230.058 249.199 230.66C250.364 230.706 251.529 230.752 252.694 230.792L253.992 230.839C256.823 230.944 260.034 231.064 263.505 230.962C277.184 230.57 291.987 229.07 298.119 220.938C298.66 220.219 299.21 219.565 299.742 218.926C301.201 217.433 302.312 215.636 302.996 213.664C303.438 211.979 303.495 210.217 303.162 208.507C302.83 206.798 302.116 205.185 301.074 203.788C299.689 202.171 298.084 200.756 296.305 199.585L295.906 199.298C289.577 194.73 282.855 190.391 276.355 186.194C269.386 181.691 262.182 177.037 255.429 172.093C251.764 169.426 248.145 166.538 244.365 163.285C241.395 160.558 238.693 157.553 236.299 154.31L235.575 153.4C233.653 150.974 231.953 148.801 230.38 146.761C222.89 137.336 216.154 127.337 210.236 116.856C209.395 115.313 208.579 113.77 207.813 112.261C206.941 110.539 206.116 108.823 205.359 107.162L204.58 105.437C203.452 102.94 202.386 100.579 201.048 98.2462C198.502 94.0483 195.536 90.119 192.196 86.5186C190.29 84.2716 188.179 82.2053 185.891 80.3462C185.329 79.9111 184.76 79.513 184.201 79.158C181.598 77.5665 178.735 76.4465 175.742 75.8496C174.762 75.6346 173.772 75.4688 172.775 75.3528C169.19 74.8682 165.541 75.2993 162.168 76.6058C159.696 77.6612 157.331 78.9266 155.035 80.1518C153.759 80.8308 152.485 81.5097 151.191 82.1578C147.365 84.1607 143.404 85.8923 139.335 87.3396C135.355 88.8245 131.211 89.8295 126.991 90.3332C124.441 90.5715 121.871 90.5063 119.336 90.1388C113.548 89.1349 107.853 87.6589 102.307 85.7255C96.7877 83.7884 91.1108 82.3324 85.3398 81.3739C84.1029 81.214 82.8567 81.1357 81.6095 81.1394" fill="#123D81" fill-opacity="0.3"/>
<path d="M158.203 235.144C156.584 235.144 154.847 235.067 152.921 234.91C135.436 233.309 118.8 226.641 105.058 215.726C99.5233 211.133 94.7612 205.685 90.9523 199.588C86.3149 192.638 82.4015 185.233 79.273 177.488C76.58 170.666 74.3366 163.677 72.5572 156.563C69.8464 145.552 68.1509 134.317 67.4918 122.998C67.3249 120.708 67.2415 118.43 67.2384 116.236C66.9489 109.013 68.6599 101.851 72.1833 95.5365C75.3449 90.7066 80.3547 88.2654 88.3902 87.6482C90.689 87.5644 92.9881 87.8033 95.2204 88.358C99.5913 89.3859 103.889 90.7015 108.086 92.296C112.82 94.1278 117.701 95.5547 122.677 96.5612C124.622 96.8904 126.601 96.9765 128.568 96.8173C131.042 96.5751 133.496 96.1553 135.911 95.5612C136.782 95.3699 137.657 95.1785 138.544 94.9995C142.083 94.2712 145.504 93.3083 148.672 92.3763C149.747 92.0574 150.818 91.7323 151.883 91.401C154.015 90.7467 156.21 90.0647 158.472 89.4999C162.568 88.4633 166.864 88.5219 170.93 89.6697C173.587 90.4067 176.117 91.5442 178.431 93.0429C178.931 93.3515 179.432 93.7126 179.976 94.1076C182.031 95.6768 183.98 97.3811 185.808 99.2091C188.909 102.148 191.765 105.336 194.347 108.739C196.078 111.079 197.605 113.545 199.082 115.93C199.918 117.288 200.763 118.646 201.616 120.004C202.391 121.238 203.171 122.473 203.956 123.707C210.001 133.253 215.641 141.462 221.201 148.804C222.638 150.702 224.106 152.591 225.571 154.418C227.783 157.331 230.224 160.064 232.871 162.59C235.785 165.265 238.856 167.763 242.069 170.071C247.851 174.235 254.249 177.944 260.433 181.534C265.313 184.367 270.36 187.292 275.101 190.437L275.363 190.61C276.915 191.6 278.367 192.739 279.696 194.011C281.365 195.714 282.642 197.761 283.436 200.008C283.708 200.756 283.923 201.523 284.079 202.304C284.453 204.916 284.186 207.58 283.3 210.066C280.265 220.716 266.119 222.037 252.685 221.932C249.696 221.907 246.905 221.744 244.649 221.608L242.959 221.509C241.587 221.438 240.205 221.352 238.827 221.268C232.442 220.727 226.027 220.646 219.631 221.028C216.664 221.281 213.673 221.71 210.777 222.123C208.984 222.383 207.13 222.648 205.272 222.873C204.512 222.966 203.746 223.049 202.979 223.139C200.874 223.373 198.699 223.617 196.597 224.028C193.785 224.597 191.028 225.406 188.355 226.447C187.767 226.672 187.18 226.904 186.599 227.142C185.276 227.675 183.96 228.237 182.643 228.796C180.421 229.74 178.128 230.715 175.844 231.552C174.997 231.86 174.152 232.151 173.31 232.425C169.676 233.695 165.911 234.55 162.085 234.974C160.849 235.089 159.547 235.144 158.169 235.144M89.475 89.2469C89.1659 89.2469 88.8383 89.2469 88.52 89.2839C80.9203 89.8703 76.4514 92.009 73.5679 96.4285C70.2166 102.477 68.5927 109.329 68.8733 116.236C68.8733 118.396 68.9598 120.627 69.1236 122.88C69.7746 134.104 71.4546 145.245 74.1427 156.162C75.9047 163.207 78.1253 170.13 80.7905 176.886C83.8753 184.532 87.736 191.842 92.3121 198.702C96.0278 204.653 100.672 209.973 106.068 214.46C119.56 225.175 135.894 231.719 153.06 233.286C156.023 233.569 159.004 233.592 161.97 233.354C165.673 232.939 169.316 232.111 172.834 230.885C173.659 230.617 174.487 230.33 175.306 230.03C177.547 229.209 179.822 228.24 182.025 227.305C183.348 226.743 184.674 226.179 186.006 225.639C186.602 225.398 187.196 225.163 187.795 224.935C190.555 223.859 193.403 223.023 196.307 222.435C198.47 222.015 200.683 221.768 202.822 221.528C203.579 221.441 204.339 221.358 205.096 221.262C206.951 221.04 208.783 220.775 210.567 220.522C213.484 220.102 216.5 219.67 219.514 219.414C225.989 219.023 232.484 219.103 238.947 219.651C240.322 219.735 241.698 219.818 243.07 219.892L244.77 219.991C246.992 220.124 249.758 220.299 252.703 220.299C265.511 220.401 278.998 219.216 281.73 209.618C282.547 207.378 282.804 204.974 282.481 202.612C282.34 201.916 282.147 201.231 281.903 200.563C281.196 198.537 280.048 196.692 278.54 195.162C277.301 193.991 275.95 192.944 274.507 192.036L274.198 191.82C269.497 188.703 264.466 185.789 259.608 182.969C253.389 179.361 246.958 175.63 241.111 171.42C237.848 169.074 234.728 166.536 231.768 163.819C229.057 161.236 226.557 158.442 224.292 155.461C222.818 153.61 221.337 151.721 219.891 149.811C214.306 142.431 208.641 134.185 202.584 124.602C201.797 123.368 201.015 122.125 200.238 120.874C199.385 119.512 198.539 118.152 197.7 116.794C196.174 114.325 194.73 111.998 193.04 109.715C190.51 106.383 187.712 103.263 184.674 100.385C182.898 98.6074 181.006 96.9505 179.009 95.4254C178.505 95.052 178.029 94.7218 177.559 94.4162C175.384 93.0099 173.007 91.9422 170.51 91.2498C169.696 91.0213 168.871 90.8369 168.037 90.6974C164.993 90.2181 161.884 90.3525 158.892 91.0924C156.682 91.6448 154.497 92.3269 152.402 92.9688C151.33 93.299 150.254 93.6323 149.169 93.9502C145.967 94.8915 142.509 95.8637 138.909 96.6044C138.028 96.7834 137.162 96.9747 136.303 97.163C133.811 97.772 131.279 98.2031 128.725 98.453C126.627 98.6208 124.515 98.5295 122.439 98.1814C117.362 97.1597 112.381 95.707 107.552 93.8391C103.418 92.2693 99.1852 90.9744 94.8804 89.9629C93.1042 89.5429 91.2901 89.303 89.4657 89.2469" fill="#123D81" fill-opacity="0.3"/>
<path d="M161.779 219.485C160.722 219.485 159.693 219.46 158.71 219.429C139.67 219.069 121.14 213.221 105.351 202.588C93.2579 194.517 83.3001 177.494 78.7106 157.048C76.5903 147.267 75.5292 137.288 75.5458 127.281C75.4933 120.239 76.5008 107.53 83.844 101.502C85.8437 99.9691 88.1723 98.9203 90.6467 98.4384C93.1212 97.9564 95.6738 98.0544 98.1039 98.7246C102.695 99.8182 107.167 101.36 111.455 103.329C115.553 105.202 119.817 106.689 124.191 107.773C126.821 108.229 129.51 108.229 132.14 107.773C133.599 107.604 135.101 107.428 136.711 107.391C140.494 107.304 144.275 107.228 148.054 107.162L153.873 107.051C156.596 106.885 159.329 107.06 162.008 107.573C165.421 108.536 168.619 110.139 171.431 112.298C179.245 117.753 186.271 124.256 192.311 131.624C196.041 136.176 199.4 141.089 202.652 145.842C204.732 148.885 206.879 152.029 209.102 155.039C213.76 161.788 219.512 167.716 226.121 172.577C230.887 175.693 235.898 178.418 241.104 180.725C247.923 183.59 254.318 187.372 260.111 191.965C262.988 194.321 264.901 197.648 265.489 201.316C265.751 202.812 265.661 204.348 265.224 205.802C264.788 207.257 264.018 208.59 262.976 209.695C256.826 216.034 241.126 214.602 233.585 213.917C232.893 213.855 232.268 213.797 231.731 213.754C229.506 213.575 227.271 213.368 225.03 213.164C211.123 211.896 196.73 210.581 183.19 214.809C181.79 215.247 180.384 215.753 179.021 216.241C176.653 217.145 174.233 217.906 171.774 218.519C168.491 219.21 165.142 219.534 161.788 219.485M80.3053 156.693C84.8052 176.738 94.5219 193.388 106.266 201.23C121.799 211.691 140.03 217.444 158.762 217.796C162.996 218.039 167.243 217.746 171.403 216.926C173.797 216.327 176.153 215.585 178.459 214.704C179.837 214.21 181.262 213.698 182.69 213.254C196.548 208.933 211.098 210.254 225.169 211.538C227.404 211.741 229.635 211.945 231.854 212.127C232.408 212.17 233.035 212.229 233.73 212.291C241.024 212.954 256.186 214.328 261.805 208.56C262.678 207.628 263.32 206.505 263.678 205.281C264.036 204.056 264.101 202.765 263.866 201.511C263.327 198.237 261.606 195.273 259.03 193.178C253.345 188.691 247.078 184.993 240.4 182.185C235.111 179.841 230.022 177.072 225.182 173.904C218.427 168.945 212.547 162.895 207.785 156.005C205.547 152.971 203.387 149.814 201.295 146.761C198.062 142.036 194.721 137.151 191.037 132.654C185.094 125.403 178.179 119.003 170.488 113.634C167.846 111.601 164.843 110.085 161.637 109.165C159.091 108.688 156.496 108.526 153.91 108.684L148.091 108.795C144.312 108.867 140.534 108.943 136.758 109.023C135.212 109.057 133.757 109.23 132.338 109.397C129.53 109.882 126.66 109.874 123.854 109.375C119.379 108.273 115.016 106.754 110.825 104.838C106.635 102.914 102.267 101.404 97.7825 100.329C95.5909 99.7133 93.2863 99.6125 91.0492 100.035C88.8121 100.457 86.7035 101.392 84.8886 102.764C78.0708 108.357 77.1375 120.516 77.1869 127.269C77.1711 137.16 78.2187 147.025 80.3115 156.693" fill="#123D81" fill-opacity="0.3"/>
</g>
</svg>
