<svg width="36" height="36" viewBox="0 0 36 36" fill="none" xmlns="http://www.w3.org/2000/svg">
<g clip-path="url(#clip0_13981_7831)">
<path d="M34.1461 23.7356L31.8106 21.1215C31.0974 20.3231 29.772 20.8309 29.772 21.8995V25.2921C29.772 25.5067 29.5974 25.6814 29.3827 25.6814C29.1681 25.6814 28.9935 25.5068 28.9935 25.2921V23.448C28.9935 22.2313 28.7122 21.0322 28.1871 19.9462H28.3093C29.3456 19.9462 29.8702 18.6879 29.135 17.9527L22.9542 11.772H25.4902C26.5265 11.772 27.0511 10.5138 26.3159 9.77857L16.9741 0.436709C16.5181 -0.0192676 15.7787 -0.0192676 15.3226 0.436709L5.98078 9.77857C5.24777 10.5116 5.76717 11.772 6.80646 11.772H9.34249L3.16195 17.9526C2.42894 18.6856 2.94834 19.946 3.98763 19.946H6.52366L0.342982 26.1268C-0.390025 26.8598 0.129373 28.1202 1.16866 28.1202H12.6453V34.7374C12.6453 35.3823 13.1681 35.9051 13.813 35.9051H18.484C19.1289 35.9051 19.6517 35.3823 19.6517 34.7374C19.6517 33.9922 19.6517 28.9844 19.6517 28.1202H19.6598C19.4588 32.0664 23.1353 35.9051 27.8258 35.9051C32.367 35.9051 35.9999 32.296 35.9999 28.4061C36 25.8404 34.2222 23.8208 34.1461 23.7356ZM17.3162 33.5696H14.9808V28.1202H17.3163V33.5696H17.3162ZM21.5058 23.7355C21.459 23.7879 20.7613 24.5808 20.2355 25.7846C20.1446 25.7847 4.32147 25.7847 3.98791 25.7847L10.1686 19.604C10.9016 18.871 10.3822 17.6105 9.34291 17.6105H6.80688L12.9876 11.4298C13.7206 10.6968 13.2012 9.43636 12.1619 9.43636H9.62585L16.1486 2.91361L22.6714 9.43636H20.1353C19.0991 9.43636 18.5745 10.6946 19.3096 11.4298L23.8236 15.9438C23.4445 15.7987 23.0543 15.6803 22.6548 15.594L22.6228 15.587C22.1283 15.4805 21.6217 15.7041 21.3673 16.1412C21.1129 16.5783 21.1688 17.1295 21.5058 17.5065C21.5184 17.5206 22.7659 18.9631 22.7659 20.621C22.7659 22.2817 21.5153 23.7248 21.5058 23.7355ZM27.8258 33.5696C24.5518 33.5696 21.9871 30.9831 21.9871 28.4061C21.9871 27.2975 22.5894 26.044 23.2473 25.2916C23.3229 25.2069 25.1011 23.187 25.1011 20.6213C25.1011 20.2026 25.0538 19.7986 24.9742 19.415C26.0198 20.46 26.658 21.8996 26.658 23.448V25.2922C26.658 26.7946 27.8803 28.0169 29.3827 28.0169C30.8851 28.0169 32.1074 26.7945 32.1074 25.2922V24.9594L32.4043 25.2918C32.4169 25.3059 33.6644 26.7485 33.6644 28.4062C33.6645 30.9807 31.1022 33.5696 27.8258 33.5696Z" fill="#356A72"/>
</g>
<defs>
<clipPath id="clip0_13981_7831">
<rect width="36" height="36" fill="white"/>
</clipPath>
</defs>
</svg>
