<svg width="24" height="24" viewBox="0 0 24 24" fill="none" xmlns="http://www.w3.org/2000/svg">
<g clip-path="url(#clip0_4671_12843)">
<path d="M10.9992 12.0016C10.9992 12.2668 11.1046 12.5212 11.2921 12.7087C11.4796 12.8962 11.734 13.0016 11.9992 13.0016C12.2644 13.0016 12.5188 12.8962 12.7063 12.7087C12.8938 12.5212 12.9992 12.2668 12.9992 12.0016C12.9992 11.7364 12.8938 11.482 12.7063 11.2945C12.5188 11.1069 12.2644 11.0016 11.9992 11.0016C11.734 11.0016 11.4796 11.1069 11.2921 11.2945C11.1046 11.482 10.9992 11.7364 10.9992 12.0016Z" stroke="black" stroke-width="2" stroke-linecap="round" stroke-linejoin="round"/>
<path d="M12.0008 6.99841C11.0119 6.99841 10.0452 7.29166 9.22294 7.84106C8.4007 8.39047 7.75984 9.17137 7.3814 10.085C7.00296 10.9986 6.90394 12.004 7.09687 12.9739C7.2898 13.9438 7.766 14.8347 8.46526 15.5339C9.16452 16.2332 10.0554 16.7094 11.0253 16.9023C11.9952 17.0953 13.0006 16.9962 13.9142 16.6178C14.8278 16.2394 15.6087 15.5985 16.1581 14.7763C16.7076 13.954 17.0008 12.9873 17.0008 11.9984" stroke="black" stroke-width="2" stroke-linecap="round" stroke-linejoin="round"/>
<path d="M13.0011 3.05612C11.1472 2.84813 9.2744 3.2214 7.64188 4.12429C6.00937 5.02718 4.69777 6.41507 3.88852 8.09598C3.07928 9.77688 2.81238 11.6677 3.12475 13.507C3.43711 15.3462 4.31331 17.0429 5.63213 18.3624C6.95095 19.6819 8.64721 20.5589 10.4863 20.8722C12.3253 21.1855 14.2163 20.9195 15.8976 20.1111C17.5789 19.3027 18.9675 17.9918 19.8712 16.3598C20.7749 14.7277 21.1491 12.8552 20.9421 11.0011" stroke="black" stroke-width="2" stroke-linecap="round" stroke-linejoin="round"/>
<path d="M15 6V9H18L21 6H18V3L15 6Z" stroke="black" stroke-width="2" stroke-linecap="round" stroke-linejoin="round"/>
<path d="M15 9L12 12" stroke="black" stroke-width="2" stroke-linecap="round" stroke-linejoin="round"/>
</g>
<defs>
<clipPath id="clip0_4671_12843">
<rect width="24" height="24" fill="white"/>
</clipPath>
</defs>
</svg>
