<svg width="24" height="24" viewBox="0 0 24 24" fill="none" xmlns="http://www.w3.org/2000/svg">
<g clip-path="url(#clip0_2451_16347)">
<mask id="mask0_2451_16347" style="mask-type:luminance" maskUnits="userSpaceOnUse" x="0" y="0" width="24" height="24">
<path d="M24 0H0V24H24V0Z" fill="white"/>
</mask>
<g mask="url(#mask0_2451_16347)">
<path d="M22 12.3397L17 21.3397H7L2 12.3397L7 3.33972L17 3.33973L22 12.3397Z" fill="#F4A261"/>
<mask id="mask1_2451_16347" style="mask-type:alpha" maskUnits="userSpaceOnUse" x="2" y="2" width="20" height="20">
<mask id="mask2_2451_16347" style="mask-type:luminance" maskUnits="userSpaceOnUse" x="2" y="2" width="20" height="20">
<path d="M22 2H2V22H22V2Z" fill="white"/>
</mask>
<g mask="url(#mask2_2451_16347)">
<mask id="mask3_2451_16347" style="mask-type:luminance" maskUnits="userSpaceOnUse" x="2" y="2" width="20" height="20">
<path d="M22 2H2V22H22V2Z" fill="white"/>
</mask>
<g mask="url(#mask3_2451_16347)">
<path d="M65.3335 88.6667L-41.3333 -18" stroke="#EF233C" stroke-width="2"/>
<path d="M65.3335 81.9999L-41.3333 -24.6667" stroke="#EF233C" stroke-width="2"/>
<path d="M65.3335 75.3332L-41.3333 -31.3335" stroke="#EF233C" stroke-width="2"/>
<path d="M65.3335 68.6667L-41.3333 -38" stroke="#EF233C" stroke-width="2"/>
<path d="M65.3335 61.9998L-41.3333 -44.6667" stroke="#EF233C" stroke-width="2"/>
<path d="M65.3335 55.3332L-41.3333 -51.3335" stroke="#EF233C" stroke-width="2"/>
<path d="M65.3335 48.6667L-41.3333 -58" stroke="#EF233C" stroke-width="2"/>
<path d="M65.3335 41.9999L-41.3333 -64.6667" stroke="#EF233C" stroke-width="2"/>
</g>
</g>
</mask>
<g mask="url(#mask1_2451_16347)">
<path d="M22 12.3397L17 21.3397H7L2 12.3397L7 3.33972L17 3.33973L22 12.3397Z" fill="#EF233C"/>
</g>
</g>
</g>
<defs>
<clipPath id="clip0_2451_16347">
<rect width="24" height="24" fill="white"/>
</clipPath>
</defs>
</svg>
