<svg width="24" height="24" viewBox="0 0 24 24" fill="none" xmlns="http://www.w3.org/2000/svg">
<path d="M6.79961 21L1.59961 12L6.79961 3H17.1996L22.3996 12L17.1996 21H6.79961Z" fill="#2A9D8F"/>
<mask id="mask0_2334_8476" style="mask-type:alpha" maskUnits="userSpaceOnUse" x="1" y="3" width="22" height="18">
<path d="M6.79998 21L1.59998 12L6.79998 3H17.2L22.4 12L17.2 21H6.79998Z" fill="#F77F00"/>
</mask>
<g mask="url(#mask0_2334_8476)">
<path d="M-3.72337 9.32092L-5.99988 10.5936L5.86349 30.4907L8.14 29.2179L-3.72337 9.32092Z" fill="black" fill-opacity="0.2"/>
<path d="M0.888695 6.73877L-1.38782 8.01147L10.4755 27.9085L12.7521 26.6358L0.888695 6.73877Z" fill="black" fill-opacity="0.2"/>
<path d="M5.50088 4.15661L3.22437 5.42932L15.0877 25.3263L17.3642 24.0536L5.50088 4.15661Z" fill="black" fill-opacity="0.2"/>
<path d="M14.724 -1.00891L12.4475 0.263794L24.3109 20.1608L26.5874 18.8881L14.724 -1.00891Z" fill="black" fill-opacity="0.2"/>
<path d="M10.1118 1.57458L7.83533 2.84729L19.6987 22.7443L21.9752 21.4716L10.1118 1.57458Z" fill="black" fill-opacity="0.2"/>
<path d="M19.3362 -3.58973L17.0597 -2.31702L28.9231 17.58L31.1996 16.3073L19.3362 -3.58973Z" fill="black" fill-opacity="0.2"/>
</g>
</svg>
