<svg width="24" height="24" viewBox="0 0 24 24" fill="none" xmlns="http://www.w3.org/2000/svg">
<path d="M6.79961 21L1.59961 12L6.79961 3H17.1996L22.3996 12L17.1996 21H6.79961Z" fill="#EF233C"/>
<mask id="mask0_2334_8308" style="mask-type:alpha" maskUnits="userSpaceOnUse" x="1" y="3" width="22" height="18">
<path d="M6.79998 21L1.59998 12L6.79998 3H17.2L22.4 12L17.2 21H6.79998Z" fill="#F77F00"/>
</mask>
<g mask="url(#mask0_2334_8308)">
<path d="M-3.42984 6.58772L-6.00012 8.02466L7.39412 30.4892L9.96439 29.0523L-3.42984 6.58772Z" fill="#FFBE0B"/>
<path d="M1.77792 3.67304L-0.792358 5.10999L12.6019 27.5746L15.1722 26.1376L1.77792 3.67304Z" fill="#FFBE0B"/>
<path d="M6.98434 0.756906L4.41406 2.19385L17.8083 24.6584L20.3786 23.2215L6.98434 0.756906Z" fill="#FFBE0B"/>
<path d="M17.3984 -5.07525L14.8281 -3.63831L28.2224 18.8263L30.7926 17.3893L17.3984 -5.07525Z" fill="#FFBE0B"/>
<path d="M12.1908 -2.15789L9.62048 -0.720947L23.0147 21.7436L25.585 20.3067L12.1908 -2.15789Z" fill="#FFBE0B"/>
<path d="M22.6062 -7.9887L20.0359 -6.55176L33.4301 15.9128L36.0004 14.4759L22.6062 -7.9887Z" fill="#FFBE0B"/>
</g>
</svg>
