<svg width="24" height="24" viewBox="0 0 24 24" fill="none" xmlns="http://www.w3.org/2000/svg">
<g clip-path="url(#clip0_1084_15718)">
<path d="M5.66536 17.5L1.33203 10L5.66536 2.5H14.332L18.6654 10L14.332 17.5H5.66536Z" fill="#F4A261"/>
<mask id="mask0_1084_15718" style="mask-type:alpha" maskUnits="userSpaceOnUse" x="1" y="2" width="18" height="16">
<path d="M5.66732 17.5L1.33398 10L5.66732 2.5H14.334L18.6673 10L14.334 17.5H5.66732Z" fill="#F77F00"/>
</mask>
<g mask="url(#mask0_1084_15718)">
<path d="M-3.10291 7.76753L-5 8.82812L4.88614 25.409L6.78323 24.3484L-3.10291 7.76753Z" fill="black" fill-opacity="0.2"/>
<path d="M0.740844 5.61568L-1.15625 6.67627L8.72989 23.2571L10.627 22.1965L0.740844 5.61568Z" fill="black" fill-opacity="0.2"/>
<path d="M4.58459 3.46395L2.6875 4.52454L12.5736 21.1054L14.4707 20.0448L4.58459 3.46395Z" fill="black" fill-opacity="0.2"/>
<path d="M12.2701 -0.84062L10.373 0.219971L20.2592 16.8008L22.1563 15.7402L12.2701 -0.84062Z" fill="black" fill-opacity="0.2"/>
<path d="M8.42639 1.31221L6.5293 2.3728L16.4154 18.9537L18.3125 17.8931L8.42639 1.31221Z" fill="black" fill-opacity="0.2"/>
<path d="M16.1139 -2.99138L14.2168 -1.93079L24.1029 14.6501L26 13.5895L16.1139 -2.99138Z" fill="black" fill-opacity="0.2"/>
</g>
</g>
<defs>
<clipPath id="clip0_1084_15718">
<rect width="24" height="24" fill="white"/>
</clipPath>
</defs>
</svg>
